<svg width="13" height="12" viewBox="0 0 13 12" fill="none" xmlns="http://www.w3.org/2000/svg">
<path d="M0.546236 0.490759C0.32824 0.49078 0.129905 0.689116 0.129883 0.907112V11.4547C0.129905 11.6727 0.32824 11.8711 0.546236 11.8711H11.649C11.867 11.8711 12.0653 11.6727 12.0654 11.4547V4.51551C12.0653 4.29751 11.867 4.09918 11.649 4.09916H9.8448V0.907112C9.84478 0.689116 9.64644 0.49078 9.42845 0.490759H5.4037C5.18373 0.487648 4.98141 0.687125 4.98141 0.907112C4.98141 1.1271 5.18373 1.32658 5.4037 1.32347H9.01209V11.0384H0.96259V1.32347H4.01585C4.23582 1.32658 4.43813 1.1271 4.43813 0.907112C4.43813 0.687125 4.23582 0.487648 4.01585 0.490759H0.546236ZM2.16828 2.01739C1.95025 2.02871 1.76218 2.2374 1.77354 2.45543C1.7849 2.67346 1.99363 2.86149 2.21165 2.8501H7.76303C7.983 2.85321 8.18532 2.65373 8.18532 2.43374C8.18532 2.21376 7.983 2.01428 7.76303 2.01739C5.89932 2.01739 4.02881 2.01739 2.16828 2.01739ZM2.16828 3.26645C1.95025 3.27777 1.76218 3.48647 1.77354 3.70449C1.7849 3.92252 1.99363 4.11055 2.21165 4.09916H5.82005C6.04001 4.10227 6.24233 3.90279 6.24233 3.6828C6.24233 3.46282 6.04001 3.26334 5.82005 3.26645C4.60421 3.26645 3.38086 3.26645 2.16828 3.26645ZM9.8448 4.93186H11.2326V11.0384H9.8448V4.93186ZM2.16828 7.01363C1.96512 7.03493 1.7942 7.22572 1.7953 7.42999V9.92811C1.79532 10.1461 1.99365 10.3444 2.21165 10.3445H7.76303C7.98103 10.3444 8.17937 10.1461 8.17939 9.92811V7.42999C8.17937 7.21199 7.98103 7.01365 7.76303 7.01363C5.89932 7.01363 4.02881 7.01363 2.16828 7.01363ZM2.628 7.84634H7.34668V9.51175H2.628V7.84634Z" fill="white"/>
</svg>
