<svg width="1440" height="1409" viewBox="0 0 1440 1409" fill="none" xmlns="http://www.w3.org/2000/svg">
<g opacity="0.14">
<path d="M1355.75 -396.276C1306.71 -396.84 1253.03 -395.693 1257.14 -312.572C1260.78 -239.014 1146.54 -226.161 1103.07 -249.16C1059.93 -271.988 1038.27 -42.2976 1099.37 22.7441C1139.08 65.0018 1265.54 105.56 1205.3 193.322C1189.76 215.954 1167.59 229.467 1151.95 251.661C1135.07 275.669 1125.6 305.79 1107.31 328.834C1084.85 357.134 1051.36 376.431 1026.27 341.656C995.965 299.683 993.222 231.084 981.158 179.321C975.473 154.901 963.029 101.489 933.874 113.797C915.323 121.635 909.977 148.782 907.959 169.841C901.683 235.288 879.312 307.109 896.547 371.776C907.029 411.092 925.718 447.49 924.182 490.357C922.642 532.843 901.123 568.22 868.768 582.418C839.525 595.253 806.585 587.84 778.656 606.103C743.487 629.096 720.53 682.907 713.602 729.648C691.821 876.567 868.259 824.316 932.672 860.194C1009.19 902.833 917.434 1017.54 873.708 1041.98C819.701 1072.16 788.091 1008.82 741.818 988.845C695.971 969.06 626.444 1022.65 591.495 966.65C555.956 909.706 612.423 826.085 577.947 771.976C562.026 746.953 532.989 754.138 511.182 759.598C485.108 766.129 461.366 772.28 437.372 754.005C419.576 740.454 399.547 704.245 376.441 706.268C348.955 708.671 341.251 763.973 335.556 789.002C327.631 823.84 319.907 862.997 287.907 873.34C261.591 881.837 218.662 876.206 197.518 853.263C169.076 822.375 196.876 763.104 207.738 729.61C221.471 687.2 248.87 615.266 220.629 573.198C198.802 540.687 158.604 549.698 128.637 548.188C101.485 546.819 86.7452 529.019 64.0453 513.515C23.1084 485.556 -26.4822 480.686 -72.0156 473.762" stroke="white" stroke-miterlimit="10"/>
<path d="M1372.18 -350.62C1357.95 -367.431 1340.53 -387.177 1319.15 -383.011C1297.66 -378.857 1285.76 -353.841 1279.09 -330.734C1272.7 -308.654 1270.65 -283.739 1257.1 -265.978C1243.74 -248.508 1222.9 -240.036 1204.57 -234.221C1183.28 -227.455 1162.02 -226.77 1140.19 -226.453C1121.61 -226.18 1099.34 -226.586 1086.77 -206.662C1063.78 -170.27 1075.87 -82.2986 1088.64 -42.6471C1104.71 7.2391 1144.65 28.8309 1179.83 53.7391C1215.57 79.1039 1245.16 125.154 1227.78 178.027C1212.08 225.782 1171.41 250.12 1146.88 289.594C1132.9 312.079 1122.14 341.135 1128.98 369.803C1136.65 402.004 1162.28 418.979 1184.28 434.369C1206.74 450.089 1224.18 466.018 1235.67 495.296C1246.34 522.43 1252.76 554.7 1274.8 571.732C1323.08 609.044 1384.77 545.956 1420.08 620.09C1428.52 637.789 1434.18 657.503 1440 676.654" stroke="white" stroke-miterlimit="10"/>
<path d="M1353.69 559.976C1313.33 570.864 1271.52 579.462 1255.35 522.068C1248.4 497.382 1244.68 471.7 1231.8 450.203C1219.19 429.144 1200.99 418.111 1183.72 404.135C1151.64 378.199 1135.31 327.406 1164.25 288.325C1177.21 270.805 1195.45 260.481 1209.49 244.355C1225.76 225.681 1238 201.667 1245.35 175.82C1259.1 127.354 1246.27 85.2231 1216.26 51.5323C1188.62 20.5112 1151.35 11.8871 1121.76 -14.803C1091.64 -41.9813 1085.18 -106.541 1087.36 -149.376C1090.38 -208.406 1142.56 -196.301 1177.41 -198.869C1223.57 -202.28 1252.95 -219.934 1272.94 -273.238C1281.23 -295.369 1288.34 -323.867 1308.53 -333.391C1327.47 -342.32 1350.91 -333.049 1369.92 -328.895C1380.24 -326.65 1390.57 -324.6 1400.93 -322.744" stroke="white" stroke-miterlimit="10"/>
<path d="M1368.07 -271.989C1351.51 -280.664 1329.66 -294.507 1311.3 -286.263C1294.63 -278.781 1287.44 -255.401 1279.39 -237.854C1256.28 -187.537 1226.41 -186.434 1183.39 -183.269C1144.71 -180.422 1106.92 -157.188 1108.54 -102.394C1110.09 -49.7998 1146.24 -28.3919 1180.69 -11.556C1252.26 23.403 1281.15 129.688 1250.67 215.097C1235.89 256.499 1203.46 268.617 1183.34 303.037C1158.46 345.568 1189.58 373.9 1219 390.368C1260.08 413.355 1254 454.186 1265.32 501.39C1277.97 554.149 1315.89 545.778 1352.18 542.164C1361.58 541.225 1370.99 540.42 1380.4 539.684" stroke="white" stroke-miterlimit="10"/>
<path d="M1368.07 499.1C1338.8 514.604 1292.31 525.143 1273.64 482.791C1256.4 443.665 1280.32 396.633 1242.48 371.122C1214.3 352.099 1187.9 330.824 1216.84 291.502C1242.46 256.682 1263.67 236.219 1269.45 186.238C1274.18 145.211 1279.89 92.4328 1272.22 51.8999C1264.38 10.4665 1231.49 -2.00026 1204.78 -21.4487C1179.98 -39.4767 1137.9 -55.0571 1134.42 -96.2748C1130.03 -148.019 1167.9 -160.479 1200.64 -158.419C1245.13 -155.59 1261.54 -176.428 1284.62 -219.808C1307.07 -262.021 1342.44 -239.789 1376.65 -240.867C1385.49 -241.146 1394.28 -242.522 1403.01 -244.101" stroke="white" stroke-miterlimit="10"/>
<path d="M1370.13 -188.286C1344.02 -207.449 1304.95 -240.144 1288.64 -190.974C1282.58 -172.731 1280.37 -159.902 1264.6 -151.614C1250.22 -144.005 1232.43 -139.224 1216.89 -137.435C1196.6 -135.102 1134.36 -140.27 1154.19 -90.1746C1165.21 -62.2733 1214.36 -48.1324 1235.84 -36.8451C1274.91 -16.344 1276.62 20.2257 1282.9 67.7276C1288.1 107.094 1291.24 151.019 1285.47 190.519C1279.89 228.528 1266.14 262.935 1242.43 287.976C1234.5 296.353 1216.85 310.095 1223.31 325.389C1229.31 339.594 1253.67 340.558 1263.88 348.605C1290.21 369.315 1279.98 420.121 1290.15 452.099C1304.81 498.174 1339.97 482.987 1368.98 468.333C1375.51 465.035 1382.03 461.712 1388.59 458.523" stroke="white" stroke-miterlimit="10"/>
<path d="M1359.86 423.006C1347.53 436.323 1321.85 442.702 1308.02 431.25C1294.03 419.664 1293.61 394.864 1292.39 375.003C1290.76 348.37 1287.11 337.527 1268.72 323.418C1258.64 315.681 1256.91 316.823 1257.12 300.767C1257.28 286.759 1261.82 283.487 1265.75 271.249C1266.87 271.001 1267.97 270.691 1269.07 270.329C1273.47 254.476 1287.37 242.631 1292.07 226.359C1297.63 207.12 1291.81 186.587 1299.92 168.458C1307.8 150.88 1324.61 141.634 1334.7 126.073C1344.06 111.653 1362.34 96.4978 1368.08 80.5877" stroke="white" stroke-miterlimit="10"/>
<path d="M1366.02 156.676C1341.15 147.665 1323.97 166.416 1318.88 196.429C1315.16 218.35 1323.7 246.632 1307.99 263.189C1294.49 277.399 1272.2 283.157 1290.49 311.559C1297.25 322.054 1309.01 323.221 1316.05 332.619C1323.93 343.151 1320.5 355.65 1323.17 368.307C1330.58 403.431 1372.21 397.711 1394.78 392.568" stroke="white" stroke-miterlimit="10"/>
<path d="M1357.8 265.744C1332.9 265.852 1299.48 269.061 1302.7 308.421C1311.26 312.175 1320.06 315.174 1329.03 316.347C1350.5 319.144 1369.26 327.33 1390.66 331.693" stroke="white" stroke-miterlimit="10"/>
<path d="M1343.42 52.6799C1337.32 65.7745 1320.17 106.961 1303.33 100.435C1288.33 94.6269 1294.32 51.5258 1293.81 37.3976C1291.9 -14.93 1275.94 -50.5295 1232.67 -60.891C1215.48 -64.9937 1190.93 -68.8301 1179.03 -86.9787C1163.85 -110.149 1191.92 -112.02 1205.34 -111.798C1245.31 -111.164 1275 -114.487 1291.71 -163.796C1300.08 -188.527 1318.33 -209.979 1340.88 -195.749C1350.12 -189.915 1356.19 -179.598 1366.55 -175.933C1381.36 -170.701 1398.73 -176.865 1413.29 -180.689" stroke="white" stroke-miterlimit="10"/>
<path d="M1376.29 -140.092C1358.92 -157.125 1329.13 -166.846 1309.04 -150.441C1299.32 -142.502 1297.64 -128.279 1289.72 -118.767C1280.18 -107.321 1267.64 -109.889 1255.91 -105.121C1221.3 -91.1319 1270.19 -74.1755 1280.18 -65.7354C1299.93 -49.0263 1298.01 -13.7375 1307.74 10.638C1327.47 60.0994 1365.34 16.5924 1388.62 -5.65886" stroke="white" stroke-miterlimit="10"/>
<path d="M1363.97 653.826C1348.96 622.177 1333 604.998 1303.08 599.957C1276.53 595.487 1255.38 592.899 1242.13 560.642C1231.38 534.478 1228.13 504.624 1204.88 490.362C1182.65 476.722 1162.36 475.435 1147.12 447.876C1134.79 425.574 1128.95 383.069 1105.82 373.411C1083.32 364.02 1058.91 389.055 1036.44 390.171C983.988 392.784 987.229 281.103 972.977 238.965C968.632 226.137 952.224 176.987 935.379 184.216C918.749 191.349 923.258 249.283 923.335 264.863C923.489 296.708 924.583 328.814 931.178 359.746C937.936 391.452 949.178 421.611 953.061 454.23C961.042 521.295 923.643 603.033 875.172 634.269C848.877 651.219 822.382 642.43 794.382 645.049C763.999 647.897 744.335 674.13 738.696 710.497C708.564 904.835 1010.66 712.266 999.832 909.794C994.902 999.63 932.908 1068.22 865.974 1090.34C827.924 1102.92 785.929 1101.85 754.385 1069.67C734.659 1049.54 722.071 1017.61 694.061 1014.8C646.186 1010 568.384 1058.37 542.393 978.438C526.21 928.659 593.082 836.084 536.913 807.067C511.809 794.105 483.26 806.217 457.309 798.982C432.313 792.007 417.594 766.407 395.434 753.287C370.269 738.379 361.918 765.849 355.817 791.74C347.199 828.31 340.409 868.037 313.704 891.557C276.213 924.569 195.068 927.6 157.85 892.54C108.675 846.249 159.765 781.512 174.248 731.213C183.302 699.774 193.055 664.694 196.588 631.555C200.101 598.581 184.407 592.766 161.193 587.573C134.123 581.511 111.222 572.107 86.6479 557.008C64.7953 543.584 45.6802 542.518 21.6193 543.818C-2.70868 545.131 -24.2993 542.043 -47.3176 532.024" stroke="white" stroke-miterlimit="10"/>
<path d="M8.13269 585.341C27.4533 558.53 44.545 554.529 69.4893 573.47C92.7079 591.105 108.521 597.807 135.396 602.221C205.91 613.787 169.857 688.461 152.252 738.937C135.453 787.13 101.408 862.045 136.844 909.23C153.458 931.373 179.332 932.902 202.161 934.119C226.93 935.444 252.491 936.896 277.081 931.988C334.642 920.479 354.656 846.769 375.877 788.259C390.606 747.675 434.763 822.73 470.472 825.532C508.476 828.519 546.706 827.467 536.209 887.942C528.444 932.705 501.758 996.726 544.231 1027.11C580.33 1052.93 624.99 1040.92 664.053 1037.84C708.307 1034.34 723.838 1064.01 754.252 1097.04C787.896 1133.58 830.954 1133.9 871.639 1116.26C955.557 1079.88 1035.75 977.556 1009.25 860.758C997.269 807.974 968.524 788.329 925.836 788.76C883.148 789.191 843.105 789.235 800.843 779.698C790.782 777.422 778.975 780.022 770.696 772.596C742.706 747.504 750.153 697.212 788.296 679.907C818.849 666.032 854.347 682.963 883.523 664.536C909.325 648.239 921.05 607.059 937.725 579.646C959.393 544.021 963.784 516.691 965.885 472.937C967.97 429.455 995.215 429.182 1024.23 420.013C1052.44 411.135 1086.37 388.643 1110.27 420.064C1132.42 449.233 1136.67 489.544 1165.04 512.905C1176.97 522.721 1189.9 529.881 1199.91 542.943C1210.77 557.103 1216.43 574.979 1223.63 591.98C1243.58 639.095 1273.49 635.671 1310.86 647.256C1349.62 659.266 1391.01 715.419 1414.7 752.274" stroke="white" stroke-miterlimit="10"/>
<path d="M1412.24 785.658C1378.13 742.956 1326.84 700.75 1279.31 688.499C1259.19 683.305 1239.21 677.383 1223.93 659.26C1208.66 641.137 1200.51 615.987 1189.97 593.901C1168.92 549.798 1137.14 508.929 1107.87 472.854C1073.17 430.076 1022.7 419.905 996.745 480.692C986.14 505.517 982.365 533.862 972.843 559.322C962.264 587.617 946.569 612.398 931.711 637.389C920.058 656.977 908.636 683.045 891.689 696.514C874.355 710.268 851.45 706.844 831.847 707.009C820.209 707.11 780.49 703.02 774.763 721.448C768.837 740.611 802.44 754.282 812.059 758.227C860.848 778.252 907.553 754.194 956.579 763.357C1013.44 773.985 1032.07 824.74 1030.25 889.864C1028.42 954.842 1020.49 1012.94 980.835 1059.93C946.857 1100.21 900.116 1132.61 856.642 1154.67C806.99 1179.85 771.199 1171.52 735.763 1122.74C701.256 1075.25 665.3 1063.14 614.529 1065.33C571.024 1067.23 506.725 1069.71 492.812 1004.1C482.391 954.931 515.337 892.635 464.344 868.278C444.68 858.881 419.119 854.328 398.607 861.988C377.936 869.667 366.442 891.436 354.127 911.69C321.232 965.793 281.4 994.76 225.733 992.857C179.163 991.259 127.718 978.602 98.9938 928.843C63.8911 868.031 88.2858 806.946 107.668 745.931C115.402 721.575 123.188 691.809 110.801 667.655C98.7165 644.104 73.4025 636.292 52.5668 632.341C29.7539 628.01 6.48392 628.315 -16.5344 628.473" stroke="white" stroke-miterlimit="10"/>
<path d="M-6.24691 666.508C22.9035 647.434 61.781 657.041 75.2879 695.957C90.4281 739.565 70.2498 766.826 60.7025 807.866C50.6672 850.986 46.194 882.559 65.7355 921.576C80.701 951.462 84.8507 992.819 78.9651 1026.92C74.4919 1052.86 67.3584 1075.92 53.7487 1096.62C23.7047 1142.33 0.809584 1189.5 -20.627 1242.29" stroke="white" stroke-miterlimit="10"/>
<path d="M22.5126 1252.43C35.4597 1207.36 54.6366 1170.43 72.8684 1128.84C86.8735 1096.89 87.3255 1050.04 107.951 1023.5C129.834 995.356 165.563 1011.08 191.663 1019.17C228.127 1030.47 267.158 1036.74 303.273 1019.88C344.266 1000.73 358.066 952.921 390.123 921.329C418.077 893.776 456.019 906.11 468.617 947.962C480.101 986.091 464.509 1032.3 488.133 1065.38C512.399 1099.31 554.898 1097.53 588.218 1096.9C625.047 1096.2 663.914 1099.89 698.267 1117.75C753.82 1146.64 794.312 1307.07 802.958 1393.27" stroke="white" stroke-miterlimit="10"/>
<path d="M764.615 1389.28C761.608 1307.87 743.177 1277.68 729.547 1220.65C715.11 1183.75 700.593 1165.97 669.039 1154.85C642.924 1145.64 618.38 1131.28 590.637 1134.04C554.127 1137.67 518.295 1154.53 483.891 1129.75C454.422 1108.53 445.265 1074.9 446.744 1035.08C447.772 1007.31 447.289 952.484 414.117 953.739C384.643 954.855 374.767 1010.55 355.94 1031.1C329.865 1059.61 284.769 1070.39 250.821 1071.43C224.706 1072.23 201.827 1054.82 175.84 1053.32C130.43 1050.68 123.558 1088.37 114.812 1134.48C102.651 1198.76 74.707 1244.77 35.0027 1287.57C36.2456 1288.23 37.6348 1288.37 38.9469 1287.95" stroke="white" stroke-miterlimit="10"/>
<path d="M71.5322 1389.7C103.272 1357.39 132.495 1179.93 134.02 1150.98C135.335 1125.93 135.468 1109.23 155.534 1096.11C192.896 1071.67 230.613 1095.92 266.193 1112.59C283.952 1120.91 295.934 1121.83 314.402 1116.12C329.84 1111.34 348.889 1110.27 360.665 1095.98C373.653 1080.21 379.991 1061.45 401.792 1070.94C419.705 1078.72 424.831 1098.4 427.809 1119.31C432.319 1150.9 432.606 1181.02 451.382 1205.77C476.948 1239.46 545.27 1342.85 570.158 1378.04" stroke="white" stroke-miterlimit="10"/>
<path d="M165.368 1378.5C177.542 1288.49 139.844 1198.31 148.605 1165.39C158.538 1128.08 180.575 1110.06 210.783 1117.49C236.2 1123.75 258.607 1143.02 284.296 1146.03C297.397 1147.55 311.757 1147.22 324.658 1143.95C337.662 1140.65 349.689 1130 362.852 1128.42C417.425 1121.96 374.067 1330.5 391.024 1386.81" stroke="white" stroke-miterlimit="10"/>
<path d="M191.02 1379.42C190.779 1366.47 198.414 1320.45 195.684 1285.68C188.984 1236.36 178.603 1187.96 178.993 1176.33C179.912 1148.79 206.633 1143.29 223.807 1148.24C242.886 1153.73 261.452 1162.05 281.045 1164.89C300.895 1167.76 319.563 1160.84 339.197 1161.31C374.834 1162.16 362.138 1342.54 362.328 1377.11" stroke="white" stroke-miterlimit="10"/>
<path d="M619.724 1378.96C604.941 1270.49 528.116 1221.12 517.491 1198.83C504.651 1171.93 528.789 1159.95 546.81 1157.01C582 1151.31 624.591 1142.63 652.432 1175.86C681.854 1210.96 732.663 1331.81 732.663 1408.43" stroke="white" stroke-miterlimit="10"/>
<path d="M881.9 1376.51C893.929 1230.45 858.779 1219.86 859.216 1198.01C859.637 1176.69 885.28 1167.83 898.119 1162.08C948.824 1139.37 982.15 1116.84 1011.11 1058.38C1038.32 1003.38 1065.23 939.636 1056.05 873.288C1049.95 829.198 1032.05 758.912 993.962 742.184C976.239 734.391 912.155 749.844 914.605 713.585C916.048 692.215 938.383 670.084 949.096 655.519C964.504 634.593 978.781 613.102 986.793 586.273C999.493 543.742 999.247 480.375 1049.53 486.602C1098.79 492.696 1131.62 546.051 1149.85 597.7C1168.64 650.966 1190.46 699.749 1237.63 719.99C1258.74 729.051 1281.46 730.002 1302.56 738.931C1329.61 750.345 1350.07 774.867 1368.11 801.404C1379.67 818.405 1399.62 849.69 1410.28 867.553" stroke="white" stroke-miterlimit="10"/>
<path d="M1413.71 957.794C1392.77 910.54 1329.01 794.797 1285.39 777.625C1248.49 763.097 1217.03 758.931 1184.7 729.235C1168.53 714.378 1152.45 697.174 1142.51 675.164C1132.83 653.731 1131 629.342 1125.39 606.197C1114.91 563.026 1075.93 514.973 1039.98 553.641C1025.63 569.082 1018.38 593.375 1008.14 612.671C995.975 635.557 979.551 653.953 966.814 676.134C939.297 724.067 1017.41 723.509 1039.47 737.428C1077.95 761.709 1073.32 831.151 1078.34 876.808C1085.4 941.038 1076.41 997.29 1046.98 1051.55C1023.52 1094.84 991.415 1130.44 951.043 1147.44C937.212 1153.27 920.408 1154.52 908.56 1165.83C889.439 1184.14 915.013 1225.03 905.851 1251.12C897.398 1275.22 905.851 1339 897.312 1380.9" stroke="white" stroke-miterlimit="10"/>
<path d="M913.852 1404.84C910.469 1344.58 942.389 1191.51 963.379 1175.99C980.948 1162.97 1001.86 1161.87 1020.78 1153.35C1064.31 1133.74 1087.28 1077.22 1098.46 1024.96C1108.46 978.21 1105.44 929.497 1102.66 881.817C1100.03 836.795 1097.19 789.946 1073.73 753.053C1062.47 735.348 1047.99 722.355 1031.52 712.97C1021.43 707.219 1005.78 703.769 1000.79 689.863C987.332 652.336 1037.58 585.639 1063.49 576.178C1105.5 560.826 1106.93 640.991 1116.32 672.107C1130.9 720.421 1165.54 754.543 1202.71 775.304C1236.78 794.328 1275.73 797.746 1308.74 819.8C1350.28 847.556 1356.19 916.668 1370.32 966.815C1376.21 987.741 1402.09 1022.59 1408.31 1043.34" stroke="white" stroke-miterlimit="10"/>
<path d="M1408.8 1050.12C1366.54 985.962 1340.77 884.011 1311.14 854.721C1283.43 827.321 1244.37 825.552 1211.84 811.785C1181.5 798.969 1146.44 779.781 1125.28 748.925C1100.84 713.312 1107.3 662.221 1085.91 626.051C1065.37 591.32 1026.81 622.5 1023.39 657.916C1019.22 701.163 1062.81 713.084 1083.81 734.777C1114.39 766.356 1116.68 825.279 1121.28 870.536C1126.44 921.266 1129.62 971.507 1123.16 1022.32C1117.51 1066.86 1107.5 1135.74 1068.66 1154.48C1053.53 1161.77 1036.53 1159.11 1021.46 1166.7C1000.14 1177.45 988.831 1204.11 980.018 1228.81C973.727 1246.45 946.556 1356.95 962.344 1404.84" stroke="white" stroke-miterlimit="10"/>
<path d="M1031.51 1406.04C1012.34 1329.02 1062.5 1189.69 1091.08 1172.36C1111.34 1160.07 1128.27 1154.85 1135.87 1125.71C1148.29 1078.08 1151.17 1013.37 1147.4 963.695C1144.83 929.598 1117.88 847.27 1144.78 821.538C1160.93 806.084 1187.83 825.133 1203.43 833.104C1223.07 843.136 1243.11 850.022 1263.21 858.317C1326.18 884.316 1378.2 998.859 1406.84 1065.77" stroke="white" stroke-miterlimit="10"/>
<path d="M1412.93 1071.37C1413.22 1073.51 1388.65 1065.77 1377.84 1050.64C1357.54 1000.97 1333 983.092 1310.52 934.899C1300.28 912.946 1288.08 903.275 1268.99 895.476C1250.59 887.949 1232.1 874.708 1213.22 869.845C1159.23 855.951 1172.95 948.907 1180.49 983.986C1186.94 1013.99 1189.18 1042.33 1178.84 1071.37C1170.33 1095.29 1160.86 1115.24 1156.35 1141.17C1150.75 1173.37 1142.77 1185.81 1121.2 1204.11C1091.18 1229.59 1100.05 1344.55 1103.07 1384.73C1104.26 1385.34 1107.45 1395.26 1108.69 1394.86" stroke="white" stroke-miterlimit="10"/>
<path d="M1146.92 1392.07C1154.3 1376.37 1146.92 1261.58 1185.69 1193.87C1187.49 1178.34 1181.28 1163.06 1183.7 1147.77C1186.03 1133.11 1195.81 1122.75 1201.59 1110.21C1206.86 1098.8 1210.27 1085.78 1212.91 1073.07C1218.14 1047.92 1219.19 1012.94 1216.11 987.119C1213.16 962.35 1192.36 933.657 1220.31 918.824C1229.89 913.751 1245.48 912.293 1255.53 915.394C1268.79 919.49 1273.71 933.194 1282.2 945.026C1290.49 948.14 1298.63 972.376 1304.46 981.032C1312.83 993.524 1320.1 1003.55 1326.33 1017.96C1334.19 1036.13 1343.52 1048.08 1356.51 1060.8C1374.31 1078.23 1384.55 1081.44 1407.11 1082.49" stroke="white" stroke-miterlimit="10"/>
<path d="M1413.22 1127.32C1360.65 1127.32 1326.57 1085.1 1310.55 1046.79C1299.73 1020.9 1291.97 961.183 1255.4 977.036C1227.9 988.907 1251.15 1053.13 1241.4 1080.59C1229.62 1113.78 1192.46 1131.48 1200.23 1171.41C1205.22 1197.01 1214.37 1215.16 1208.45 1242.39C1203.1 1267.12 1194.18 1366.87 1185.64 1390.07" stroke="white" stroke-miterlimit="10"/>
<path d="M1229.45 1402.74C1246.15 1225.39 1215.86 1181.77 1223.99 1152.1C1231.72 1123.87 1255.83 1107.84 1257.58 1075.7C1258.31 1062.43 1251.58 992.369 1278.46 1024.51C1298.73 1048.73 1286.9 1087.66 1313.81 1109.85C1344.88 1135.48 1382.21 1153.13 1419.43 1150.98" stroke="white" stroke-miterlimit="10"/>
<path d="M1415.19 1187.83C1396.5 1190.79 1336.21 1162.64 1323.1 1149.87C1305.74 1132.93 1295.73 1117.53 1288.6 1091.79C1276.06 1046.51 1264.8 1085.29 1261.92 1112.21C1259.19 1137.83 1233.03 1151.72 1241.63 1179.63C1247.83 1199.73 1260.52 1210.9 1263.03 1234.03C1265.7 1258.71 1259.73 1370.9 1255.49 1394.92" stroke="white" stroke-miterlimit="10"/>
<path d="M1286.45 1399.09C1286.45 1387.68 1284.93 1215.02 1281.28 1204.7C1277.95 1195.28 1270.11 1189.8 1266.45 1181.48C1259.62 1165.97 1263.92 1146.68 1267.78 1131.13C1282.8 1126.05 1300.43 1160.27 1311.37 1170.17C1320.69 1178.6 1332.72 1187.22 1342.41 1194.31C1355.89 1204.18 1401.88 1206.68 1409.78 1220.17" stroke="white" stroke-miterlimit="10"/>
<path d="M1422.56 1304.68C1410.46 1299.9 1328.92 1212.69 1321.31 1203.67C1314.71 1195.84 1303.63 1179.28 1296.33 1171.67C1286.93 1161.88 1276.75 1154.42 1273.64 1168.63C1272 1176.15 1284.05 1185.45 1288.08 1191.03C1294.12 1199.41 1296.94 1209.35 1302.11 1219.23C1315.42 1244.77 1335.58 1291.11 1335.58 1395.96" stroke="white" stroke-miterlimit="10"/>
</g>
</svg>
