<svg width="164" height="185" viewBox="0 0 164 185" fill="none" xmlns="http://www.w3.org/2000/svg">
<path d="M61.3877 173.244L59.2749 184.49L56.5529 183.975L57.4094 179.526L52.4984 178.609L51.6609 183.058L48.9579 182.543L51.0708 171.296L53.7737 171.793L52.9172 176.413L57.8092 177.33L58.6848 172.728L61.3877 173.244Z" fill="white"/>
<path d="M35.5952 165.492L43.7042 168.948L39.25 179.488L31.2933 176.108L32.1689 174.008L37.651 176.338L38.5266 174.256L34.2628 172.442L35.1384 170.399L39.3832 172.194L40.335 169.979L34.7006 167.592L35.5952 165.492Z" fill="white"/>
<path d="M17.0172 167.363L19.8154 155.333L22.2328 157.033L21.6047 159.611L25.4117 162.265L27.6197 160.814L29.8658 162.398L19.5108 169.272L17.0172 167.363ZM23.5272 163.544L21.0146 161.826L20.0438 165.759L23.5272 163.544Z" fill="white"/>
<path d="M4.54919 156.46L11.2686 150.216L7.30927 145.939L8.98435 144.392L14.79 150.693L6.41462 158.484L4.54919 156.46Z" fill="white"/>
<path d="M3.82612 137.232L-3.90209 142.158L-1.77017 145.519L-3.67367 146.741L-9.42224 137.652L-7.51874 136.43L-5.36779 139.829L2.37946 134.922L3.82612 137.232Z" fill="white"/>
<path d="M3.82617 48.2334L-0.608988 55.8711L-10.4691 50.1046L-6.12914 42.6196L-4.16853 43.7462L-7.15703 48.9017L-5.21546 50.0473L-2.89319 46.0375L-0.970652 47.1641L-3.29292 51.1739L-1.19907 52.3768L1.86556 47.0877L3.82617 48.2334Z" fill="white"/>
<path d="M10.8119 22.8956C11.3036 22.3967 11.8919 22.004 12.5406 21.7419C13.1894 21.4799 13.8848 21.3539 14.5839 21.3718C15.2831 21.3897 15.9711 21.5511 16.6057 21.846C17.2403 22.1409 17.8079 22.5631 18.2736 23.0865L16.3701 24.9005C16.1215 24.6241 15.8203 24.4005 15.4841 24.2428C15.148 24.0851 14.7838 23.9965 14.413 23.9822C14.0422 23.968 13.6724 24.0284 13.3252 24.1598C12.9781 24.2913 12.6607 24.4912 12.3918 24.7477C11.8546 25.396 11.5649 26.2148 11.5744 27.0578C11.5839 27.9007 11.8921 28.7128 12.4437 29.3488C12.9953 29.9847 13.7544 30.4032 14.5853 30.5292C15.4162 30.6553 16.2648 30.4808 16.9792 30.0368C17.2733 29.8102 17.5182 29.5256 17.6987 29.2006C17.8793 28.8757 17.9916 28.5172 18.0291 28.1471C18.0665 27.777 18.0282 27.4031 17.9164 27.0483C17.8046 26.6936 17.6217 26.3656 17.3789 26.0843L19.4347 24.4231C19.8886 24.9579 20.2283 25.5804 20.4328 26.2521C20.6374 26.9238 20.7024 27.6305 20.6239 28.3284C20.5454 29.0264 20.3251 29.7008 19.9765 30.3099C19.6279 30.919 19.1584 31.4499 18.5972 31.8698C17.3985 32.8043 15.8885 33.243 14.3775 33.0955C12.8665 32.948 11.4692 32.2257 10.4726 31.0769C9.47598 29.9281 8.95584 28.4399 9.01893 26.9184C9.08202 25.3968 9.72362 23.9574 10.8119 22.8956Z" fill="white"/>
<path d="M25.4686 12.7175L29.9228 20.7371L34.9861 17.9112L36.0901 19.9161L28.6094 24.0786L23.0702 14.0541L25.4686 12.7175Z" fill="white"/>
<path d="M41.7474 5.31923L39.1458 6.2439L42.96 17.0427L45.5617 16.118L41.7474 5.31923Z" fill="white"/>
<path d="M57.8854 13.0999L54.3259 5.08027L54.2497 5.09936L55.5061 13.4627L52.9934 13.8255L51.2993 2.50254L55.5251 1.87243L58.6468 9.14736L58.7039 9.12826L59.4653 1.2805L63.615 0.650391L65.3091 11.9733L62.5871 12.3934L61.3308 4.03008H61.2546L60.2077 12.7371L57.8854 13.0999Z" fill="white"/>
<path d="M80.7275 1.0132L84.3252 12.8135L81.3937 12.5652L80.6324 10.0067L76.0449 9.62475L74.8837 11.9924L72.1427 11.7633L77.6629 0.74585L80.7275 1.0132ZM76.9205 7.61987L79.9281 7.8871L78.7859 4.06824L76.9205 7.61987Z" fill="white"/>
<path d="M92.9098 14.9517L95.5366 6.16836L91.7296 5.0227L92.3768 2.84595L102.656 5.92013L102.009 8.09688L98.1444 6.95122L95.5366 15.7537L92.9098 14.9517Z" fill="white"/>
<path d="M113.772 24.0596L106.044 19.8207L111.526 9.7771L119.102 13.9206L118.017 15.9255L112.801 13.0613L111.716 15.0471L115.79 17.2621L114.705 19.2288L110.65 16.9947L109.508 19.1333L114.857 22.0547L113.772 24.0596Z" fill="white"/>
<path d="M140.041 31.6021L134.749 42.734L132.845 40.5763L134.006 38.1705L130.904 34.7717L128.429 35.7264L126.526 33.7024L137.947 29.3298L140.041 31.6021ZM132.864 33.9697L134.901 36.1846L136.671 32.5568L132.864 33.9697Z" fill="white"/>
<path d="M151.119 46.6484C151.514 47.2271 151.787 47.8808 151.921 48.5694C152.054 49.2579 152.046 49.9666 151.896 50.6519C151.746 51.3371 151.458 51.9841 151.05 52.5534C150.641 53.1226 150.12 53.6018 149.52 53.9614L148.111 51.7465C148.732 51.3566 149.174 50.7367 149.342 50.0216C149.509 49.3065 149.388 48.5541 149.006 47.9277C148.475 47.2714 147.728 46.8268 146.899 46.6737C146.07 46.5206 145.214 46.669 144.484 47.0924C143.755 47.5158 143.2 48.1863 142.919 48.9834C142.638 49.7805 142.65 50.6519 142.953 51.441C143.123 51.7716 143.357 52.0647 143.642 52.303C143.927 52.5413 144.257 52.7201 144.612 52.8286C144.966 52.9372 145.339 52.9734 145.708 52.9352C146.077 52.8969 146.435 52.7849 146.76 52.6058L147.978 54.9353C147.367 55.2634 146.695 55.4636 146.004 55.5237C145.313 55.5837 144.618 55.5022 143.959 55.2844C143.3 55.0666 142.693 54.7169 142.173 54.2564C141.653 53.7959 141.232 53.2344 140.935 52.6058C140.148 51.241 139.933 49.6182 140.338 48.0946C140.743 46.5709 141.735 45.2712 143.096 44.4812C144.456 43.6912 146.074 43.4756 147.593 43.882C149.112 44.2885 150.407 45.2836 151.195 46.6484" fill="white"/>
<path d="M147.464 66.7166L156.182 63.9098L154.964 60.11L157.134 59.4226L160.408 69.6763L158.257 70.3636L157.02 66.5257L148.302 69.3326L147.464 66.7166Z" fill="white"/>
<path d="M162.126 78.8934L150.811 80.4482L151.186 83.1913L162.501 81.6365L162.126 78.8934Z" fill="white"/>
<path d="M151.48 96.3321C151.522 95.1587 151.91 94.0242 152.595 93.0719C153.28 92.1196 154.231 91.3923 155.327 90.9819C156.424 90.5716 157.618 90.4965 158.757 90.7663C159.896 91.0361 160.93 91.6387 161.728 92.4978C162.526 93.3569 163.052 94.434 163.24 95.5929C163.427 96.7519 163.269 97.9407 162.783 99.0091C162.297 100.078 161.507 100.978 160.512 101.595C159.516 102.213 158.361 102.521 157.191 102.481C156.404 102.483 155.626 102.322 154.904 102.008C154.183 101.694 153.533 101.234 152.997 100.657C152.461 100.08 152.05 99.3978 151.789 98.6536C151.528 97.9093 151.423 97.119 151.48 96.3321ZM160.998 96.7523C160.998 94.8429 159.723 93.6589 157.61 93.5635C157.178 93.4841 156.735 93.498 156.309 93.6042C155.883 93.7105 155.485 93.9066 155.141 94.1795C154.797 94.4524 154.515 94.7958 154.314 95.1868C154.112 95.5777 153.997 96.0073 153.974 96.4467C153.974 98.3561 155.23 99.5591 157.343 99.6545C157.774 99.7191 158.214 99.6924 158.634 99.5762C159.054 99.46 159.445 99.2569 159.782 98.9799C160.119 98.7029 160.395 98.3582 160.591 97.9679C160.787 97.5777 160.9 97.1506 160.922 96.7141" fill="white"/>
<path d="M152.661 117.851L159.266 119.665L158.6 122.109L147.578 119.073L148.168 116.954L156.582 113.765L149.558 111.836L150.243 109.373L161.245 112.409L160.541 114.968L152.661 117.851Z" fill="white"/>
<path d="M143.048 137.213L143.01 137.289L148.739 142.731L147.445 145.06L138.955 136.831L140.421 134.253L148.054 136.239L148.092 136.182L142.42 130.663L143.866 128.124L155.268 131.141L153.917 133.527L146.284 131.446L146.246 131.523L151.937 137.06L150.719 139.218L143.048 137.213Z" fill="white"/>
<path d="M129.514 148.268C130.316 147.403 131.356 146.796 132.503 146.525C133.65 146.254 134.851 146.332 135.954 146.748C137.057 147.164 138.011 147.899 138.696 148.861C139.381 149.822 139.765 150.966 139.8 152.147C139.835 153.329 139.519 154.494 138.892 155.494C138.265 156.495 137.356 157.286 136.28 157.766C135.204 158.247 134.009 158.396 132.848 158.194C131.688 157.992 130.613 157.448 129.761 156.632C129.175 156.113 128.7 155.479 128.368 154.769C128.035 154.059 127.852 153.288 127.829 152.504C127.806 151.72 127.943 150.939 128.233 150.211C128.523 149.482 128.959 148.821 129.514 148.268ZM136.366 154.799C136.937 154.348 137.357 153.733 137.57 153.036C137.782 152.339 137.777 151.594 137.555 150.9C137.332 150.207 136.904 149.598 136.327 149.155C135.75 148.713 135.052 148.458 134.326 148.425C133.6 148.392 132.882 148.583 132.267 148.972C131.653 149.36 131.172 149.928 130.888 150.599C130.605 151.27 130.533 152.012 130.682 152.725C130.831 153.438 131.194 154.088 131.722 154.589C131.998 154.932 132.344 155.212 132.736 155.411C133.128 155.61 133.558 155.724 133.997 155.743C134.436 155.763 134.874 155.689 135.283 155.526C135.691 155.364 136.061 155.115 136.366 154.799Z" fill="white"/>
<path d="M113.943 161.386C114.613 161.791 115.18 162.346 115.599 163.009C115.709 163.226 115.869 163.413 116.064 163.557C116.26 163.7 116.487 163.795 116.726 163.834C116.965 163.873 117.21 163.855 117.441 163.781C117.672 163.708 117.882 163.58 118.055 163.41L119.958 162.131L117.731 158.827L119.977 157.319L126.354 166.866L121.767 169.94C119.311 171.601 117.351 171.258 116.056 169.425C115.615 168.859 115.412 168.143 115.49 167.43C115.569 166.716 115.922 166.062 116.475 165.606C115.971 165.858 115.394 165.92 114.848 165.779C114.303 165.639 113.826 165.306 113.506 164.842C112.44 163.525 112.078 163.104 111.602 162.933L113.943 161.386ZM119.178 165.205C117.998 166.007 117.636 166.751 118.264 167.687C118.893 168.623 119.73 168.604 120.91 167.802L122.814 166.465L121.082 163.868L119.178 165.205Z" fill="white"/>
<path d="M98.3918 168.967L103.379 172.099L103.969 170.628L102.637 167.287L105.206 166.275L109.394 176.93L106.824 177.942L105.054 173.416L102.732 179.565L99.7813 180.729L102.199 174.505L95.3271 170.17L98.3918 168.967Z" fill="white"/>
<path d="M88.0368 176.146C87.9607 175.826 87.8195 175.525 87.6219 175.262C87.4243 174.999 87.1746 174.78 86.8885 174.619C86.6025 174.457 86.2863 174.357 85.9598 174.324C85.6333 174.291 85.3034 174.326 84.9911 174.428C83.7919 174.638 83.0876 175.23 83.259 175.974C83.4303 176.719 84.0775 176.795 85.1625 176.814H87.3325C88.1718 176.72 89.0151 176.953 89.6883 177.464C90.3614 177.976 90.8127 178.728 90.949 179.564C91.3297 181.779 89.826 183.383 87.142 183.917C84.0774 184.452 82.1549 183.211 81.679 180.71L84.1726 180.213C84.2237 180.497 84.335 180.767 84.4987 181.005C84.6625 181.242 84.875 181.442 85.122 181.59C85.369 181.738 85.6448 181.832 85.9309 181.865C86.2169 181.897 86.5065 181.868 86.7804 181.779C87.9415 181.588 88.4936 181.015 88.3603 180.251C88.2271 179.488 87.7132 179.449 86.8566 179.43H84.6866C82.3262 179.43 81.0699 178.457 80.7463 176.604C80.3656 174.275 82.1739 172.785 84.7436 172.289C87.7511 171.773 90.1496 172.9 90.6064 175.631L88.0368 176.146Z" fill="white"/>
</svg>
