<svg width="1440" height="1412" viewBox="0 0 1440 1412" fill="none" xmlns="http://www.w3.org/2000/svg">
<g opacity="0.3">
<path d="M-10.3944 0.671882C42.9275 0.235462 101.286 1.12301 96.819 65.3994C92.8655 122.281 217.077 132.221 264.34 114.435C311.246 96.7824 334.799 274.401 268.36 324.697C225.19 357.374 87.6835 388.738 153.19 456.604C170.087 474.105 194.193 484.554 211.197 501.717C229.551 520.282 239.848 543.574 259.733 561.394C284.147 583.278 320.56 598.2 347.849 571.309C380.795 538.852 383.777 485.805 396.894 445.777C403.075 426.893 416.605 385.59 448.306 395.108C468.475 401.169 474.288 422.161 476.483 438.446C483.307 489.056 507.631 544.594 488.891 594.601C477.494 625.003 457.173 653.15 458.843 686.298C460.518 719.152 483.915 746.509 519.095 757.489C550.89 767.413 586.706 761.681 617.072 775.804C655.312 793.584 680.272 835.196 687.805 871.34C711.487 984.952 519.648 944.546 449.613 972.291C366.41 1005.26 466.18 1093.96 513.723 1112.86C572.445 1136.2 606.814 1087.22 657.126 1071.78C706.975 1056.48 782.572 1097.92 820.571 1054.61C859.212 1010.58 797.816 945.914 835.302 904.072C852.612 884.722 884.184 890.278 907.894 894.5C936.244 899.551 962.059 904.307 988.148 890.175C1007.5 879.696 1029.27 851.697 1054.4 853.261C1084.28 855.119 1092.66 897.884 1098.85 917.238C1107.47 944.178 1115.87 974.458 1150.66 982.456C1179.27 989.027 1225.95 984.672 1248.94 966.931C1279.86 943.046 1249.64 897.212 1237.83 871.311C1222.89 838.516 1193.1 782.889 1223.81 750.359C1247.54 725.218 1291.25 732.186 1323.83 731.019C1353.35 729.96 1369.38 716.195 1394.06 704.206C1438.57 682.586 1492.49 678.82 1542 673.465" stroke="#1D9EC6" stroke-width="0.5" stroke-miterlimit="10"/>
<path d="M-28.2633 35.9771C-12.7844 22.9776 6.15663 7.7078 29.403 10.9295C52.7666 14.1413 65.6992 33.486 72.9584 51.3547C79.8994 68.4291 82.1274 87.6953 96.8693 101.43C111.388 114.94 134.053 121.491 153.977 125.988C177.129 131.22 200.241 131.749 223.984 131.994C244.187 132.205 268.394 131.891 282.058 147.299C307.058 175.44 293.913 243.468 280.031 274.13C262.559 312.707 219.126 329.404 180.875 348.665C142.022 368.279 109.852 403.889 128.748 444.775C145.813 481.704 190.033 500.524 216.708 531.049C231.908 548.438 243.601 570.906 236.169 593.075C227.826 617.976 199.962 631.102 176.045 643.004C151.626 655.16 132.663 667.477 120.16 690.117C108.568 711.1 101.588 736.054 77.6156 749.225C25.1256 778.078 -41.9442 729.292 -80.3456 786.62C-89.5146 800.306 -95.6738 815.551 -102.001 830.36" stroke="#1D9EC6" stroke-width="0.5" stroke-miterlimit="10"/>
<path d="M-8.1612 740.134C35.7237 748.554 81.1833 755.203 98.773 710.82C106.323 691.731 110.371 671.871 124.37 655.248C138.079 638.963 157.874 630.431 176.648 619.623C211.531 599.567 229.283 560.29 197.823 530.069C183.729 516.52 163.894 508.537 148.627 496.067C130.937 481.626 117.63 463.056 109.645 443.069C94.6855 405.591 108.64 373.011 141.268 346.959C171.326 322.97 211.844 316.301 244.014 295.662C276.77 274.645 283.794 224.722 281.427 191.598C278.143 145.95 221.398 155.311 183.511 153.325C133.327 150.687 101.375 137.035 79.6477 95.8158C70.6295 78.7023 62.8956 56.6655 40.9448 49.3003C20.3564 42.396 -5.12899 49.5651 -25.8067 52.7769C-37.0194 54.5128 -48.2583 56.0983 -59.5231 57.5334" stroke="#1D9EC6" stroke-width="0.5" stroke-miterlimit="10"/>
<path d="M-23.796 96.7818C-5.78189 90.0737 17.967 79.3691 37.9355 85.7438C56.0557 91.5301 63.8733 109.61 72.629 123.178C97.7572 162.088 130.228 162.941 177.011 165.388C219.07 167.59 260.152 185.557 258.388 227.929C256.712 268.599 217.406 285.154 179.943 298.173C102.13 325.206 70.7194 407.396 103.861 473.442C119.926 505.458 155.183 514.829 177.067 541.445C204.111 574.334 170.277 596.243 138.292 608.978C93.6195 626.753 100.231 658.328 87.9238 694.83C74.1759 735.628 32.9433 729.155 -6.51343 726.36C-16.7322 725.634 -26.9621 725.012 -37.1977 724.443" stroke="#1D9EC6" stroke-width="0.5" stroke-miterlimit="10"/>
<path d="M-23.7961 693.06C8.0329 705.049 58.5852 713.199 78.8776 680.447C97.6288 650.192 71.6183 613.822 112.756 594.095C143.396 579.384 172.103 562.933 140.643 532.526C112.778 505.6 89.7162 489.776 83.4397 451.126C78.2968 419.4 72.0819 378.587 80.4244 347.243C88.9512 315.203 124.706 305.562 153.754 290.523C180.714 276.582 226.469 264.534 230.255 232.661C235.03 192.647 193.853 183.012 158.249 184.605C109.875 186.792 92.0335 170.679 66.9445 137.134C42.5311 104.49 4.07943 121.682 -33.1214 120.849C-42.7315 120.633 -52.2859 119.569 -61.7843 118.348" stroke="#1D9EC6" stroke-width="0.5" stroke-miterlimit="10"/>
<path d="M-26.0298 161.509C2.35944 146.691 44.8372 121.408 62.5721 159.43C69.1557 173.538 71.5624 183.458 88.711 189.867C104.346 195.751 123.689 199.449 140.581 200.831C162.644 202.636 230.322 198.639 208.762 237.378C196.773 258.954 143.334 269.889 119.976 278.617C77.5038 294.471 75.6444 322.75 68.8151 359.482C63.1585 389.924 59.7411 423.891 66.0231 454.436C72.0818 483.828 87.0359 510.435 112.812 529.799C121.439 536.277 140.626 546.903 133.607 558.73C127.079 569.715 100.6 570.46 89.4929 576.683C60.8635 592.698 71.9868 631.985 60.9248 656.714C44.9936 692.344 6.75966 680.6 -24.779 669.267C-31.8763 666.718 -38.968 664.148 -46.1044 661.681" stroke="#1D9EC6" stroke-width="0.5" stroke-miterlimit="10"/>
<path d="M-14.862 634.217C-1.46032 644.514 26.4598 649.447 41.5032 640.591C56.7141 631.632 57.1721 612.454 58.4899 597.096C60.2656 576.501 64.2358 568.116 84.2322 557.206C95.1937 551.223 97.0756 552.106 96.8466 539.69C96.6679 528.858 91.7316 526.328 87.4598 516.864C86.2425 516.672 85.042 516.432 83.8526 516.153C79.0615 503.894 63.951 494.734 58.8417 482.151C52.7997 467.273 59.1264 451.396 50.3036 437.376C41.7433 423.783 23.4668 416.634 12.4886 404.601C2.31448 393.45 -17.5647 381.73 -23.8076 369.427" stroke="#1D9EC6" stroke-width="0.5" stroke-miterlimit="10"/>
<path d="M-21.5626 428.265C5.47523 421.297 24.1594 435.797 29.6932 459.006C33.7416 475.958 24.4553 497.828 41.5369 510.631C56.2117 521.62 80.452 526.072 60.5617 548.036C53.2075 556.151 40.4201 557.053 32.77 564.32C24.2041 572.465 27.9286 582.13 25.0249 591.918C16.9727 619.079 -28.2914 614.656 -52.8332 610.679" stroke="#1D9EC6" stroke-width="0.5" stroke-miterlimit="10"/>
<path d="M-12.6279 512.607C14.4435 512.691 50.7844 515.172 47.2888 545.608C37.9747 548.511 28.4036 550.831 18.6539 551.738C-4.68737 553.9 -25.0914 560.231 -48.3545 563.605" stroke="#1D9EC6" stroke-width="0.5" stroke-miterlimit="10"/>
<path d="M3.00706 347.846C9.64647 357.972 28.2916 389.821 46.6016 384.775C62.907 380.283 56.3905 346.954 56.9489 336.028C59.0317 295.564 76.3813 268.035 123.432 260.023C142.122 256.85 168.808 253.883 181.746 239.849C198.258 221.931 167.736 220.485 153.145 220.656C109.679 221.147 77.3975 218.577 59.2382 180.447C50.1307 161.323 30.285 144.734 5.77672 155.738C-4.27454 160.249 -10.8749 168.227 -22.1434 171.061C-38.2366 175.107 -57.133 170.341 -72.9581 167.384" stroke="#1D9EC6" stroke-width="0.5" stroke-miterlimit="10"/>
<path d="M-32.7305 198.777C-13.8397 185.606 18.5477 178.089 40.3924 190.774C50.963 196.913 52.7834 207.912 61.394 215.268C71.7692 224.119 85.4054 222.133 98.1593 225.82C135.785 236.638 82.6301 249.75 71.7748 256.276C50.2986 269.197 52.3869 296.486 41.8052 315.335C20.3513 353.584 -20.8253 319.94 -46.1322 302.733" stroke="#1D9EC6" stroke-width="0.5" stroke-miterlimit="10"/>
<path d="M-21.5626 228.198C-6.69225 219.171 17.8776 211.1 36.4278 214.091C48.5396 216.052 71.6352 226.418 69.3737 239.099C67.2741 250.784 40.3701 262.386 30.5031 270.075C3.69965 290.96 -42.19 280.731 -75.1526 281.152" stroke="#1D9EC6" stroke-width="0.5" stroke-miterlimit="10"/>
<path d="M-19.3297 812.707C-3.01316 788.233 14.3365 774.95 46.8746 771.051C75.7385 767.594 98.7335 765.594 113.14 740.649C124.833 720.417 128.368 697.331 153.647 686.302C177.815 675.755 199.871 674.759 216.445 653.448C229.847 636.202 236.196 603.334 261.352 595.865C285.815 588.603 312.356 607.963 336.786 608.826C393.816 610.846 390.293 524.484 405.788 491.899C410.512 481.979 428.353 443.971 446.669 449.562C464.75 455.078 459.847 499.877 459.763 511.925C459.596 536.551 458.407 561.378 451.237 585.298C443.888 609.816 431.665 633.138 427.443 658.362C418.766 710.222 459.428 773.43 512.131 797.585C540.721 810.692 569.529 803.896 599.973 805.921C633.008 808.122 654.389 828.409 660.521 856.531C693.282 1006.81 364.813 857.899 376.589 1010.65C381.95 1080.12 449.355 1133.15 522.131 1150.26C563.504 1159.99 609.164 1159.16 643.461 1134.28C664.91 1118.71 678.596 1094.02 709.051 1091.84C761.106 1088.13 845.698 1125.54 873.959 1063.73C891.554 1025.23 818.845 953.647 879.917 931.208C907.212 921.185 938.254 930.551 966.47 924.956C993.647 919.562 1009.65 899.766 1033.75 889.62C1061.11 878.092 1070.19 899.334 1076.82 919.356C1086.19 947.635 1093.57 978.356 1122.61 996.543C1163.37 1022.07 1251.6 1024.42 1292.07 997.303C1345.54 961.507 1289.99 911.446 1274.24 872.551C1264.39 848.239 1253.79 821.112 1249.95 795.486C1246.13 769.987 1263.19 765.491 1288.43 761.475C1317.87 756.787 1342.77 749.515 1369.49 737.839C1393.25 727.458 1414.03 726.634 1440.19 727.64C1466.64 728.655 1490.12 726.267 1515.15 718.519" stroke="#1D9EC6" stroke-width="0.5" stroke-miterlimit="10"/>
<path d="M1454.85 759.748C1433.85 739.016 1415.26 735.922 1388.14 750.569C1362.9 764.206 1345.7 769.389 1316.48 772.802C1239.81 781.746 1279.01 839.491 1298.16 878.524C1316.42 915.791 1353.44 973.722 1314.91 1010.21C1296.84 1027.33 1268.71 1028.51 1243.89 1029.46C1216.96 1030.48 1189.17 1031.6 1162.43 1027.81C1099.84 1018.91 1078.08 961.909 1055.01 916.664C1039 885.281 990.984 943.32 952.158 945.487C910.836 947.797 869.269 946.983 880.683 993.748C889.126 1028.36 918.14 1077.87 871.96 1101.36C832.71 1121.33 784.151 1112.05 741.679 1109.66C693.562 1106.96 676.676 1129.9 643.607 1155.44C607.026 1183.69 560.209 1183.94 515.973 1170.3C424.73 1142.17 337.535 1063.05 366.354 972.727C379.376 931.909 410.63 916.718 457.044 917.051C503.459 917.384 546.998 917.419 592.949 910.044C603.888 908.283 616.725 910.294 625.727 904.552C656.16 885.148 648.063 846.258 606.59 832.876C573.371 822.147 534.774 835.239 503.051 820.99C474.997 808.387 462.249 776.543 444.117 755.345C420.558 727.797 415.784 706.662 413.5 672.827C411.233 639.203 381.61 638.992 350.066 631.902C319.387 625.037 282.499 607.644 256.511 631.941C232.427 654.498 227.809 685.67 196.957 703.735C183.991 711.325 169.936 716.862 159.041 726.963C147.237 737.913 141.083 751.736 133.254 764.883C111.566 801.316 79.0447 798.668 38.4097 807.627C-3.73301 816.915 -29.3303 846.974 -55.0895 875.473" stroke="#1D9EC6" stroke-width="0.5" stroke-miterlimit="10"/>
<path d="M-50.5992 899.011C-13.5156 865.99 21.0384 848.994 72.713 839.52C94.5968 835.504 116.313 830.924 132.926 816.91C149.538 802.895 158.394 783.448 169.853 766.368C192.747 732.264 227.296 700.66 259.119 672.764C296.845 639.684 351.725 631.819 379.946 678.824C391.477 698.022 395.582 719.941 405.935 739.629C417.438 761.509 434.502 780.672 450.657 799.997C463.327 815.144 475.746 835.303 494.173 845.718C513.019 856.354 537.924 853.706 559.238 853.834C571.892 853.912 615.079 850.749 621.305 864.999C627.749 879.818 591.213 890.39 580.754 893.44C527.705 908.926 476.924 890.322 423.619 897.407C361.793 905.626 341.534 944.874 343.522 995.234C345.51 1045.48 354.131 1090.41 397.246 1126.74C434.19 1157.9 485.01 1182.95 532.279 1200C586.265 1219.48 625.18 1213.04 663.71 1175.32C701.229 1138.6 740.323 1129.22 795.527 1130.92C842.829 1132.39 912.741 1134.31 927.868 1083.57C939.198 1045.55 903.377 997.377 958.821 978.542C980.202 971.275 1007.99 967.754 1030.3 973.678C1052.77 979.616 1065.27 996.45 1078.66 1012.11C1114.43 1053.95 1157.73 1076.35 1218.26 1074.88C1268.9 1073.64 1324.83 1063.86 1356.06 1025.38C1394.23 978.351 1367.71 931.115 1346.63 883.932C1338.22 865.097 1329.76 842.08 1343.23 823.402C1356.36 805.19 1383.89 799.149 1406.54 796.094C1431.35 792.745 1456.65 792.98 1481.68 793.103" stroke="#1D9EC6" stroke-width="0.5" stroke-miterlimit="10"/>
<path d="M1470.49 822.515C1438.8 807.765 1396.52 815.194 1381.84 845.287C1365.38 879.009 1387.32 900.09 1397.7 931.826C1408.61 965.17 1413.47 989.585 1392.22 1019.76C1375.95 1042.87 1371.44 1074.85 1377.84 1101.22C1382.7 1121.28 1390.46 1139.11 1405.26 1155.12C1437.92 1190.46 1462.82 1226.94 1486.13 1267.76" stroke="#1D9EC6" stroke-width="0.5" stroke-miterlimit="10"/>
<path d="M1439.22 1275.61C1425.14 1240.75 1404.29 1212.19 1384.47 1180.03C1369.24 1155.33 1368.75 1119.09 1346.32 1098.58C1322.53 1076.81 1283.68 1088.97 1255.3 1095.23C1215.66 1103.96 1173.22 1108.81 1133.95 1095.77C1089.38 1080.97 1074.38 1044 1039.52 1019.57C1009.13 998.26 967.872 1007.8 954.174 1040.16C941.689 1069.65 958.642 1105.38 932.955 1130.96C906.571 1157.2 860.363 1155.82 824.134 1155.33C784.09 1154.79 741.831 1157.65 704.479 1171.46C644.077 1193.8 627.838 1257.2 610.567 1307" stroke="#1D9EC6" stroke-width="0.5" stroke-miterlimit="10"/>
<path d="M664.157 1252.07C665.832 1251 664.827 1249.62 668.188 1249.73C683.885 1221.19 701.949 1208.75 736.258 1200.15C764.652 1193.03 791.338 1181.92 821.503 1184.05C861.2 1186.86 900.16 1199.9 937.567 1180.74C969.609 1164.33 979.565 1138.32 977.957 1107.53C976.84 1086.05 977.365 1043.66 1013.43 1044.63C1045.48 1045.49 1056.22 1088.56 1076.69 1104.45C1105.04 1126.5 1154.07 1134.84 1190.98 1135.63C1219.38 1136.26 1244.25 1122.79 1272.51 1121.63C1321.88 1119.59 1329.35 1148.74 1338.86 1184.4C1352.09 1234.1 1382.47 1269.68 1425.64 1302.77C1424.29 1303.29 1422.78 1303.39 1421.35 1303.07" stroke="#1D9EC6" stroke-width="0.5" stroke-miterlimit="10"/>
<path d="M1325.31 1263.84C1324.88 1241.28 1319.64 1219.54 1317.98 1197.15C1316.55 1177.78 1316.4 1164.86 1294.59 1154.72C1253.96 1135.83 1212.95 1154.58 1174.27 1167.47C1154.96 1173.9 1141.93 1174.61 1121.85 1170.19C1105.07 1166.5 1084.35 1165.67 1071.55 1154.62C1057.43 1142.43 1050.54 1127.92 1026.83 1135.26C1007.36 1141.28 1001.78 1156.49 998.545 1172.67C993.642 1197.09 993.329 1220.38 972.914 1239.52C945.117 1265.57 907.877 1281.75 880.817 1308.96" stroke="#1D9EC6" stroke-width="0.5" stroke-miterlimit="10"/>
<path d="M1267.23 1291.3C1277.63 1268.02 1311.65 1233.75 1302.12 1208.3C1291.32 1179.44 1267.36 1165.51 1234.52 1171.26C1206.88 1176.1 1182.52 1191 1154.59 1193.32C1140.34 1194.5 1124.73 1194.25 1110.7 1191.72C1096.56 1189.17 1083.48 1180.93 1069.17 1179.71C1009.84 1174.71 1036.39 1258.47 1041.64 1283.47" stroke="#1D9EC6" stroke-width="0.5" stroke-miterlimit="10"/>
<path d="M1256.06 1273.65C1256.33 1263.63 1257.02 1253.63 1259.86 1243.9C1262.35 1235.33 1269.5 1225.75 1269.08 1216.76C1268.08 1195.46 1239.03 1191.21 1220.35 1195.03C1199.61 1199.28 1179.42 1205.71 1158.12 1207.91C1136.54 1210.13 1116.24 1204.78 1094.89 1205.14C1056.14 1205.8 1066.41 1235.14 1066.21 1261.88" stroke="#1D9EC6" stroke-width="0.5" stroke-miterlimit="10"/>
<path d="M840.612 1265.8C860.921 1259.7 889.483 1251.39 901.037 1234.15C914.997 1213.35 888.752 1204.09 869.157 1201.82C830.896 1197.4 784.587 1190.7 754.316 1216.39C722.325 1243.54 701.581 1283.45 679.792 1316.8" stroke="#1D9EC6" stroke-width="0.5" stroke-miterlimit="10"/>
<path d="M766.903 1230.49C777.674 1222.9 778.389 1217.25 792.628 1214.63C803.506 1212.63 816.796 1211.27 827.897 1212.77C836.474 1213.92 850.898 1218.68 853.93 1226.96C858.956 1240.65 831.499 1254.75 824.977 1265.8" stroke="#1D9EC6" stroke-width="0.5" stroke-miterlimit="10"/>
<path d="M487.7 1273.65C500.694 1265.21 529.955 1250.42 529.48 1233.52C529.022 1217.03 501.141 1210.18 487.181 1205.74C432.05 1188.18 395.815 1170.75 364.332 1125.54C334.737 1083.02 305.482 1033.72 315.461 982.417C322.095 948.322 341.561 893.97 382.972 881.035C402.242 875.008 471.92 886.958 469.256 858.919C467.687 842.394 443.402 825.281 431.754 814.017C415.002 797.835 399.478 781.217 390.767 760.47C376.958 727.581 377.226 678.58 322.553 683.395C268.991 688.107 233.303 729.366 213.48 769.306C193.048 810.496 169.327 848.22 118.032 863.872C95.0761 870.879 70.3835 871.615 47.4332 878.519C18.0221 887.345 -4.21919 906.308 -23.8359 926.829C-36.4 939.976 -47.9645 953.848 -59.5458 967.662" stroke="#1D9EC6" stroke-width="0.5" stroke-miterlimit="10"/>
<path d="M-30.4968 993.16C-7.71956 956.619 18.6762 921.72 66.1069 908.441C106.223 897.207 140.436 893.985 175.582 871.021C193.172 859.532 210.65 846.229 221.46 829.208C231.986 812.634 233.969 793.775 240.072 775.877C251.463 742.493 293.852 705.334 332.94 735.236C348.542 747.176 356.426 765.962 367.561 780.883C380.784 798.58 398.642 812.806 412.49 829.959C442.409 867.025 357.476 866.593 333.493 877.357C291.652 896.133 296.688 949.832 291.233 985.138C283.555 1034.81 293.332 1078.31 325.329 1120.27C350.837 1153.74 385.742 1181.27 429.639 1194.42C444.676 1198.92 462.947 1199.89 475.83 1208.64C496.619 1222.8 506.581 1252.21 516.543 1272.39C525.734 1291.02 534.607 1309.79 543.525 1328.53" stroke="#1D9EC6" stroke-width="0.5" stroke-miterlimit="10"/>
<path d="M465.365 1269.72C452.521 1250.11 439.047 1228.49 416.225 1216.49C397.122 1206.43 374.39 1205.57 353.818 1198.98C306.488 1183.82 281.505 1140.12 269.348 1099.7C258.476 1063.55 261.76 1025.88 264.786 989.012C267.645 954.196 270.733 917.969 296.241 889.439C308.487 875.749 324.223 865.701 342.131 858.444C353.109 853.996 370.124 851.329 375.546 840.575C390.181 811.555 335.547 759.979 307.376 752.663C261.693 740.792 260.146 802.783 249.938 826.845C234.085 864.205 196.415 890.592 155.998 906.646C118.959 921.357 76.6045 924 40.7215 941.055C-4.44771 962.518 -10.8749 1015.96 -26.2421 1054.74C-32.6414 1070.92 -39.3982 1086.95 -46.1605 1103" stroke="#1D9EC6" stroke-width="0.5" stroke-miterlimit="10"/>
<path d="M-14.8612 1063.77C-4.10635 1030.63 5.88913 990.708 38.109 968.058C68.2348 946.87 110.701 945.502 146.076 934.856C179.067 924.946 217.183 910.108 240.195 886.247C266.764 858.708 259.739 819.2 282.997 791.23C305.333 764.373 347.258 788.484 350.971 815.87C355.505 849.313 308.119 858.532 285.281 875.307C252.033 899.727 249.543 945.291 244.545 980.288C238.928 1019.52 235.477 1058.37 242.496 1097.66C248.638 1132.1 259.521 1185.37 301.753 1199.86C318.204 1205.5 336.693 1203.44 353.071 1209.31C376.256 1217.62 388.552 1238.24 398.134 1257.34C404.974 1270.98 410.569 1285.11 416.226 1299.14" stroke="#1D9EC6" stroke-width="0.5" stroke-miterlimit="10"/>
<path d="M326.881 1281.49C317.913 1254.03 308.454 1227.09 277.373 1213.68C255.35 1204.18 236.939 1200.15 228.681 1177.61C215.179 1140.78 212.04 1090.74 216.139 1052.33C218.931 1025.96 248.236 962.297 218.992 942.398C201.425 930.448 172.187 945.178 155.223 951.342C133.869 959.099 112.075 964.425 90.2246 970.839C21.7533 990.943 -6.06634 1057.14 -37.1973 1108.88" stroke="#1D9EC6" stroke-width="0.5" stroke-miterlimit="10"/>
<path d="M-34.9644 1142.23C-35.2883 1143.88 -34.5996 1144.48 -32.8984 1144.04C-10.8247 1105.62 14.3426 1067.33 38.7839 1030.06C49.9185 1013.08 63.1805 1005.61 83.9307 999.574C103.938 993.753 124.041 983.515 144.573 979.754C203.278 969.01 188.363 1040.89 180.166 1068.02C173.152 1091.22 170.718 1113.13 181.958 1135.6C191.211 1154.09 201.503 1169.52 206.405 1189.56C212.492 1214.46 221.175 1224.09 244.622 1238.24C277.267 1257.94 271.694 1291.36 268.416 1322.43C267.125 1322.9 265.693 1322.99 264.34 1322.68" stroke="#1D9EC6" stroke-width="0.5" stroke-miterlimit="10"/>
<path d="M195.098 1269.72C187.068 1257.59 176.822 1244.52 174.51 1230.32C172.555 1218.31 179.307 1206.5 176.671 1194.67C174.141 1183.34 163.504 1175.32 157.222 1165.63C151.492 1156.8 147.779 1146.73 144.909 1136.91C139.23 1117.46 138.091 1090.41 141.436 1070.44C144.647 1051.29 167.256 1029.1 136.862 1017.63C126.454 1013.71 109.501 1012.58 98.5727 1014.98C84.1547 1018.14 78.8051 1028.74 69.5803 1037.89C60.5565 1040.3 51.7115 1059.04 45.3736 1065.73C36.2661 1075.39 28.3702 1083.15 21.5912 1094.29C13.0476 1108.34 2.90142 1117.58 -11.2262 1127.42C-30.5748 1140.9 -41.7094 1143.38 -66.2345 1144.19" stroke="#1D9EC6" stroke-width="0.5" stroke-miterlimit="10"/>
<path d="M-39.4314 1193.23C-6.22875 1176.91 21.3284 1146.21 38.745 1116.58C50.5161 1096.57 58.9537 1050.38 98.7175 1062.64C128.614 1071.82 103.33 1121.49 113.934 1142.72C126.749 1168.39 167.144 1182.07 158.695 1212.95C153.273 1232.75 143.323 1246.78 149.761 1267.84C155.58 1286.96 167.954 1304.76 177.246 1322.7" stroke="#1D9EC6" stroke-width="0.5" stroke-miterlimit="10"/>
<path d="M119.155 1265.8C115.436 1241.08 141.709 1220.97 132.869 1198.02C124.46 1176.19 98.2483 1163.8 96.3442 1138.94C95.5512 1128.68 102.872 1074.5 73.6394 1099.35C51.6048 1118.08 64.4594 1148.19 35.2046 1165.35C1.42127 1185.17 -39.1691 1198.82 -79.6366 1197.15" stroke="#1D9EC6" stroke-width="0.5" stroke-miterlimit="10"/>
<path d="M-26.03 1228.53C-5.70977 1230.82 10.8525 1206.17 25.1029 1196.29C43.977 1183.19 54.8658 1171.28 62.6164 1151.38C76.2526 1116.37 88.4872 1146.35 91.6198 1167.17C94.5961 1186.98 123.03 1197.72 113.682 1219.31C106.948 1234.85 93.1499 1243.49 90.4193 1261.37C87.51 1280.46 92.2062 1300.17 96.8186 1318.74" stroke="#1D9EC6" stroke-width="0.5" stroke-miterlimit="10"/>
<path d="M67.7826 1263.84C67.7826 1255.01 66.6099 1246.68 70.5746 1238.7C74.1986 1231.41 82.7199 1227.17 86.7013 1220.74C94.1281 1208.75 89.4486 1193.83 85.2494 1181.8C68.9217 1177.88 49.7518 1204.33 37.8578 1211.99C27.7228 1218.51 14.6393 1225.17 4.10782 1230.66C-10.5447 1238.3 -46.4947 1231.83 -55.0829 1242.26" stroke="#1D9EC6" stroke-width="0.5" stroke-miterlimit="10"/>
<path d="M0.773402 1263.84C13.9294 1260.15 18.7708 1244.88 27.0464 1237.9C34.2218 1231.84 48.087 1216.81 56.1783 1214.42C60.0871 1205.23 75.4991 1199.81 78.8775 1210.8C80.6644 1216.62 72.2994 1227.47 67.9159 1231.78C61.3435 1238.26 53.5426 1242.29 47.9306 1249.93C33.4512 1269.68 25.7173 1293.67 14.1751 1314.82" stroke="#1D9EC6" stroke-width="0.5" stroke-miterlimit="10"/>
</g>
<rect x="-1.54065" y="800.041" width="1445.6" height="611.932" fill="url(#paint0_linear_1107_1063)"/>
<defs>
<linearGradient id="paint0_linear_1107_1063" x1="962.692" y1="1311.7" x2="962.692" y2="861.576" gradientUnits="userSpaceOnUse">
<stop stop-color="white"/>
<stop offset="1" stop-color="white" stop-opacity="0"/>
</linearGradient>
</defs>
</svg>
