<svg width="132" height="236" viewBox="0 0 132 236" fill="none" xmlns="http://www.w3.org/2000/svg">
<path opacity="0.4" d="M90.0764 103.305C76.1915 88.7536 46.9035 91.7896 38.6467 108.044C33.8332 117.523 37.2397 119.152 44.9041 115.153C50.6062 112.228 47.644 109.562 53.4202 105.786C59.1963 102.009 69.3787 102.601 77.4505 106.193C83.9671 109.118 80.6347 116.338 72.0816 118.189L70.3783 118.523C70.3783 121.781 70.3783 125.077 70.3783 128.335C94.7417 119.782 95.5563 109.118 90.2615 103.305H90.0764ZM43.2011 108.785C43.2011 108.785 43.5712 108.489 42.8307 109.599C43.3288 110.01 43.6583 110.59 43.7563 111.229C43.7549 111.439 43.7039 111.645 43.6074 111.832C43.5109 112.019 43.3717 112.18 43.2011 112.302L42.9418 112.524C42.2013 113.08 41.72 113.487 41.3127 113.487C41.2723 113.507 41.2279 113.517 41.183 113.517C41.1381 113.517 41.0938 113.507 41.0535 113.487C40.7573 113.265 40.7573 112.821 41.0535 111.821C41.4301 110.618 41.9923 109.481 42.7197 108.452C42.7764 108.417 42.843 108.402 42.9091 108.41C42.9751 108.418 43.0367 108.448 43.0838 108.495C43.1308 108.542 43.1607 108.603 43.1685 108.669C43.1763 108.735 43.1617 108.802 43.1269 108.859L43.2011 108.785ZM50.7173 99.4541C57.7921 95.9035 65.8809 94.9219 73.5996 96.6771C86.8921 99.5281 90.1876 108.081 90.1876 108.081C90.1876 108.081 77.4504 91.4934 50.7173 99.4541Z" fill="white"/>
<path opacity="0.4" d="M81.7813 148.883C75.9248 145.746 69.7079 143.334 63.2682 141.7C59.9734 141.016 56.7217 140.138 53.5302 139.071C48.1984 137.553 48.4947 137.183 48.4947 137.183C48.4947 137.183 48.1614 134.813 50.0868 135.184C53.4535 133.777 56.8888 132.541 60.38 131.481C61.3797 131.222 59.7506 131.703 60.6763 131.481V130.778C60.6763 127.371 60.6763 124.002 60.4912 120.632C57.9363 121.151 55.4556 121.743 53.0859 122.447C47.8652 123.965 41.7188 126.149 38.9788 131.259C37.851 133.837 37.6592 136.728 38.4367 139.432C39.2142 142.136 40.912 144.484 43.2367 146.069C49.2352 150.058 55.9298 152.884 62.9719 154.4C66.3043 155.363 69.7107 156.289 72.969 157.548C73.3763 157.548 77.2641 159.103 77.8566 160.139C78.449 160.866 78.7725 161.775 78.7725 162.713C78.7725 163.65 78.449 164.559 77.8566 165.286C77.8566 165.286 79.0043 162.694 76.6346 162.398C75.2694 163.477 73.7772 164.385 72.1914 165.101C71.3028 165.582 70.3772 165.99 69.4515 166.434L69.1184 176.912C72.3238 175.899 75.4539 174.662 78.4859 173.21C83.0032 170.988 88.298 167.138 88.9274 161.658C89.1995 159.982 89.084 158.267 88.5898 156.643C88.0956 155.019 87.2357 153.53 86.0763 152.29C84.8645 151.044 83.4954 149.961 82.0035 149.069L81.7813 148.883ZM87.2982 160.176C82.5959 152.771 85.2989 152.031 55.4186 141.367C62.5778 143.352 69.5923 145.826 76.4125 148.772C86.7799 153.067 87.2982 159.066 87.2982 160.325" fill="white"/>
<path opacity="0.4" d="M63.7132 221.492C62.2848 222.617 61.0362 223.953 60.0106 225.454C59.3237 226.635 58.8871 227.944 58.7278 229.301C58.5686 230.658 58.6901 232.033 59.0849 233.341C58.6994 230.924 59.2416 228.451 60.6029 226.417C61.4748 225.317 62.4968 224.344 63.6391 223.529V221.492" fill="white"/>
<path opacity="0.4" d="M62.9356 192.24C59.9569 190.85 57.4573 188.608 55.7524 185.797V185.575C55.0485 186.204 54.6116 187.078 54.5307 188.019C54.3828 186.339 54.7302 184.653 55.5303 183.169V183.169C56.4653 181.925 57.7567 180.995 59.2329 180.503C60.2327 180.021 61.2324 179.577 62.2691 179.17L61.936 169.469C56.6042 171.764 49.2729 174.949 47.9399 181.206C46.607 187.464 51.0131 192.684 56.0117 195.72C58.6744 197.231 61.4326 198.567 64.2687 199.719C67.2656 200.738 70.0331 202.336 72.4143 204.422C73.2954 205.521 73.8118 206.869 73.8914 208.276C73.9711 209.682 73.61 211.079 72.8586 212.271C71.541 214.74 69.7106 216.899 67.49 218.603C67.49 219.603 67.49 220.565 67.49 221.454L68.1564 221.047C73.3031 217.677 79.2643 212.345 78.0054 205.384C76.7465 198.423 68.5636 195.498 63.1948 192.351L62.9356 192.24ZM50.1617 186.019C49.7075 185.037 49.494 183.96 49.539 182.878C49.5841 181.796 49.8863 180.741 50.4206 179.799C51.6791 177.179 53.7776 175.054 56.3821 173.764C54.2109 174.919 52.4486 176.716 51.3355 178.909C50.2223 181.102 49.8125 183.585 50.1617 186.019V186.019ZM76.0801 209.531C76.0801 209.531 78.4128 204.051 70.5262 199.423C66.2811 197.185 62.2846 194.504 58.6036 191.425C58.6036 191.425 61.2695 193.277 70.0078 198.09C78.746 202.904 76.0801 209.531 76.0801 209.531Z" fill="white"/>
<path opacity="0.4" d="M61.2324 104.34C61.2324 116.929 61.6397 128.963 61.8989 140.293L63.4539 140.775L66.4901 141.737C66.4901 130.222 66.7124 117.67 66.8235 104.378C65.7998 104.323 64.7739 104.323 63.7502 104.378C62.8616 104.378 62.047 104.378 61.2324 104.378" fill="white"/>
<path opacity="0.4" d="M67.416 142.034L68.7489 142.478C69.0451 130.629 69.2673 118.041 69.4524 104.785L68.0083 104.526C68.0083 117.929 67.6382 130.444 67.416 142.034" fill="white"/>
<path opacity="0.4" d="M66.3418 156.104L63.8609 155.4L62.2688 154.919C62.6391 168.508 63.0464 180.837 63.4537 191.427L65.8234 192.76C65.8234 183.244 66.1567 170.803 66.3418 156.104" fill="white"/>
<path opacity="0.4" d="M66.0456 92.9368H66.8601C66.8601 81.8288 66.8601 90.0487 66.8601 78.1262C67.3665 78.0422 67.863 77.9055 68.3412 77.7188C68.3412 89.8264 68.3412 81.6806 68.3412 92.9736H69.7853C69.7853 80.7179 69.7718 73.2987 69.7718 60.2654C68.7698 60.416 67.4366 60.5798 65.8556 60.5798C64.2747 60.5798 62.6467 60.4619 61.1143 60.2393C61.1143 73.3466 60.8988 80.8291 61.121 93.1219C62.7673 92.9175 64.4238 92.8061 66.0826 92.7885" fill="white"/>
<path opacity="0.4" d="M65.8982 201.498C65.602 209.2 65.4168 213.421 65.4168 213.421C65.4168 213.421 65.4168 209.163 65.676 201.387L64.5651 200.906L63.8247 200.573C64.6763 222.789 65.4168 235.896 65.4168 235.896C65.4168 235.896 66.1203 223.307 66.9719 201.98L65.8982 201.498Z" fill="white"/>
<path opacity="0.4" d="M67.4157 193.574C67.823 182.91 68.2303 170.507 68.6376 156.77L67.3416 156.399C66.9713 171.21 66.6011 183.466 66.3049 192.944H66.49L67.4157 193.463" fill="white"/>
<path opacity="0.4" d="M65.6019 0.66555C59.6759 0.658225 53.8808 2.40892 48.9499 5.69589C44.0191 8.98286 40.1741 13.6585 37.9012 19.1313C35.6283 24.6041 35.0298 30.6281 36.1814 36.4411C37.333 42.2541 40.1829 47.5948 44.3707 51.7877C48.5584 55.9806 53.8957 58.8371 59.7073 59.9959C65.5189 61.1547 71.5436 60.5637 77.0192 58.2976C82.4948 56.0315 87.1753 52.1924 90.4684 47.2656C93.7614 42.3389 95.5193 36.546 95.5193 30.62C95.5241 26.6881 94.7539 22.7938 93.2526 19.1598C91.7513 15.5258 89.5484 12.2233 86.7698 9.44124C83.9912 6.65924 80.6913 4.45228 77.0592 2.94648C73.427 1.44068 69.5338 0.665547 65.6019 0.66555ZM49.3101 51.2438C44.8608 48.1845 41.7587 43.5311 40.6461 38.2475C40.6461 38.2475 41.2754 43.9496 49.3472 47.5411C57.419 51.1327 56.7525 55.9831 49.3472 51.2438" fill="white"/>
<g opacity="0.4">
<path d="M59.7515 4.51769L57.8261 6.44291H55.4936L54.7531 5.70257H50.7171L48.5695 7.887V9.03481L46.4221 11.1453H48.9028L50.7912 9.29402H52.6055L54.3827 11.0712V12.7004L56.1969 14.5146L54.827 15.8848V18.4394L57.53 21.1425L58.7149 22.3274V24.3638H60.6772L61.7141 25.4004L63.7505 27.4H66.8606L68.4529 29.0292L69.5266 30.1029L70.341 29.2884V26.4373H69.1562V25.0303H67.8974L66.6384 26.2892H65.0092L63.9726 25.2524V22.1791L64.9353 21.1796H66.8606L67.416 20.6612H68.6009L69.4154 21.4756H70.7114V20.2908L72.0443 18.9579L73.1551 17.8471L72.1924 16.9215L74.34 14.7368V13.7743L74.8955 13.2188H76.3025L77.0428 13.9594L77.9685 13.0337L76.1172 11.1453H74.488L73.3772 10.0346H71.9702L71.0816 9.146H68.8972L70.0818 10.2938V12.6633H69.3044L68.2305 11.5896H66.7496L64.1948 9.07187V8.10915L65.3796 6.92428H67.0827L67.9345 6.07274L69.7487 7.887H71.2299V6.33195H72.9329L76.2283 9.5903L77.3391 8.47955L75.6729 6.81331V5.85059C72.3315 3.72079 68.5159 2.44894 64.5649 2.14795L61.8621 4.88787L59.7515 4.51769Z" fill="#8DC641"/>
<path d="M81.9308 33.7694H80.4867V31.881L79.45 30.8443L78.1911 29.5854H77.0803L76.1917 28.6968H74.4514L72.8223 30.3259V32.0662L70.8969 33.9915V37.1388L71.8226 38.0645L73.4517 39.6936V41.4339L71.3042 43.5814L67.2683 47.6173H69.5639L72.0817 45.0995H73.5258L75.266 43.3592H76.8581L80.0054 40.212L81.1162 39.1382L83.3378 36.8796V35.2134L81.9308 33.7694Z" fill="#8DC641"/>
</g>
<path opacity="0.4" d="M14.5047 54.6511C14.5047 54.6511 12.3571 65.7591 51.9383 79.9402C50.8646 77.3484 51.0126 74.2382 49.8278 71.6464C41.7931 54.0218 36.6463 48.1714 19.4661 42.5064C5.69226 37.9521 2.69324 35.1011 2.69324 35.1011C2.69324 35.1011 -9.04419 80.9769 27.8712 89.0857C42.1634 92.1959 47.9764 87.7528 57.8625 87.1234C11.8757 72.6831 14.5047 54.6511 14.5047 54.6511Z" fill="white"/>
<path opacity="0.4" d="M115.92 58.3523C115.92 58.3523 118.994 65.5355 79.4124 79.7166C80.4862 77.1248 80.5603 74.0886 81.5229 71.4227C87.3361 55.2792 93.9639 47.9478 111.922 42.2827C125.696 37.9136 128.658 34.8774 128.658 34.8774C128.658 34.8774 144.061 79.8646 103.48 88.862C89.1874 92.0093 83.3743 87.5292 73.4883 86.8997C119.512 72.6816 115.92 58.5003 115.92 58.5003" fill="white"/>
</svg>
