<svg width="251" height="104" viewBox="0 0 251 104" fill="none" xmlns="http://www.w3.org/2000/svg">
<path d="M237.949 103.937C237.532 103.937 237.124 103.748 236.86 103.391C236.42 102.799 236.551 101.965 237.151 101.531L246.429 94.8209L237.156 88.183C236.554 87.7515 236.419 86.9178 236.856 86.3224C237.291 85.7284 238.132 85.5939 238.737 86.0254L249.509 93.7368C249.858 93.9872 250.065 94.3854 250.066 94.8116C250.067 95.2378 249.862 95.6386 249.515 95.8904L238.743 103.68C238.503 103.855 238.225 103.937 237.949 103.937Z" fill="#1D9EC6"/>
<path d="M56.1249 2.77376C43.2217 0.643007 26.475 4.11783 19.4198 9.67366C-7.78877 31.1 0.926159 72.9089 19.4199 84.5734C33.6326 93.5377 45.9192 95.5968 91.3489 95.5968C137.539 95.5968 202.314 94.1395 232.207 94.1395" stroke="#1D9EC6" stroke-width="4" stroke-linecap="round" stroke-dasharray="10 10"/>
</svg>
