<svg width="21" height="19" viewBox="0 0 21 19" fill="none" xmlns="http://www.w3.org/2000/svg">
<path d="M12.9151 10.41C12.914 10.2325 12.843 10.0626 12.7175 9.93698C12.5909 9.81045 12.4193 9.73937 12.2404 9.73937H11.4701H10.8451L12.9151 10.41ZM12.9151 10.41H12.2901H12.9151ZM12.784 2.64972V3.27472H13.409H16.8742C17.6031 3.27472 18.3022 3.56429 18.8176 4.07972C19.333 4.59516 19.6226 5.29424 19.6226 6.02317V14.8022C19.6226 15.5312 19.333 16.2303 18.8176 16.7457C18.3022 17.2611 17.6031 17.5507 16.8742 17.5507H3.46671C2.73778 17.5507 2.0387 17.2611 1.52326 16.7457C1.00783 16.2303 0.718262 15.5312 0.718262 14.8022V6.03127C0.718262 5.30234 1.00783 4.60326 1.52326 4.08782C2.0387 3.57239 2.73778 3.28282 3.46671 3.28282H6.93192H7.55692V2.65782V2.11807C7.55692 1.74701 7.70433 1.39115 7.9667 1.12877C8.22908 0.866396 8.58494 0.718994 8.956 0.718994H11.3849C11.7559 0.718994 12.1118 0.866396 12.3742 1.12877C12.6366 1.39115 12.784 1.74701 12.784 2.11807V2.64972ZM8.03698 1.19904L8.47892 1.64099L8.03698 1.19905C7.79324 1.44279 7.65631 1.77337 7.65631 2.11807V2.65782V3.28282H8.28131H12.0596H12.6846V2.65782V2.11807C12.6846 1.77337 12.5476 1.44279 12.3039 1.19905C12.0602 0.955305 11.7296 0.818376 11.3849 0.818376H8.956C8.6113 0.818376 8.28072 0.955306 8.03698 1.19904ZM10.8451 10.4597H10.2201V11.0847V12.48C10.2201 12.4931 10.2149 12.5058 10.2056 12.5151C10.1963 12.5244 10.1836 12.5297 10.1704 12.5297C10.1573 12.5297 10.1446 12.5244 10.1353 12.5151C10.126 12.5058 10.1207 12.4931 10.1207 12.48V11.0888V10.4638H9.49575H8.10049C8.08731 10.4638 8.07467 10.4585 8.06535 10.4492C8.05603 10.4399 8.0508 10.4272 8.0508 10.4141C8.0508 10.4009 8.05603 10.3882 8.06535 10.3789C8.07467 10.3696 8.08731 10.3644 8.10049 10.3644H9.49575H10.1207V9.73937V8.34411C10.1207 8.33093 10.126 8.31829 10.1353 8.30897C10.1446 8.29965 10.1573 8.29442 10.1704 8.29442C10.1836 8.29442 10.1963 8.29965 10.2056 8.30897C10.2149 8.31829 10.2201 8.33093 10.2201 8.34411V9.73937V10.3644H10.8451H12.2404C12.2536 10.3644 12.2662 10.3696 12.2755 10.3789C12.2844 10.3878 12.2895 10.3996 12.29 10.412C12.2895 10.4245 12.2844 10.4363 12.2755 10.4451C12.2662 10.4545 12.2536 10.4597 12.2404 10.4597H10.8451ZM18.7473 16.6754C19.2441 16.1786 19.5232 15.5048 19.5232 14.8022V6.02317C19.5232 5.3206 19.2441 4.64679 18.7473 4.15C18.2505 3.6532 17.5767 3.3741 16.8742 3.3741H3.46671C2.76414 3.3741 2.09034 3.6532 1.59354 4.15C1.09674 4.6468 0.817643 5.3206 0.817643 6.02317V14.8022C0.817643 15.5048 1.09674 16.1786 1.59354 16.6754C2.09034 17.1722 2.76414 17.4513 3.46671 17.4513H16.8742C17.5767 17.4513 18.2505 17.1722 18.7473 16.6754Z" fill="#37ABFF" stroke="#F4BC47" stroke-width="1.25"/>
</svg>
