<svg width="176" height="175" viewBox="0 0 176 175" fill="none" xmlns="http://www.w3.org/2000/svg">
<path d="M25.4186 87.4149C25.4186 75.0851 29.0748 63.0321 35.9249 52.7803C42.775 42.5284 52.5112 34.5381 63.9025 29.8197C75.2938 25.1012 87.8284 23.8667 99.9213 26.2721C112.014 28.6775 123.122 34.615 131.841 43.3335C140.559 52.052 146.497 63.16 148.902 75.2529C151.307 87.3458 150.073 99.8804 145.355 111.272C140.636 122.663 132.646 132.399 122.394 139.249C112.142 146.099 100.089 149.756 87.7593 149.756C71.2255 149.756 55.3689 143.188 43.6777 131.496C31.9866 119.805 25.4186 103.949 25.4186 87.4149Z" fill="#005E8E"/>
<path fill-rule="evenodd" clip-rule="evenodd" d="M82.1173 6.81341C37.602 9.92948 4.04126 48.5424 7.15733 93.0577C10.2734 137.573 48.8863 171.134 93.4016 168.018C137.917 164.902 171.478 126.289 168.361 81.7734C165.245 37.2581 126.633 3.69734 82.1173 6.81341ZM6.14981 93.1282C2.99479 48.0564 36.975 8.9609 82.0468 5.80588C127.118 2.65086 166.214 36.6311 169.369 81.7028C172.524 126.775 138.544 165.87 93.4721 169.025C48.4004 172.18 9.30483 138.2 6.14981 93.1282Z" fill="#035C55"/>
<path d="M79.9286 154.008L78.1812 163.296L75.9457 162.871L76.6384 159.203L72.5768 158.432L71.8841 162.1L69.6487 161.69L71.3961 152.402L73.6473 152.827L72.9231 156.621L76.969 157.393L77.6931 153.599L79.9286 154.008Z" fill="#035C55"/>
<path d="M58.5976 147.633L65.304 150.467L61.6202 159.157L55.0398 156.37L55.7797 154.654L60.2978 156.559L61.022 154.859L57.4956 153.364L58.2198 151.663L61.7461 153.159L62.5175 151.317L57.8735 149.349L58.5976 147.633Z" fill="#035C55"/>
<path d="M43.2328 149.176L45.547 139.258L47.5463 140.659L47.0268 142.784L50.1753 144.972L52.0014 143.776L53.859 145.083L45.2951 150.75L43.2328 149.176ZM48.6168 146.027L46.5387 144.61L45.7359 147.853L48.6168 146.027Z" fill="#035C55"/>
<path d="M32.921 140.171L38.4782 135.024L35.2194 131.513L36.589 130.238L41.3905 135.433L34.4638 141.84L32.921 140.171Z" fill="#035C55"/>
<path d="M32.3386 124.335L25.9471 128.381L27.6945 131.152L26.1202 132.159L21.366 124.666L22.9402 123.658L24.7349 126.476L31.1264 122.43L32.3386 124.335Z" fill="#035C55"/>
<path d="M26.7343 114.227L17.824 117.391L17.0684 115.25L20.579 113.991L19.1936 110.118L15.683 111.362L14.9116 109.221L23.8219 106.057L24.5776 108.198L20.941 109.489L22.3264 113.377L25.9629 112.086L26.7343 114.227Z" fill="#035C55"/>
<path d="M12.2985 96.6274C12.1859 96.059 12.1912 95.4735 12.314 94.9072C12.4368 94.3409 12.6745 93.8057 13.0124 93.335C13.3503 92.8642 13.7813 92.4679 14.2786 92.1704C14.7759 91.8729 15.329 91.6807 15.9036 91.6055L16.2499 93.7465C15.9457 93.7866 15.6527 93.8877 15.3884 94.0436C15.1241 94.1995 14.894 94.4071 14.7118 94.654C14.5295 94.9009 14.399 95.1821 14.3279 95.4806C14.2567 95.779 14.2465 96.0887 14.2978 96.3913C14.4709 97.9655 15.6989 98.6897 17.4463 98.485C19.1937 98.2804 20.2013 97.2099 20.0281 95.7143C20.0066 95.4084 19.9236 95.1101 19.7842 94.837C19.6448 94.5639 19.4518 94.3216 19.2167 94.1247C18.9816 93.9278 18.7092 93.7803 18.4159 93.691C18.1225 93.6017 17.8142 93.5724 17.5093 93.6049L17.3361 91.4324C17.9154 91.3623 18.5029 91.4132 19.0615 91.5817C19.6201 91.7502 20.1377 92.0328 20.5815 92.4115C21.0253 92.7902 21.3858 93.2569 21.6401 93.7821C21.8944 94.3072 22.037 94.8794 22.0589 95.4625C22.1354 96.1013 22.0853 96.7489 21.9115 97.3683C21.7377 97.9878 21.4436 98.567 21.046 99.0728C20.6484 99.5786 20.155 100.001 19.5941 100.316C19.0332 100.631 18.4157 100.833 17.7769 100.909C17.1381 100.986 16.4905 100.936 15.871 100.762C15.2516 100.588 14.6724 100.294 14.1666 99.8965C13.6608 99.4989 13.2383 99.0056 12.9232 98.4447C12.6081 97.8838 12.4064 97.2662 12.33 96.6274" fill="#035C55"/>
<path d="M12.44 78.9472L22.2161 76.082L21.9643 78.4906L19.8705 79.1046L19.4927 82.8986L21.4448 83.8904L21.2244 86.1572L12.1881 81.4345L12.44 78.9472ZM17.8555 82.0957L18.0916 79.6241L14.9431 80.5372L17.8555 82.0957Z" fill="#035C55"/>
<path d="M25.3962 64.8424C24.7528 64.9214 24.0997 64.8458 23.4913 64.6219C23.3089 64.5393 23.1098 64.5003 22.9097 64.5079C22.7096 64.5155 22.5141 64.5694 22.3385 64.6656C22.1628 64.7619 22.012 64.8976 21.8979 65.0622C21.7838 65.2267 21.7095 65.4155 21.6809 65.6137L21.0827 67.4242L24.2312 68.4474L23.5386 70.5727L14.5653 67.5973L15.9979 63.2838C16.7693 60.9539 18.2176 60.1354 19.9492 60.7493C20.5187 60.8983 21.0086 61.2616 21.3166 61.7632C21.6246 62.2648 21.727 62.866 21.6022 63.4412C21.7959 63.0175 22.1392 62.6803 22.5664 62.4943C22.9935 62.3083 23.4743 62.2868 23.9164 62.4338C25.286 62.7486 25.7268 62.843 26.1518 62.6541L25.3962 64.8424ZM20.0437 64.9998C20.4058 63.8821 20.2641 63.2209 19.3825 62.9218C18.501 62.6227 17.9657 63.0635 17.5879 64.1969L16.9739 66.0546L19.414 66.8731L20.0437 64.9998Z" fill="#035C55"/>
<path d="M32.3232 50.958L28.6709 57.2393L20.5005 52.5008L24.1055 46.314L25.7113 47.2585L23.2397 51.509L24.8454 52.4378L26.766 49.1319L28.3718 50.0607L26.4512 53.3666L28.1671 54.3742L30.7017 50.0135L32.3232 50.958Z" fill="#035C55"/>
<path d="M38.1006 30.0677C38.5072 29.6564 38.9938 29.3327 39.5304 29.1166C40.0669 28.9005 40.642 28.7967 41.2202 28.8114C41.7984 28.8262 42.3675 28.9593 42.8923 29.2024C43.4171 29.4455 43.8865 29.7936 44.2717 30.2251L42.6974 31.7207C42.4918 31.4929 42.2427 31.3085 41.9647 31.1785C41.6867 31.0485 41.3855 30.9754 41.0789 30.9636C40.7722 30.9519 40.4663 31.0017 40.1792 31.1101C39.8921 31.2185 39.6296 31.3833 39.4072 31.5947C38.963 32.1293 38.7234 32.8044 38.7313 33.4993C38.7391 34.1943 38.994 34.8638 39.4502 35.3882C39.9064 35.9125 40.5342 36.2575 41.2214 36.3614C41.9086 36.4653 42.6104 36.3215 43.2012 35.9555C43.4444 35.7686 43.6469 35.534 43.7962 35.2661C43.9456 34.9981 44.0385 34.7026 44.0695 34.3974C44.1004 34.0923 44.0687 33.784 43.9763 33.4916C43.8838 33.1991 43.7325 32.9286 43.5318 32.6967L45.232 31.3271C45.6074 31.7681 45.8883 32.2813 46.0575 32.8351C46.2266 33.3889 46.2804 33.9715 46.2155 34.547C46.1506 35.1224 45.9684 35.6784 45.68 36.1806C45.3917 36.6828 45.0035 37.1205 44.5393 37.4667C43.548 38.2372 42.2992 38.5988 41.0495 38.4772C39.7999 38.3556 38.6442 37.7601 37.82 36.8129C36.9958 35.8658 36.5656 34.6389 36.6178 33.3844C36.67 32.1299 37.2006 30.9432 38.1006 30.0677Z" fill="#035C55"/>
<path d="M50.2381 21.6611L53.9061 28.2888L58.0936 25.9589L59.0067 27.5961L52.8199 31.028L48.2388 22.7631L50.2381 21.6611Z" fill="#035C55"/>
<path d="M63.7012 15.5604L61.5496 16.3228L64.7041 25.226L66.8557 24.4636L63.7012 15.5604Z" fill="#035C55"/>
<path d="M77.032 21.9755L74.0882 15.3793H74.0252L75.0642 22.2746L72.9862 22.5894L71.5851 13.2541L75.0957 12.7188L77.6775 18.7168H77.709L78.3544 12.2308L81.7705 11.7271L83.1716 21.0624L80.9204 21.393L79.8814 14.4977L79.8342 14.5135L78.9684 21.6921L77.032 21.9755Z" fill="#035C55"/>
<path d="M95.9232 12.0266L98.8985 21.7555L96.4741 21.5508L95.8445 19.4414L92.0505 19.1265L91.0902 21.0786L88.8232 20.8897L93.3886 11.8062L95.9232 12.0266ZM92.7746 17.4735L95.262 17.6939L94.3174 14.5453L92.7746 17.4735Z" fill="#035C55"/>
<path d="M105.998 23.519L108.171 16.2617L105.022 15.3171L105.558 13.5225L114.059 16.0728L113.523 17.8674L110.343 16.9071L108.171 24.1645L105.998 23.519Z" fill="#035C55"/>
<path d="M123.252 31.0118L116.861 27.5327L121.395 19.2363L127.66 22.6682L126.763 24.3054L122.449 21.9598L121.568 23.5813L124.921 25.4074L124.039 27.0289L120.67 25.2028L119.726 26.9502L124.15 29.3746L123.252 31.0118Z" fill="#035C55"/>
<path d="M144.977 37.245L140.601 46.4228L139.027 44.6439L139.987 42.6604L137.421 39.8582L135.374 40.6453L133.8 38.9766L143.246 35.3716L144.977 37.245ZM139.042 39.197L140.727 41.0231L142.191 38.0321L139.042 39.197Z" fill="#035C55"/>
<path d="M154.139 49.6505C154.466 50.1276 154.691 50.6666 154.802 51.2343C154.913 51.8019 154.906 52.3863 154.782 52.9512C154.658 53.5161 154.42 54.0496 154.082 54.5189C153.744 54.9882 153.313 55.3833 152.816 55.6798L151.652 53.8537C152.165 53.5323 152.53 53.0211 152.669 52.4316C152.807 51.842 152.708 51.2216 152.391 50.7052C151.952 50.1641 151.334 49.7976 150.649 49.6713C149.963 49.5451 149.255 49.6675 148.652 50.0166C148.049 50.3656 147.59 50.9185 147.357 51.5756C147.125 52.2328 147.135 52.9512 147.385 53.6018C147.526 53.8744 147.72 54.1161 147.955 54.3125C148.191 54.509 148.464 54.6564 148.757 54.7459C149.05 54.8354 149.359 54.8653 149.664 54.8337C149.969 54.8021 150.265 54.7098 150.534 54.5622L151.541 56.4827C151.036 56.7533 150.48 56.9184 149.909 56.9678C149.337 57.0173 148.762 56.9502 148.217 56.7706C147.673 56.591 147.17 56.3027 146.74 55.923C146.31 55.5434 145.962 55.0804 145.717 54.5622C145.065 53.437 144.888 52.099 145.223 50.8428C145.558 49.5866 146.378 48.515 147.503 47.8637C148.629 47.2124 149.966 47.0346 151.223 47.3697C152.479 47.7048 153.55 48.5253 154.202 49.6505" fill="#035C55"/>
<path d="M151.132 66.1812L158.327 63.867L157.335 60.75L159.114 60.1675L161.822 68.6213L160.043 69.188L159.019 66.0237L151.809 68.3379L151.132 66.1812Z" fill="#035C55"/>
<path d="M163.259 76.2357L153.901 77.5176L154.211 79.7792L163.569 78.4972L163.259 76.2357Z" fill="#035C55"/>
<path d="M154.438 90.6129C154.473 89.6455 154.794 88.7101 155.36 87.9249C155.926 87.1398 156.713 86.5402 157.62 86.2018C158.527 85.8635 159.514 85.8016 160.456 86.0241C161.398 86.2465 162.253 86.7433 162.913 87.4516C163.573 88.1599 164.008 89.0479 164.163 90.0034C164.319 90.959 164.187 91.9391 163.786 92.82C163.384 93.7008 162.73 94.4429 161.907 94.9523C161.084 95.4617 160.128 95.7157 159.161 95.6821C158.51 95.6838 157.867 95.5511 157.27 95.2924C156.673 95.0337 156.136 94.6545 155.693 94.1786C155.249 93.7027 154.909 93.1404 154.693 92.5268C154.477 91.9132 154.39 91.2616 154.438 90.6129ZM162.309 90.9593C162.309 89.385 161.255 88.4089 159.507 88.3302C159.15 88.2648 158.784 88.2763 158.432 88.3638C158.08 88.4514 157.75 88.6131 157.466 88.8381C157.181 89.0631 156.948 89.3462 156.781 89.6686C156.615 89.9909 156.519 90.3451 156.5 90.7074C156.5 92.2816 157.539 93.2734 159.287 93.3521C159.643 93.4053 160.007 93.3833 160.354 93.2875C160.702 93.1917 161.025 93.0242 161.304 92.7959C161.583 92.5675 161.811 92.2833 161.973 91.9616C162.135 91.6398 162.228 91.2877 162.246 90.9278" fill="#035C55"/>
<path d="M155.414 108.339L160.877 109.85L160.326 111.85L151.227 109.347L151.699 107.599L158.673 104.97L152.864 103.38L153.415 101.365L162.514 103.853L161.947 105.978L155.414 108.339Z" fill="#035C55"/>
<path d="M147.465 124.318L147.433 124.366L152.188 128.868L151.101 130.789L144.096 123.988L145.292 121.862L151.605 123.515L151.637 123.468L146.961 118.919L148.142 116.809L157.571 119.312L156.454 121.28L150.141 119.564L150.125 119.611L154.832 124.177L153.809 125.971L147.465 124.318Z" fill="#035C55"/>
<path d="M136.272 133.432C136.935 132.718 137.795 132.218 138.744 131.995C139.692 131.772 140.686 131.836 141.598 132.178C142.51 132.521 143.299 133.128 143.865 133.92C144.432 134.713 144.75 135.656 144.779 136.63C144.808 137.604 144.546 138.565 144.028 139.39C143.509 140.214 142.757 140.867 141.867 141.263C140.977 141.659 139.989 141.782 139.029 141.615C138.069 141.449 137.181 141 136.476 140.327C135.991 139.9 135.599 139.377 135.324 138.792C135.049 138.206 134.897 137.571 134.878 136.924C134.859 136.278 134.972 135.634 135.212 135.033C135.452 134.433 135.813 133.888 136.272 133.432ZM141.939 138.816C142.411 138.445 142.758 137.938 142.934 137.363C143.11 136.789 143.105 136.174 142.922 135.602C142.738 135.03 142.384 134.528 141.906 134.163C141.429 133.798 140.851 133.589 140.251 133.561C139.651 133.534 139.057 133.692 138.549 134.012C138.041 134.332 137.643 134.8 137.408 135.354C137.174 135.907 137.114 136.518 137.237 137.106C137.361 137.694 137.661 138.23 138.098 138.643C138.326 138.926 138.612 139.157 138.936 139.321C139.261 139.485 139.616 139.579 139.979 139.595C140.342 139.611 140.705 139.55 141.043 139.416C141.381 139.282 141.686 139.077 141.939 138.816Z" fill="#035C55"/>
<path d="M123.394 144.249C123.948 144.583 124.417 145.041 124.764 145.587C124.854 145.765 124.986 145.92 125.148 146.038C125.31 146.156 125.497 146.235 125.695 146.267C125.893 146.299 126.096 146.284 126.286 146.224C126.477 146.163 126.651 146.058 126.794 145.917L128.369 144.863L126.527 142.139L128.384 140.896L133.658 148.767L129.864 151.301C127.833 152.671 126.212 152.388 125.141 150.876C124.777 150.41 124.609 149.82 124.673 149.232C124.738 148.643 125.03 148.104 125.488 147.728C125.071 147.936 124.593 147.986 124.142 147.871C123.691 147.755 123.297 147.481 123.032 147.098C122.15 146.012 121.851 145.666 121.458 145.524L123.394 144.249ZM127.723 147.397C126.747 148.058 126.448 148.672 126.968 149.444C127.487 150.215 128.18 150.199 129.156 149.538L130.73 148.436L129.297 146.295L127.723 147.397Z" fill="#035C55"/>
<path d="M110.532 150.499L114.673 153.065L115.145 151.869L114.059 149.114L116.168 148.279L119.631 157.064L117.522 157.898L116.042 154.167L114.122 159.22L111.681 160.181L113.681 155.049L107.998 151.491L110.532 150.499Z" fill="#035C55"/>
<path d="M101.969 156.418C101.906 156.154 101.789 155.906 101.625 155.689C101.462 155.472 101.255 155.292 101.019 155.159C100.782 155.026 100.521 154.943 100.251 154.916C99.9808 154.889 99.708 154.918 99.4497 155.001C98.4579 155.174 97.8754 155.662 98.0171 156.276C98.1588 156.89 98.6941 156.953 99.5914 156.969H101.386C102.08 156.891 102.778 157.083 103.334 157.505C103.891 157.927 104.264 158.546 104.377 159.236C104.692 161.062 103.448 162.384 101.229 162.825C98.694 163.266 97.104 162.243 96.7105 160.18L98.7727 159.771C98.815 160.005 98.907 160.228 99.0425 160.424C99.1779 160.62 99.3537 160.784 99.558 160.906C99.7622 161.029 99.9903 161.106 100.227 161.133C100.463 161.159 100.703 161.135 100.929 161.062C101.89 160.904 102.346 160.432 102.236 159.803C102.126 159.173 101.701 159.141 100.993 159.126H99.1978C97.2457 159.126 96.2067 158.323 95.9391 156.796C95.6242 154.875 97.1198 153.647 99.245 153.238C101.732 152.813 103.716 153.742 104.094 155.993L101.969 156.418Z" fill="#035C55"/>
<path d="M97.812 81.9704C91.9085 75.7835 79.4561 77.0744 75.9455 84.0011C73.8989 88.0312 75.3473 88.724 78.606 87.0238C81.0303 85.7801 79.7709 84.6309 82.211 83.0409C84.6511 81.4509 89.0119 81.6713 92.428 83.1983C95.2145 84.442 93.7976 87.5275 90.1611 88.2989L89.4211 88.4406C89.4211 89.8259 89.4211 91.227 89.4211 92.6281C99.7798 88.9759 100.126 84.4577 97.8749 81.9704H97.812ZM77.8661 84.316C77.8661 84.316 78.0235 84.1901 77.7086 84.6624C77.8166 84.7463 77.907 84.8506 77.9745 84.9695C78.042 85.0883 78.0854 85.2194 78.1022 85.3551C78.1004 85.442 78.0781 85.5271 78.0371 85.6037C77.996 85.6803 77.9375 85.7462 77.8661 85.7958L77.7402 85.8903C77.441 86.1421 77.2207 86.3153 77.0632 86.3153H76.953C76.8271 86.2209 76.8271 86.0162 76.953 85.5912C77.0972 85.0782 77.3377 84.5975 77.6615 84.1744C77.6849 84.1522 77.7158 84.1399 77.748 84.1399C77.7802 84.1399 77.8112 84.1522 77.8346 84.1744C77.8568 84.1978 77.8691 84.2287 77.8691 84.2609C77.8691 84.2932 77.8568 84.3241 77.8346 84.3475L77.8661 84.316ZM80.9831 80.3332C83.9911 78.8236 87.4303 78.4062 90.712 79.1525C96.3636 80.3804 97.7647 84.0011 97.7647 84.0011C97.7647 84.0011 92.3493 76.9485 80.9831 80.3332Z" fill="white"/>
<path d="M94.2701 101.35C91.7812 100.018 89.1375 98.9975 86.3988 98.3122C84.9975 98.0232 83.6148 97.6499 82.2585 97.1944C79.9916 96.5332 80.1175 96.3759 80.1175 96.3759C80.1175 96.3759 79.9758 95.3683 80.7944 95.5415C82.2231 94.9363 83.6841 94.4108 85.1708 93.9672H85.2968V93.6681L85.2023 89.3389C84.1319 89.575 83.0771 89.8111 82.0538 90.126C79.8341 90.7714 77.2209 91.7002 76.0559 93.857C75.5764 94.9531 75.4948 96.1822 75.8254 97.332C76.156 98.4818 76.8779 99.48 77.8663 100.154C80.4133 101.856 83.2608 103.058 86.2571 103.696C87.6739 104.121 89.1222 104.515 90.5076 105.05C90.6808 105.05 92.3337 105.711 92.5856 106.136C92.8348 106.446 92.9705 106.832 92.9705 107.23C92.9705 107.628 92.8348 108.014 92.5856 108.324C92.5856 108.324 93.0736 107.223 92.0661 107.112C91.4816 107.561 90.8477 107.941 90.177 108.246C89.7991 108.45 89.4056 108.639 89.012 108.812L88.8704 113.268C90.2308 112.83 91.5612 112.304 92.8532 111.693C94.7738 110.749 97.025 109.112 97.2926 106.766C97.4083 106.054 97.3592 105.324 97.1491 104.634C96.939 103.943 96.5734 103.31 96.0804 102.783C95.5629 102.249 94.975 101.788 94.333 101.413L94.2701 101.35ZM96.6 106.136C94.6007 103.082 95.7499 102.689 83.0456 98.139C86.0906 98.9795 89.0732 100.032 91.9716 101.288C96.3796 103.114 96.6 105.648 96.6 106.183" fill="white"/>
<path d="M86.6033 132.221C85.9956 132.705 85.4648 133.278 85.029 133.921C84.7365 134.42 84.5505 134.974 84.4828 135.548C84.4151 136.123 84.467 136.705 84.6355 137.258C84.4644 136.236 84.6956 135.186 85.2809 134.33C85.6391 133.851 86.0755 133.436 86.5718 133.102V132.221" fill="white"/>
<path d="M86.2726 119.8C84.9744 119.212 83.8789 118.254 83.1241 117.045V116.95C82.8248 117.218 82.6389 117.59 82.6045 117.989C82.531 117.28 82.6796 116.565 83.0296 115.943C83.4287 115.419 83.9778 115.029 84.6039 114.825C85.0132 114.605 85.454 114.432 85.8948 114.243L85.753 110.118C83.4704 111.11 80.3691 112.448 79.8024 115.124C79.2357 117.801 81.109 119.989 83.2343 121.28C84.3661 121.927 85.5387 122.5 86.7448 122.996C88.0153 123.43 89.191 124.103 90.2082 124.979C90.5826 125.447 90.8008 126.021 90.8318 126.62C90.8629 127.219 90.7053 127.812 90.3814 128.317C89.8315 129.369 89.0577 130.288 88.1144 131.009C88.1144 131.434 88.1144 131.843 88.1144 132.221L88.3979 132.048C90.5861 130.615 93.1206 128.348 92.5854 125.404C92.0501 122.46 88.571 121.185 86.2883 119.863L86.2726 119.8ZM80.7469 117.155C80.5538 116.737 80.4631 116.279 80.4823 115.819C80.5015 115.359 80.6299 114.911 80.8571 114.51C81.396 113.403 82.2875 112.506 83.3917 111.96C82.4683 112.447 81.7183 113.208 81.2447 114.138C80.7712 115.068 80.5972 116.122 80.7469 117.155ZM91.7667 127.152C91.7667 127.152 92.7585 124.822 89.4053 122.87C87.6051 121.91 85.9068 120.771 84.3363 119.469C84.3363 119.469 85.4698 120.256 89.185 122.287C92.9003 124.318 91.7667 127.152 91.7667 127.152Z" fill="white"/>
<path d="M85.5487 82.4109C85.6274 87.7634 85.7219 92.8797 85.8321 97.6969L86.4932 97.9173L87.7841 98.3109C87.7841 93.4307 87.8785 88.0939 87.9258 82.4265C87.4905 82.4034 87.0544 82.4034 86.6192 82.4265C86.2414 82.4265 85.895 82.4265 85.5487 82.4265" fill="white"/>
<path d="M88.225 98.4536L88.8074 98.6267C88.9176 93.6049 89.0278 88.2366 89.1066 82.6008L88.4927 82.5063C88.4927 88.1894 88.3352 93.5262 88.225 98.4536Z" fill="white"/>
<path d="M87.7211 104.435L86.6664 104.121L85.9895 103.932C86.1469 109.693 86.3201 114.951 86.4933 119.438L87.4851 120.005C87.4851 115.959 87.6424 110.669 87.7211 104.435Z" fill="white"/>
<path d="M87.5952 77.5788H87.9415C87.9415 72.856 87.9415 76.3666 87.9415 71.2817C88.1599 71.261 88.373 71.2023 88.5713 71.1085C88.5713 76.2563 88.5713 72.8087 88.5713 77.6102H89.1852C89.1852 72.3994 89.2797 52.7212 89.2797 47.1641C88.6785 47.4647 88.0155 47.6212 87.3433 47.6212C86.6711 47.6212 86.0082 47.4647 85.407 47.1641C85.407 52.7527 85.407 72.4467 85.5014 77.689C86.2006 77.5937 86.9054 77.5463 87.611 77.5472" fill="white"/>
<path d="M87.4694 123.72C87.3434 126.995 87.2647 128.805 87.2647 128.805C87.2647 128.805 87.2647 126.979 87.3592 123.673L86.9027 123.468L86.572 123.327C86.9498 132.772 87.2647 138.345 87.2647 138.345C87.2647 138.345 87.5638 133.008 87.9259 123.925L87.4694 123.72Z" fill="white"/>
<path d="M88.1308 120.35C88.304 115.817 88.4772 110.559 88.6346 104.718L88.0994 104.545C87.942 110.842 87.7845 116.069 87.6586 120.099L88.0521 120.303" fill="white"/>
<path d="M87.4694 38.3316C84.946 38.3284 82.4785 39.074 80.3791 40.474C78.2797 41.8739 76.6429 43.8653 75.6758 46.1959C74.7087 48.5266 74.4549 51.0918 74.9464 53.5668C75.4379 56.0418 76.6527 58.3154 78.437 60.0996C80.2213 61.8839 82.4948 63.0987 84.9698 63.5902C87.4448 64.0817 90.01 63.8279 92.3407 62.8608C94.6714 61.8938 96.6627 60.257 98.0627 58.1576C99.4626 56.0582 100.208 53.5906 100.205 51.0673C100.205 47.6895 98.8634 44.4502 96.475 42.0618C94.0865 39.6734 90.8471 38.3316 87.4694 38.3316ZM80.5584 59.8359C78.6688 58.5401 77.3499 56.5673 76.8746 54.326C76.8746 54.326 77.1422 56.7503 80.5741 58.2616C84.006 59.7729 83.7226 61.8509 80.5741 59.8359" fill="white"/>
<path d="M84.9188 39.9694L84.1001 40.8037H83.0926L82.7463 40.5519H81.0303L80.1173 41.465V41.953L79.2042 42.866H80.1803L80.9831 42.0632H81.849L82.6046 42.8188V43.5115L83.376 44.2829L82.7936 44.8653V45.9516L83.9428 47.1165L84.4465 47.6045V48.4232H85.2808L85.7217 48.864L86.5875 49.7298H87.9099L88.5868 50.4068L89.0433 50.8633L89.3896 50.517V49.3048H88.886V48.6278H88.3507L87.8154 49.163H87.1228L86.6662 48.7223V47.4156L87.0913 47.0063H87.9099L88.146 46.7702H88.6498L88.9961 47.1165H89.5471V46.6285L90.1138 46.046L90.5861 45.5895L90.1768 45.1802L91.0899 44.2671V43.8421L91.326 43.6059H91.9243L92.2391 43.9208L92.6327 43.5273L91.8298 42.7401H91.1529L90.6805 42.2521H90.0823L89.7045 41.8743H88.7757L89.2795 42.378V43.3855H89.0433L88.5868 42.9133H87.9413L86.8709 41.8428V41.4335L87.3746 40.9297H88.0988L88.4609 40.5676L89.2322 41.3548H89.862V40.6778H90.6176L92.003 42.0789L92.491 41.5908L91.7825 40.8825V40.4732C90.3653 39.5604 88.7412 39.019 87.0598 38.8989L85.9106 40.0481L84.9188 39.9694Z" fill="#8DC641"/>
<path d="M94.3492 52.4062H93.7352V51.6034L93.2944 51.1626L92.7592 50.6273H92.2869L91.9091 50.2495H91.1692L90.4765 50.9422V51.6821L89.6579 52.5007V53.8388L90.0515 54.2324L90.7441 54.9251V55.665L89.8311 56.578L88.1151 58.294H89.0912L90.1616 57.2235H90.7756L91.5155 56.4836H92.1924L93.5306 55.1455L94.0028 54.6889L94.9474 53.7286V53.0202L94.3492 52.4062Z" fill="#8DC641"/>
<path d="M65.6818 61.2535C65.6818 61.2535 64.7531 65.9763 81.5976 72.0214C81.1411 70.9194 81.2041 69.5813 80.7003 68.4793C77.2684 61.0016 75.0959 58.4985 67.7756 56.0899C61.9351 54.1693 60.66 52.9414 60.66 52.9414C60.66 52.9414 55.6695 72.4465 71.3649 75.8784C77.4415 77.2165 79.9131 75.3273 84.1164 75.044C64.5484 68.9988 65.6818 61.3007 65.6818 61.3007" fill="white"/>
<path d="M108.8 62.9223C108.8 62.9223 110.107 65.9763 93.2781 72.0214C93.7346 70.9194 93.7503 69.6285 94.1754 68.4793C96.647 61.6313 99.4649 58.4985 107.084 56.0899C112.956 54.2323 114.216 52.9414 114.216 52.9414C114.216 52.9414 120.765 72.0529 103.511 75.8784C97.4341 77.2322 94.9625 75.3273 90.7593 75.044C110.327 68.9988 108.8 62.9694 108.8 62.9694" fill="white"/>
</svg>
