<svg width="26" height="25" viewBox="0 0 26 25" fill="none" xmlns="http://www.w3.org/2000/svg">
<mask id="path-1-inside-1_44_524" fill="white">
<path d="M8.37628 1.99552C10.0087 1.99552 11.5745 2.59495 12.7854 3.68371L13.1677 4.02747L13.5501 3.68371C14.761 2.59495 16.3268 1.99552 17.9592 1.99552C19.722 1.99552 21.3796 2.68218 22.6263 3.92881C23.8803 5.18258 24.5252 6.82216 24.5564 8.47375C24.5564 8.78977 24.8127 9.0463 25.129 9.0463C25.4453 9.0463 25.7015 8.79005 25.7015 8.47375C25.6706 6.52874 24.9119 4.59631 23.4351 3.12003C21.9725 1.65719 20.0278 0.851562 17.9592 0.851562C16.2118 0.851562 14.5288 1.43755 13.1677 2.51087C11.8067 1.43755 10.1237 0.851562 8.37628 0.851562C6.30772 0.851562 4.363 1.65719 2.90045 3.12003C0.688606 5.33158 0.0857409 8.56555 1.13103 11.3336C1.27917 11.7257 1.45963 12.1084 1.67384 12.4776H3.03658H6.50277C6.91574 12.4776 7.30096 12.1902 7.41822 11.7941L8.46294 8.2727L10.9854 17.5007C11.0883 17.8771 11.3649 18.0249 11.5891 18.0372C11.6 18.0378 11.6108 18.0381 11.6217 18.0381C11.841 18.0381 12.1116 17.9165 12.2494 17.5708L15.0556 10.5163L16.9408 14.7375C17.0601 15.0037 17.2897 15.1719 17.5554 15.1873C17.8205 15.2002 18.0685 15.0621 18.2172 14.8113L19.6025 12.4773H23.2938C23.1668 12.6512 23.0338 12.8222 22.8877 12.9861L13.1677 22.7226L5.52783 15.0707L5.51725 15.0601C5.41315 14.9586 5.27101 14.8954 5.114 14.8954C4.79455 14.8954 4.53516 15.1545 4.53516 15.4739C4.53516 15.5897 4.57005 15.6973 4.62868 15.7879L13.1677 24.3416L23.7087 13.7837L23.7299 13.7614C24.09 13.3596 24.3957 12.9277 24.6568 12.4779C24.871 12.1084 25.0543 11.7266 25.2022 11.3339H23.9653H19.563C19.2027 11.3339 18.8229 11.5501 18.6396 11.8599L17.6521 13.5237L15.6644 9.07347C15.5392 8.79377 15.3032 8.62847 15.0307 8.62847C15.0261 8.62847 15.0215 8.62847 15.0164 8.62847C14.7381 8.63447 14.5033 8.81064 14.3884 9.09978L11.7135 15.8251L9.11271 6.31081C9.00546 5.91986 8.72062 5.7783 8.48982 5.77573C8.48782 5.77573 8.48582 5.77573 8.48382 5.77573C8.25388 5.77573 7.97018 5.91271 7.85636 6.29766L6.36178 11.3339H2.37308C1.25887 8.89129 1.71445 5.9233 3.70923 3.92909C4.95585 2.68218 6.61345 1.99552 8.37628 1.99552Z"/>
</mask>
<path d="M8.37628 1.99552C10.0087 1.99552 11.5745 2.59495 12.7854 3.68371L13.1677 4.02747L13.5501 3.68371C14.761 2.59495 16.3268 1.99552 17.9592 1.99552C19.722 1.99552 21.3796 2.68218 22.6263 3.92881C23.8803 5.18258 24.5252 6.82216 24.5564 8.47375C24.5564 8.78977 24.8127 9.0463 25.129 9.0463C25.4453 9.0463 25.7015 8.79005 25.7015 8.47375C25.6706 6.52874 24.9119 4.59631 23.4351 3.12003C21.9725 1.65719 20.0278 0.851562 17.9592 0.851562C16.2118 0.851562 14.5288 1.43755 13.1677 2.51087C11.8067 1.43755 10.1237 0.851562 8.37628 0.851562C6.30772 0.851562 4.363 1.65719 2.90045 3.12003C0.688606 5.33158 0.0857409 8.56555 1.13103 11.3336C1.27917 11.7257 1.45963 12.1084 1.67384 12.4776H3.03658H6.50277C6.91574 12.4776 7.30096 12.1902 7.41822 11.7941L8.46294 8.2727L10.9854 17.5007C11.0883 17.8771 11.3649 18.0249 11.5891 18.0372C11.6 18.0378 11.6108 18.0381 11.6217 18.0381C11.841 18.0381 12.1116 17.9165 12.2494 17.5708L15.0556 10.5163L16.9408 14.7375C17.0601 15.0037 17.2897 15.1719 17.5554 15.1873C17.8205 15.2002 18.0685 15.0621 18.2172 14.8113L19.6025 12.4773H23.2938C23.1668 12.6512 23.0338 12.8222 22.8877 12.9861L13.1677 22.7226L5.52783 15.0707L5.51725 15.0601C5.41315 14.9586 5.27101 14.8954 5.114 14.8954C4.79455 14.8954 4.53516 15.1545 4.53516 15.4739C4.53516 15.5897 4.57005 15.6973 4.62868 15.7879L13.1677 24.3416L23.7087 13.7837L23.7299 13.7614C24.09 13.3596 24.3957 12.9277 24.6568 12.4779C24.871 12.1084 25.0543 11.7266 25.2022 11.3339H23.9653H19.563C19.2027 11.3339 18.8229 11.5501 18.6396 11.8599L17.6521 13.5237L15.6644 9.07347C15.5392 8.79377 15.3032 8.62847 15.0307 8.62847C15.0261 8.62847 15.0215 8.62847 15.0164 8.62847C14.7381 8.63447 14.5033 8.81064 14.3884 9.09978L11.7135 15.8251L9.11271 6.31081C9.00546 5.91986 8.72062 5.7783 8.48982 5.77573C8.48782 5.77573 8.48582 5.77573 8.48382 5.77573C8.25388 5.77573 7.97018 5.91271 7.85636 6.29766L6.36178 11.3339H2.37308C1.25887 8.89129 1.71445 5.9233 3.70923 3.92909C4.95585 2.68218 6.61345 1.99552 8.37628 1.99552Z" fill="#F4BC47" stroke="#F4BC47" stroke-width="2.5" mask="url(#path-1-inside-1_44_524)"/>
</svg>
