<svg width="1440" height="921" viewBox="0 0 1440 921" fill="none" xmlns="http://www.w3.org/2000/svg">
<g opacity="0.3">
<path d="M26.2029 -18.8983C78.1293 -19.2071 134.961 -18.5791 130.61 26.904C126.76 67.1544 247.721 74.1879 293.747 61.6027C339.425 49.1111 362.362 174.797 297.662 210.387C255.622 233.51 121.714 255.704 185.506 303.727C201.961 316.111 225.436 323.505 241.995 335.649C259.869 348.786 269.896 365.268 289.261 377.878C313.035 393.364 348.496 403.922 375.071 384.894C407.154 361.927 410.058 324.39 422.832 296.065C428.851 282.703 442.027 253.476 472.898 260.211C492.54 264.5 498.201 279.354 500.338 290.878C506.983 326.69 530.67 365.99 512.421 401.376C501.322 422.889 481.534 442.806 483.16 466.262C484.791 489.51 507.576 508.869 541.834 516.638C572.798 523.661 607.676 519.604 637.248 529.598C674.486 542.179 698.794 571.625 706.129 597.201C729.192 677.594 542.373 649.003 474.171 668.635C393.146 691.967 490.305 754.733 536.603 768.106C593.788 784.623 627.258 749.962 676.254 739.032C724.798 728.206 798.416 757.53 835.421 726.887C873.051 695.728 813.261 649.971 849.766 620.362C866.623 606.67 897.369 610.602 920.458 613.589C948.067 617.163 973.206 620.529 998.612 610.529C1017.45 603.114 1038.66 583.301 1063.13 584.408C1092.23 585.723 1100.39 615.983 1106.42 629.679C1114.81 648.742 1122.99 670.169 1156.87 675.828C1184.73 680.478 1230.19 677.397 1252.58 664.843C1282.69 647.941 1253.26 615.508 1241.76 597.18C1227.22 573.974 1198.2 534.612 1228.11 511.592C1251.22 493.802 1293.78 498.733 1325.51 497.907C1354.26 497.158 1369.87 487.418 1393.9 478.934C1437.25 463.635 1489.76 460.971 1537.97 457.181" stroke="#1D9EC6" stroke-width="0.5" stroke-miterlimit="10"/>
<path d="M8.80204 6.08423C23.8759 -3.11439 42.3212 -13.9196 64.9591 -11.6399C87.7112 -9.36709 100.305 4.32154 107.375 16.9657C114.134 29.0478 116.304 42.6809 130.66 52.4C144.798 61.9595 166.871 66.5952 186.273 69.7771C208.819 73.4795 231.326 73.8542 254.448 74.0277C274.122 74.1769 297.695 73.9548 311.002 84.8572C335.347 104.771 322.547 152.908 309.028 174.605C292.013 201.903 249.717 213.718 212.467 227.347C174.63 241.227 143.303 266.425 161.705 295.357C178.323 321.488 221.385 334.806 247.362 356.406C262.164 368.71 273.551 384.609 266.313 400.296C258.189 417.916 231.054 427.205 207.764 435.626C183.984 444.228 165.517 452.944 153.341 468.965C142.052 483.812 135.255 501.47 111.91 510.79C60.7937 531.207 -4.52081 496.685 -41.9172 537.252C-50.8462 546.936 -56.8442 557.724 -63.0053 568.203" stroke="#1D9EC6" stroke-width="0.5" stroke-miterlimit="10"/>
<path d="M28.3785 504.357C71.1149 510.315 115.385 515.02 132.514 483.614C139.866 470.106 143.809 456.053 157.441 444.29C170.791 432.767 190.069 426.729 208.351 419.082C242.321 404.89 259.609 377.096 228.971 355.712C215.246 346.124 195.931 340.475 181.064 331.652C163.836 321.433 150.878 308.292 143.102 294.149C128.534 267.629 142.123 244.575 173.896 226.14C203.169 209.165 242.626 204.446 273.954 189.842C305.852 174.97 312.693 139.643 310.388 116.204C307.19 83.903 251.93 90.527 215.034 89.1217C166.164 87.2549 135.048 77.5948 113.889 48.4271C105.107 36.3173 97.5756 20.7237 76.1993 15.512C56.1498 10.6264 31.3313 15.6993 11.1948 17.9721C0.275545 19.2004 -10.6692 20.3223 -21.6392 21.3379" stroke="#1D9EC6" stroke-width="0.5" stroke-miterlimit="10"/>
<path d="M13.1522 49.1107C30.6948 44.3639 53.8222 36.7892 73.2681 41.3C90.914 45.3944 98.527 58.1878 107.054 67.789C131.524 95.3224 163.146 95.9261 208.704 97.6576C249.662 99.2155 289.669 111.929 287.95 141.912C286.319 170.691 248.042 182.406 211.559 191.618C135.782 210.748 105.194 268.906 137.468 315.642C153.113 338.296 187.447 344.927 208.758 363.762C235.094 387.034 202.146 402.538 170.998 411.549C127.495 424.127 133.933 446.47 121.948 472.299C108.56 501.169 68.4065 496.588 29.9824 494.611C20.0311 494.097 10.0689 493.656 0.101264 493.254" stroke="#1D9EC6" stroke-width="0.5" stroke-miterlimit="10"/>
<path d="M13.1518 471.046C44.1478 479.53 93.3771 485.297 113.138 462.122C131.399 440.713 106.069 414.977 146.13 401.018C175.968 390.608 203.924 378.967 173.287 357.45C146.152 338.397 123.693 327.2 117.581 299.85C112.573 277.4 106.521 248.52 114.645 226.341C122.948 203.669 157.767 196.847 186.055 186.205C212.309 176.34 256.867 167.815 260.554 145.261C265.204 116.947 225.105 110.128 190.433 111.256C143.324 112.804 125.95 101.402 101.518 77.6642C77.7431 54.5653 40.2978 66.7307 4.07058 66.1408C-5.28803 65.9881 -14.5923 65.2352 -23.8422 64.3712" stroke="#1D9EC6" stroke-width="0.5" stroke-miterlimit="10"/>
<path d="M10.977 94.913C38.6233 84.4271 79.9893 66.5364 97.2601 93.4418C103.671 103.425 106.015 110.444 122.715 114.979C137.941 119.143 156.778 121.759 173.228 122.738C194.713 124.015 260.62 121.187 239.624 148.599C227.949 163.866 175.908 171.604 153.162 177.78C111.801 188.998 109.99 209.009 103.34 235.002C97.8312 256.543 94.5032 280.579 100.621 302.193C106.521 322.991 121.084 341.818 146.185 355.521C154.586 360.105 173.271 367.624 166.436 375.993C160.079 383.766 134.292 384.293 123.476 388.696C95.5962 400.029 106.428 427.829 95.6559 445.328C80.1416 470.54 42.9084 462.23 12.1951 454.211C5.28356 452.407 -1.62253 450.588 -8.57216 448.843" stroke="#1D9EC6" stroke-width="0.5" stroke-miterlimit="10"/>
<path d="M21.8521 429.408C34.903 436.695 62.0925 440.186 76.7421 433.919C91.5549 427.58 92.0009 414.009 93.2843 403.141C95.0135 388.568 98.8798 382.634 118.353 374.914C129.027 370.681 130.86 371.305 130.637 362.52C130.463 354.855 125.656 353.064 121.496 346.367C120.311 346.232 119.141 346.062 117.983 345.864C113.317 337.19 98.6025 330.708 93.6268 321.804C87.743 311.277 93.9041 300.041 85.3123 290.121C76.976 280.502 59.1778 275.443 48.4869 266.928C38.579 259.038 19.2201 250.745 13.1406 242.039" stroke="#1D9EC6" stroke-width="0.5" stroke-miterlimit="10"/>
<path d="M15.3271 283.674C41.6574 278.743 59.8525 289.004 65.2415 305.426C69.1839 317.422 60.1407 332.897 76.7752 341.957C91.0659 349.733 114.672 352.884 95.3021 368.425C88.1404 374.168 75.6876 374.806 68.2377 379.949C59.896 385.712 63.523 392.551 60.6953 399.477C52.8539 418.697 8.77448 415.567 -15.125 412.753" stroke="#1D9EC6" stroke-width="0.5" stroke-miterlimit="10"/>
<path d="M24.0287 343.355C50.3915 343.414 85.7813 345.17 82.3772 366.708C73.3068 368.762 63.9863 370.403 54.4917 371.045C31.7613 372.575 11.8913 377.055 -10.763 379.442" stroke="#1D9EC6" stroke-width="0.5" stroke-miterlimit="10"/>
<path d="M39.2536 226.768C45.7192 233.933 63.8764 256.47 81.7072 252.899C97.5859 249.721 91.2399 226.136 91.7836 218.405C93.812 189.772 110.708 170.292 156.527 164.623C174.728 162.378 200.715 160.278 213.315 150.347C229.395 137.669 199.671 136.645 185.462 136.766C143.134 137.113 111.697 135.295 94.0131 108.314C85.1439 94.781 65.8177 83.0425 41.9508 90.8289C32.1626 94.0211 25.735 99.6666 14.7613 101.672C-0.910655 104.535 -19.3125 101.162 -34.7234 99.0698" stroke="#1D9EC6" stroke-width="0.5" stroke-miterlimit="10"/>
<path d="M4.45189 121.284C22.8483 111.964 54.388 106.645 75.661 115.621C85.955 119.966 87.7278 127.748 96.113 132.953C106.217 139.216 119.496 137.811 131.916 140.42C168.557 148.075 116.793 157.353 106.222 161.972C85.308 171.115 87.3416 190.425 77.0368 203.763C56.1445 230.828 16.0455 207.021 -8.59905 194.845" stroke="#1D9EC6" stroke-width="0.5" stroke-miterlimit="10"/>
<path d="M15.3273 142.103C29.8084 135.715 53.7352 130.004 71.8 132.12C83.5948 133.508 106.086 140.844 103.884 149.817C101.839 158.085 75.639 166.295 66.0303 171.736C39.9284 186.514 -4.76029 179.276 -36.8602 179.574" stroke="#1D9EC6" stroke-width="0.5" stroke-miterlimit="10"/>
<path d="M17.5018 555.711C33.3913 538.393 50.2869 528.993 81.9734 526.235C110.082 523.789 132.475 522.373 146.505 504.722C157.892 490.405 161.334 474.069 185.951 466.265C209.486 458.801 230.966 458.097 247.106 443.017C260.157 430.813 266.34 407.555 290.837 402.27C314.661 397.131 340.507 410.831 364.298 411.441C419.835 412.871 416.404 351.759 431.494 328.702C436.094 321.683 453.468 294.788 471.305 298.743C488.912 302.647 484.138 334.348 484.056 342.873C483.893 360.299 482.735 377.867 475.753 394.793C468.596 412.142 456.693 428.645 452.582 446.494C444.131 483.191 483.73 527.918 535.053 545.01C562.895 554.285 590.949 549.476 620.596 550.909C652.767 552.467 673.589 566.822 679.559 586.721C711.463 693.062 391.591 587.69 403.059 695.776C408.279 744.934 473.92 782.464 544.792 794.57C585.081 801.451 629.547 800.868 662.947 783.258C683.833 772.241 697.162 754.771 726.82 753.234C777.512 750.607 859.891 777.075 887.412 733.337C904.547 706.099 833.74 655.442 893.214 639.564C919.794 632.472 950.024 639.099 977.501 635.14C1003.97 631.323 1019.55 617.315 1043.02 610.136C1069.66 601.979 1078.5 617.01 1084.96 631.177C1094.09 651.188 1101.28 672.927 1129.56 685.797C1169.25 703.861 1255.17 705.519 1294.58 686.334C1346.65 661.004 1292.55 625.581 1277.22 598.058C1267.63 580.854 1257.3 561.659 1253.56 543.525C1249.84 525.482 1266.46 522.3 1291.04 519.458C1319.7 516.141 1343.95 510.995 1369.97 502.733C1393.11 495.388 1413.35 494.805 1438.82 495.516C1464.58 496.234 1487.44 494.544 1511.82 489.062" stroke="#1D9EC6" stroke-width="0.5" stroke-miterlimit="10"/>
<path d="M1453.1 518.237C1432.65 503.566 1414.55 501.377 1388.14 511.741C1363.55 521.391 1346.81 525.059 1318.35 527.474C1243.69 533.803 1281.87 574.664 1300.51 602.284C1318.29 628.655 1354.34 669.648 1316.82 695.467C1299.23 707.584 1271.83 708.42 1247.66 709.086C1221.43 709.812 1194.37 710.606 1168.33 707.921C1107.39 701.623 1086.19 661.289 1063.72 629.273C1048.13 607.065 1001.37 648.135 963.564 649.668C923.324 651.303 882.844 650.727 893.959 683.819C902.181 708.313 930.436 743.344 885.465 759.969C847.242 774.098 799.954 767.529 758.594 765.84C711.735 763.928 695.291 780.163 663.088 798.234C627.464 818.228 581.873 818.405 538.794 808.751C449.939 788.845 365.027 732.855 393.091 668.944C405.773 640.06 436.209 629.311 481.408 629.547C526.608 629.783 569.007 629.807 613.756 624.588C624.408 623.343 636.91 624.765 645.676 620.702C675.312 606.972 667.428 579.452 627.04 569.983C594.69 562.391 557.104 571.655 526.211 561.572C498.891 552.654 486.476 530.121 468.82 515.121C445.877 495.627 441.228 480.672 439.004 456.73C436.796 432.937 407.948 432.788 377.229 427.77C347.353 422.913 311.431 410.605 286.123 427.798C262.669 443.76 258.172 465.818 228.128 478.601C215.501 483.972 201.814 487.889 191.204 495.037C179.709 502.786 173.716 512.567 166.092 521.87C144.971 547.651 113.301 545.777 73.7298 552.117C32.69 558.689 7.76265 579.959 -17.3223 600.126" stroke="#1D9EC6" stroke-width="0.5" stroke-miterlimit="10"/>
<path d="M-12.9491 616.781C23.1639 593.415 56.8136 581.388 107.136 574.685C128.447 571.843 149.595 568.602 165.773 558.685C181.95 548.768 190.575 535.007 201.733 522.921C224.029 498.788 257.673 476.425 288.663 456.685C325.402 433.277 378.845 427.711 406.328 460.974C417.558 474.558 421.554 490.068 431.636 504C442.838 519.483 459.457 533.043 475.188 546.718C487.527 557.436 499.621 571.701 517.566 579.071C535.919 586.597 560.172 584.723 580.928 584.813C593.25 584.869 635.307 582.631 641.37 592.714C647.645 603.2 612.065 610.681 601.88 612.839C550.22 623.797 500.768 610.632 448.858 615.646C388.65 621.462 368.921 649.235 370.857 684.87C372.793 720.426 381.189 752.217 423.175 777.929C459.152 799.973 508.642 817.7 554.674 829.768C607.247 843.551 645.144 838.991 682.666 812.301C719.203 786.315 757.273 779.684 811.032 780.885C857.097 781.926 925.179 783.279 939.91 747.38C950.944 720.475 916.06 686.387 970.052 673.059C990.874 667.917 1017.94 665.425 1039.66 669.617C1061.54 673.819 1073.71 685.731 1086.75 696.814C1121.58 726.418 1163.76 742.269 1222.7 741.228C1272.01 740.353 1326.48 733.428 1356.9 706.2C1394.07 672.924 1368.24 639.498 1347.71 606.111C1339.52 592.783 1331.28 576.496 1344.4 563.279C1357.19 550.392 1384 546.117 1406.06 543.955C1430.21 541.586 1454.85 541.752 1479.22 541.839" stroke="#1D9EC6" stroke-width="0.5" stroke-miterlimit="10"/>
<path d="M1468.33 562.651C1437.47 552.214 1396.3 557.471 1382 578.765C1365.97 602.627 1387.33 617.544 1397.44 640.001C1408.07 663.596 1412.8 680.873 1392.11 702.223C1376.27 718.576 1371.87 741.207 1378.11 759.864C1382.84 774.063 1390.39 786.68 1404.81 798.009C1436.62 823.016 1460.86 848.832 1483.56 877.715" stroke="#1D9EC6" stroke-width="0.5" stroke-miterlimit="10"/>
<path d="M1437.88 883.267C1424.17 858.599 1403.86 838.394 1384.56 815.636C1369.73 798.154 1369.25 772.516 1347.41 757.998C1324.24 742.595 1286.41 751.2 1258.78 755.628C1220.17 761.807 1178.84 765.239 1140.6 756.013C1097.2 745.537 1082.58 719.374 1048.64 702.088C1019.04 687.011 978.867 693.76 965.528 716.661C953.369 737.525 969.878 762.81 944.864 780.909C919.17 799.476 874.171 798.505 838.89 798.158C799.895 797.776 758.741 799.796 722.367 809.57C663.546 825.375 647.732 870.241 630.913 905.477" stroke="#1D9EC6" stroke-width="0.5" stroke-miterlimit="10"/>
<path d="M683.1 866.612C684.732 865.852 683.753 864.877 687.027 864.953C702.313 844.759 719.904 835.955 753.314 829.869C780.966 824.831 806.954 816.972 836.329 818.481C874.987 820.469 912.927 829.692 949.356 816.136C980.558 804.522 990.254 786.121 988.688 764.334C987.6 749.136 988.112 719.135 1023.23 719.822C1054.44 720.433 1064.9 750.909 1084.84 762.155C1112.44 777.755 1160.19 783.654 1196.14 784.22C1223.79 784.66 1248.02 775.132 1275.53 774.31C1323.61 772.87 1330.89 793.491 1340.15 818.724C1353.03 853.895 1382.61 879.075 1424.65 902.49C1423.34 902.857 1421.87 902.93 1420.48 902.698" stroke="#1D9EC6" stroke-width="0.5" stroke-miterlimit="10"/>
<path d="M1326.95 874.939C1326.53 858.978 1321.43 843.592 1319.81 827.749C1318.42 814.043 1318.28 804.903 1297.03 797.724C1257.47 784.355 1217.54 797.624 1179.86 806.746C1161.06 811.298 1148.37 811.798 1128.82 808.675C1112.47 806.062 1092.3 805.476 1079.83 797.655C1066.08 789.029 1059.37 778.762 1036.29 783.952C1017.32 788.213 1011.89 798.98 1008.74 810.424C1003.96 827.707 1003.66 844.189 983.777 857.732C956.708 876.168 920.442 887.615 894.09 906.865" stroke="#1D9EC6" stroke-width="0.5" stroke-miterlimit="10"/>
<path d="M1270.39 894.37C1280.52 877.899 1313.65 853.648 1304.37 835.636C1293.85 815.219 1270.52 805.361 1238.53 809.428C1211.62 812.853 1187.89 823.394 1160.69 825.042C1146.82 825.875 1131.62 825.695 1117.96 823.904C1104.19 822.1 1091.45 816.271 1077.52 815.407C1019.73 811.871 1045.59 871.14 1050.7 888.832" stroke="#1D9EC6" stroke-width="0.5" stroke-miterlimit="10"/>
<path d="M1259.52 881.879C1259.77 874.793 1260.45 867.715 1263.21 860.827C1265.63 854.769 1272.6 847.989 1272.19 841.625C1271.22 826.555 1242.92 823.543 1224.74 826.25C1204.54 829.258 1184.88 833.807 1164.14 835.362C1143.12 836.934 1123.35 833.148 1102.56 833.405C1064.83 833.87 1074.83 854.633 1074.63 873.551" stroke="#1D9EC6" stroke-width="0.5" stroke-miterlimit="10"/>
<path d="M854.937 876.327C874.715 872.014 902.529 866.132 913.78 853.932C927.375 839.213 901.817 832.662 882.736 831.052C845.475 827.929 800.379 823.182 770.9 841.364C739.746 860.574 719.545 888.818 698.326 912.413" stroke="#1D9EC6" stroke-width="0.5" stroke-miterlimit="10"/>
<path d="M783.158 851.344C793.648 845.973 794.344 841.976 808.21 840.116C818.803 838.7 831.745 837.742 842.556 838.801C850.908 839.619 864.955 842.985 867.907 848.842C872.801 858.534 846.063 868.506 839.712 876.327" stroke="#1D9EC6" stroke-width="0.5" stroke-miterlimit="10"/>
<path d="M511.262 881.879C523.916 875.908 552.411 865.442 551.949 853.489C551.503 841.819 524.351 836.972 510.757 833.825C457.068 821.399 421.782 809.071 391.123 777.079C362.302 746.988 333.813 712.105 343.531 675.8C349.991 651.674 368.947 613.214 409.275 604.061C428.041 599.796 495.895 608.252 493.301 588.412C491.773 576.718 468.124 564.608 456.78 556.638C440.466 545.187 425.349 533.428 416.866 518.747C403.418 495.475 403.679 460.8 350.437 464.208C298.277 467.542 263.523 496.738 244.218 525C224.321 554.147 201.221 580.84 151.269 591.916C128.914 596.875 104.867 597.395 82.5175 602.281C53.8761 608.526 32.217 621.944 13.1137 636.466C0.878422 645.768 -10.3834 655.585 -21.6616 665.359" stroke="#1D9EC6" stroke-width="0.5" stroke-miterlimit="10"/>
<path d="M6.62633 683.403C28.8075 657.545 54.5124 632.85 100.702 623.454C139.768 615.504 173.086 613.225 207.312 596.975C224.441 588.845 241.462 579.431 251.989 567.388C262.24 555.659 264.17 542.314 270.114 529.649C281.207 506.026 322.486 479.732 360.551 500.891C375.745 509.34 383.423 522.633 394.266 533.192C407.143 545.715 424.534 555.781 438.019 567.918C467.156 594.147 384.445 593.842 361.09 601.458C320.344 614.744 325.249 652.743 319.936 677.726C312.459 712.872 321.98 743.653 353.14 773.345C377.98 797.03 411.972 816.514 454.719 825.816C469.363 829.005 487.156 829.689 499.701 835.879C519.947 845.896 529.648 866.709 539.349 880.987C548.3 894.173 556.941 907.452 565.625 920.714" stroke="#1D9EC6" stroke-width="0.5" stroke-miterlimit="10"/>
<path d="M489.511 879.103C477.004 865.224 463.882 849.929 441.657 841.434C423.054 834.314 400.917 833.711 380.883 829.047C334.792 818.318 310.463 787.391 298.625 758.793C288.037 733.213 291.234 706.557 294.182 680.467C296.966 655.831 299.973 630.196 324.813 610.008C336.739 600.32 352.063 593.21 369.502 588.075C380.193 584.928 396.762 583.04 402.042 575.431C416.295 554.896 363.091 518.4 335.657 513.223C291.169 504.823 289.663 548.689 279.722 565.715C264.284 592.152 227.6 610.824 188.241 622.184C152.171 632.593 110.925 634.464 75.9811 646.532C31.9941 661.72 25.7351 699.538 10.77 726.977C4.53821 738.428 -2.04172 749.771 -8.62701 761.128" stroke="#1D9EC6" stroke-width="0.5" stroke-miterlimit="10"/>
<path d="M21.8532 733.368C32.3266 709.916 42.0605 681.667 73.4371 665.64C102.774 650.647 144.13 649.679 178.579 642.146C210.706 635.133 247.825 624.633 270.234 607.749C296.108 588.262 289.267 560.305 311.916 540.513C333.667 521.509 374.495 538.57 378.111 557.949C382.527 581.614 336.381 588.137 314.14 600.008C281.763 617.287 279.337 649.529 274.47 674.294C269 702.053 265.639 729.545 272.475 757.349C278.456 781.721 289.055 819.411 330.181 829.664C346.202 833.655 364.206 832.201 380.156 836.354C402.734 842.235 414.708 856.826 424.039 870.341C430.701 879.991 436.15 889.988 441.658 899.922" stroke="#1D9EC6" stroke-width="0.5" stroke-miterlimit="10"/>
<path d="M354.652 887.43C345.919 867.999 336.707 848.932 306.44 839.449C284.993 832.725 267.064 829.869 259.022 813.925C245.873 787.863 242.817 752.453 246.808 725.27C249.527 706.612 278.065 661.563 249.587 647.482C232.479 639.026 204.007 649.45 187.486 653.811C166.692 659.301 145.468 663.069 124.189 667.607C57.51 681.834 30.4185 728.677 0.102247 765.291" stroke="#1D9EC6" stroke-width="0.5" stroke-miterlimit="10"/>
<path d="M2.2759 788.887C1.9605 790.055 2.63115 790.482 4.28789 790.167C25.7839 762.984 50.2925 735.884 74.0941 709.513C84.9373 697.501 97.8522 692.209 118.059 687.941C137.543 683.822 157.12 676.577 177.115 673.916C234.283 666.313 219.759 717.178 211.776 736.374C204.946 752.789 202.575 768.296 213.522 784.192C222.532 797.28 232.554 808.196 237.329 822.381C243.256 840.001 251.712 846.809 274.545 856.823C306.335 870.765 300.908 894.412 297.716 916.397C296.46 916.733 295.064 916.795 293.747 916.574" stroke="#1D9EC6" stroke-width="0.5" stroke-miterlimit="10"/>
<path d="M226.318 879.103C218.499 870.515 208.52 861.268 206.269 851.222C204.366 842.721 210.94 834.362 208.373 825.993C205.91 817.974 195.551 812.304 189.433 805.444C183.854 799.199 180.238 792.072 177.443 785.121C171.912 771.356 170.803 752.217 174.06 738.087C177.187 724.534 199.205 708.833 169.607 700.717C159.47 697.941 142.961 697.143 132.319 698.84C118.279 701.081 113.069 708.58 104.086 715.054C95.2979 716.758 86.6844 730.02 80.5124 734.756C71.6432 741.592 63.954 747.078 57.3524 754.965C49.0324 764.906 39.1517 771.443 25.3939 778.407C6.55161 787.942 -4.29154 789.698 -28.1747 790.274" stroke="#1D9EC6" stroke-width="0.5" stroke-miterlimit="10"/>
<path d="M-2.07356 824.973C30.2601 813.429 57.096 791.704 74.0568 770.739C85.5199 756.575 93.7366 723.896 132.46 732.571C161.574 739.066 136.951 774.209 147.278 789.233C159.758 807.395 199.096 817.079 190.868 838.929C185.588 852.94 175.897 862.871 182.167 877.771C187.834 891.303 199.884 903.895 208.933 916.591" stroke="#1D9EC6" stroke-width="0.5" stroke-miterlimit="10"/>
<path d="M152.361 876.327C148.74 858.836 174.325 844.602 165.717 828.363C157.527 812.919 132.002 804.147 130.148 786.558C129.376 779.296 136.505 740.961 108.037 758.546C86.5793 771.801 99.0975 793.106 70.6084 805.247C37.7092 819.269 -1.81892 828.929 -41.2273 827.749" stroke="#1D9EC6" stroke-width="0.5" stroke-miterlimit="10"/>
<path d="M10.9766 849.956C30.7651 851.577 46.8939 834.134 60.7714 827.142C79.1514 817.874 89.7553 809.446 97.3031 795.361C110.582 770.586 122.497 791.805 125.547 806.538C128.446 820.556 156.136 828.155 147.032 843.429C140.474 854.425 127.037 860.539 124.378 873.194C121.545 886.699 126.118 900.651 130.61 913.791" stroke="#1D9EC6" stroke-width="0.5" stroke-miterlimit="10"/>
<path d="M102.334 874.939C102.334 868.693 101.192 862.795 105.053 857.149C108.582 851.993 116.881 848.995 120.758 844.443C127.99 835.955 123.433 825.396 119.344 816.888C103.444 814.112 84.7753 832.832 73.1926 838.252C63.3229 842.867 50.5818 847.579 40.3259 851.462C26.0569 856.865 -8.95222 852.288 -17.3157 859.672" stroke="#1D9EC6" stroke-width="0.5" stroke-miterlimit="10"/>
<path d="M37.0788 874.939C49.8905 872.326 54.6052 861.521 62.6642 856.583C69.6519 852.298 83.1542 841.663 91.0337 839.966C94.8402 833.467 109.849 829.633 113.139 837.409C114.879 841.524 106.733 849.207 102.464 852.257C96.0637 856.84 88.467 859.689 83.0019 865.095C68.9014 879.075 61.3699 896.046 50.1298 911.012" stroke="#1D9EC6" stroke-width="0.5" stroke-miterlimit="10"/>
</g>
</svg>
