<svg width="11" height="20" viewBox="0 0 11 20" fill="none" xmlns="http://www.w3.org/2000/svg">
<path d="M6.26661 17.1458L5.72954 17.2221V17.7646V18.5898C5.72954 18.6438 5.71965 18.6744 5.71302 18.6895C5.70639 18.7045 5.69819 18.7151 5.68785 18.7242C5.66446 18.7448 5.6148 18.769 5.54402 18.769C5.47324 18.769 5.42357 18.7448 5.40019 18.7242C5.38985 18.7151 5.38165 18.7045 5.37502 18.6895C5.36839 18.6744 5.3585 18.6438 5.3585 18.5898V17.7498V17.2236L4.83998 17.134C3.03523 16.8219 1.60522 15.3655 1.60522 13.5304C1.60522 13.4184 1.64124 13.379 1.66257 13.3603C1.69599 13.3309 1.75958 13.3021 1.84473 13.3021C1.92988 13.3021 1.99346 13.3309 2.02689 13.3603C2.04821 13.379 2.08423 13.4184 2.08423 13.5304C2.08423 15.4917 3.84534 16.7162 5.54402 16.7162C6.62849 16.7162 7.49614 16.34 8.09236 15.7266C8.68156 15.1204 8.96925 14.3197 8.96925 13.5304C8.96925 12.741 8.68156 11.9404 8.09236 11.3342C7.49614 10.7208 6.62849 10.3446 5.54402 10.3446C4.26482 10.3446 3.33806 9.91334 2.71604 9.29719C2.08681 8.6739 1.73406 7.826 1.67552 6.94232C1.55845 5.17473 2.60753 3.37905 4.82145 3.06437L5.3585 2.98804V2.44559V1.62035C5.3585 1.56632 5.36839 1.53573 5.37502 1.52068C5.38165 1.50566 5.38985 1.49507 5.40019 1.48595C5.42357 1.46533 5.47324 1.44116 5.54402 1.44116C5.6148 1.44116 5.66446 1.46533 5.68785 1.48595C5.69819 1.49507 5.70639 1.50566 5.71302 1.52068C5.71965 1.53573 5.72954 1.56632 5.72954 1.62035V2.46031V2.98649L6.24801 3.07617C8.05209 3.38823 9.48281 4.84476 9.48281 6.67978C9.48281 6.79172 9.4468 6.8312 9.42547 6.84991C9.39205 6.87923 9.32846 6.90804 9.24331 6.90804C9.15816 6.90804 9.09458 6.87923 9.06115 6.84991C9.03983 6.8312 9.00381 6.79172 9.00381 6.67978C9.00381 4.71836 7.24176 3.49398 5.54402 3.49398C4.45955 3.49398 3.59193 3.87021 2.99576 4.48364C2.40662 5.08984 2.11903 5.8905 2.11909 6.67983C2.11916 7.46915 2.40687 8.26978 2.996 8.87593C3.59217 9.48932 4.45971 9.86558 5.54402 9.86558C6.82322 9.86558 7.75004 10.2968 8.37213 10.913C9.00143 11.5363 9.35425 12.3842 9.41282 13.2679C9.52998 15.0354 8.48096 16.8311 6.26661 17.1458Z" fill="#37ABFF" stroke="#F4BC47" stroke-width="1.25"/>
</svg>
