<svg width="1440" height="1153" viewBox="0 0 1440 1153" fill="none" xmlns="http://www.w3.org/2000/svg">
<g opacity="0.3">
<path d="M48.0315 -5.32419C99.3485 -5.70467 155.513 -4.9309 151.214 51.1057C147.409 100.696 266.949 109.361 312.435 93.8556C357.578 78.4656 380.245 233.314 316.305 277.163C274.758 305.651 142.422 332.994 205.465 392.16C221.727 407.418 244.927 416.528 261.291 431.49C278.955 447.675 288.865 467.981 308.002 483.517C331.497 502.596 366.542 515.605 392.805 492.161C424.512 463.865 427.381 417.618 440.005 382.721C445.954 366.258 458.976 330.25 489.484 338.547C508.895 343.831 514.49 362.133 516.602 376.33C523.169 420.452 546.578 468.871 528.543 512.467C517.574 538.972 498.018 563.51 499.625 592.409C501.237 621.052 523.755 644.902 557.611 654.473C588.211 663.126 622.68 658.129 651.904 670.441C688.706 685.942 712.728 722.219 719.978 753.73C742.769 852.777 558.143 817.552 490.742 841.739C410.668 870.484 506.686 947.815 552.441 964.291C608.955 984.64 642.032 941.937 690.453 928.47C738.427 915.132 811.181 951.26 847.751 913.508C884.94 875.119 825.852 818.744 861.928 782.266C878.588 765.397 908.973 770.24 931.791 773.921C959.075 778.324 983.919 782.471 1009.03 770.15C1027.65 761.015 1048.61 736.605 1072.79 737.968C1101.55 739.589 1109.61 776.871 1115.57 793.744C1123.86 817.231 1131.94 843.629 1165.43 850.601C1192.97 856.33 1237.89 852.534 1260.01 837.067C1289.77 816.243 1260.68 776.285 1249.32 753.705C1234.95 725.113 1206.28 676.618 1235.83 648.258C1258.67 626.34 1300.73 632.415 1332.09 631.397C1360.5 630.474 1375.93 618.474 1399.68 608.021C1442.52 589.173 1494.41 585.89 1542.05 581.222" stroke="#1D9EC6" stroke-width="0.5" stroke-miterlimit="10"/>
<path d="M30.8352 25.455C45.7321 14.122 63.9609 0.809679 86.3332 3.61835C108.818 6.41847 121.265 23.2833 128.251 38.8614C134.931 53.7469 137.075 70.5433 151.263 82.5176C165.235 94.2952 187.049 100.007 206.223 103.927C228.504 108.488 250.747 108.95 273.598 109.164C293.041 109.347 316.338 109.074 329.488 122.506C353.548 147.04 340.897 206.347 327.537 233.078C310.722 266.71 268.922 281.266 232.11 298.058C194.717 315.158 163.757 346.203 181.943 381.848C198.366 414.043 240.924 430.45 266.595 457.062C281.224 472.221 292.477 491.809 285.324 511.137C277.295 532.845 250.479 544.289 227.462 554.665C203.961 565.262 185.71 576.001 173.678 595.739C162.521 614.031 155.804 635.787 132.733 647.269C82.2167 672.423 17.6687 629.892 -19.2887 679.87C-28.1129 691.802 -34.0406 705.093 -40.1294 718.003" stroke="#1D9EC6" stroke-width="0.5" stroke-miterlimit="10"/>
<path d="M50.1815 639.344C92.4163 646.684 136.167 652.481 153.095 613.788C160.361 597.145 164.257 579.831 177.73 565.339C190.923 551.142 209.974 543.704 228.042 534.281C261.613 516.797 278.698 482.554 248.42 456.207C234.856 444.396 215.767 437.436 201.075 426.565C184.049 413.975 171.243 397.785 163.558 380.361C149.161 347.687 162.591 319.284 193.992 296.571C222.92 275.657 261.914 269.843 292.874 251.85C324.399 233.527 331.159 190.004 328.881 161.126C325.721 121.33 271.109 129.491 234.646 127.76C186.35 125.46 155.599 113.558 134.689 77.6229C126.01 62.7032 118.566 43.4914 97.441 37.0703C77.6268 31.0512 53.0997 37.3012 33.1995 40.1013C22.4084 41.6147 11.5921 42.9969 0.750822 44.2481" stroke="#1D9EC6" stroke-width="0.5" stroke-miterlimit="10"/>
<path d="M35.134 78.4651C52.4707 72.6169 75.3266 63.2846 94.5443 68.8421C111.983 73.8865 119.507 89.6484 127.933 101.477C152.117 135.399 183.367 136.143 228.391 138.276C268.868 140.196 308.405 155.859 306.707 192.8C305.095 228.256 267.267 242.689 231.212 254.039C156.325 277.607 126.095 349.26 157.99 406.84C173.452 434.751 207.383 442.921 228.444 466.125C254.471 494.798 221.91 513.898 191.127 525.001C148.134 540.497 154.497 568.024 142.653 599.847C129.422 635.415 89.7398 629.772 51.7667 627.335C41.9321 626.703 32.0869 626.16 22.2362 625.664" stroke="#1D9EC6" stroke-width="0.5" stroke-miterlimit="10"/>
<path d="M35.1341 598.304C65.7663 608.756 114.418 615.861 133.947 587.308C151.993 560.932 126.961 529.224 166.552 512.026C196.039 499.201 223.667 484.858 193.39 458.349C166.573 434.875 144.378 421.08 138.338 387.384C133.388 359.725 127.407 324.144 135.436 296.819C143.642 268.886 178.052 260.481 206.008 247.37C231.954 235.216 275.989 224.712 279.633 196.925C284.228 162.041 244.599 153.641 210.334 155.03C163.779 156.937 146.608 142.889 122.463 113.644C98.9673 85.1853 61.9615 100.173 26.1595 99.4467C16.9107 99.2586 7.71562 98.3309 -1.42567 97.2664" stroke="#1D9EC6" stroke-width="0.5" stroke-miterlimit="10"/>
<path d="M32.9848 134.895C60.3066 121.976 101.187 99.9341 118.255 133.082C124.591 145.382 126.907 154.03 143.411 159.617C158.459 164.747 177.075 167.971 193.331 169.176C214.564 170.749 279.698 167.265 258.948 201.038C247.41 219.848 195.98 229.381 173.501 236.99C132.625 250.811 130.836 275.465 124.263 307.489C118.82 334.028 115.531 363.641 121.576 390.27C127.407 415.894 141.799 439.09 166.606 455.972C174.909 461.62 193.374 470.884 186.619 481.195C180.337 490.771 154.853 491.421 144.164 496.846C116.611 510.808 127.316 545.059 116.67 566.618C101.338 597.68 64.5414 587.441 34.1886 577.562C27.3582 575.339 20.5332 573.098 13.6651 570.948" stroke="#1D9EC6" stroke-width="0.5" stroke-miterlimit="10"/>
<path d="M43.7326 547.004C56.6304 555.982 83.5007 560.282 97.9784 552.562C112.617 544.751 113.058 528.032 114.326 514.642C116.035 496.687 119.856 489.377 139.101 479.865C149.65 474.65 151.461 475.419 151.241 464.595C151.069 455.152 146.318 452.946 142.207 444.695C141.035 444.528 139.88 444.319 138.735 444.075C134.124 433.388 119.582 425.402 114.665 414.432C108.85 401.462 114.939 387.62 106.448 375.397C98.2095 363.547 80.6202 357.314 70.0548 346.823C60.2632 337.102 41.1316 326.885 35.1234 316.159" stroke="#1D9EC6" stroke-width="0.5" stroke-miterlimit="10"/>
<path d="M37.2833 367.454C63.3045 361.38 81.2861 374.021 86.6118 394.254C90.508 409.033 81.571 428.099 98.0102 439.261C112.133 448.842 135.462 452.723 116.32 471.871C109.242 478.946 96.9354 479.733 89.573 486.068C81.3291 493.169 84.9136 501.595 82.1191 510.128C74.3697 533.807 30.8076 529.951 7.18861 526.484" stroke="#1D9EC6" stroke-width="0.5" stroke-miterlimit="10"/>
<path d="M45.8832 440.984C71.9366 441.057 106.911 443.22 103.547 469.755C94.583 472.286 85.3718 474.308 75.9887 475.099C53.5251 476.984 33.8883 482.503 11.4999 485.444" stroke="#1D9EC6" stroke-width="0.5" stroke-miterlimit="10"/>
<path d="M60.9292 297.344C67.3189 306.172 85.263 333.938 102.885 329.539C118.577 325.623 112.305 296.566 112.843 287.042C114.847 251.764 131.544 227.765 176.826 220.779C194.813 218.013 220.496 215.427 232.948 203.192C248.839 187.571 219.464 186.31 205.422 186.46C163.59 186.887 132.522 184.647 115.046 151.405C106.281 134.732 87.1814 120.27 63.5947 129.863C53.9214 133.796 47.5692 140.752 36.7244 143.223C21.2363 146.749 3.05049 142.594 -12.1796 140.016" stroke="#1D9EC6" stroke-width="0.5" stroke-miterlimit="10"/>
<path d="M26.5362 167.385C44.7167 155.902 75.8863 149.349 96.9096 160.408C107.083 165.76 108.835 175.349 117.122 181.762C127.107 189.478 140.23 187.747 152.504 190.962C188.715 200.392 137.559 211.824 127.112 217.514C106.443 228.778 108.453 252.568 98.2693 269.001C77.6221 302.346 37.9938 273.016 13.6385 258.015" stroke="#1D9EC6" stroke-width="0.5" stroke-miterlimit="10"/>
<path d="M37.2835 193.035C51.5947 185.165 75.2406 178.128 93.0933 180.736C104.75 182.446 126.977 191.483 124.8 202.538C122.78 212.725 96.8874 222.84 87.3914 229.543C61.5958 247.75 17.4317 238.833 -14.2915 239.2" stroke="#1D9EC6" stroke-width="0.5" stroke-miterlimit="10"/>
<path d="M39.433 702.613C55.136 681.277 71.8333 669.696 103.148 666.297C130.927 663.284 153.057 661.539 166.922 639.792C178.175 622.154 181.577 602.027 205.905 592.413C229.164 583.217 250.392 582.35 266.342 563.77C279.24 548.735 285.35 520.08 309.56 513.569C333.104 507.238 358.647 524.116 382.159 524.868C437.044 526.629 433.653 451.338 448.566 422.931C453.112 414.283 470.283 381.147 487.91 386.021C505.311 390.83 500.592 429.886 500.512 440.39C500.35 461.859 499.206 483.503 492.305 504.357C485.233 525.732 473.469 546.063 469.407 568.054C461.055 613.266 500.189 668.371 550.91 689.429C578.425 700.856 606.15 694.931 635.449 696.697C667.242 698.616 687.819 716.302 693.72 740.819C725.25 871.835 409.131 742.012 420.465 875.178C425.624 935.741 490.494 981.98 560.535 996.895C600.351 1005.37 644.295 1004.65 677.302 982.959C697.944 969.386 711.116 947.861 740.426 945.967C790.523 942.731 871.935 975.341 899.133 921.454C916.067 887.896 846.091 825.485 904.867 805.923C931.135 797.185 961.01 805.35 988.165 800.472C1014.32 795.77 1029.72 778.512 1052.91 769.667C1079.24 759.616 1087.98 778.135 1094.37 795.59C1103.39 820.244 1110.49 847.027 1138.43 862.883C1177.67 885.138 1262.58 887.182 1301.52 863.545C1352.98 832.338 1299.52 788.695 1284.36 754.785C1274.89 733.59 1264.68 709.941 1260.98 687.6C1257.31 665.37 1273.73 661.45 1298.02 657.948C1326.35 653.861 1350.31 647.522 1376.03 637.343C1398.89 628.293 1418.9 627.575 1444.07 628.451C1469.53 629.336 1492.12 627.254 1516.21 620.499" stroke="#1D9EC6" stroke-width="0.5" stroke-miterlimit="10"/>
<path d="M1458.19 656.444C1437.97 638.369 1420.08 635.672 1393.98 648.441C1369.69 660.33 1353.14 664.848 1325.02 667.824C1251.23 675.621 1288.96 725.964 1307.38 759.992C1324.96 792.482 1360.58 842.987 1323.5 874.797C1306.12 889.726 1279.04 890.756 1255.15 891.577C1229.23 892.47 1202.49 893.449 1176.76 890.14C1116.52 882.381 1095.58 832.689 1073.38 793.243C1057.96 765.883 1011.76 816.482 974.391 818.372C934.623 820.385 894.618 819.676 905.603 860.446C913.728 890.623 941.652 933.784 897.209 954.265C859.434 971.673 812.701 963.58 771.826 961.498C725.518 959.143 709.267 979.145 677.442 1001.41C642.236 1026.04 597.18 1026.26 554.607 1014.37C466.794 989.842 382.878 920.86 410.614 842.119C423.146 806.534 453.225 793.29 497.894 793.581C542.563 793.872 584.465 793.902 628.688 787.472C639.216 785.937 651.571 787.69 660.234 782.684C689.522 765.768 681.73 731.863 641.817 720.197C609.847 710.843 572.701 722.257 542.171 709.834C515.172 698.847 502.903 671.086 485.453 652.605C462.78 628.588 458.185 610.163 455.987 580.665C453.805 551.352 425.296 551.168 394.938 544.986C365.413 539.001 329.912 523.838 304.901 545.02C281.722 564.685 277.278 591.861 247.586 607.61C235.108 614.228 221.581 619.055 211.096 627.861C199.736 637.407 193.813 649.458 186.279 660.92C165.406 692.683 134.108 690.374 95.0006 698.185C54.4425 706.281 29.8077 732.487 5.01716 757.333" stroke="#1D9EC6" stroke-width="0.5" stroke-miterlimit="10"/>
<path d="M9.33977 777.853C45.0289 749.065 78.2837 734.248 128.015 725.989C149.076 722.488 169.976 718.495 185.964 706.277C201.952 694.059 210.475 677.105 221.502 662.215C243.536 632.482 276.786 604.93 307.412 580.61C343.719 551.77 396.536 544.913 423.696 585.893C434.794 602.63 438.744 621.739 448.707 638.903C459.778 657.978 476.201 674.685 491.748 691.533C503.942 704.738 515.894 722.313 533.628 731.393C551.766 740.665 575.734 738.357 596.247 738.468C608.424 738.536 649.987 735.779 655.979 748.202C662.181 761.121 627.019 770.338 616.953 772.997C565.899 786.497 517.028 770.278 465.727 776.455C406.225 783.62 386.728 817.837 388.641 861.741C390.554 905.547 398.852 944.715 440.345 976.392C475.9 1003.55 524.809 1025.39 570.301 1040.26C622.257 1057.24 659.709 1051.62 696.79 1018.74C732.898 986.725 770.522 978.555 823.65 980.035C869.174 981.317 936.457 982.984 951.015 938.755C961.919 905.607 927.445 863.61 980.804 847.189C1001.38 840.854 1028.13 837.784 1049.59 842.949C1071.22 848.126 1083.25 862.802 1096.14 876.456C1130.56 912.93 1172.24 932.458 1230.49 931.176C1279.22 930.098 1333.05 921.566 1363.11 888.02C1399.84 847.023 1374.31 805.842 1354.03 764.708C1345.94 748.287 1337.79 728.221 1350.75 711.937C1363.4 696.06 1389.89 690.793 1411.69 688.13C1435.56 685.21 1459.91 685.415 1484 685.522" stroke="#1D9EC6" stroke-width="0.5" stroke-miterlimit="10"/>
<path d="M1473.23 711.163C1442.73 698.304 1402.05 704.781 1387.91 731.017C1372.07 760.416 1393.19 778.794 1403.18 806.462C1413.68 835.531 1418.36 856.817 1397.91 883.121C1382.25 903.269 1377.91 931.15 1384.07 954.137C1388.75 971.63 1396.21 987.174 1410.45 1001.13C1441.89 1031.94 1465.85 1063.75 1488.28 1099.33" stroke="#1D9EC6" stroke-width="0.5" stroke-miterlimit="10"/>
<path d="M1443.14 1106.17C1429.59 1075.78 1409.52 1050.89 1390.45 1022.85C1375.79 1001.31 1375.32 969.723 1353.74 951.837C1330.84 932.86 1293.45 943.462 1266.14 948.917C1227.98 956.531 1187.14 960.759 1149.35 949.391C1106.45 936.485 1092.01 904.252 1058.47 882.954C1029.22 864.379 989.514 872.694 976.331 900.909C964.315 926.614 980.631 957.766 955.91 980.064C930.518 1002.94 886.047 1001.74 851.18 1001.32C812.643 1000.85 771.972 1003.33 736.025 1015.38C677.894 1034.85 662.266 1090.12 645.644 1133.54" stroke="#1D9EC6" stroke-width="0.5" stroke-miterlimit="10"/>
<path d="M697.219 1085.65C698.831 1084.72 697.864 1083.52 701.099 1083.61C716.206 1058.73 733.591 1047.88 766.609 1040.38C793.936 1034.18 819.619 1024.49 848.649 1026.35C886.854 1028.8 924.348 1040.17 960.349 1023.46C991.186 1009.16 1000.77 986.486 999.22 959.643C998.145 940.919 998.65 903.957 1033.36 904.804C1064.2 905.556 1074.54 943.103 1094.24 956.959C1121.52 976.179 1168.71 983.446 1204.24 984.143C1231.56 984.686 1255.5 972.947 1282.7 971.934C1330.21 970.16 1337.4 995.566 1346.56 1026.65C1359.28 1069.98 1388.52 1101.01 1430.07 1129.86C1428.77 1130.31 1427.32 1130.4 1425.94 1130.11" stroke="#1D9EC6" stroke-width="0.5" stroke-miterlimit="10"/>
<path d="M1333.51 1095.91C1333.1 1076.25 1328.05 1057.29 1326.46 1037.77C1325.08 1020.89 1324.94 1009.63 1303.95 1000.78C1264.85 984.31 1225.38 1000.66 1188.15 1011.9C1169.57 1017.51 1157.03 1018.12 1137.7 1014.27C1121.55 1011.05 1101.62 1010.33 1089.3 1000.7C1075.7 990.068 1069.07 977.418 1046.26 983.814C1027.51 989.064 1022.15 1002.33 1019.03 1016.43C1014.32 1037.72 1014.02 1058.03 994.368 1074.71C967.616 1097.43 931.776 1111.53 905.733 1135.25" stroke="#1D9EC6" stroke-width="0.5" stroke-miterlimit="10"/>
<path d="M1277.62 1119.85C1287.63 1099.56 1320.36 1069.68 1311.2 1047.49C1300.8 1022.34 1277.74 1010.19 1246.13 1015.2C1219.54 1019.42 1196.09 1032.41 1169.21 1034.44C1155.5 1035.46 1140.47 1035.24 1126.97 1033.04C1113.37 1030.81 1100.78 1023.63 1087.01 1022.57C1029.9 1018.21 1055.46 1091.23 1060.51 1113.03" stroke="#1D9EC6" stroke-width="0.5" stroke-miterlimit="10"/>
<path d="M1266.87 1104.46C1267.12 1095.73 1267.79 1087.01 1270.52 1078.53C1272.92 1071.06 1279.81 1062.71 1279.4 1054.87C1278.43 1036.3 1250.47 1032.59 1232.5 1035.93C1212.54 1039.63 1193.11 1045.24 1172.61 1047.15C1151.84 1049.09 1132.3 1044.42 1111.76 1044.74C1074.47 1045.31 1084.35 1070.9 1084.15 1094.2" stroke="#1D9EC6" stroke-width="0.5" stroke-miterlimit="10"/>
<path d="M867.039 1097.62C886.584 1092.31 914.073 1085.06 925.192 1070.03C938.627 1051.9 913.369 1043.83 894.511 1041.84C857.688 1037.99 813.121 1032.15 783.988 1054.55C753.2 1078.21 733.235 1113.01 712.266 1142.08" stroke="#1D9EC6" stroke-width="0.5" stroke-miterlimit="10"/>
<path d="M796.103 1066.84C806.469 1060.22 807.157 1055.3 820.861 1053.01C831.33 1051.26 844.12 1050.08 854.804 1051.39C863.058 1052.4 876.94 1056.54 879.858 1063.76C884.694 1075.7 858.27 1087.99 851.993 1097.62" stroke="#1D9EC6" stroke-width="0.5" stroke-miterlimit="10"/>
<path d="M527.398 1104.46C539.903 1097.11 568.064 1084.21 567.607 1069.48C567.166 1055.11 540.333 1049.14 526.898 1045.26C473.84 1029.95 438.968 1014.76 408.669 975.345C380.186 938.273 352.032 895.296 361.635 850.567C368.019 820.843 386.753 773.459 426.608 762.182C445.153 756.928 512.211 767.346 509.648 742.901C508.137 728.495 484.766 713.575 473.555 703.755C457.433 689.648 442.493 675.16 434.11 657.072C420.82 628.4 421.078 585.68 368.46 589.878C316.912 593.986 282.566 629.956 263.489 664.776C243.825 700.686 220.996 733.573 171.63 747.219C149.537 753.328 125.773 753.969 103.685 759.988C75.3802 767.683 53.9753 784.215 35.0962 802.106C23.0046 813.567 11.8749 825.661 0.729059 837.703" stroke="#1D9EC6" stroke-width="0.5" stroke-miterlimit="10"/>
<path d="M28.6853 859.933C50.6061 828.076 76.0093 797.651 121.657 786.074C160.264 776.28 193.191 773.472 227.015 753.452C243.943 743.436 260.764 731.837 271.168 716.999C281.299 702.55 283.206 686.108 289.08 670.504C300.043 641.4 340.838 609.004 378.456 635.073C393.471 645.483 401.06 661.86 411.776 674.869C424.501 690.297 441.688 702.699 455.015 717.653C483.809 749.968 402.07 749.592 378.988 758.975C338.72 775.344 343.568 822.159 338.317 852.939C330.928 896.241 340.338 934.164 371.131 970.745C395.68 999.926 429.273 1023.93 471.519 1035.39C485.991 1039.32 503.575 1040.16 515.973 1047.79C535.981 1060.13 545.568 1085.77 555.156 1103.36C564.001 1119.61 572.541 1135.97 581.123 1152.31" stroke="#1D9EC6" stroke-width="0.5" stroke-miterlimit="10"/>
<path d="M505.902 1101.04C493.542 1083.94 480.574 1065.1 458.611 1054.63C440.226 1045.86 418.348 1045.12 398.55 1039.37C352.999 1026.15 328.956 988.051 317.257 952.816C306.793 921.301 309.953 888.46 312.866 856.317C315.618 825.964 318.589 794.381 343.138 769.509C354.923 757.573 370.068 748.814 387.302 742.487C397.868 738.609 414.242 736.284 419.461 726.909C433.546 701.609 380.966 656.645 353.854 650.267C309.889 639.917 308.4 693.961 298.576 714.939C283.319 747.51 247.066 770.514 208.168 784.51C172.522 797.335 131.76 799.639 97.2263 814.507C53.7555 833.219 47.57 879.812 32.7806 913.619C26.6219 927.726 20.1192 941.701 13.6112 955.693" stroke="#1D9EC6" stroke-width="0.5" stroke-miterlimit="10"/>
<path d="M43.7336 921.493C54.084 892.598 63.7036 857.796 94.712 838.049C123.705 819.577 164.575 818.384 198.619 809.103C230.369 800.464 267.053 787.528 289.199 766.725C314.769 742.717 308.009 708.274 330.392 683.889C351.888 660.475 392.236 681.495 395.81 705.371C400.174 734.526 354.569 742.563 332.59 757.188C300.592 778.477 298.196 818.201 293.386 848.711C287.979 882.911 284.658 916.782 291.414 951.037C297.325 981.065 307.799 1027.5 348.443 1040.13C364.275 1045.05 382.069 1043.26 397.831 1048.37C420.144 1055.62 431.978 1073.6 441.199 1090.25C447.783 1102.14 453.167 1114.45 458.611 1126.69" stroke="#1D9EC6" stroke-width="0.5" stroke-miterlimit="10"/>
<path d="M372.626 1111.3C363.995 1087.36 354.892 1063.87 324.98 1052.19C303.784 1043.9 286.066 1040.38 278.118 1020.74C265.123 988.631 262.103 945.005 266.048 911.515C268.735 888.528 296.938 833.026 268.794 815.678C251.887 805.26 223.748 818.102 207.422 823.476C186.872 830.239 165.897 834.881 144.868 840.473C78.9711 858.001 52.1976 915.713 22.2372 960.823" stroke="#1D9EC6" stroke-width="0.5" stroke-miterlimit="10"/>
<path d="M24.3859 989.893C24.0742 991.332 24.737 991.858 26.3742 991.47C47.6179 957.98 71.8389 924.592 95.3612 892.103C106.077 877.303 118.84 870.783 138.81 865.525C158.066 860.45 177.412 851.524 197.173 848.245C253.67 838.879 239.316 901.546 231.427 925.195C224.677 945.42 222.334 964.525 233.152 984.109C242.057 1000.23 251.961 1013.68 256.68 1031.16C262.538 1052.87 270.894 1061.26 293.46 1073.59C324.877 1090.77 319.513 1119.9 316.359 1146.99C315.117 1147.4 313.738 1147.48 312.436 1147.21" stroke="#1D9EC6" stroke-width="0.5" stroke-miterlimit="10"/>
<path d="M245.799 1101.04C238.071 1090.46 228.21 1079.07 225.985 1066.69C224.104 1056.22 230.601 1045.92 228.064 1035.61C225.63 1025.73 215.392 1018.74 209.347 1010.29C203.833 1002.6 200.259 993.817 197.497 985.254C192.031 968.295 190.935 944.714 194.154 927.307C197.244 910.609 219.004 891.264 189.753 881.265C179.735 877.845 163.42 876.862 152.903 878.952C139.027 881.714 133.879 890.952 125.001 898.929C116.316 901.028 107.804 917.367 101.704 923.203C92.9391 931.624 85.3401 938.383 78.816 948.1C70.5937 960.348 60.829 968.402 47.2326 976.982C28.6115 988.73 17.8956 990.893 -5.7073 991.603" stroke="#1D9EC6" stroke-width="0.5" stroke-miterlimit="10"/>
<path d="M20.0876 1034.35C52.0417 1020.13 78.5627 993.364 95.3244 967.535C106.653 950.084 114.773 909.822 153.042 920.51C181.815 928.513 157.481 971.81 167.686 990.32C180.02 1012.7 218.896 1024.63 210.765 1051.55C205.546 1068.81 195.97 1081.04 202.166 1099.4C207.766 1116.07 219.675 1131.59 228.617 1147.23" stroke="#1D9EC6" stroke-width="0.5" stroke-miterlimit="10"/>
<path d="M172.71 1097.62C169.131 1076.07 194.416 1058.54 185.909 1038.53C177.815 1019.5 152.59 1008.69 150.757 987.025C149.994 978.077 157.039 930.847 128.906 952.512C107.7 968.843 120.071 995.091 91.9165 1010.05C59.4034 1027.32 20.3392 1039.23 -18.6066 1037.77" stroke="#1D9EC6" stroke-width="0.5" stroke-miterlimit="10"/>
<path d="M32.9846 1065.13C52.5408 1067.13 68.4803 1045.64 82.1949 1037.02C100.359 1025.61 110.839 1015.22 118.298 997.87C131.421 967.347 143.196 993.488 146.211 1011.64C149.075 1028.91 176.44 1038.27 167.444 1057.09C160.962 1070.64 147.683 1078.17 145.055 1093.76C142.255 1110.4 146.775 1127.59 151.214 1143.78" stroke="#1D9EC6" stroke-width="0.5" stroke-miterlimit="10"/>
<path d="M123.27 1095.91C123.27 1088.22 122.141 1080.95 125.957 1073.99C129.445 1067.64 137.646 1063.95 141.477 1058.34C148.625 1047.88 144.121 1034.87 140.08 1024.39C124.366 1020.97 105.917 1044.04 94.4704 1050.71C84.7165 1056.4 72.125 1062.2 61.9895 1066.99C47.8879 1073.64 13.2897 1068.01 5.0244 1077.1" stroke="#1D9EC6" stroke-width="0.5" stroke-miterlimit="10"/>
<path d="M58.78 1095.91C71.4414 1092.69 76.1007 1079.38 84.0651 1073.3C90.9708 1068.02 104.315 1054.92 112.102 1052.82C115.863 1044.82 130.696 1040.09 133.947 1049.67C135.667 1054.74 127.617 1064.21 123.398 1067.97C117.073 1073.61 109.565 1077.12 104.164 1083.78C90.2291 1101.01 82.786 1121.92 71.6778 1140.36" stroke="#1D9EC6" stroke-width="0.5" stroke-miterlimit="10"/>
</g>
</svg>
