<svg width="1400" height="1696" viewBox="0 0 1400 1696" fill="none" xmlns="http://www.w3.org/2000/svg">
<g opacity="0.3">
<path d="M1142.17 95.008C1142.57 149.978 1141.75 210.141 1082.3 205.535C1029.68 201.46 1020.49 329.51 1036.94 378.235C1053.27 426.59 888.967 450.872 842.442 382.379C812.214 337.875 783.203 196.118 720.426 263.649C704.237 281.068 694.571 305.92 678.695 323.449C661.522 342.371 639.977 352.986 623.493 373.485C603.249 398.653 589.447 436.193 614.322 464.325C644.345 498.289 693.414 501.363 730.441 514.886C747.909 521.258 786.115 535.207 777.311 567.887C771.704 588.68 752.286 594.673 737.222 596.935C690.407 603.97 639.033 629.046 592.776 609.726C564.653 597.977 538.617 577.029 507.954 578.75C477.564 580.477 452.258 604.597 442.102 640.864C432.921 673.642 438.224 710.565 425.16 741.87C408.713 781.292 370.221 807.024 336.787 814.789C231.695 839.203 269.071 641.434 243.406 569.234C212.907 483.46 130.857 586.314 113.375 635.326C91.7844 695.863 137.094 731.295 151.382 783.162C165.534 834.552 127.201 912.485 167.257 951.659C207.99 991.495 267.805 928.201 306.51 966.845C324.409 984.691 319.27 1017.24 315.364 1041.68C310.692 1070.91 306.292 1097.52 319.365 1124.42C329.058 1144.36 354.958 1166.81 353.511 1192.71C351.792 1223.52 312.234 1232.16 294.331 1238.54C269.411 1247.42 241.402 1256.08 234.003 1291.95C227.925 1321.45 231.953 1369.57 248.364 1393.27C270.459 1425.15 312.856 1393.99 336.814 1381.81C367.151 1366.42 418.606 1335.71 448.697 1367.36C471.953 1391.83 465.507 1436.89 466.587 1470.48C467.567 1500.91 480.299 1517.43 491.389 1542.88C511.388 1588.76 514.872 1644.35 519.825 1695.39" stroke="#1D9EC6" stroke-width="0.5" stroke-miterlimit="10"/>
<path d="M1109.51 76.5867C1121.54 92.5441 1135.66 112.071 1132.68 136.036C1129.71 160.121 1111.82 173.454 1095.29 180.937C1079.49 188.093 1061.67 190.39 1048.97 205.587C1036.47 220.555 1030.41 243.921 1026.25 264.46C1021.41 288.328 1020.92 312.154 1020.69 336.631C1020.5 357.459 1020.79 382.414 1006.54 396.5C980.507 422.273 917.58 408.722 889.217 394.411C853.533 376.398 838.088 331.623 820.271 292.19C802.127 252.135 769.187 218.971 731.367 238.452C697.207 256.044 679.798 301.631 651.562 329.13C635.478 344.8 614.694 356.855 594.187 349.192C571.154 340.592 559.011 311.866 548.003 287.211C536.758 262.037 525.364 242.487 504.422 229.598C485.013 217.647 461.929 210.452 449.746 185.738C423.056 131.626 468.184 62.4829 415.155 22.8945C402.495 13.4421 388.393 7.0925 374.695 0.570227" stroke="#1D9EC6" stroke-width="0.5" stroke-miterlimit="10"/>
<path d="M458.155 97.3107C450.367 142.552 444.216 189.417 485.271 207.55C502.929 215.333 521.3 219.507 536.677 233.939C551.74 248.071 559.633 268.479 569.63 287.832C588.182 323.794 624.514 342.095 652.469 309.662C665.002 295.132 672.386 274.684 683.921 258.946C697.28 240.709 714.457 226.991 732.945 218.759C767.613 203.336 797.75 217.722 821.849 251.358C844.039 282.346 850.208 324.117 869.299 357.281C888.74 391.049 934.92 398.291 965.561 395.85C1007.79 392.465 999.126 333.966 1000.96 294.907C1003.4 243.172 1016.03 210.233 1054.16 187.834C1069.99 178.537 1090.38 170.564 1097.19 147.935C1103.57 126.71 1096.94 100.437 1093.97 79.1198C1092.37 67.5604 1090.9 55.9742 1089.57 44.3611" stroke="#1D9EC6" stroke-width="0.5" stroke-miterlimit="10"/>
<path d="M1053.27 81.1919C1059.47 99.7628 1069.37 124.246 1063.48 144.832C1058.13 163.512 1041.4 171.571 1028.85 180.598C992.858 206.502 992.069 239.977 989.806 288.206C987.769 331.565 971.149 373.917 931.955 372.098C894.334 370.371 879.02 329.85 866.978 291.229C841.971 211.01 765.945 178.629 704.85 212.795C675.235 229.356 666.567 265.704 641.946 288.264C611.524 316.143 591.258 281.264 579.478 248.29C563.035 202.237 533.828 209.053 500.063 196.365C462.324 182.192 468.312 139.685 470.897 99.0087C471.568 88.474 472.144 77.9279 472.671 67.376" stroke="#1D9EC6" stroke-width="0.5" stroke-miterlimit="10"/>
<path d="M501.7 81.1915C490.609 114.004 483.071 166.119 513.366 187.039C541.353 206.37 574.995 179.555 593.243 221.964C606.851 253.551 622.069 283.146 650.196 250.713C675.103 221.987 689.74 198.213 725.492 191.742C754.84 186.44 792.592 180.033 821.586 188.634C851.223 197.424 860.141 234.284 874.053 264.23C886.948 292.023 898.093 339.193 927.576 343.096C964.589 348.018 973.503 305.568 972.028 268.864C970.005 218.994 984.91 200.602 1015.94 174.737C1046.14 149.569 1030.23 109.929 1031 71.5779C1031.2 61.6707 1032.19 51.8211 1033.32 42.029" stroke="#1D9EC6" stroke-width="0.5" stroke-miterlimit="10"/>
<path d="M993.393 78.8891C1007.1 108.156 1030.49 151.947 995.316 170.23C982.267 177.017 973.09 179.498 967.162 197.177C961.719 213.295 958.299 233.236 957.02 250.65C955.35 273.395 959.047 343.165 923.214 320.939C903.256 308.579 893.14 253.488 885.067 229.408C870.402 185.623 844.243 183.706 810.265 176.666C782.106 170.834 750.686 167.311 722.431 173.787C695.243 180.033 670.631 195.45 652.719 222.022C646.727 230.916 636.898 250.696 625.957 243.46C615.797 236.731 615.107 209.433 609.351 197.983C594.537 168.468 558.195 179.935 535.32 168.532C502.363 152.108 513.226 112.692 523.709 80.1786C526.067 72.8619 528.444 65.551 530.726 58.194" stroke="#1D9EC6" stroke-width="0.5" stroke-miterlimit="10"/>
<path d="M556.132 90.4017C546.606 104.218 542.043 133.001 550.235 148.509C558.522 164.19 576.262 164.662 590.468 166.021C609.519 167.852 617.276 171.945 627.368 192.559C632.902 203.859 632.085 205.799 643.57 205.563C653.59 205.379 655.931 200.29 664.685 195.886C664.862 194.631 665.084 193.394 665.343 192.168C676.683 187.228 685.156 171.651 696.795 166.384C710.557 160.155 725.244 166.677 738.212 157.582C750.786 148.757 757.399 129.915 768.53 118.598C778.845 108.109 789.686 87.6155 801.066 81.1796" stroke="#1D9EC6" stroke-width="0.5" stroke-miterlimit="10"/>
<path d="M746.64 83.4944C753.086 111.368 739.673 130.63 718.204 136.335C702.524 140.508 682.294 130.935 670.45 148.544C660.285 163.673 656.167 188.662 635.85 168.157C628.344 160.576 627.509 147.393 620.787 139.506C613.253 130.676 604.312 134.515 595.259 131.522C570.134 123.221 574.226 76.5576 577.904 51.2572" stroke="#1D9EC6" stroke-width="0.5" stroke-miterlimit="10"/>
<path d="M668.623 92.7059C668.546 120.614 666.251 158.078 638.096 154.475C635.411 144.873 633.266 135.006 632.426 124.955C630.426 100.892 624.57 79.8571 621.45 55.8749" stroke="#1D9EC6" stroke-width="0.5" stroke-miterlimit="10"/>
<path d="M821.028 108.823C811.661 115.668 782.201 134.889 786.868 153.765C791.023 170.575 821.854 163.857 831.96 164.432C869.39 166.58 894.854 184.466 902.266 232.971C905.201 252.238 907.945 279.749 920.927 293.087C937.501 310.11 938.839 278.644 938.68 263.602C938.227 218.792 940.604 185.513 975.875 166.793C993.565 157.403 1008.91 136.944 998.731 111.678C994.558 101.317 987.178 94.5122 984.557 82.8953C980.815 66.3047 985.223 46.8242 987.959 30.5099" stroke="#1D9EC6" stroke-width="0.5" stroke-miterlimit="10"/>
<path d="M958.92 71.9818C971.103 91.4565 978.057 124.845 966.322 147.365C960.643 158.262 950.469 160.139 943.665 169.016C935.478 179.712 937.315 193.769 933.904 206.918C923.898 245.706 911.769 190.908 905.731 179.717C893.779 157.577 868.537 159.73 851.101 148.821C815.721 126.704 846.842 84.2549 862.758 58.1658" stroke="#1D9EC6" stroke-width="0.5" stroke-miterlimit="10"/>
<path d="M931.704 83.4945C940.055 98.8245 947.521 124.154 944.754 143.277C942.94 155.764 933.351 179.573 921.621 177.242C910.812 175.077 900.08 147.342 892.968 137.17C873.649 109.538 883.111 62.2295 882.721 28.248" stroke="#1D9EC6" stroke-width="0.5" stroke-miterlimit="10"/>
<path d="M391.025 85.7968C413.664 102.618 425.951 120.504 429.557 154.048C432.755 183.804 434.606 207.509 457.68 222.362C476.395 234.416 497.75 238.06 507.951 264.12C517.708 289.035 518.629 311.774 538.342 328.859C554.295 342.675 584.699 349.221 591.607 375.154C598.325 400.374 580.417 427.735 579.619 452.921C577.75 511.713 657.637 508.081 687.778 524.056C696.954 528.926 732.112 547.318 726.941 566.2C721.838 584.84 680.398 579.786 669.253 579.699C646.474 579.526 623.508 578.3 601.382 570.909C578.703 563.333 557.13 550.732 533.797 546.38C485.825 537.434 427.357 579.354 405.014 633.685C392.889 663.159 399.176 692.857 397.302 724.243C395.266 758.299 376.501 780.341 350.487 786.662C211.475 820.436 349.222 481.813 207.928 493.954C143.668 499.48 94.6075 568.969 78.7817 643.995C69.787 686.646 70.549 733.718 93.5687 769.075C107.97 791.187 130.809 805.296 132.818 836.693C136.252 890.356 101.652 977.564 158.827 1006.7C194.434 1024.84 260.654 949.88 281.41 1012.84C290.681 1040.98 282.018 1072.98 287.193 1102.07C292.183 1130.09 310.494 1146.58 319.879 1171.42C330.543 1199.63 310.893 1208.99 292.373 1215.83C266.215 1225.49 237.797 1233.1 220.973 1263.04C197.36 1305.06 195.191 1396.01 220.27 1437.73C253.383 1492.85 299.69 1435.58 335.669 1419.35C358.158 1409.2 383.25 1398.27 406.955 1394.31C430.542 1390.37 434.701 1407.96 438.416 1433.98C442.752 1464.33 449.479 1490 460.279 1517.54C469.882 1542.04 470.644 1563.46 469.714 1590.43C468.775 1617.7 470.984 1641.9 478.151 1667.7" stroke="#1D9EC6" stroke-width="0.5" stroke-miterlimit="10"/>
<path d="M440.013 1605.55C459.19 1583.89 462.053 1564.74 448.504 1536.78C435.889 1510.75 431.095 1493.02 427.938 1462.9C419.664 1383.86 366.25 1424.27 330.144 1444.01C295.671 1462.84 242.083 1501 208.332 1461.28C192.492 1442.65 191.399 1413.65 190.528 1388.06C189.58 1360.3 188.542 1331.65 192.052 1304.09C200.285 1239.57 253.011 1217.13 294.863 1193.35C323.893 1176.84 270.206 1127.34 268.201 1087.31C266.065 1044.71 266.818 1001.86 223.559 1013.63C191.54 1022.33 145.745 1052.24 124.014 1004.64C105.544 964.174 114.13 914.114 116.339 870.329C118.838 820.724 97.6147 803.316 73.9917 769.225C47.8558 731.514 47.6244 683.25 60.2433 637.646C86.2658 543.582 159.457 453.692 243.004 483.402C280.761 496.827 294.813 529.047 294.505 576.896C294.197 624.745 294.165 669.63 300.987 717.001C302.615 728.278 300.756 741.513 306.067 750.793C324.016 782.166 359.99 773.819 372.369 731.065C382.293 696.818 370.182 657.028 383.364 624.325C395.021 595.404 424.477 582.261 444.086 563.569C469.569 539.282 489.118 534.36 520.416 532.006C551.519 529.668 551.714 499.13 558.273 466.61C564.623 434.983 580.712 396.955 558.237 370.163C537.371 345.335 508.537 340.574 491.826 308.769C484.805 295.402 479.684 280.913 470.34 269.681C460.211 257.512 447.424 251.168 435.263 243.097C401.562 220.738 404.011 187.212 395.724 145.321C387.133 101.875 359.328 75.4869 332.965 48.9315" stroke="#1D9EC6" stroke-width="0.5" stroke-miterlimit="10"/>
<path d="M311.192 53.5609C341.737 91.7907 357.458 127.413 366.222 180.685C369.937 203.245 374.173 225.633 387.137 242.759C400.1 259.885 418.09 269.015 433.889 280.827C465.436 304.429 494.67 340.046 520.475 372.853C551.074 411.745 558.349 468.321 514.868 497.415C497.11 509.302 476.835 513.534 458.623 524.206C438.384 536.065 420.657 553.657 402.781 570.311C388.77 583.373 370.123 596.176 360.488 615.173C350.65 634.602 353.099 660.276 352.981 682.249C352.909 695.294 355.835 739.816 342.653 746.234C328.946 752.877 319.166 715.212 316.345 704.43C302.02 649.741 319.23 597.391 312.675 542.438C305.073 478.7 268.768 457.815 222.184 459.864C175.704 461.914 134.146 470.802 100.535 515.249C71.7186 553.335 48.5446 605.726 32.7687 654.456C14.7521 710.111 20.7122 750.229 55.6024 789.95C89.5719 828.629 98.24 868.931 96.6706 925.841C95.3098 974.606 93.5409 1046.68 140.469 1062.27C175.641 1073.95 220.202 1037.03 237.624 1094.18C244.346 1116.22 247.603 1144.88 242.124 1167.87C236.631 1191.04 221.059 1203.92 206.571 1217.73C167.871 1254.6 147.151 1299.25 148.512 1361.64C149.655 1413.84 158.708 1471.51 194.302 1503.7C237.801 1543.05 281.495 1515.71 325.14 1493.98C342.562 1485.31 363.854 1476.58 381.131 1490.47C397.978 1504.02 403.566 1532.39 406.392 1555.74C409.49 1581.32 409.272 1607.4 409.159 1633.2" stroke="#1D9EC6" stroke-width="0.5" stroke-miterlimit="10"/>
<path d="M381.952 1621.67C395.596 1588.99 388.724 1545.42 360.887 1530.28C329.694 1513.31 310.194 1535.92 280.838 1546.62C249.993 1557.87 227.409 1562.89 199.5 1540.98C178.122 1524.21 148.539 1519.56 124.149 1526.15C105.588 1531.17 89.0956 1539.16 74.2859 1554.42C41.5956 1588.1 7.8484 1613.76 -29.9085 1637.79" stroke="#1D9EC6" stroke-width="0.5" stroke-miterlimit="10"/>
<path d="M-37.1648 1589.43C-4.91901 1574.92 21.4937 1553.42 51.2447 1532.99C74.0967 1517.29 107.612 1516.78 126.591 1493.66C146.726 1469.14 135.477 1429.09 129.689 1399.83C121.61 1358.96 117.124 1315.21 129.185 1274.73C142.879 1228.78 177.08 1213.31 199.678 1177.38C219.386 1146.04 210.564 1103.51 180.627 1089.39C153.353 1076.52 120.299 1094 96.6401 1067.52C72.3684 1040.32 73.6385 992.681 74.0921 955.332C74.591 914.052 71.9512 870.485 59.1735 831.979C38.5124 769.71 -20.137 752.969 -66.1992 735.164" stroke="#1D9EC6" stroke-width="0.5" stroke-miterlimit="10"/>
<path d="M-15.3927 790.411C-14.3993 792.138 -13.1247 791.101 -13.2245 794.567C13.1745 810.749 24.6822 829.372 32.6382 864.74C39.2243 894.013 49.4981 921.524 47.525 952.621C44.9259 993.545 32.8694 1033.71 50.5912 1072.27C65.7729 1105.3 89.8269 1115.57 118.308 1113.91C138.175 1112.76 177.393 1113.3 176.495 1150.48C175.696 1183.52 135.857 1194.59 121.156 1215.69C100.763 1244.92 93.052 1295.47 92.3127 1333.52C91.7366 1362.79 104.192 1388.44 105.267 1417.57C107.15 1468.47 80.1926 1476.17 47.2075 1485.97C1.23146 1499.61 -31.6856 1530.93 -62.294 1575.43C-62.7729 1574.04 -62.8688 1572.48 -62.5662 1571.01" stroke="#1D9EC6" stroke-width="0.5" stroke-miterlimit="10"/>
<path d="M-26.2785 1472C-5.41337 1471.56 14.6989 1466.15 35.4098 1464.44C53.3267 1462.97 65.2743 1462.82 74.6591 1440.33C92.1359 1398.45 74.7906 1356.17 62.8657 1316.29C56.9146 1296.38 56.2614 1282.95 60.3437 1262.25C63.7592 1244.95 64.5258 1223.6 74.7498 1210.4C86.026 1195.84 99.4478 1188.74 92.6621 1164.3C87.092 1144.22 73.0171 1138.47 58.0577 1135.14C35.4643 1130.08 13.9187 1129.76 -3.78492 1108.71C-27.8842 1080.06 -42.8482 1041.66 -68.0134 1013.77" stroke="#1D9EC6" stroke-width="0.5" stroke-miterlimit="10"/>
<path d="M-51.6795 1412.13C-30.1476 1422.85 1.55393 1457.92 25.0998 1448.1C51.7891 1436.96 64.6757 1412.26 59.3596 1378.4C54.8826 1349.91 41.1025 1324.79 38.948 1296C37.8594 1281.31 38.0953 1265.22 40.4358 1250.76C42.7945 1236.18 50.4148 1222.7 51.5442 1207.95C56.1663 1146.78 -21.3116 1174.15 -44.4402 1179.56" stroke="#1D9EC6" stroke-width="0.5" stroke-miterlimit="10"/>
<path d="M-35.352 1400.61C-26.0896 1400.88 -16.8363 1401.6 -7.83246 1404.52C0.0872547 1407.09 8.95037 1414.47 17.2692 1414.03C36.9687 1413 40.9059 1383.05 37.3679 1363.8C33.4353 1342.41 27.4887 1321.6 25.4566 1299.64C23.4018 1277.39 28.3506 1256.47 28.0149 1234.46C27.4071 1194.51 0.264087 1205.1 -24.4657 1204.89" stroke="#1D9EC6" stroke-width="0.5" stroke-miterlimit="10"/>
<path d="M-28.0939 972.32C-22.4558 993.256 -14.7674 1022.7 1.18081 1034.61C20.4221 1049 28.9859 1021.95 31.0905 1001.75C35.1728 962.303 41.378 914.563 17.6098 883.357C-7.50092 850.377 -44.4232 828.991 -75.2673 806.528" stroke="#1D9EC6" stroke-width="0.5" stroke-miterlimit="10"/>
<path d="M4.56477 896.333C11.5864 907.437 16.8118 908.174 19.243 922.854C21.0937 934.068 22.3456 947.768 20.9622 959.212C19.8917 968.055 15.4918 982.924 7.83514 986.05C-4.83366 991.231 -17.8699 962.926 -28.0938 956.202" stroke="#1D9EC6" stroke-width="0.5" stroke-miterlimit="10"/>
<path d="M-35.3532 608.5C-27.5468 621.895 -13.8665 652.06 1.75972 651.571C17.014 651.099 23.3506 622.356 27.4647 607.964C43.7078 551.129 59.8239 513.774 101.645 481.318C140.981 450.808 186.58 420.649 234.039 430.936C265.578 437.775 315.854 457.843 327.819 500.534C333.394 520.4 322.34 592.231 348.276 589.485C363.562 587.868 379.393 562.832 389.812 550.824C404.78 533.554 420.152 517.55 439.344 508.57C469.766 494.334 515.094 494.61 510.639 438.247C506.28 383.029 468.115 346.239 431.17 325.803C393.069 304.739 358.174 280.285 343.695 227.404C337.213 203.739 336.533 178.283 330.146 154.623C321.982 124.303 304.441 101.374 285.458 81.1511C273.298 68.1987 260.466 56.2767 247.688 44.3374" stroke="#1D9EC6" stroke-width="0.5" stroke-miterlimit="10"/>
<path d="M224.102 74.2836C257.904 97.7649 290.186 124.977 302.469 173.873C312.861 215.229 315.841 250.5 337.082 286.732C347.71 304.866 360.016 322.884 375.76 334.029C391.092 344.88 408.537 346.924 425.093 353.216C455.973 364.959 490.346 408.658 462.686 448.954C451.641 465.039 434.264 473.167 420.462 484.646C404.091 498.277 390.933 516.687 375.066 530.964C340.779 561.808 341.178 474.249 331.222 449.524C313.854 406.39 264.181 411.582 231.523 405.958C185.578 398.043 145.34 408.123 106.527 441.108C75.5644 467.404 50.0953 503.389 37.9345 548.642C33.766 564.145 32.8725 582.98 24.7804 596.261C11.6852 617.693 -15.5212 627.963 -34.1865 638.233C-51.4229 647.708 -68.7819 656.855 -86.1181 666.049" stroke="#1D9EC6" stroke-width="0.5" stroke-miterlimit="10"/>
<path d="M-31.7232 585.473C-13.5795 572.233 6.41477 558.342 17.5187 534.814C26.8264 515.121 27.6156 491.686 33.7119 470.478C47.7369 421.685 88.1655 395.93 125.551 383.398C158.989 372.189 193.834 375.574 227.94 378.694C260.145 381.642 293.656 384.825 320.046 411.122C332.71 423.746 342.004 439.968 348.718 458.43C352.832 469.747 355.299 487.288 365.246 492.877C392.09 507.966 439.799 451.643 446.566 422.6C457.548 375.505 400.205 373.911 377.947 363.387C343.388 347.044 318.98 308.21 304.129 266.544C290.522 228.36 288.077 184.696 272.301 147.704C252.447 101.138 203.01 94.5122 167.14 78.67C152.172 72.0729 137.344 65.1072 122.498 58.1359" stroke="#1D9EC6" stroke-width="0.5" stroke-miterlimit="10"/>
<path d="M158.785 90.4029C189.443 101.49 226.37 111.795 247.322 145.01C266.921 176.067 268.187 219.847 278.034 256.315C287.201 290.325 300.927 329.62 322.999 353.343C348.472 380.733 385.018 373.491 410.891 397.468C435.734 420.494 413.431 463.715 388.098 467.543C357.163 472.218 348.636 423.367 333.118 399.822C310.53 365.547 268.382 362.98 236.009 357.828C199.722 352.036 163.784 348.479 127.437 355.715C95.5772 362.047 46.308 373.267 32.9044 416.804C27.6881 433.763 29.5888 452.824 24.1593 469.708C16.4709 493.609 -2.60271 506.286 -20.2701 516.164C-32.8845 523.216 -45.9524 528.984 -58.9387 534.815" stroke="#1D9EC6" stroke-width="0.5" stroke-miterlimit="10"/>
<path d="M-42.6081 442.71C-17.207 433.465 7.7179 423.713 20.1145 391.671C28.9051 368.967 32.6382 349.988 53.4807 341.474C87.55 327.554 133.839 324.319 169.373 328.544C193.763 331.422 252.653 361.633 271.059 331.486C282.113 313.375 268.487 283.234 262.786 265.745C255.61 243.732 250.684 221.263 244.751 198.738C226.154 128.15 164.919 99.4703 117.056 67.377" stroke="#1D9EC6" stroke-width="0.5" stroke-miterlimit="10"/>
<path d="M86.2115 69.6779C84.6844 69.344 84.1265 70.054 84.5378 71.8079C120.072 94.5638 155.498 120.509 189.971 145.706C205.674 157.185 212.591 170.857 218.17 192.248C223.554 212.874 233.025 233.598 236.505 254.765C246.443 315.285 179.951 299.909 154.858 291.458C133.399 284.228 113.128 281.718 92.3486 293.306C75.2391 302.845 60.9691 313.454 42.4263 318.509C19.3929 324.783 10.4935 333.735 -2.5972 357.907C-20.8225 391.56 -51.7347 385.815 -80.4743 382.436C-80.9128 381.106 -80.9941 379.629 -80.7056 378.234" stroke="#1D9EC6" stroke-width="0.5" stroke-miterlimit="10"/>
<path d="M-31.7226 306.853C-20.4962 298.575 -8.40795 288.012 4.72351 285.628C15.8365 283.614 26.7635 290.573 37.7041 287.856C48.1866 285.248 55.5983 274.282 64.5658 267.806C72.7304 261.899 82.0472 258.071 91.1326 255.112C109.127 249.258 134.147 248.084 152.617 251.532C170.334 254.842 190.859 278.15 201.469 246.817C205.097 236.087 206.141 218.61 203.923 207.344C200.992 192.48 191.19 186.965 182.726 177.455C180.499 168.153 163.163 159.034 156.971 152.5C148.036 143.111 140.864 134.971 130.554 127.983C117.559 119.175 109.013 108.715 99.9097 94.1511C87.445 74.2043 85.1497 62.7256 84.3967 37.4424" stroke="#1D9EC6" stroke-width="0.5" stroke-miterlimit="10"/>
<path d="M39.039 65.0736C54.1299 99.3025 82.5293 127.712 109.935 145.666C128.451 157.801 171.17 166.5 159.83 207.493C151.339 238.314 105.399 212.248 85.7588 223.18C62.0179 236.391 49.3582 278.035 20.7955 269.325C2.47952 263.735 -10.5022 253.477 -29.9794 260.114C-47.6695 266.113 -64.1304 278.869 -80.7273 288.448" stroke="#1D9EC6" stroke-width="0.5" stroke-miterlimit="10"/>
<path d="M-28.0936 228.561C-5.22806 224.727 13.3783 251.812 34.6063 242.699C54.7957 234.03 66.2625 207.008 89.255 205.045C98.7487 204.228 148.862 211.775 125.874 181.639C108.546 158.923 80.6958 172.175 64.8246 142.016C46.495 107.188 33.867 65.3432 35.4092 23.6248" stroke="#1D9EC6" stroke-width="0.5" stroke-miterlimit="10"/>
<path d="M6.37953 78.8889C4.26125 99.8373 27.0633 116.912 36.2032 131.602C48.3186 151.06 59.3364 162.285 77.7476 170.276C110.134 184.333 82.397 196.946 63.1375 200.175C44.8124 203.244 34.8787 232.557 14.9116 222.92C0.537294 215.977 -7.45499 201.753 -23.9975 198.938C-41.6513 195.939 -59.8902 200.78 -77.0677 205.535" stroke="#1D9EC6" stroke-width="0.5" stroke-miterlimit="10"/>
<path d="M-26.279 175.602C-18.1144 175.602 -10.4033 174.393 -3.02334 178.48C3.71703 182.216 7.63611 191.001 13.5872 195.105C24.6821 202.762 38.4848 197.937 49.6069 193.608C53.2356 176.776 28.7643 157.014 21.6792 144.752C15.6465 134.304 9.48678 120.816 4.41109 109.959C-2.65133 94.8533 3.33147 57.7921 -6.32096 48.9383" stroke="#1D9EC6" stroke-width="0.5" stroke-miterlimit="10"/>
<path d="M-26.2782 106.521C-22.8627 120.084 -8.73779 125.075 -2.2832 133.606C3.31865 141.004 17.2212 155.297 19.4392 163.639C27.935 167.668 32.9472 183.557 22.7822 187.04C17.4026 188.882 7.36013 180.258 3.37307 175.739C-2.61887 168.964 -6.34285 160.922 -13.4098 155.136C-31.685 140.209 -53.8701 132.236 -73.4335 120.337" stroke="#1D9EC6" stroke-width="0.5" stroke-miterlimit="10"/>
<rect x="-45.8574" y="1442.19" width="1445.6" height="210.35" fill="url(#paint0_linear_146_3370)"/>
</g>
<defs>
<linearGradient id="paint0_linear_146_3370" x1="918.375" y1="1618.07" x2="918.375" y2="1463.34" gradientUnits="userSpaceOnUse">
<stop stop-color="white"/>
<stop offset="1" stop-color="white" stop-opacity="0"/>
</linearGradient>
</defs>
</svg>
