<svg width="1440" height="921" viewBox="0 0 1440 921" fill="none" xmlns="http://www.w3.org/2000/svg">
<g opacity="0.3">
<path d="M12.8823 -18.8983C65.2662 -19.2071 122.598 -18.5791 118.21 26.904C114.326 67.1544 236.352 74.1879 282.784 61.6027C328.865 49.1111 352.004 174.797 286.734 210.387C244.323 233.51 109.235 255.704 173.589 303.727C190.189 316.111 213.871 323.505 230.575 335.649C248.607 348.786 258.723 365.268 278.258 377.878C302.242 393.364 338.015 403.922 364.824 384.894C397.19 361.927 400.12 324.39 413.006 296.065C419.079 282.703 432.371 253.476 463.514 260.211C483.328 264.5 489.039 279.354 491.195 290.878C497.899 326.69 521.795 365.99 503.384 401.376C492.188 422.889 472.225 442.806 473.865 466.262C475.511 489.51 498.497 508.869 533.057 516.638C564.293 523.661 599.479 519.604 629.311 529.598C666.878 542.179 691.399 571.625 698.8 597.201C722.065 677.594 533.6 649.003 464.797 668.635C383.059 691.967 481.074 754.733 527.78 768.106C585.469 784.623 619.234 749.962 668.661 739.032C717.633 728.206 791.899 757.53 829.23 726.887C867.192 695.728 806.876 649.971 843.702 620.362C860.708 606.67 891.725 610.602 915.017 613.589C942.869 617.163 968.23 620.529 993.859 610.529C1012.87 603.114 1034.26 583.301 1058.94 584.408C1088.3 585.723 1096.53 615.983 1102.62 629.679C1111.08 648.742 1119.33 670.169 1153.51 675.828C1181.62 680.478 1227.48 677.397 1250.06 664.843C1280.44 647.941 1250.75 615.508 1239.15 597.18C1224.48 573.974 1195.21 534.612 1225.38 511.592C1248.69 493.802 1291.63 498.733 1323.64 497.907C1352.64 497.158 1368.39 487.418 1392.63 478.934C1436.36 463.635 1489.33 460.971 1537.97 457.181" stroke="#1D9EC6" stroke-width="0.5" stroke-miterlimit="10"/>
<path d="M-4.67209 6.08423C10.5346 -3.11439 29.1424 -13.9196 51.9798 -11.6399C74.9324 -9.36709 87.6375 4.32154 94.7691 16.9657C101.588 29.0478 103.777 42.6809 118.259 52.4C132.522 61.9595 154.789 66.5952 174.363 69.7771C197.107 73.4795 219.813 73.8542 243.138 74.0277C262.986 74.1769 286.767 73.9548 300.191 84.8572C324.75 104.771 311.837 152.908 298.199 174.605C281.034 201.903 238.366 213.718 200.788 227.347C162.618 241.227 131.014 266.425 149.578 295.357C166.342 321.488 209.784 334.806 235.99 356.406C250.922 368.71 262.41 384.609 255.108 400.296C246.912 417.916 219.538 427.205 196.043 435.626C172.053 444.228 153.423 452.944 141.141 468.965C129.752 483.812 122.895 501.47 99.3443 510.79C47.7777 531.207 -18.1123 496.685 -55.8382 537.252C-64.8459 546.936 -70.8967 557.724 -77.1122 568.203" stroke="#1D9EC6" stroke-width="0.5" stroke-miterlimit="10"/>
<path d="M15.0765 504.357C58.1895 510.315 102.849 515.02 120.13 483.614C127.547 470.106 131.524 456.053 145.277 444.29C158.744 432.767 178.191 426.729 196.635 419.082C230.905 404.89 248.344 377.096 217.437 355.712C203.591 346.124 184.105 340.475 169.107 331.652C151.728 321.433 138.655 308.292 130.811 294.149C116.114 267.629 129.823 244.575 161.877 226.14C191.407 209.165 231.212 204.446 262.816 189.842C294.995 174.97 301.896 139.643 299.57 116.204C296.345 83.903 240.598 90.527 203.377 89.1217C154.076 87.2549 122.686 77.5948 101.341 48.4271C92.4812 36.3173 84.8834 20.7237 63.3187 15.512C43.0925 10.6264 18.0554 15.6993 -2.25853 17.9721C-13.274 19.2004 -24.3152 20.3223 -35.3819 21.3379" stroke="#1D9EC6" stroke-width="0.5" stroke-miterlimit="10"/>
<path d="M-0.283284 49.1107C17.4139 44.3639 40.7451 36.7892 60.3623 41.3C78.1637 45.3944 85.8438 58.1878 94.4455 67.789C119.132 95.3224 151.032 95.9261 196.992 97.6576C238.311 99.2155 278.67 111.929 276.936 141.912C275.291 170.691 236.676 182.406 199.872 191.618C123.427 210.748 92.5695 268.906 125.128 315.642C140.91 338.296 175.548 344.927 197.047 363.762C223.614 387.034 190.376 402.538 158.953 411.549C115.067 424.127 121.562 446.47 109.471 472.299C95.9652 501.169 55.4579 496.588 16.6952 494.611C6.65623 494.097 -3.39373 493.656 -13.4492 493.254" stroke="#1D9EC6" stroke-width="0.5" stroke-miterlimit="10"/>
<path d="M-0.283312 471.046C30.9858 479.53 80.6489 485.297 100.584 462.122C119.006 440.713 93.4527 414.977 133.867 401.018C163.967 390.608 192.17 378.967 161.263 357.45C133.889 338.397 111.232 327.2 105.066 299.85C100.014 277.4 93.9081 248.52 102.104 226.341C110.481 203.669 145.606 196.847 174.143 186.205C200.629 176.34 245.58 167.815 249.299 145.261C253.989 116.947 213.537 110.128 178.559 111.256C131.036 112.804 113.509 101.402 88.8611 77.6642C64.8771 54.5653 27.1019 66.7307 -9.44458 66.1408C-18.8857 65.9881 -28.2719 65.2352 -37.6033 64.3712" stroke="#1D9EC6" stroke-width="0.5" stroke-miterlimit="10"/>
<path d="M-2.47784 94.913C25.412 84.4271 67.1425 66.5364 84.5655 93.4418C91.0332 103.425 93.3976 110.444 110.245 114.979C125.605 119.143 144.608 121.759 161.202 122.738C182.877 124.015 249.365 121.187 228.184 148.599C216.406 163.866 163.907 171.604 140.96 177.78C99.2345 188.998 97.4078 209.009 90.6987 235.002C85.1416 256.543 81.7843 280.579 87.9558 302.193C93.9079 322.991 108.599 341.818 133.921 355.521C142.397 360.105 161.246 367.624 154.351 375.993C147.938 383.766 121.924 384.293 111.013 388.696C82.8869 400.029 93.8146 427.829 82.9472 445.328C67.2962 470.54 29.7348 462.23 -1.24903 454.211C-8.22149 452.407 -15.1884 450.588 -22.1993 448.843" stroke="#1D9EC6" stroke-width="0.5" stroke-miterlimit="10"/>
<path d="M8.49302 429.408C21.659 436.695 49.0879 440.186 63.8667 433.919C78.81 427.58 79.26 414.009 80.5546 403.141C82.2991 388.568 86.1994 382.634 105.844 374.914C116.613 370.681 118.461 371.305 118.237 362.52C118.061 354.855 113.212 353.064 109.015 346.367C107.819 346.232 106.64 346.062 105.471 345.864C100.764 337.19 85.9197 330.708 80.9002 321.804C74.9645 311.277 81.1799 300.041 72.5123 290.121C64.1026 280.502 46.1476 275.443 35.3625 266.928C25.3673 259.038 5.83788 250.745 -0.295253 242.039" stroke="#1D9EC6" stroke-width="0.5" stroke-miterlimit="10"/>
<path d="M1.91048 283.674C28.4727 278.743 46.8282 289.004 52.2646 305.426C56.2418 317.422 47.1189 332.897 63.9 341.957C78.3167 349.733 102.131 352.884 82.5901 368.425C75.3653 374.168 62.8029 374.806 55.2873 379.949C46.8721 385.712 50.5311 392.551 47.6785 399.477C39.7679 418.697 -4.6999 415.567 -28.81 412.753" stroke="#1D9EC6" stroke-width="0.5" stroke-miterlimit="10"/>
<path d="M10.6893 343.355C37.2844 343.414 72.9861 345.17 69.552 366.708C60.4017 368.762 50.999 370.403 41.4208 371.045C18.4901 372.575 -1.55503 377.055 -24.4089 379.442" stroke="#1D9EC6" stroke-width="0.5" stroke-miterlimit="10"/>
<path d="M26.0481 226.768C32.5707 233.933 50.8879 256.47 68.8758 252.899C84.8944 249.721 78.4924 226.136 79.041 218.405C81.0872 189.772 98.1316 170.292 144.355 164.623C162.716 162.378 188.933 160.278 201.643 150.347C217.865 137.669 187.879 136.645 173.545 136.766C130.843 137.113 99.1299 135.295 81.2901 108.314C72.3428 94.781 52.8462 83.0425 28.7691 90.8289C18.8946 94.0211 12.4104 99.6666 1.34004 101.672C-14.47 104.535 -33.034 101.162 -48.5808 99.0698" stroke="#1D9EC6" stroke-width="0.5" stroke-miterlimit="10"/>
<path d="M-9.06059 121.284C9.49789 111.964 41.3155 106.645 62.776 115.621C73.1606 119.966 74.9491 127.748 83.4082 132.953C93.6008 139.216 106.997 137.811 119.527 140.42C156.49 148.075 104.271 157.353 93.6063 161.972C72.5079 171.115 74.5595 190.425 64.1639 203.763C43.0875 230.828 2.63515 207.021 -22.2265 194.845" stroke="#1D9EC6" stroke-width="0.5" stroke-miterlimit="10"/>
<path d="M1.91091 142.103C16.5196 135.715 40.6573 130.004 58.8812 132.12C70.7799 133.508 93.4692 140.844 91.2475 149.817C89.1848 158.085 62.7541 166.295 53.0606 171.736C26.7287 186.514 -18.3537 179.276 -50.7364 179.574" stroke="#1D9EC6" stroke-width="0.5" stroke-miterlimit="10"/>
<path d="M4.10443 555.711C20.1339 538.393 37.1784 528.993 69.1442 526.235C97.5003 523.789 120.091 522.373 134.244 504.722C145.731 490.405 149.204 474.069 174.038 466.265C197.781 458.801 219.45 458.097 235.732 443.017C248.897 430.813 255.135 407.555 279.848 402.27C303.882 397.131 329.956 410.831 353.956 411.441C409.983 412.871 406.521 351.759 421.744 328.702C426.385 321.683 443.912 294.788 461.906 298.743C479.669 302.647 474.852 334.348 474.77 342.873C474.605 360.299 473.437 377.867 466.393 394.793C459.174 412.142 447.165 428.645 443.018 446.494C434.493 483.191 474.441 527.918 526.216 545.01C554.303 554.285 582.604 549.476 612.513 550.909C644.967 552.467 665.972 566.822 671.996 586.721C704.181 693.062 381.489 587.69 393.059 695.776C398.325 744.934 464.544 782.464 536.041 794.57C576.685 801.451 621.543 800.868 655.236 783.258C676.307 772.241 689.753 754.771 719.673 753.234C770.811 750.607 853.916 777.075 881.679 733.337C898.965 706.099 827.535 655.442 887.533 639.564C914.347 632.472 944.843 639.099 972.563 635.14C999.262 631.323 1014.98 617.315 1038.66 610.136C1065.54 601.979 1074.46 617.01 1080.97 631.177C1090.18 651.188 1097.43 672.927 1125.96 685.797C1166 703.861 1252.68 705.519 1292.43 686.334C1344.96 661.004 1290.39 625.581 1274.92 598.058C1265.25 580.854 1254.83 561.659 1251.06 543.525C1247.3 525.482 1264.07 522.3 1288.86 519.458C1317.78 516.141 1342.24 510.995 1368.49 502.733C1391.83 495.388 1412.25 494.805 1437.95 495.516C1463.94 496.234 1487 494.544 1511.59 489.062" stroke="#1D9EC6" stroke-width="0.5" stroke-miterlimit="10"/>
<path d="M1452.36 518.237C1431.72 503.566 1413.46 501.377 1386.82 511.741C1362.02 521.391 1345.13 525.059 1316.42 527.474C1241.1 533.803 1279.61 574.664 1298.41 602.284C1316.36 628.655 1352.72 669.648 1314.87 695.467C1297.12 707.584 1269.49 708.42 1245.1 709.086C1218.64 709.812 1191.34 710.606 1165.08 707.921C1103.59 701.623 1082.21 661.289 1059.55 629.273C1043.81 607.065 996.645 648.135 958.502 649.668C917.907 651.303 877.071 650.727 888.284 683.819C896.579 708.313 925.083 743.344 879.715 759.969C841.156 774.098 793.451 767.529 751.726 765.84C704.455 763.928 687.866 780.163 655.379 798.234C619.441 818.228 573.448 818.405 529.99 808.751C440.352 788.845 354.691 732.855 383.003 668.944C395.796 640.06 426.5 629.311 472.098 629.547C517.696 629.783 560.469 629.807 605.612 624.588C616.358 623.343 628.97 624.765 637.813 620.702C667.711 606.972 659.757 579.452 619.014 569.983C586.378 562.391 548.461 571.655 517.296 561.572C489.735 552.654 477.211 530.121 459.399 515.121C436.254 495.627 431.564 480.672 429.32 456.73C427.093 432.937 397.991 432.788 367.001 427.77C336.862 422.913 300.623 410.605 275.092 427.798C251.432 443.76 246.895 465.818 216.586 478.601C203.848 483.972 190.04 487.889 179.337 495.037C167.74 502.786 161.695 512.567 154.004 521.87C132.697 547.651 100.748 545.777 60.8276 552.117C19.4263 558.689 -5.72077 579.959 -31.0268 600.126" stroke="#1D9EC6" stroke-width="0.5" stroke-miterlimit="10"/>
<path d="M-26.6147 616.781C9.81649 593.415 43.7627 581.388 94.5283 574.685C116.027 571.843 137.361 568.602 153.682 558.685C170.002 548.768 178.702 535.007 189.959 522.921C212.451 498.788 246.392 476.425 277.655 456.685C314.717 433.277 368.632 427.711 396.357 460.974C407.685 474.558 411.717 490.068 421.888 504C433.189 519.483 449.953 533.043 465.824 546.718C478.271 557.436 490.472 571.701 508.575 579.071C527.089 586.597 551.556 584.723 572.495 584.813C584.926 584.869 627.353 582.631 633.47 592.714C639.801 603.2 603.907 610.681 593.632 612.839C541.517 623.797 491.629 610.632 439.262 615.646C378.523 621.462 358.62 649.235 360.573 684.87C362.526 720.426 370.996 752.217 413.352 777.929C449.646 799.973 499.573 817.7 546.01 829.768C599.047 843.551 637.277 838.991 675.129 812.301C711.988 786.315 750.394 779.684 804.627 780.885C851.097 781.926 919.78 783.279 934.641 747.38C945.771 720.475 910.58 686.387 965.048 673.059C986.054 667.917 1013.36 665.425 1035.27 669.617C1057.35 673.819 1069.62 685.731 1082.78 696.814C1117.92 726.418 1160.46 742.269 1219.92 741.228C1269.67 740.353 1324.62 733.428 1355.3 706.2C1392.8 672.924 1366.74 639.498 1346.04 606.111C1337.78 592.783 1329.46 576.496 1342.69 563.279C1355.6 550.392 1382.64 546.117 1404.89 543.955C1429.26 541.586 1454.12 541.752 1478.71 541.839" stroke="#1D9EC6" stroke-width="0.5" stroke-miterlimit="10"/>
<path d="M1467.72 562.651C1436.58 552.214 1395.05 557.471 1380.62 578.765C1364.45 602.627 1386.01 617.544 1396.2 640.001C1406.92 663.596 1411.7 680.873 1390.83 702.223C1374.84 718.576 1370.41 741.207 1376.7 759.864C1381.47 774.063 1389.09 786.68 1403.63 798.009C1435.72 823.016 1460.18 848.832 1483.08 877.715" stroke="#1D9EC6" stroke-width="0.5" stroke-miterlimit="10"/>
<path d="M1437 883.267C1423.17 858.599 1402.68 838.394 1383.21 815.636C1368.25 798.154 1367.77 772.516 1345.74 757.998C1322.36 742.595 1284.2 751.2 1256.32 755.628C1217.37 761.807 1175.68 765.239 1137.1 756.013C1093.31 745.537 1078.57 719.374 1044.33 702.088C1014.47 687.011 973.94 693.76 960.484 716.661C948.218 737.525 964.872 762.81 939.638 780.909C913.717 799.476 868.322 798.505 832.73 798.158C793.392 797.776 751.875 799.796 715.181 809.57C655.841 825.375 639.888 870.241 622.92 905.477" stroke="#1D9EC6" stroke-width="0.5" stroke-miterlimit="10"/>
<path d="M675.568 866.612C677.214 865.852 676.227 864.877 679.529 864.953C694.95 844.759 712.696 835.955 746.401 829.869C774.296 824.831 800.513 816.972 830.147 818.481C869.146 820.469 907.42 829.692 944.17 816.136C975.647 804.522 985.428 786.121 983.848 764.334C982.751 749.136 983.267 719.135 1018.7 719.822C1050.18 720.433 1060.73 750.909 1080.84 762.155C1108.69 777.755 1156.87 783.654 1193.13 784.22C1221.02 784.66 1245.46 775.132 1273.22 774.31C1321.72 772.87 1329.06 793.491 1338.41 818.724C1351.4 853.895 1381.25 879.075 1423.66 902.49C1422.33 902.857 1420.84 902.93 1419.44 902.698" stroke="#1D9EC6" stroke-width="0.5" stroke-miterlimit="10"/>
<path d="M1325.09 874.939C1324.67 858.978 1319.52 843.592 1317.89 827.749C1316.49 814.043 1316.34 804.903 1294.91 797.724C1255 784.355 1214.71 797.624 1176.71 806.746C1157.74 811.298 1144.94 811.798 1125.21 808.675C1108.72 806.062 1088.37 805.476 1075.8 797.655C1061.92 789.029 1055.15 778.762 1031.87 783.952C1012.73 788.213 1007.26 798.98 1004.07 810.424C999.258 827.707 998.95 844.189 978.894 857.732C951.586 876.168 915.001 887.615 888.417 906.865" stroke="#1D9EC6" stroke-width="0.5" stroke-miterlimit="10"/>
<path d="M1268.03 894.37C1278.25 877.899 1311.67 853.648 1302.31 835.636C1291.7 815.219 1268.16 805.361 1235.89 809.428C1208.74 812.853 1184.81 823.394 1157.37 825.042C1143.38 825.875 1128.04 825.695 1114.26 823.904C1100.37 822.1 1087.52 816.271 1073.46 815.407C1015.17 811.871 1041.25 871.14 1046.41 888.832" stroke="#1D9EC6" stroke-width="0.5" stroke-miterlimit="10"/>
<path d="M1257.06 881.879C1257.32 874.793 1258 867.715 1260.79 860.827C1263.23 854.769 1270.27 847.989 1269.85 841.625C1268.87 826.555 1240.32 823.543 1221.98 826.25C1201.6 829.258 1181.77 833.807 1160.84 835.362C1139.64 836.934 1119.7 833.148 1098.73 833.405C1060.66 833.87 1070.75 854.633 1070.54 873.551" stroke="#1D9EC6" stroke-width="0.5" stroke-miterlimit="10"/>
<path d="M848.919 876.327C868.871 872.014 896.931 866.132 908.281 853.932C921.995 839.213 896.212 832.662 876.963 831.052C839.374 827.929 793.88 823.182 764.142 841.364C732.713 860.574 712.334 888.818 690.928 912.413" stroke="#1D9EC6" stroke-width="0.5" stroke-miterlimit="10"/>
<path d="M776.507 851.344C787.09 845.973 787.792 841.976 801.781 840.116C812.467 838.7 825.523 837.742 836.429 838.801C844.855 839.619 859.025 842.985 862.004 848.842C866.941 858.534 839.967 868.506 833.56 876.327" stroke="#1D9EC6" stroke-width="0.5" stroke-miterlimit="10"/>
<path d="M502.215 881.879C514.981 875.908 543.726 865.442 543.26 853.489C542.81 841.819 515.42 836.972 501.705 833.825C447.544 821.399 411.946 809.071 381.017 777.079C351.943 746.988 323.203 712.105 333.006 675.8C339.523 651.674 358.646 613.214 399.329 604.061C418.261 599.796 486.712 608.252 484.096 588.412C482.554 576.718 458.696 564.608 447.253 556.638C430.796 545.187 415.545 533.428 406.987 518.747C393.421 495.475 393.684 460.8 339.973 464.208C287.353 467.542 252.293 496.738 232.818 525C212.746 554.147 189.442 580.84 139.05 591.916C116.497 596.875 92.2393 597.395 69.6927 602.281C40.7989 608.526 18.9489 621.944 -0.322705 636.466C-12.6658 645.768 -24.0269 655.585 -35.4044 665.359" stroke="#1D9EC6" stroke-width="0.5" stroke-miterlimit="10"/>
<path d="M-6.86651 683.403C15.5101 657.545 41.4415 632.85 88.0379 623.454C127.448 615.504 161.059 613.225 195.587 596.975C212.867 588.845 230.038 579.431 240.658 567.388C250.999 555.659 252.947 542.314 258.943 529.649C270.134 506.026 311.776 479.732 350.177 500.891C365.504 509.34 373.25 522.633 384.189 533.192C397.179 545.715 414.723 555.781 428.328 567.918C457.721 594.147 374.282 593.842 350.72 601.458C309.615 614.744 314.563 652.743 309.204 677.726C301.661 712.872 311.266 743.653 342.7 773.345C367.759 797.03 402.051 816.514 445.175 825.816C459.948 829.005 477.897 829.689 490.553 835.879C510.977 845.896 520.764 866.709 530.55 880.987C539.58 894.173 548.297 907.452 557.058 920.714" stroke="#1D9EC6" stroke-width="0.5" stroke-miterlimit="10"/>
<path d="M480.272 879.103C467.655 865.224 454.418 849.929 431.997 841.434C413.23 834.314 390.898 833.711 370.688 829.047C324.19 818.318 299.647 787.391 287.704 758.793C277.023 733.213 280.249 706.557 283.222 680.467C286.031 655.831 289.065 630.196 314.124 610.008C326.154 600.32 341.613 593.21 359.206 588.075C369.991 584.928 386.707 583.04 392.033 575.431C406.412 554.896 352.739 518.4 325.063 513.223C280.183 504.823 278.664 548.689 268.636 565.715C253.061 592.152 216.054 610.824 176.348 622.184C139.961 632.593 98.3509 634.464 63.0991 646.532C18.7245 661.72 12.4103 699.538 -2.68659 726.977C-8.97332 738.428 -15.6112 749.771 -22.2545 761.128" stroke="#1D9EC6" stroke-width="0.5" stroke-miterlimit="10"/>
<path d="M8.49402 733.368C19.0597 709.916 28.8793 681.667 60.5324 665.64C90.1283 650.647 131.848 649.679 166.6 642.146C199.01 635.133 236.457 624.633 259.064 607.749C285.165 588.262 278.264 560.305 301.112 540.513C323.055 521.509 364.243 538.57 367.891 557.949C372.345 581.614 325.793 588.137 303.356 600.008C270.693 617.287 268.247 649.529 263.337 674.294C257.818 702.053 254.428 729.545 261.324 757.349C267.358 781.721 278.05 819.411 319.539 829.664C335.7 833.655 353.864 832.201 369.954 836.354C392.731 842.235 404.81 856.826 414.224 870.341C420.944 879.991 426.441 889.988 431.998 899.922" stroke="#1D9EC6" stroke-width="0.5" stroke-miterlimit="10"/>
<path d="M344.226 887.43C335.415 867.999 326.122 848.932 295.589 839.449C273.953 832.725 255.866 829.869 247.752 813.925C234.488 787.863 231.405 752.453 235.431 725.27C238.174 706.612 266.964 661.563 238.234 647.482C220.976 639.026 192.253 649.45 175.587 653.811C154.609 659.301 133.198 663.069 111.732 667.607C44.465 681.834 17.1348 728.677 -13.4486 765.291" stroke="#1D9EC6" stroke-width="0.5" stroke-miterlimit="10"/>
<path d="M-11.2554 788.887C-11.5736 790.055 -10.8971 790.482 -9.22572 790.167C12.4597 762.984 37.1842 735.884 61.1956 709.513C72.1343 697.501 85.163 692.209 105.548 687.941C125.204 683.822 144.953 676.577 165.124 673.916C222.796 666.313 208.144 717.178 200.091 736.374C193.2 752.789 190.809 768.296 201.852 784.192C210.942 797.28 221.052 808.196 225.868 822.381C231.848 840.001 240.378 846.809 263.413 856.823C295.483 870.765 290.008 894.412 286.788 916.397C285.52 916.733 284.113 916.795 282.784 916.574" stroke="#1D9EC6" stroke-width="0.5" stroke-miterlimit="10"/>
<path d="M214.761 879.103C206.872 870.515 196.806 861.268 194.535 851.222C192.615 842.721 199.247 834.362 196.658 825.993C194.173 817.974 183.722 812.304 177.551 805.444C171.922 799.199 168.274 792.072 165.454 785.121C159.875 771.356 158.756 752.217 162.042 738.087C165.197 724.534 187.409 708.833 157.549 700.717C147.324 697.941 130.669 697.143 119.933 698.84C105.769 701.081 100.513 708.58 91.4509 715.054C82.5858 716.758 73.8964 730.02 67.67 734.756C58.7227 741.592 50.9657 747.078 44.3059 754.965C35.9127 764.906 25.945 771.443 12.0659 778.407C-6.94242 787.942 -17.8811 789.698 -41.9747 790.274" stroke="#1D9EC6" stroke-width="0.5" stroke-miterlimit="10"/>
<path d="M-15.6437 824.973C16.9748 813.429 44.0472 791.704 61.1574 770.739C72.7215 756.575 81.0106 723.896 120.075 732.571C149.446 739.066 124.606 774.209 135.024 789.233C147.614 807.395 187.298 817.079 178.998 838.929C173.671 852.94 163.895 862.871 170.221 877.771C175.937 891.303 188.093 903.895 197.222 916.591" stroke="#1D9EC6" stroke-width="0.5" stroke-miterlimit="10"/>
<path d="M140.152 876.327C136.498 858.836 162.309 844.602 153.625 828.363C145.363 812.919 119.613 804.147 117.742 786.558C116.964 779.296 124.155 740.961 95.4371 758.546C73.7902 771.801 86.4186 793.106 57.6785 805.247C24.4894 819.269 -15.387 828.929 -55.1426 827.749" stroke="#1D9EC6" stroke-width="0.5" stroke-miterlimit="10"/>
<path d="M-2.47854 849.956C17.4843 851.577 33.7552 834.134 47.755 827.142C66.297 817.874 76.9942 809.446 84.6085 795.361C98.0049 770.586 110.024 791.805 113.102 806.538C116.026 820.556 143.959 828.155 134.776 843.429C128.16 854.425 114.605 860.539 111.922 873.194C109.064 886.699 113.678 900.651 118.209 913.791" stroke="#1D9EC6" stroke-width="0.5" stroke-miterlimit="10"/>
<path d="M89.6842 874.939C89.6842 868.693 88.5322 862.795 92.4271 857.149C95.9874 851.993 104.359 848.995 108.27 844.443C115.566 835.955 110.969 825.396 106.844 816.888C90.8033 814.112 71.9706 832.832 60.2858 838.252C50.3291 842.867 37.4758 847.579 27.1295 851.462C12.7348 856.865 -22.5828 852.288 -31.02 859.672" stroke="#1D9EC6" stroke-width="0.5" stroke-miterlimit="10"/>
<path d="M23.8538 874.939C36.7784 872.326 41.5346 861.521 49.6646 856.583C56.7139 852.298 70.3351 841.663 78.284 839.966C82.1241 833.467 97.2651 829.633 100.584 837.409C102.339 841.524 94.1216 849.207 89.8152 852.257C83.3584 856.84 75.6947 859.689 70.1815 865.095C55.9568 879.075 48.3589 896.046 37.0198 911.012" stroke="#1D9EC6" stroke-width="0.5" stroke-miterlimit="10"/>
</g>
</svg>
