<svg width="12" height="15" viewBox="0 0 12 15" fill="none" xmlns="http://www.w3.org/2000/svg">
<path d="M4.05334 9.77464C4.05334 11.1147 4.21918 14.0313 5.71168 14.0313C7.20418 14.0313 7.37002 11.1147 7.37002 9.77464C7.37002 8.60205 6.62753 8.00098 5.71168 8.00098C4.79583 8.00098 4.05334 8.60205 4.05334 9.77464Z" fill="white"/>
<path d="M5.71158 0.334473C2.71889 0.334473 0.284302 2.76906 0.284302 5.76175C0.284302 7.77497 1.38694 9.53416 3.0192 10.4711C3.00427 10.1722 2.99794 9.8904 2.99794 9.64602C2.99794 9.55768 3.00277 9.47145 3.00895 9.38597C1.9048 8.56057 1.18885 7.24325 1.18885 5.76175C1.18885 3.26792 3.21775 1.23902 5.71158 1.23902C8.20541 1.23902 10.2343 3.26792 10.2343 5.76175C10.2343 7.24325 9.51836 8.56057 8.41421 9.38597C8.42039 9.47145 8.42522 9.55753 8.42522 9.64602C8.42522 9.8904 8.41889 10.1722 8.40396 10.4711C10.0362 9.53416 11.1389 7.77497 11.1389 5.76175C11.1389 2.76906 8.70427 0.334473 5.71158 0.334473Z" fill="white"/>
<path d="M3.30457 8.38261C3.44372 8.10009 3.6293 7.85405 3.85016 7.64661C3.41658 7.1874 3.14869 6.5702 3.14869 5.89028C3.14869 4.47708 4.29837 3.3274 5.71157 3.3274C7.12477 3.3274 8.27445 4.47708 8.27445 5.89028C8.27445 6.5702 8.00655 7.1874 7.57297 7.64661C7.79383 7.85405 7.97942 8.10009 8.11857 8.38261C8.77165 7.75169 9.179 6.86794 9.179 5.89028C9.179 3.97837 7.62363 2.42285 5.71157 2.42285C3.79951 2.42285 2.24414 3.97837 2.24414 5.89028C2.24414 6.86794 2.65149 7.75169 3.30457 8.38261Z" fill="white"/>
<path d="M5.71107 7.09621C6.37716 7.09621 6.91713 6.55623 6.91713 5.89014C6.91713 5.22405 6.37716 4.68408 5.71107 4.68408C5.04498 4.68408 4.505 5.22405 4.505 5.89014C4.505 6.55623 5.04498 7.09621 5.71107 7.09621Z" fill="white"/>
</svg>
