<svg width="1600" height="960" viewBox="0 0 1600 960" fill="none" xmlns="http://www.w3.org/2000/svg">
<g opacity="0.3">
<path d="M80.2406 0.0362842C126.946 -0.272534 178.063 0.355511 174.15 45.8385C170.687 86.089 279.485 93.1224 320.884 80.5372C361.969 68.0457 382.6 193.731 324.405 229.322C286.592 252.445 166.148 274.638 223.526 322.661C238.327 335.045 259.442 342.439 274.335 354.584C290.412 367.721 299.431 384.203 316.849 396.812C338.233 412.298 370.128 422.857 394.031 403.828C422.888 380.861 425.5 343.324 436.989 315C442.404 301.637 454.255 272.411 482.022 279.146C499.689 283.434 504.78 298.289 506.702 309.812C512.679 345.625 533.985 384.924 517.571 420.31C507.588 441.823 489.789 461.74 491.251 485.197C492.719 508.445 513.213 527.803 544.027 535.572C571.877 542.595 603.248 538.539 629.846 548.532C663.341 561.114 685.204 590.559 691.802 616.136C712.545 696.529 544.511 667.937 483.166 687.57C410.289 710.901 497.678 773.668 539.321 787.041C590.756 803.557 620.861 768.897 664.93 757.966C708.593 747.141 774.809 776.464 808.093 745.822C841.94 714.663 788.162 668.905 820.996 639.297C836.159 625.605 863.813 629.536 884.581 632.524C909.413 636.098 932.025 639.464 954.876 629.463C971.824 622.048 990.899 602.235 1012.9 603.342C1039.08 604.657 1046.42 634.918 1051.84 648.614C1059.39 667.677 1066.75 689.103 1097.22 694.763C1122.28 699.412 1163.17 696.331 1183.31 683.777C1210.39 666.875 1183.92 634.443 1173.57 616.115C1160.49 592.908 1134.4 553.546 1161.3 530.527C1182.08 512.737 1220.37 517.668 1248.91 516.842C1274.77 516.092 1288.8 506.352 1310.42 497.869C1349.41 482.57 1396.64 479.905 1440 476.116" stroke="#1D9EC6" stroke-width="0.5" stroke-miterlimit="10"/>
<path d="M64.5888 25.0188C78.147 15.8202 94.7377 5.01501 115.099 7.29472C135.564 9.56748 146.892 23.2561 153.25 35.9003C159.33 47.9824 161.281 61.6155 174.194 71.3346C186.911 80.8941 206.764 85.5298 224.216 88.7117C244.494 92.414 264.738 92.7888 285.535 92.9623C303.232 93.1115 324.435 92.8894 336.403 103.792C358.301 123.705 346.787 171.843 334.628 193.54C319.323 220.837 281.28 232.652 247.776 246.282C213.744 260.161 185.566 285.359 202.117 314.291C217.065 340.423 255.797 353.74 279.162 375.34C292.476 387.644 302.718 403.543 296.208 419.23C288.901 436.85 264.494 446.139 243.545 454.561C222.156 463.162 205.546 471.879 194.595 487.899C184.441 502.747 178.327 520.405 157.329 529.725C111.353 550.142 52.6055 515.62 18.9693 556.186C10.9381 565.871 5.54314 576.658 0.00150101 587.137" stroke="#1D9EC6" stroke-width="0.5" stroke-miterlimit="10"/>
<path d="M82.1977 523.292C120.637 529.25 160.456 533.955 175.863 502.549C182.476 489.041 186.022 474.988 198.284 463.225C210.291 451.701 227.63 445.664 244.074 438.016C274.629 423.825 290.178 396.031 262.622 374.646C250.276 365.059 232.903 359.41 219.531 350.586C204.036 340.367 192.38 327.227 185.386 313.084C172.282 286.564 184.505 263.51 213.084 245.074C239.413 228.1 274.903 223.381 303.081 208.776C331.772 193.904 337.925 158.578 335.851 135.139C332.975 102.838 283.272 109.462 250.086 108.056C206.129 106.189 178.142 96.5294 159.111 67.3617C151.211 55.2518 144.437 39.6583 125.21 34.4465C107.177 29.561 84.8537 34.6339 66.7419 36.9067C56.9205 38.135 47.0762 39.2569 37.2092 40.2724" stroke="#1D9EC6" stroke-width="0.5" stroke-miterlimit="10"/>
<path d="M68.5018 68.0452C84.2805 63.2984 105.082 55.7237 122.573 60.2346C138.445 64.329 145.292 77.1224 152.962 86.7235C174.972 114.257 203.414 114.861 244.391 116.592C281.231 118.15 317.215 130.864 315.67 160.847C314.202 189.626 279.774 201.34 246.959 210.553C178.801 229.682 151.289 287.841 180.318 334.576C194.389 357.231 225.272 363.862 244.44 382.696C268.128 405.969 238.493 421.472 210.476 430.483C171.347 443.062 177.138 465.404 166.358 491.234C154.317 520.103 118.2 515.523 83.6397 513.545C74.689 513.032 65.7285 512.591 56.7631 512.188" stroke="#1D9EC6" stroke-width="0.5" stroke-miterlimit="10"/>
<path d="M68.5022 489.981C96.3816 498.465 140.661 504.232 158.435 481.057C174.86 459.647 152.077 433.911 188.11 419.952C214.947 409.543 240.093 397.901 212.536 376.385C188.129 357.332 167.929 346.134 162.431 318.785C157.927 296.335 152.483 267.455 159.79 245.276C167.259 222.604 198.577 215.782 224.02 205.14C247.635 195.275 287.713 186.749 291.029 164.195C295.211 135.881 259.144 129.063 227.958 130.191C185.586 131.738 169.959 120.336 147.983 96.5988C126.599 73.4999 92.9187 85.6652 60.3341 85.0754C51.9164 84.9227 43.5477 84.1697 35.2279 83.3057" stroke="#1D9EC6" stroke-width="0.5" stroke-miterlimit="10"/>
<path d="M66.5456 113.848C91.4121 103.362 128.619 85.471 144.153 112.376C149.92 122.359 152.028 129.379 167.049 133.914C180.744 138.078 197.687 140.694 212.482 141.672C231.807 142.949 291.088 140.121 272.203 167.533C261.702 182.801 214.894 190.539 194.434 196.715C157.232 207.933 155.603 227.944 149.621 253.937C144.667 275.477 141.673 299.513 147.176 321.127C152.483 341.925 165.581 360.753 188.159 374.455C195.716 379.039 212.521 386.558 206.373 394.928C200.656 402.7 177.462 403.228 167.733 407.631C142.657 418.963 152.4 446.764 142.71 464.263C128.756 489.475 95.2663 481.164 67.6412 473.145C61.4246 471.341 55.2129 469.523 48.9621 467.778" stroke="#1D9EC6" stroke-width="0.5" stroke-miterlimit="10"/>
<path d="M76.3271 448.343C88.0658 455.63 112.521 459.12 125.698 452.854C139.021 446.514 139.423 432.944 140.577 422.076C142.132 407.503 145.61 401.569 163.125 393.849C172.726 389.615 174.375 390.24 174.174 381.454C174.017 373.789 169.694 371.999 165.952 365.302C164.886 365.167 163.834 364.997 162.792 364.799C158.596 356.124 145.36 349.642 140.885 340.739C135.593 330.211 141.134 318.976 133.406 309.055C125.908 299.437 109.9 294.378 100.284 285.863C91.3721 277.972 73.9597 269.679 68.4915 260.973" stroke="#1D9EC6" stroke-width="0.5" stroke-miterlimit="10"/>
<path d="M70.4579 302.608C94.1407 297.678 110.506 307.938 115.354 324.361C118.9 336.356 110.766 351.832 125.728 360.892C138.581 368.668 159.814 371.818 142.392 387.36C135.95 393.103 124.749 393.741 118.049 398.883C110.546 404.647 113.808 411.486 111.264 418.412C104.211 437.631 64.5641 434.502 43.0677 431.687" stroke="#1D9EC6" stroke-width="0.5" stroke-miterlimit="10"/>
<path d="M78.2846 362.29C101.997 362.349 133.828 364.105 130.766 385.642C122.608 387.696 114.225 389.338 105.685 389.98C85.2398 391.51 67.3676 395.989 46.9912 398.377" stroke="#1D9EC6" stroke-width="0.5" stroke-miterlimit="10"/>
<path d="M91.9787 245.702C97.7943 252.868 114.126 275.404 130.164 271.834C144.446 268.656 138.738 245.071 139.227 237.34C141.051 208.707 156.248 189.227 197.461 183.557C213.831 181.312 237.206 179.213 248.539 169.282C263.002 156.603 236.267 155.58 223.486 155.701C185.414 156.048 157.138 154.23 141.232 127.248C133.255 113.716 115.872 101.977 94.4047 109.763C85.6007 112.956 79.8194 118.601 69.9491 120.607C55.8529 123.469 39.3014 120.097 25.4399 118.004" stroke="#1D9EC6" stroke-width="0.5" stroke-miterlimit="10"/>
<path d="M60.676 140.219C77.2226 130.899 105.591 125.579 124.725 134.556C133.984 138.9 135.579 146.683 143.121 151.888C152.208 158.151 164.153 156.746 175.324 159.355C208.28 167.009 161.722 176.288 152.213 180.906C133.402 190.049 135.231 209.359 125.963 222.697C107.171 249.762 71.1038 225.956 48.9373 213.78" stroke="#1D9EC6" stroke-width="0.5" stroke-miterlimit="10"/>
<path d="M70.4585 161.038C83.4836 154.65 105.005 148.938 121.253 151.055C131.862 152.443 152.092 159.778 150.111 168.751C148.272 177.02 124.706 185.23 116.063 190.67C92.586 205.449 52.3907 198.21 23.5183 198.509" stroke="#1D9EC6" stroke-width="0.5" stroke-miterlimit="10"/>
<path d="M72.4129 574.646C86.7047 557.328 101.901 547.928 130.402 545.169C155.684 542.723 175.826 541.307 188.445 523.656C198.687 509.34 201.783 493.003 223.925 485.2C245.094 477.736 264.414 477.032 278.931 461.952C290.669 449.748 296.231 426.49 318.265 421.205C339.693 416.066 362.941 429.765 384.339 430.376C434.292 431.805 431.206 370.694 444.779 347.637C448.917 340.617 464.544 313.722 480.587 317.678C496.424 321.582 492.13 353.282 492.056 361.808C491.91 379.233 490.868 396.801 484.588 413.727C478.151 431.077 467.444 447.579 463.747 465.428C456.146 502.126 491.763 546.852 537.925 563.945C562.968 573.22 588.201 568.411 614.868 569.844C643.804 571.402 662.532 585.756 667.902 605.656C696.598 711.997 408.888 606.624 419.203 714.711C423.899 763.868 482.939 801.398 546.685 813.505C582.924 820.385 622.918 819.802 652.96 802.193C671.746 791.176 683.735 773.705 710.411 772.168C756.006 769.541 830.101 796.009 854.855 752.272C870.267 725.033 806.58 674.377 860.074 658.499C883.982 651.406 911.172 658.034 935.887 654.075C959.692 650.258 973.71 636.25 994.815 629.071C1018.78 620.913 1026.73 635.945 1032.54 650.112C1040.75 670.123 1047.22 691.861 1072.65 704.731C1108.36 722.795 1185.64 724.454 1221.08 705.269C1267.92 679.939 1219.26 644.515 1205.47 616.992C1196.84 599.789 1187.55 580.593 1184.19 562.46C1180.84 544.416 1195.79 541.235 1217.9 538.393C1243.68 535.076 1265.49 529.93 1288.89 521.668C1309.71 514.322 1327.91 513.739 1350.82 514.451C1373.99 515.169 1394.56 513.479 1416.48 507.997" stroke="#1D9EC6" stroke-width="0.5" stroke-miterlimit="10"/>
<path d="M1363.67 537.171C1345.27 522.501 1328.99 520.311 1305.24 530.676C1283.12 540.326 1268.06 543.993 1242.47 546.408C1175.31 552.737 1209.65 593.598 1226.42 621.219C1242.41 647.59 1274.84 688.583 1241.09 714.402C1225.27 726.519 1200.62 727.355 1178.88 728.021C1155.29 728.746 1130.95 729.541 1107.53 726.855C1052.71 720.557 1033.65 680.224 1013.44 648.207C999.413 626 957.36 667.069 923.352 668.603C887.157 670.237 850.748 669.661 860.745 702.753C868.141 727.247 893.555 762.279 853.105 778.903C818.726 793.032 776.192 786.464 738.991 784.774C696.844 782.862 682.053 799.098 653.088 817.169C621.046 837.162 580.039 837.339 541.291 827.686C461.37 807.779 384.996 751.79 410.239 687.878C421.645 658.995 449.02 648.245 489.675 648.481C530.33 648.717 568.466 648.741 608.715 643.523C618.297 642.277 629.542 643.7 637.426 639.637C664.083 625.906 656.991 598.387 620.665 588.918C591.567 581.325 557.76 590.59 529.973 580.507C505.4 571.589 494.234 549.056 478.352 534.055C457.717 514.562 453.535 499.607 451.534 475.665C449.549 451.872 423.601 451.722 395.971 446.705C369.099 441.847 336.789 429.54 314.025 446.733C292.93 462.694 288.885 484.752 261.862 497.535C250.504 502.906 238.193 506.824 228.651 513.972C218.311 521.72 212.921 531.502 206.064 540.804C187.067 566.585 158.581 564.712 122.988 571.051C86.0748 577.623 63.6538 598.893 41.091 619.06" stroke="#1D9EC6" stroke-width="0.5" stroke-miterlimit="10"/>
<path d="M45.0237 635.716C77.5057 612.35 107.772 600.323 153.034 593.619C172.203 590.777 191.224 587.537 205.775 577.62C220.326 567.703 228.084 553.941 238.12 541.856C258.174 517.723 288.435 495.359 316.31 475.619C349.354 452.212 397.424 446.646 422.144 479.908C432.244 493.493 435.839 509.003 444.907 522.935C454.983 538.417 469.93 551.977 484.08 565.652C495.178 576.371 506.056 590.635 522.197 598.005C538.704 605.531 560.519 603.658 579.188 603.748C590.271 603.803 628.099 601.565 633.553 611.649C639.197 622.135 607.195 629.616 598.033 631.774C551.568 642.732 507.088 629.567 460.397 634.581C406.243 640.397 388.498 668.169 390.239 703.805C391.98 739.361 399.532 771.152 437.297 796.863C469.656 818.907 514.17 836.635 555.574 848.703C602.861 862.485 636.947 857.926 670.696 831.236C703.559 805.25 737.802 798.619 786.156 799.82C827.588 800.861 888.825 802.214 902.075 766.314C911.999 739.409 880.623 705.321 929.187 691.993C947.915 686.851 972.258 684.36 991.793 688.551C1011.48 692.753 1022.43 704.665 1034.16 715.748C1065.48 745.353 1103.42 761.203 1156.43 760.162C1200.79 759.288 1249.78 752.362 1277.14 725.134C1310.57 691.858 1287.33 658.433 1268.88 625.046C1261.51 611.718 1254.09 595.43 1265.89 582.214C1277.4 569.327 1301.51 565.052 1321.35 562.89C1343.08 560.52 1365.24 560.687 1387.16 560.773" stroke="#1D9EC6" stroke-width="0.5" stroke-miterlimit="10"/>
<path d="M1377.37 581.586C1349.6 571.148 1312.58 576.405 1299.71 597.7C1285.29 621.562 1304.51 636.479 1313.6 658.936C1323.16 682.531 1327.42 699.807 1308.81 721.158C1294.56 737.511 1290.61 760.141 1296.21 778.799C1300.47 792.998 1307.27 805.614 1320.23 816.943C1348.84 841.951 1370.65 867.766 1391.06 896.65" stroke="#1D9EC6" stroke-width="0.5" stroke-miterlimit="10"/>
<path d="M1349.98 902.201C1337.65 877.534 1319.38 857.329 1302.02 834.57C1288.68 817.089 1288.25 791.45 1268.61 776.932C1247.77 761.529 1213.74 770.135 1188.88 774.562C1154.16 780.742 1116.98 784.174 1082.59 774.947C1043.55 764.472 1030.41 738.309 999.875 721.022C973.253 705.946 937.117 712.694 925.119 735.596C914.183 756.46 929.032 781.745 906.533 799.844C883.422 818.411 842.948 817.439 811.215 817.092C776.14 816.711 739.125 818.73 706.408 828.505C653.501 844.31 639.277 889.175 624.149 924.412" stroke="#1D9EC6" stroke-width="0.5" stroke-miterlimit="10"/>
<path d="M671.088 885.546C672.555 884.786 671.675 883.811 674.619 883.888C688.368 863.693 704.191 854.89 734.242 848.804C759.113 843.766 782.488 835.906 808.91 837.416C843.681 839.404 877.806 848.627 910.572 835.07C938.637 823.457 947.358 805.056 945.949 783.268C944.971 768.07 945.431 738.07 977.022 738.757C1005.09 739.368 1014.5 769.844 1032.43 781.089C1057.26 796.69 1100.21 802.589 1132.54 803.154C1157.41 803.595 1179.2 794.067 1203.95 793.244C1247.2 791.804 1253.74 812.426 1262.07 837.659C1273.65 872.829 1300.27 898.01 1338.08 921.425C1336.9 921.791 1335.57 921.864 1334.32 921.633" stroke="#1D9EC6" stroke-width="0.5" stroke-miterlimit="10"/>
<path d="M1250.2 893.874C1249.83 877.912 1245.23 862.527 1243.78 846.684C1242.53 832.978 1242.4 823.838 1223.29 816.659C1187.71 803.289 1151.79 816.558 1117.9 825.681C1100.99 830.233 1089.58 830.733 1071.99 827.61C1057.29 824.997 1039.15 824.411 1027.93 816.589C1015.56 807.963 1009.52 797.696 988.762 802.887C971.702 807.148 966.82 817.915 963.983 829.359C959.689 846.642 959.415 863.124 941.533 876.667C917.185 895.102 884.566 906.549 860.864 925.8" stroke="#1D9EC6" stroke-width="0.5" stroke-miterlimit="10"/>
<path d="M1199.33 913.305C1208.44 896.833 1238.23 872.583 1229.89 854.57C1220.43 834.154 1199.44 824.296 1170.67 828.363C1146.46 831.787 1125.12 842.329 1100.66 843.977C1088.18 844.81 1074.51 844.629 1062.22 842.839C1049.84 841.035 1038.38 835.205 1025.84 834.341C973.872 830.805 997.129 890.074 1001.73 907.767" stroke="#1D9EC6" stroke-width="0.5" stroke-miterlimit="10"/>
<path d="M1189.55 900.813C1189.78 893.728 1190.38 886.649 1192.87 879.762C1195.05 873.703 1201.32 866.923 1200.95 860.559C1200.07 845.49 1174.62 842.478 1158.27 845.184C1140.1 848.193 1122.42 852.742 1103.76 854.296C1084.85 855.868 1067.07 852.082 1048.37 852.339C1014.43 852.804 1023.43 873.568 1023.25 892.486" stroke="#1D9EC6" stroke-width="0.5" stroke-miterlimit="10"/>
<path d="M825.648 895.261C843.437 890.948 868.456 885.067 878.575 872.867C890.803 858.148 867.815 851.597 850.652 849.987C817.138 846.864 776.576 842.117 750.061 860.299C722.04 879.508 703.869 907.753 684.784 931.348" stroke="#1D9EC6" stroke-width="0.5" stroke-miterlimit="10"/>
<path d="M761.085 870.279C770.52 864.907 771.146 860.91 783.618 859.05C793.146 857.635 804.787 856.677 814.51 857.735C822.023 858.554 834.657 861.92 837.313 867.777C841.715 877.468 817.665 887.441 811.952 895.262" stroke="#1D9EC6" stroke-width="0.5" stroke-miterlimit="10"/>
<path d="M516.529 900.814C527.91 894.842 553.54 884.377 553.124 872.423C552.723 860.754 528.301 855.907 516.074 852.76C467.784 840.334 436.045 828.005 408.469 796.013C382.546 765.923 356.921 731.04 365.662 694.735C371.473 670.609 388.523 632.149 424.796 622.995C441.675 618.731 502.706 627.187 500.373 607.346C498.999 595.653 477.727 583.543 467.524 575.573C452.851 564.122 439.254 552.363 431.624 537.682C419.528 514.409 419.763 479.735 371.874 483.142C324.958 486.477 293.699 515.672 276.335 543.934C258.439 573.081 237.661 599.775 192.731 610.851C172.624 615.809 150.996 616.33 130.893 621.215C105.132 627.461 85.6501 640.879 68.4676 655.4C57.4626 664.703 47.3331 674.519 37.1889 684.294" stroke="#1D9EC6" stroke-width="0.5" stroke-miterlimit="10"/>
<path d="M62.6322 702.337C82.583 676.48 105.703 651.785 147.249 642.388C182.386 634.439 212.354 632.159 243.139 615.91C258.546 607.78 273.855 598.366 283.324 586.322C292.544 574.594 294.281 561.249 299.627 548.584C309.604 524.961 346.733 498.666 380.971 519.826C394.637 528.275 401.543 541.568 411.296 552.127C422.878 564.649 438.52 574.715 450.65 586.853C476.856 613.082 402.462 612.776 381.455 620.393C344.806 633.679 349.218 671.677 344.439 696.66C337.714 731.807 346.278 762.588 374.304 792.28C396.647 815.965 427.221 835.448 465.67 844.751C478.842 847.94 494.846 848.623 506.13 854.813C524.339 864.831 533.065 885.643 541.791 899.922C549.842 913.107 557.614 926.386 565.425 939.648" stroke="#1D9EC6" stroke-width="0.5" stroke-miterlimit="10"/>
<path d="M496.964 898.038C485.714 884.158 473.912 868.863 453.922 860.369C437.189 853.249 417.278 852.645 399.259 847.982C357.802 837.253 335.919 806.326 325.271 777.727C315.748 752.147 318.624 725.492 321.275 699.402C323.779 674.766 326.484 649.13 348.826 628.943C359.553 619.255 373.336 612.145 389.022 607.01C398.638 603.862 413.541 601.975 418.29 594.365C431.11 573.831 383.255 537.335 358.579 532.158C318.565 523.757 317.21 567.623 308.269 584.65C294.383 611.087 261.388 629.758 225.986 641.118C193.543 651.528 156.444 653.398 125.014 665.466C85.4494 680.654 79.8197 718.472 66.3594 745.912C60.7542 757.362 54.8358 768.706 48.9127 780.062" stroke="#1D9EC6" stroke-width="0.5" stroke-miterlimit="10"/>
<path d="M76.3283 752.303C85.7486 728.85 94.5037 700.602 122.725 684.575C149.113 669.581 186.31 668.613 217.295 661.08C246.192 654.068 279.579 643.568 299.735 626.683C323.007 607.197 316.854 579.24 337.226 559.448C356.79 540.443 393.513 557.505 396.765 576.884C400.737 600.548 359.231 607.072 339.226 618.942C310.104 636.222 307.923 668.464 303.545 693.228C298.625 720.987 295.602 748.479 301.75 776.283C307.131 800.656 316.663 838.345 353.655 848.599C368.064 852.589 384.259 851.135 398.604 855.289C418.912 861.17 429.683 875.761 438.076 889.276C444.067 898.926 448.968 908.922 453.923 918.857" stroke="#1D9EC6" stroke-width="0.5" stroke-miterlimit="10"/>
<path d="M375.665 906.365C367.81 886.934 359.524 867.867 332.3 858.384C313.01 851.659 296.884 848.803 289.65 832.859C277.823 806.797 275.074 771.387 278.664 744.204C281.11 725.547 306.779 680.498 281.164 666.417C265.776 657.961 240.166 668.384 225.307 672.746C206.604 678.235 187.513 682.003 168.375 686.542C108.4 700.768 84.0321 747.612 56.7641 784.226" stroke="#1D9EC6" stroke-width="0.5" stroke-miterlimit="10"/>
<path d="M58.7196 807.821C58.4359 808.989 59.0391 809.416 60.5292 809.101C79.8638 781.919 101.908 754.819 123.317 728.448C133.07 716.435 144.686 711.144 162.861 706.876C180.386 702.757 197.994 695.512 215.979 692.85C267.399 685.248 254.335 736.113 247.155 755.308C241.012 771.724 238.879 787.231 248.725 803.126C256.83 816.215 265.844 827.131 270.138 841.316C275.47 858.936 283.075 865.744 303.613 875.758C332.207 889.7 327.325 913.347 324.454 935.332C323.324 935.667 322.069 935.73 320.884 935.509" stroke="#1D9EC6" stroke-width="0.5" stroke-miterlimit="10"/>
<path d="M260.234 898.037C253.201 889.449 244.226 880.202 242.201 870.157C240.489 861.656 246.402 853.297 244.094 844.928C241.878 836.909 232.56 831.239 227.058 824.379C222.04 818.133 218.787 811.006 216.273 804.056C211.299 790.291 210.301 771.151 213.231 757.022C216.043 743.469 235.847 727.768 209.225 719.651C200.108 716.876 185.258 716.078 175.687 717.774C163.058 720.016 158.372 727.514 150.292 733.989C142.388 735.693 134.64 748.955 129.089 753.691C121.111 760.527 114.195 766.012 108.257 773.899C100.774 783.841 91.8869 790.378 79.5124 797.342C62.5646 806.877 52.8117 808.633 31.3299 809.209" stroke="#1D9EC6" stroke-width="0.5" stroke-miterlimit="10"/>
<path d="M54.8076 843.908C83.8902 832.363 108.028 810.639 123.283 789.674C133.594 775.51 140.984 742.83 175.814 751.505C202.001 758.001 179.854 793.144 189.142 808.168C200.367 826.329 235.75 836.014 228.349 857.863C223.6 871.875 214.884 881.806 220.524 896.705C225.62 910.238 236.459 922.83 244.598 935.526" stroke="#1D9EC6" stroke-width="0.5" stroke-miterlimit="10"/>
<path d="M193.714 895.262C190.457 877.77 213.47 863.537 205.727 847.298C198.361 831.853 175.402 823.082 173.734 805.493C173.04 798.23 179.452 759.895 153.847 777.481C134.547 790.735 145.806 812.04 120.181 824.182C90.5902 838.203 55.0366 847.863 19.5906 846.684" stroke="#1D9EC6" stroke-width="0.5" stroke-miterlimit="10"/>
<path d="M66.5457 868.891C84.3445 870.511 98.8516 853.068 111.334 846.076C127.866 836.808 137.403 828.38 144.192 814.296C156.136 789.521 166.853 810.739 169.597 825.472C172.204 839.491 197.109 847.09 188.921 862.364C183.023 873.36 170.937 879.474 168.545 892.129C165.997 905.633 170.11 919.586 174.15 932.726" stroke="#1D9EC6" stroke-width="0.5" stroke-miterlimit="10"/>
<path d="M148.717 893.874C148.717 887.628 147.69 881.729 151.163 876.084C154.337 870.928 161.801 867.93 165.288 863.377C171.794 854.89 167.695 844.331 164.017 835.823C149.715 833.047 132.924 851.767 122.506 857.187C113.628 861.802 102.168 866.514 92.9438 870.397C80.1095 875.799 48.6204 871.222 41.0979 878.606" stroke="#1D9EC6" stroke-width="0.5" stroke-miterlimit="10"/>
<path d="M90.0231 893.874C101.547 891.261 105.787 880.456 113.036 875.518C119.321 871.233 131.466 860.598 138.553 858.901C141.977 852.402 155.476 848.568 158.435 856.344C160.001 860.459 152.674 868.141 148.834 871.191C143.077 875.775 136.244 878.624 131.329 884.03C118.646 898.01 111.872 914.981 101.762 929.946" stroke="#1D9EC6" stroke-width="0.5" stroke-miterlimit="10"/>
</g>
<rect x="51.6348" y="591.597" width="1300.25" height="350.417" fill="url(#paint0_linear_1345_1060)"/>
<defs>
<linearGradient id="paint0_linear_1345_1060" x1="918.916" y1="884.592" x2="918.916" y2="626.835" gradientUnits="userSpaceOnUse">
<stop stop-color="white"/>
<stop offset="1" stop-color="white" stop-opacity="0"/>
</linearGradient>
</defs>
</svg>
