<svg width="38" height="31" viewBox="0 0 38 31" fill="none" xmlns="http://www.w3.org/2000/svg">
<path d="M0.166992 30.7099C0.166992 27.3548 0.238362 23.393 0.381132 18.8243C0.595288 12.3282 1.6304 7.61681 3.48642 4.69001C5.34244 1.76322 8.62616 0.299805 13.3376 0.299805L14.6225 5.76079C12.0527 5.83218 10.3037 6.68879 9.37574 8.33065C8.51912 9.90113 8.0908 12.2568 8.0908 15.3978H15.5862V30.7099H0.166992ZM22.118 30.7099C22.118 27.3548 22.1893 23.393 22.3321 18.8243C22.5463 12.3282 23.5814 7.61681 25.4374 4.69001C27.2934 1.76322 30.5771 0.299805 35.2886 0.299805L36.5735 5.76079C34.0036 5.83218 32.2547 6.68879 31.3267 8.33065C30.4701 9.90113 30.0418 12.2568 30.0418 15.3978H37.5372V30.7099H22.118Z" fill="#F6D590"/>
</svg>
