<svg width="1440" height="924" viewBox="0 0 1440 924" fill="none" xmlns="http://www.w3.org/2000/svg">
<g opacity="0.3">
<path d="M3.27323 -20.2879C55.1996 -20.5968 112.031 -19.9687 107.681 25.5143C103.831 65.7648 224.791 72.7982 270.817 60.213C316.496 47.7215 339.433 173.407 274.733 208.997C232.692 232.121 98.7843 254.314 162.576 302.337C179.031 314.721 202.507 322.115 219.065 334.26C236.939 347.397 246.967 363.878 266.331 376.488C290.106 391.974 325.566 402.533 352.141 383.504C384.225 360.537 387.128 323 399.902 294.675C405.922 281.313 419.098 252.086 449.969 258.821C469.61 263.11 475.271 277.965 477.408 289.488C484.053 325.301 507.741 364.6 489.491 399.986C478.392 421.499 458.604 441.416 460.23 464.872C461.861 488.121 484.646 507.479 518.905 515.248C549.868 522.271 584.747 518.215 614.318 528.208C651.557 540.79 675.864 570.235 683.2 595.811C706.262 676.205 519.443 647.613 451.241 667.246C370.217 690.577 467.375 753.343 513.674 766.716C570.858 783.233 604.329 748.572 653.324 737.642C701.868 726.816 775.486 756.14 812.491 725.498C850.121 694.338 790.332 648.581 826.836 618.973C843.694 605.281 874.439 609.212 897.529 612.2C925.137 615.774 950.276 619.139 975.682 609.139C994.524 601.724 1015.73 581.911 1040.2 583.018C1069.3 584.333 1077.46 614.594 1083.49 628.289C1091.88 647.353 1100.06 668.779 1133.94 674.439C1161.8 679.088 1207.26 676.007 1229.65 663.453C1259.76 646.551 1230.33 614.118 1218.83 595.791C1204.29 572.584 1175.27 533.222 1205.18 510.203C1228.29 492.413 1270.85 497.343 1302.58 496.518C1331.33 495.768 1346.94 486.028 1370.97 477.544C1414.32 462.246 1466.83 459.581 1515.04 455.792" stroke="#F4BC47" stroke-width="0.5" stroke-miterlimit="10"/>
<path d="M-14.1277 4.69458C0.946179 -4.50404 19.3915 -15.3092 42.0294 -13.0295C64.7816 -10.7567 77.3757 2.93189 84.445 15.5761C91.2043 27.6582 93.374 41.2913 107.73 51.0104C121.869 60.5699 143.941 65.2056 163.343 68.3875C185.889 72.0898 208.396 72.4646 231.518 72.6381C251.192 72.7873 274.766 72.5652 288.072 83.4675C312.418 103.381 299.617 151.519 286.098 173.216C269.083 200.513 226.787 212.328 189.538 225.958C151.701 239.837 120.373 265.035 138.775 293.967C155.393 320.099 198.456 333.416 224.433 355.016C239.234 367.32 250.621 383.219 243.384 398.906C235.259 416.526 208.124 425.815 184.834 434.236C161.054 442.838 142.587 451.555 130.411 467.575C119.122 482.422 112.325 500.081 88.9802 509.401C37.8641 529.817 -27.4505 495.296 -64.8469 535.862C-73.7759 545.546 -79.7739 556.334 -85.935 566.813" stroke="#F4BC47" stroke-width="0.5" stroke-miterlimit="10"/>
<path d="M5.44879 502.968C48.1852 508.925 92.455 513.63 109.584 482.225C116.936 468.717 120.879 454.664 134.512 442.901C147.862 431.377 167.139 425.34 185.421 417.692C219.392 403.5 236.679 375.707 206.042 354.322C192.317 344.735 173.001 339.086 158.134 330.262C140.907 320.043 127.948 306.903 120.172 292.76C105.604 266.239 119.193 243.186 150.967 224.75C180.239 207.776 219.696 203.057 251.024 188.452C282.923 173.58 289.764 138.253 287.458 114.814C284.26 82.5134 229 89.1374 192.104 87.7321C143.234 85.8653 112.118 76.2052 90.9596 47.0375C82.1774 34.9276 74.6459 19.334 53.2696 14.1223C33.2201 9.23674 8.40165 14.3097 -11.7349 16.5824C-22.6541 17.8108 -33.5989 18.9327 -44.5689 19.9482" stroke="#F4BC47" stroke-width="0.5" stroke-miterlimit="10"/>
<path d="M-9.77749 47.721C7.76513 42.9742 30.8925 35.3995 50.3384 39.9103C67.9843 44.0048 75.5973 56.7982 84.1239 66.3993C108.594 93.9327 140.216 94.5365 185.774 96.2679C226.733 97.8259 266.739 110.54 265.021 140.523C263.389 169.302 225.112 181.016 188.629 190.229C112.852 209.358 82.2643 267.516 114.538 314.252C130.183 336.907 164.518 343.538 185.829 362.372C212.164 385.645 179.216 401.148 148.068 410.159C104.565 422.737 111.003 445.08 99.0184 470.91C85.6303 499.779 45.4769 495.199 7.05274 493.221C-2.89859 492.707 -12.8608 492.267 -22.8284 491.864" stroke="#F4BC47" stroke-width="0.5" stroke-miterlimit="10"/>
<path d="M-9.77785 469.657C21.2181 478.141 70.4474 483.908 90.2087 460.732C108.469 439.323 83.1394 413.587 123.2 399.628C153.038 389.218 180.994 377.577 150.357 356.06C123.222 337.007 100.764 325.81 94.6515 298.461C89.6432 276.011 83.5908 247.131 91.715 224.951C100.019 202.279 134.837 195.458 163.125 184.815C189.379 174.951 233.938 166.425 237.624 143.871C242.274 115.557 202.175 108.739 167.503 109.866C120.394 111.414 103.02 100.012 78.5879 76.2746C54.8134 53.1757 17.3681 65.341 -18.8591 64.7512C-28.2177 64.5985 -37.522 63.8455 -46.7718 62.9815" stroke="#F4BC47" stroke-width="0.5" stroke-miterlimit="10"/>
<path d="M-11.9526 93.5234C15.6936 83.0374 57.0596 65.1468 74.3304 92.0521C80.7417 102.035 83.0854 109.054 99.7852 113.59C115.011 117.753 133.848 120.37 150.298 121.348C171.783 122.625 237.69 119.797 216.695 147.209C205.019 162.477 152.979 170.214 130.232 176.391C88.8714 187.609 87.0606 207.62 80.4101 233.612C74.9015 255.153 71.5735 279.189 77.6911 300.803C83.5912 321.601 98.1539 340.429 123.255 354.131C131.657 358.715 150.341 366.234 143.506 374.603C137.149 382.376 111.363 382.903 100.547 387.307C72.6665 398.639 83.4987 426.44 72.7262 443.938C57.2119 469.15 19.9787 460.84 -10.7346 452.821C-17.6461 451.017 -24.5522 449.199 -31.5019 447.453" stroke="#F4BC47" stroke-width="0.5" stroke-miterlimit="10"/>
<path d="M-1.07759 428.019C11.9733 435.305 39.1628 438.796 53.8124 432.529C68.6253 426.19 69.0713 412.619 70.3546 401.752C72.0838 387.178 75.9501 381.245 95.4232 373.524C106.098 369.291 107.93 369.916 107.707 361.13C107.533 353.465 102.726 351.675 98.5663 344.978C97.3808 344.842 96.2117 344.672 95.0535 344.475C90.3877 335.8 75.6728 329.318 70.6971 320.415C64.8133 309.887 70.9744 298.652 62.3826 288.731C54.0463 279.113 36.2481 274.054 25.5572 265.539C15.6494 257.648 -3.70954 249.355 -9.7891 240.649" stroke="#F4BC47" stroke-width="0.5" stroke-miterlimit="10"/>
<path d="M-7.60256 282.284C18.7277 277.353 36.9228 287.614 42.3118 304.037C46.2542 316.032 37.211 331.508 53.8455 340.568C68.1363 348.344 91.7421 351.494 72.3724 367.036C65.2107 372.778 52.758 373.417 45.3081 378.559C36.9663 384.323 40.5934 391.162 37.7657 398.088C29.9242 417.307 -14.1552 414.177 -38.0547 411.363" stroke="#F4BC47" stroke-width="0.5" stroke-miterlimit="10"/>
<path d="M1.09896 341.966C27.4618 342.025 62.8517 343.781 59.4475 365.318C50.3771 367.372 41.0566 369.013 31.562 369.655C8.83165 371.186 -11.0384 375.665 -33.6926 378.052" stroke="#F4BC47" stroke-width="0.5" stroke-miterlimit="10"/>
<path d="M16.3239 225.378C22.7896 232.543 40.9467 255.08 58.7775 251.51C74.6562 248.331 68.3102 224.747 68.854 217.016C70.8823 188.382 87.7778 168.903 133.597 163.233C151.798 160.988 177.786 158.889 190.385 148.958C206.465 136.279 176.742 135.255 162.532 135.377C120.204 135.724 88.7674 133.906 71.0834 106.924C62.2142 93.3914 42.888 81.6528 19.0211 89.4392C9.23288 92.6315 2.8053 98.277 -8.16835 100.283C-23.8403 103.145 -42.2422 99.7725 -57.6531 97.6802" stroke="#F4BC47" stroke-width="0.5" stroke-miterlimit="10"/>
<path d="M-18.4778 119.894C-0.0814154 110.574 31.4583 105.255 52.7313 114.232C63.0253 118.576 64.7981 126.359 73.1833 131.564C83.2869 137.827 96.5663 136.421 108.986 139.031C145.627 146.685 93.8637 155.964 83.2924 160.582C62.3783 169.725 64.4119 189.035 54.1071 202.373C33.2148 229.438 -6.88422 205.631 -31.5287 193.456" stroke="#F4BC47" stroke-width="0.5" stroke-miterlimit="10"/>
<path d="M-7.60239 140.714C6.87874 134.326 30.8056 128.614 48.8703 130.731C60.6651 132.119 83.1562 139.454 80.9539 148.427C78.9092 156.696 52.7094 164.905 43.1006 170.346C16.9987 185.124 -27.69 177.886 -59.7899 178.185" stroke="#F4BC47" stroke-width="0.5" stroke-miterlimit="10"/>
<path d="M-5.4279 554.322C10.4616 537.004 27.3572 527.604 59.0437 524.845C87.1522 522.399 109.545 520.983 123.575 503.332C134.962 489.015 138.404 472.679 163.022 464.875C186.557 457.412 208.036 456.707 224.176 441.627C237.227 429.424 243.41 406.165 267.908 400.881C291.731 395.742 317.577 409.441 341.368 410.052C396.905 411.481 393.474 350.37 408.564 327.313C413.165 320.293 430.539 293.398 448.375 297.354C465.983 301.257 461.208 332.958 461.127 341.483C460.964 358.909 459.805 376.477 452.823 393.403C445.667 410.752 433.763 427.255 429.652 445.104C421.202 481.801 460.8 526.528 512.123 543.621C539.965 552.896 568.019 548.086 597.667 549.519C629.837 551.077 650.659 565.432 656.63 585.332C688.534 691.673 368.661 586.3 380.129 694.386C385.35 743.544 450.99 781.074 521.862 793.18C562.152 800.061 606.617 799.478 640.017 781.869C660.904 770.852 674.232 753.381 703.89 751.844C754.582 749.217 836.961 775.685 864.482 731.948C881.617 704.709 810.81 654.053 870.284 638.174C896.865 631.082 927.094 637.709 954.572 633.75C981.038 629.934 996.623 615.926 1020.09 608.747C1046.73 600.589 1055.57 615.62 1062.04 629.788C1071.16 649.798 1078.35 671.537 1106.63 684.407C1146.32 702.471 1232.24 704.13 1271.65 684.945C1323.72 659.615 1269.62 624.191 1254.29 596.668C1244.7 579.464 1234.37 560.269 1230.63 542.135C1226.91 524.092 1243.53 520.91 1268.11 518.068C1296.77 514.751 1321.02 509.605 1347.04 501.344C1370.18 493.998 1390.42 493.415 1415.89 494.126C1441.65 494.845 1464.52 493.155 1488.89 487.672" stroke="#F4BC47" stroke-width="0.5" stroke-miterlimit="10"/>
<path d="M1430.17 516.847C1409.72 502.177 1391.62 499.987 1365.21 510.352C1340.62 520.001 1323.88 523.669 1295.42 526.084C1220.76 532.413 1258.94 573.274 1277.58 600.894C1295.36 627.265 1331.41 668.258 1293.89 694.078C1276.3 706.194 1248.9 707.031 1224.73 707.697C1198.5 708.422 1171.44 709.217 1145.4 706.531C1084.46 700.233 1063.26 659.899 1040.79 627.883C1025.2 605.676 978.444 646.745 940.634 648.279C900.394 649.913 859.914 649.337 871.029 682.429C879.251 706.923 907.507 741.955 862.535 758.579C824.312 772.708 777.025 766.14 735.664 764.45C688.806 762.538 672.362 778.774 640.158 796.845C604.535 816.838 558.944 817.015 515.865 807.362C427.009 787.455 342.097 731.465 370.162 667.554C382.843 638.671 413.279 627.921 458.479 628.157C503.678 628.393 546.077 628.417 590.826 623.199C601.479 621.953 613.98 623.376 622.746 619.312C652.383 605.582 644.498 578.063 604.111 568.593C571.761 561.001 534.174 570.266 503.281 560.182C475.961 551.265 463.547 528.731 445.89 513.731C422.947 494.238 418.298 479.282 416.074 455.34C413.866 431.547 385.018 431.398 354.299 426.381C324.424 421.523 288.501 409.215 263.193 426.409C239.739 442.37 235.242 464.428 205.198 477.211C192.571 482.582 178.884 486.5 168.275 493.648C156.779 501.396 150.786 511.177 143.163 520.48C122.042 546.261 90.3716 544.388 50.8001 550.727C9.76034 557.299 -15.167 578.569 -40.252 598.736" stroke="#F4BC47" stroke-width="0.5" stroke-miterlimit="10"/>
<path d="M-35.8788 615.391C0.23419 592.025 33.8839 579.999 84.2061 573.295C105.517 570.453 126.665 567.212 142.843 557.295C159.021 547.379 167.645 533.617 178.804 521.531C201.099 497.399 234.743 475.035 265.734 455.295C302.472 431.887 355.916 426.322 383.399 459.584C394.628 473.168 398.625 488.679 408.707 502.61C419.909 518.093 436.527 531.653 452.259 545.328C464.597 556.046 476.691 570.311 494.636 577.681C512.989 585.207 537.242 583.333 557.998 583.424C570.321 583.479 612.377 581.241 618.44 591.324C624.716 601.81 589.136 609.291 578.951 611.45C527.291 622.407 477.838 609.243 425.928 614.257C365.72 620.072 345.991 647.845 347.927 683.481C349.863 719.036 358.259 750.827 400.245 776.539C436.222 798.583 485.713 816.311 531.744 828.379C584.318 842.161 622.214 837.602 659.736 810.912C696.273 784.926 734.344 778.295 788.103 779.495C834.167 780.536 902.249 781.89 916.981 745.99C928.014 719.085 893.13 684.997 947.123 671.669C967.944 666.527 995.009 664.035 1016.73 668.227C1038.62 672.429 1050.79 684.341 1063.83 695.424C1098.65 725.029 1140.83 740.879 1199.77 739.838C1249.08 738.964 1303.55 732.038 1333.97 704.81C1371.14 671.534 1345.31 638.109 1324.78 604.722C1316.59 591.394 1308.35 575.106 1321.47 561.89C1334.26 549.002 1361.07 544.728 1383.13 542.566C1407.28 540.196 1431.92 540.362 1456.29 540.449" stroke="#F4BC47" stroke-width="0.5" stroke-miterlimit="10"/>
<path d="M1445.4 561.261C1414.54 550.824 1373.37 556.081 1359.07 577.375C1343.04 601.238 1364.4 616.155 1374.51 638.612C1385.14 662.207 1389.87 679.483 1369.18 700.833C1353.34 717.187 1348.94 739.817 1355.18 758.475C1359.91 772.673 1367.47 785.29 1381.88 796.619C1413.69 821.626 1437.93 847.442 1460.63 876.325" stroke="#F4BC47" stroke-width="0.5" stroke-miterlimit="10"/>
<path d="M1414.95 881.877C1401.24 857.21 1380.94 837.005 1361.63 814.246C1346.8 796.765 1346.32 771.126 1324.48 756.608C1301.31 741.205 1263.48 749.81 1235.85 754.238C1197.24 760.418 1155.91 763.85 1117.67 754.623C1074.27 744.148 1059.65 717.985 1025.71 700.698C996.112 685.621 955.937 692.37 942.598 715.271C930.439 736.136 946.948 761.421 921.934 779.519C896.24 798.087 851.241 797.115 815.96 796.768C776.965 796.387 735.812 798.406 699.437 808.181C640.616 823.986 624.802 868.851 607.983 904.088" stroke="#F4BC47" stroke-width="0.5" stroke-miterlimit="10"/>
<path d="M660.171 865.222C661.802 864.462 660.823 863.487 664.097 863.563C679.383 843.369 696.974 834.566 730.385 828.48C758.036 823.441 784.024 815.582 813.4 817.092C852.058 819.08 889.998 828.303 926.426 814.746C957.629 803.132 967.324 784.732 965.758 762.944C964.671 747.746 965.182 717.746 1000.31 718.433C1031.51 719.044 1041.97 749.519 1061.91 760.765C1089.51 776.366 1137.26 782.264 1173.21 782.83C1200.86 783.271 1225.09 773.743 1252.6 772.92C1300.68 771.48 1307.96 792.102 1317.22 817.334C1330.1 852.505 1359.68 877.686 1401.72 901.101C1400.41 901.467 1398.94 901.54 1397.55 901.309" stroke="#F4BC47" stroke-width="0.5" stroke-miterlimit="10"/>
<path d="M1304.02 873.55C1303.6 857.588 1298.5 842.203 1296.88 826.359C1295.49 812.653 1295.35 803.514 1274.1 796.335C1234.54 782.965 1194.61 796.234 1156.93 805.356C1138.13 809.909 1125.44 810.408 1105.89 807.286C1089.54 804.673 1069.37 804.086 1056.9 796.265C1043.15 787.639 1036.44 777.372 1013.36 782.563C994.389 786.824 988.962 797.591 985.808 809.034C981.033 826.318 980.729 842.8 960.848 856.342C933.778 874.778 897.513 886.225 871.161 905.476" stroke="#F4BC47" stroke-width="0.5" stroke-miterlimit="10"/>
<path d="M1247.46 892.981C1257.59 876.509 1290.72 852.258 1281.44 834.246C1270.92 813.83 1247.59 803.972 1215.6 808.038C1188.69 811.463 1164.96 822.005 1137.76 823.653C1123.89 824.486 1108.69 824.305 1095.03 822.515C1081.26 820.71 1068.52 814.881 1054.59 814.017C996.803 810.481 1022.66 869.75 1027.77 887.443" stroke="#F4BC47" stroke-width="0.5" stroke-miterlimit="10"/>
<path d="M1236.59 880.489C1236.84 873.404 1237.52 866.325 1240.28 859.437C1242.7 853.379 1249.67 846.599 1249.26 840.235C1248.29 825.166 1219.99 822.154 1201.81 824.86C1181.61 827.869 1161.95 832.418 1141.21 833.972C1120.19 835.544 1100.42 831.758 1079.63 832.015C1041.9 832.48 1051.9 853.244 1051.7 872.162" stroke="#F4BC47" stroke-width="0.5" stroke-miterlimit="10"/>
<path d="M832.007 874.937C851.785 870.624 879.6 864.743 890.851 852.543C904.446 837.823 878.887 831.272 859.806 829.662C822.546 826.54 777.449 821.793 747.97 839.975C716.817 859.184 696.615 887.429 675.396 911.024" stroke="#F4BC47" stroke-width="0.5" stroke-miterlimit="10"/>
<path d="M760.228 849.955C770.718 844.583 771.414 840.586 785.281 838.726C795.874 837.31 808.816 836.353 819.626 837.411C827.979 838.23 842.025 841.596 844.978 847.453C849.872 857.144 823.134 867.117 816.782 874.938" stroke="#F4BC47" stroke-width="0.5" stroke-miterlimit="10"/>
<path d="M488.333 880.49C500.987 874.518 529.481 864.053 529.019 852.099C528.573 840.43 501.422 835.582 487.827 832.435C434.139 820.01 398.852 807.681 368.193 775.689C339.373 745.598 310.883 710.716 320.601 674.411C327.061 650.285 346.018 611.825 386.345 602.671C405.111 598.407 472.965 606.863 470.371 587.022C468.843 575.328 445.194 563.219 433.85 555.248C417.537 543.798 402.419 532.038 393.936 517.357C380.488 494.085 380.749 459.411 327.507 462.818C275.347 466.152 240.593 495.348 221.289 523.61C201.392 552.757 178.291 579.451 128.339 590.526C105.984 595.485 81.9375 596.005 59.5878 600.891C30.9465 607.137 9.28728 620.555 -9.81602 635.076C-22.0513 644.379 -33.3131 654.195 -44.5913 663.97" stroke="#F4BC47" stroke-width="0.5" stroke-miterlimit="10"/>
<path d="M-16.3034 682.013C5.87779 656.155 31.5827 631.46 77.7721 622.064C116.838 614.115 150.156 611.835 184.382 595.585C201.511 587.456 218.532 578.042 229.06 565.998C239.31 554.27 241.24 540.925 247.184 528.26C258.277 504.637 299.556 478.342 337.622 499.501C352.815 507.95 360.493 521.244 371.337 531.802C384.213 544.325 401.604 554.391 415.09 566.529C444.226 592.758 361.516 592.452 338.16 600.069C297.414 613.355 302.319 651.353 297.006 676.336C289.529 711.482 299.051 742.264 330.21 771.955C355.05 795.641 389.042 815.124 431.79 824.427C446.434 827.615 464.227 828.299 476.772 834.489C497.017 844.507 506.718 865.319 516.419 879.598C525.37 892.783 534.011 906.062 542.695 919.324" stroke="#F4BC47" stroke-width="0.5" stroke-miterlimit="10"/>
<path d="M466.581 877.714C454.074 863.834 440.952 848.539 418.728 840.045C400.125 832.925 377.987 832.321 357.954 827.657C311.862 816.929 287.533 786.002 275.695 757.403C265.107 731.823 268.305 705.168 271.252 679.078C274.036 654.442 277.043 628.806 301.884 608.618C313.809 598.931 329.133 591.821 346.572 586.685C357.263 583.538 373.832 581.651 379.113 574.041C393.365 553.507 340.161 517.01 312.727 511.833C268.24 503.433 266.733 547.299 256.793 564.326C241.355 590.763 204.671 609.434 165.311 620.794C129.242 631.204 87.9953 633.074 53.0515 645.142C9.06438 660.33 2.80541 698.148 -12.1597 725.588C-18.3915 737.038 -24.9714 748.381 -31.5567 759.738" stroke="#F4BC47" stroke-width="0.5" stroke-miterlimit="10"/>
<path d="M-1.07648 731.979C9.3969 708.526 19.1308 680.278 50.5074 664.25C79.8448 649.257 121.2 648.289 155.649 640.756C187.776 633.743 224.895 623.244 247.305 606.359C273.178 586.872 266.337 558.916 288.986 539.124C310.738 520.119 351.565 537.18 355.181 556.56C359.597 580.224 313.451 586.747 291.21 598.618C258.833 615.898 256.408 648.14 251.541 672.904C246.07 700.663 242.71 728.155 249.545 755.959C255.527 780.331 266.125 818.021 307.252 828.275C323.272 832.265 341.277 830.811 357.226 834.964C379.804 840.846 391.778 855.437 401.11 868.952C407.771 878.602 413.22 888.598 418.729 898.532" stroke="#F4BC47" stroke-width="0.5" stroke-miterlimit="10"/>
<path d="M331.723 886.041C322.989 866.61 313.778 847.543 283.51 838.059C262.063 831.335 244.135 828.479 236.092 812.535C222.943 786.473 219.887 751.063 223.878 723.88C226.597 705.223 255.136 660.173 226.657 646.093C209.55 637.637 181.077 648.06 164.557 652.422C143.762 657.911 122.538 661.679 101.26 666.218C34.5803 680.444 7.48877 727.287 -22.8274 763.901" stroke="#F4BC47" stroke-width="0.5" stroke-miterlimit="10"/>
<path d="M-20.6538 787.497C-20.9692 788.665 -20.2985 789.092 -18.6418 788.777C2.85417 761.594 27.3628 734.495 51.1644 708.124C62.0076 696.111 74.9225 690.819 95.1297 686.551C114.614 682.433 134.19 675.188 154.185 672.526C211.354 664.924 196.829 715.789 188.846 734.984C182.016 751.4 179.645 766.907 190.592 782.802C199.602 795.891 209.624 806.807 214.399 820.992C220.326 838.612 228.782 845.419 251.616 855.433C283.406 869.375 277.979 893.023 274.787 915.008C273.53 915.343 272.135 915.405 270.817 915.185" stroke="#F4BC47" stroke-width="0.5" stroke-miterlimit="10"/>
<path d="M203.389 877.713C195.569 869.125 185.591 859.878 183.339 849.833C181.436 841.332 188.01 832.973 185.444 824.603C182.98 816.584 172.621 810.915 166.503 804.055C160.924 797.809 157.308 790.682 154.513 783.732C148.983 769.967 147.873 750.827 151.131 736.698C154.257 723.144 176.275 707.443 146.677 699.327C136.541 696.551 120.031 695.753 109.389 697.45C95.3488 699.692 90.1392 707.19 81.1558 713.665C72.3682 715.368 63.7547 728.63 57.5827 733.367C48.7135 740.202 41.0243 745.688 34.4227 753.575C26.1027 763.516 16.2221 770.054 2.4642 777.018C-16.3781 786.553 -27.2212 788.309 -51.1044 788.885" stroke="#F4BC47" stroke-width="0.5" stroke-miterlimit="10"/>
<path d="M-25.0032 823.583C7.33041 812.039 34.1664 790.314 51.1271 769.349C62.5902 755.185 70.8069 722.506 109.53 731.181C138.644 737.676 114.022 772.819 124.348 787.844C136.828 806.005 176.166 815.689 167.938 837.539C162.658 851.551 152.968 861.481 159.238 876.381C164.904 889.913 176.954 902.506 186.003 915.202" stroke="#F4BC47" stroke-width="0.5" stroke-miterlimit="10"/>
<path d="M129.432 874.938C125.81 857.446 151.395 843.213 142.787 826.974C134.598 811.529 109.072 802.757 107.218 785.169C106.446 777.906 113.575 739.571 85.1076 757.156C63.6497 770.411 76.1678 791.716 47.6787 803.857C14.7795 817.879 -24.7486 827.539 -64.157 826.359" stroke="#F4BC47" stroke-width="0.5" stroke-miterlimit="10"/>
<path d="M-11.953 848.567C7.83541 850.187 23.9642 832.744 37.8417 825.752C56.2217 816.484 66.8256 808.056 74.3734 793.972C87.6527 769.197 99.5671 790.415 102.618 805.148C105.516 819.166 133.206 826.765 124.103 842.04C117.545 853.036 104.108 859.15 101.449 871.804C98.6155 885.309 103.189 899.261 107.68 912.402" stroke="#F4BC47" stroke-width="0.5" stroke-miterlimit="10"/>
<path d="M79.4045 873.55C79.4045 867.304 78.2626 861.405 82.1235 855.76C85.6526 850.603 93.9509 847.605 97.8281 843.053C105.061 834.566 100.504 824.007 96.4142 815.499C80.5139 812.723 61.8457 831.443 50.263 836.863C40.3932 841.478 27.6521 846.19 17.3962 850.072C3.12723 855.475 -31.8819 850.898 -40.2454 858.282" stroke="#F4BC47" stroke-width="0.5" stroke-miterlimit="10"/>
<path d="M14.1492 873.549C26.9608 870.937 31.6755 860.131 39.7345 855.194C46.7222 850.909 60.2245 840.273 68.104 838.577C71.9105 832.078 86.9192 828.243 90.2091 836.019C91.9493 840.135 83.8032 847.817 79.5345 850.867C73.1341 855.451 65.5373 858.299 60.0722 863.705C45.9717 877.686 38.4403 894.657 27.2001 909.622" stroke="#F4BC47" stroke-width="0.5" stroke-miterlimit="10"/>
</g>
<rect x="-5.59766" y="572.663" width="1445.6" height="350.417" fill="url(#paint0_linear_1256_1058)"/>
<defs>
<linearGradient id="paint0_linear_1256_1058" x1="958.635" y1="865.658" x2="958.635" y2="607.9" gradientUnits="userSpaceOnUse">
<stop stop-color="white"/>
<stop offset="1" stop-color="white" stop-opacity="0"/>
</linearGradient>
</defs>
</svg>
