<svg width="14" height="14" viewBox="0 0 14 14" fill="none" xmlns="http://www.w3.org/2000/svg">
<path d="M1.45299 13.5701C1.32956 13.5698 1.20896 13.5331 1.10643 13.4644C1.00389 13.3957 0.924022 13.2982 0.876898 13.1842C0.829773 13.0702 0.817511 12.9448 0.841658 12.8238C0.865805 12.7029 0.92528 12.5918 1.01257 12.5046L3.47424 10.0453C4.20844 9.31156 5.3441 9.15803 6.23568 9.6708C7.09537 10.1646 8.10524 10.3297 9.07755 10.1352C10.0499 9.94082 10.9184 9.40017 11.5218 8.6138C12.1252 7.82744 12.4222 6.84887 12.3578 5.86004C12.2934 4.87122 11.8718 3.93941 11.1715 3.23788C9.59019 1.65811 7.00611 1.64613 5.4108 3.21167C4.87968 3.73154 4.50057 4.38639 4.31432 5.10565C4.12807 5.82491 4.14173 6.58133 4.35383 7.29341C4.39846 7.45139 4.379 7.62059 4.29968 7.76434C4.22036 7.90809 4.08756 8.01482 3.93004 8.06142C3.77253 8.10801 3.60299 8.09071 3.45815 8.01326C3.31331 7.93582 3.20484 7.80447 3.15623 7.64766C2.92015 6.85107 2.87322 6.01043 3.01919 5.19254C3.16515 4.37465 3.49998 3.60205 3.99707 2.93613C4.49416 2.2702 5.13981 1.72931 5.88272 1.35643C6.62562 0.983541 7.44532 0.788941 8.27666 0.788086H8.30165C9.35621 0.792902 10.3858 1.10952 11.2606 1.69805C12.1354 2.28657 12.8163 3.12068 13.2176 4.09527C13.6189 5.06987 13.7226 6.14135 13.5156 7.17472C13.3086 8.20809 12.8001 9.15711 12.0544 9.90223C10.3481 11.6066 7.69834 11.9566 5.61065 10.7538C5.41134 10.6412 5.1805 10.5974 4.95377 10.629C4.72704 10.6605 4.517 10.7658 4.35608 10.9285L1.89467 13.3873C1.83672 13.4453 1.76787 13.4914 1.69207 13.5227C1.61628 13.5541 1.53503 13.5702 1.45299 13.5701Z" fill="white"/>
<path d="M6.14696 6.02225C6.04707 6.02208 5.94868 5.99798 5.86004 5.95196C5.7714 5.90594 5.6951 5.83934 5.63754 5.75776C5.57999 5.67618 5.54285 5.58199 5.52925 5.4831C5.51565 5.3842 5.52599 5.2835 5.55939 5.18942C5.818 4.46356 6.35412 3.86981 7.05018 3.53842C7.74624 3.20703 8.5454 3.16504 9.2724 3.42167C9.3497 3.44904 9.42086 3.49137 9.4818 3.54622C9.54274 3.60108 9.59227 3.66739 9.62757 3.74138C9.66286 3.81536 9.68323 3.89557 9.6875 3.97742C9.69178 4.05927 9.67988 4.14116 9.65249 4.21842C9.6251 4.29567 9.58274 4.36678 9.52785 4.42768C9.47296 4.48858 9.4066 4.53808 9.33257 4.57335C9.25853 4.60862 9.17827 4.62897 9.09636 4.63325C9.01446 4.63752 8.93251 4.62563 8.8552 4.59826C8.44046 4.45174 7.98449 4.47562 7.58734 4.66465C7.19019 4.85369 6.8843 5.19244 6.73677 5.60658C6.6936 5.72835 6.61367 5.83372 6.50803 5.90817C6.40239 5.98263 6.27623 6.02248 6.14696 6.02225Z" fill="white"/>
</svg>
