<svg width="1600" height="960" viewBox="0 0 1600 960" fill="none" xmlns="http://www.w3.org/2000/svg">
<g opacity="0.3">
<path d="M80.2391 0.0326359C126.944 -0.245131 178.062 0.319765 174.149 41.2296C170.686 77.433 279.484 83.7592 320.882 72.4394C361.968 61.2039 382.599 174.252 324.404 206.264C286.591 227.062 166.147 247.024 223.525 290.218C238.325 301.357 259.44 308.008 274.334 318.931C290.411 330.748 299.43 345.572 316.847 356.914C338.231 370.843 370.126 380.34 394.029 363.224C422.887 342.567 425.499 308.804 436.988 283.327C442.402 271.308 454.254 245.02 482.021 251.078C499.687 254.936 504.779 268.297 506.701 278.661C512.678 310.873 533.984 346.221 517.569 378.049C507.586 397.399 489.788 415.314 491.25 436.411C492.717 457.322 513.211 474.734 544.025 481.722C571.875 488.039 603.247 484.39 629.845 493.379C663.339 504.695 685.203 531.18 691.801 554.185C712.544 626.495 544.51 600.778 483.165 618.436C410.287 639.422 497.677 695.877 539.32 707.906C590.755 722.762 620.86 691.586 664.929 681.755C708.592 672.018 774.808 698.393 808.092 670.832C841.939 642.805 788.161 601.649 820.995 575.017C836.157 562.702 863.812 566.238 884.58 568.925C909.412 572.14 932.023 575.167 954.875 566.173C971.823 559.503 990.898 541.682 1012.9 542.678C1039.08 543.861 1046.42 571.079 1051.84 583.397C1059.39 600.544 1066.74 619.816 1097.22 624.906C1122.28 629.088 1163.17 626.317 1183.3 615.025C1210.39 599.823 1183.92 570.651 1173.57 554.166C1160.49 533.293 1134.4 497.889 1161.29 477.184C1182.08 461.183 1220.37 465.618 1248.9 464.875C1274.76 464.201 1288.8 455.44 1310.42 447.809C1349.41 434.049 1396.64 431.652 1440 428.244" stroke="#F4BC47" stroke-width="0.5" stroke-miterlimit="10"/>
<path d="M64.5887 22.5032C78.1469 14.2295 94.7376 4.51074 115.099 6.56122C135.564 8.60547 146.892 20.9177 153.25 32.2906C159.33 43.1579 161.281 55.4202 174.194 64.1621C186.911 72.7604 206.764 76.93 224.215 79.7919C244.494 83.122 264.738 83.4591 285.535 83.6151C303.232 83.7493 324.435 83.5496 336.403 93.3557C358.301 111.267 346.787 154.564 334.628 174.08C319.323 198.633 281.28 209.26 247.776 221.519C213.744 234.003 185.566 256.667 202.117 282.69C217.065 306.194 255.797 318.172 279.162 337.601C292.476 348.668 302.718 362.968 296.208 377.078C288.901 392.926 264.494 401.281 243.545 408.856C222.156 416.593 205.546 424.433 194.595 438.842C184.441 452.197 178.327 468.079 157.329 476.462C111.353 494.826 52.6054 463.776 18.9692 500.263C10.9379 508.974 5.54302 518.677 0.00137351 528.102" stroke="#F4BC47" stroke-width="0.5" stroke-miterlimit="10"/>
<path d="M82.1967 470.676C120.636 476.035 160.455 480.267 175.862 452.019C182.475 439.869 186.021 427.229 198.283 416.649C210.29 406.284 227.629 400.854 244.073 393.975C274.628 381.21 290.177 356.211 262.621 336.976C250.275 328.353 232.902 323.272 219.53 315.336C204.035 306.144 192.379 294.325 185.385 281.604C172.281 257.75 184.504 237.015 213.083 220.433C239.412 205.165 274.902 200.92 303.08 187.784C331.771 174.408 337.924 142.633 335.85 121.551C332.974 92.4975 283.271 98.4555 250.085 97.1915C206.128 95.5124 178.141 86.8236 159.11 60.5886C151.21 49.6964 144.436 35.6707 125.209 30.983C107.176 26.5886 84.8526 31.1515 66.7408 33.1958C56.9194 34.3006 47.0752 35.3097 37.2081 36.2231" stroke="#F4BC47" stroke-width="0.5" stroke-miterlimit="10"/>
<path d="M68.5007 61.2034C84.2795 56.9339 105.081 50.1208 122.572 54.1781C138.444 57.8609 145.291 69.3679 152.961 78.0037C174.971 102.769 203.413 103.312 244.39 104.869C281.23 106.27 317.214 117.706 315.669 144.674C314.201 170.56 279.773 181.096 246.958 189.382C178.8 206.588 151.288 258.899 180.317 300.935C194.388 321.312 225.271 327.277 244.439 344.217C268.127 365.15 238.492 379.094 210.475 387.199C171.346 398.513 177.137 418.609 166.357 441.842C154.315 467.808 118.199 463.688 83.6387 461.91C74.688 461.448 65.7275 461.051 56.762 460.689" stroke="#F4BC47" stroke-width="0.5" stroke-miterlimit="10"/>
<path d="M68.5002 440.715C96.3796 448.346 140.659 453.533 158.433 432.688C174.858 413.431 152.075 390.283 188.108 377.727C214.945 368.364 240.091 357.893 212.534 338.54C188.127 321.403 167.927 311.331 162.429 286.732C157.925 266.539 152.481 240.563 159.788 220.614C167.257 200.221 198.575 194.085 224.018 184.513C247.633 175.64 287.711 167.972 291.027 147.686C295.209 122.219 259.142 116.086 227.956 117.1C185.584 118.492 169.957 108.237 147.981 86.886C126.597 66.1097 92.9167 77.0518 60.332 76.5213C51.9144 76.3839 43.5456 75.7067 35.2258 74.9296" stroke="#F4BC47" stroke-width="0.5" stroke-miterlimit="10"/>
<path d="M66.5446 102.401C91.4111 92.9689 128.618 76.8771 144.152 101.077C149.919 110.056 152.027 116.37 167.048 120.449C180.743 124.194 197.686 126.548 212.481 127.428C231.806 128.576 291.087 126.033 272.202 150.688C261.701 164.421 214.893 171.38 194.433 176.936C157.231 187.026 155.602 205.025 149.62 228.404C144.666 247.779 141.672 269.398 147.175 288.839C152.482 307.546 165.58 324.48 188.158 336.805C195.714 340.928 212.52 347.691 206.372 355.219C200.655 362.21 177.461 362.684 167.732 366.645C142.656 376.838 152.399 401.843 142.709 417.582C128.755 440.259 95.2653 432.784 67.6402 425.572C61.4236 423.949 55.2119 422.314 48.961 420.744" stroke="#F4BC47" stroke-width="0.5" stroke-miterlimit="10"/>
<path d="M76.326 403.263C88.0647 409.817 112.52 412.957 125.697 407.321C139.02 401.618 139.422 389.412 140.576 379.637C142.131 366.529 145.609 361.192 163.124 354.248C172.725 350.441 174.374 351.002 174.173 343.1C174.017 336.206 169.693 334.595 165.951 328.572C164.885 328.45 163.833 328.297 162.791 328.119C158.595 320.317 145.359 314.487 140.884 306.478C135.592 297.009 141.133 286.904 133.405 277.981C125.907 269.329 109.899 264.779 100.283 257.12C91.3711 250.023 73.9587 242.564 68.4905 234.733" stroke="#F4BC47" stroke-width="0.5" stroke-miterlimit="10"/>
<path d="M70.4569 272.182C94.1397 267.747 110.505 276.976 115.353 291.747C118.899 302.537 110.765 316.456 125.727 324.605C138.58 331.599 159.813 334.433 142.391 348.412C135.949 353.577 124.748 354.151 118.048 358.777C110.545 363.961 113.807 370.112 111.263 376.342C104.211 393.629 64.5631 390.814 43.0667 388.282" stroke="#F4BC47" stroke-width="0.5" stroke-miterlimit="10"/>
<path d="M78.2826 325.863C101.995 325.916 133.826 327.495 130.764 346.867C122.606 348.715 114.223 350.191 105.683 350.768C85.2378 352.145 67.3657 356.174 46.9892 358.321" stroke="#F4BC47" stroke-width="0.5" stroke-miterlimit="10"/>
<path d="M91.9767 220.998C97.7923 227.443 114.124 247.713 130.162 244.502C144.444 241.643 138.736 220.43 139.225 213.476C141.049 187.722 156.246 170.201 197.459 165.101C213.829 163.082 237.204 161.193 248.537 152.261C263 140.857 236.265 139.936 223.484 140.046C185.412 140.358 157.136 138.722 141.23 114.454C133.253 102.282 115.87 91.7235 94.4027 98.727C85.5987 101.598 79.8174 106.676 69.9471 108.48C55.8509 111.055 39.2993 108.021 25.4379 106.139" stroke="#F4BC47" stroke-width="0.5" stroke-miterlimit="10"/>
<path d="M60.6759 126.12C77.2226 117.737 105.591 112.953 124.725 121.027C133.984 124.934 135.579 131.934 143.121 136.616C152.208 142.249 164.153 140.985 175.324 143.332C208.28 150.217 161.722 158.563 152.213 162.717C133.402 170.94 135.231 188.309 125.963 200.306C107.171 224.649 71.1038 203.236 48.9372 192.285" stroke="#F4BC47" stroke-width="0.5" stroke-miterlimit="10"/>
<path d="M70.4575 144.846C83.4826 139.1 105.004 133.963 121.252 135.867C131.861 137.115 152.091 143.713 150.11 151.784C148.271 159.221 124.705 166.605 116.062 171.499C92.585 184.791 52.3897 178.281 23.5173 178.549" stroke="#F4BC47" stroke-width="0.5" stroke-miterlimit="10"/>
<path d="M72.4144 516.867C86.7063 501.29 101.903 492.835 130.404 490.354C155.686 488.154 175.827 486.88 188.447 471.004C198.689 458.127 201.785 443.433 223.927 436.414C245.096 429.701 264.415 429.067 278.932 415.504C290.671 404.527 296.232 383.607 318.267 378.854C339.695 374.232 362.942 386.553 384.341 387.103C434.294 388.388 431.208 333.422 444.781 312.683C448.918 306.369 464.546 282.178 480.588 285.736C496.426 289.247 492.131 317.761 492.058 325.429C491.911 341.102 490.87 356.904 484.589 372.128C478.153 387.733 467.446 402.576 463.748 418.631C456.148 451.638 491.765 491.868 537.927 507.242C562.97 515.584 588.203 511.258 614.869 512.547C643.805 513.949 662.533 526.86 667.904 544.759C696.6 640.408 408.889 545.63 419.205 642.848C423.9 687.063 482.941 720.82 546.687 731.709C582.925 737.898 622.92 737.373 652.961 721.535C671.748 711.625 683.736 695.911 710.413 694.529C756.008 692.166 830.103 715.973 854.857 676.633C870.269 652.133 806.582 606.57 860.076 592.288C883.984 585.909 911.174 591.87 935.888 588.309C959.694 584.876 973.712 572.277 994.817 565.819C1018.78 558.482 1026.74 572.002 1032.55 584.745C1040.75 602.744 1047.22 622.297 1072.65 633.872C1108.36 650.12 1185.64 651.612 1221.08 634.356C1267.92 611.573 1219.26 579.711 1205.47 554.955C1196.84 539.481 1187.56 522.216 1184.19 505.906C1180.85 489.677 1195.79 486.815 1217.9 484.259C1243.68 481.275 1265.49 476.647 1288.9 469.216C1309.71 462.609 1327.91 462.084 1350.83 462.724C1374 463.37 1394.56 461.85 1416.48 456.919" stroke="#F4BC47" stroke-width="0.5" stroke-miterlimit="10"/>
<path d="M1363.67 483.16C1345.27 469.965 1328.99 467.995 1305.24 477.318C1283.12 485.997 1268.06 489.296 1242.47 491.468C1175.31 497.161 1209.65 533.914 1226.42 558.757C1242.41 582.476 1274.84 619.347 1241.09 642.571C1225.27 653.469 1200.62 654.221 1178.88 654.82C1155.29 655.473 1130.95 656.187 1107.53 653.772C1052.71 648.107 1033.65 611.829 1013.44 583.032C999.413 563.057 957.359 599.997 923.351 601.377C887.157 602.847 850.748 602.329 860.745 632.093C868.14 654.124 893.555 685.634 853.105 700.586C818.725 713.295 776.192 707.387 738.99 705.867C696.844 704.148 682.053 718.751 653.088 735.005C621.046 752.988 580.039 753.147 541.291 744.464C461.37 726.559 384.995 676.199 410.238 618.714C421.644 592.735 449.02 583.066 489.675 583.278C530.33 583.49 568.466 583.512 608.715 578.818C618.297 577.698 629.542 578.977 637.426 575.323C664.083 562.973 656.991 538.221 620.664 529.703C591.567 522.875 557.76 531.208 529.973 522.138C505.4 514.117 494.234 493.85 478.352 480.358C457.717 462.824 453.535 449.373 451.534 427.838C449.548 406.437 423.601 406.303 395.971 401.79C369.099 397.421 336.788 386.351 314.025 401.815C292.93 416.172 288.885 436.012 261.861 447.509C250.504 452.341 238.193 455.864 228.65 462.293C218.311 469.263 212.921 478.061 206.063 486.428C187.066 509.617 158.58 507.931 122.988 513.634C86.0743 519.545 63.6533 538.676 41.0906 556.815" stroke="#F4BC47" stroke-width="0.5" stroke-miterlimit="10"/>
<path d="M45.0232 571.796C77.5052 550.779 107.771 539.962 153.034 533.932C172.202 531.376 191.224 528.461 205.775 519.542C220.326 510.622 228.083 498.244 238.12 487.374C258.173 465.667 288.435 445.552 316.309 427.797C349.354 406.743 397.424 401.737 422.144 431.655C432.244 443.873 435.839 457.824 444.907 470.355C454.983 484.281 469.93 496.478 484.08 508.777C495.178 518.418 506.056 531.248 522.196 537.877C538.704 544.647 560.518 542.961 579.188 543.043C590.271 543.092 628.099 541.079 633.553 550.149C639.197 559.581 607.194 566.309 598.033 568.251C551.568 578.107 507.088 566.266 460.397 570.776C406.242 576.006 388.497 600.987 390.239 633.039C391.98 665.02 399.532 693.614 437.296 716.741C469.656 736.568 514.17 752.513 555.573 763.368C602.861 775.765 636.947 771.664 670.696 747.657C703.559 724.284 737.802 718.32 786.156 719.4C827.588 720.336 888.825 721.553 902.075 689.264C911.999 665.064 880.623 634.403 929.187 622.415C947.915 617.79 972.258 615.549 991.793 619.319C1011.48 623.099 1022.43 633.813 1034.16 643.782C1065.48 670.41 1103.42 684.666 1156.43 683.73C1200.79 682.944 1249.78 676.714 1277.14 652.224C1310.57 622.294 1287.33 592.229 1268.88 562.199C1261.51 550.211 1254.09 535.562 1265.89 523.674C1277.4 512.082 1301.51 508.237 1321.35 506.293C1343.08 504.161 1365.24 504.311 1387.16 504.389" stroke="#F4BC47" stroke-width="0.5" stroke-miterlimit="10"/>
<path d="M1377.37 523.109C1349.6 513.721 1312.58 518.449 1299.71 537.603C1285.29 559.066 1304.51 572.483 1313.6 592.682C1323.16 613.904 1327.42 629.444 1308.81 648.647C1294.56 663.356 1290.61 683.711 1296.21 700.493C1300.47 713.264 1307.27 724.612 1320.23 734.802C1348.84 757.295 1370.64 780.515 1391.06 806.494" stroke="#F4BC47" stroke-width="0.5" stroke-miterlimit="10"/>
<path d="M1349.97 811.487C1337.64 789.3 1319.38 771.127 1302.02 750.656C1288.68 734.933 1288.25 711.872 1268.61 698.814C1247.76 684.96 1213.74 692.7 1188.88 696.682C1154.15 702.241 1116.98 705.327 1082.59 697.029C1043.55 687.606 1030.4 664.074 999.873 648.525C973.251 634.965 937.115 641.035 925.117 661.633C914.18 680.4 929.03 703.143 906.531 719.422C883.42 736.122 842.946 735.248 811.213 734.936C776.138 734.593 739.122 736.409 706.406 745.201C653.498 759.417 639.275 799.771 624.147 831.465" stroke="#F4BC47" stroke-width="0.5" stroke-miterlimit="10"/>
<path d="M671.088 796.507C672.555 795.824 671.675 794.947 674.619 795.015C688.368 776.851 704.191 768.933 734.242 763.459C759.113 758.927 782.488 751.858 808.91 753.216C843.681 755.004 877.806 763.3 910.572 751.106C938.637 740.66 947.358 724.11 945.949 704.513C944.971 690.843 945.431 663.859 977.022 664.477C1005.09 665.026 1014.5 692.438 1032.43 702.553C1057.26 716.585 1100.21 721.891 1132.54 722.399C1157.41 722.796 1179.2 714.225 1203.95 713.486C1247.2 712.191 1253.74 730.739 1262.07 753.434C1273.65 785.069 1300.27 807.718 1338.08 828.778C1336.9 829.107 1335.57 829.173 1334.32 828.965" stroke="#F4BC47" stroke-width="0.5" stroke-miterlimit="10"/>
<path d="M1250.2 803.997C1249.82 789.641 1245.23 775.802 1243.78 761.552C1242.53 749.224 1242.4 741.003 1223.29 734.546C1187.71 722.521 1151.79 734.455 1117.9 742.661C1100.99 746.755 1089.58 747.205 1071.99 744.396C1057.29 742.046 1039.14 741.518 1027.93 734.484C1015.56 726.725 1009.52 717.49 988.761 722.159C971.701 725.991 966.819 735.676 963.982 745.969C959.688 761.514 959.414 776.339 941.532 788.52C917.184 805.102 884.565 815.398 860.863 832.713" stroke="#F4BC47" stroke-width="0.5" stroke-miterlimit="10"/>
<path d="M1199.33 821.475C1208.44 806.659 1238.23 784.847 1229.89 768.646C1220.43 750.282 1199.44 741.415 1170.67 745.073C1146.47 748.153 1125.13 757.635 1100.66 759.117C1088.18 759.866 1074.51 759.704 1062.22 758.094C1049.84 756.471 1038.38 751.228 1025.85 750.45C973.873 747.27 997.13 800.58 1001.73 816.494" stroke="#F4BC47" stroke-width="0.5" stroke-miterlimit="10"/>
<path d="M1189.55 810.239C1189.78 803.866 1190.38 797.499 1192.87 791.304C1195.05 785.855 1201.32 779.756 1200.95 774.032C1200.07 760.478 1174.62 757.769 1158.27 760.203C1140.1 762.909 1122.42 767.001 1103.76 768.399C1084.85 769.813 1067.07 766.408 1048.37 766.639C1014.43 767.057 1023.43 785.733 1023.25 802.749" stroke="#F4BC47" stroke-width="0.5" stroke-miterlimit="10"/>
<path d="M825.645 805.245C843.434 801.366 868.453 796.076 878.572 785.102C890.8 771.863 867.812 765.971 850.649 764.523C817.135 761.714 776.573 757.444 750.058 773.798C722.037 791.076 703.866 816.481 684.781 837.703" stroke="#F4BC47" stroke-width="0.5" stroke-miterlimit="10"/>
<path d="M761.084 782.775C770.519 777.943 771.145 774.348 783.617 772.675C793.145 771.402 804.786 770.54 814.509 771.492C822.022 772.229 834.656 775.256 837.312 780.524C841.714 789.241 817.664 798.211 811.951 805.246" stroke="#F4BC47" stroke-width="0.5" stroke-miterlimit="10"/>
<path d="M516.527 810.239C527.908 804.868 553.538 795.455 553.122 784.703C552.721 774.208 528.3 769.848 516.072 767.017C467.782 755.841 436.043 744.752 408.467 715.976C382.544 688.911 356.919 657.536 365.66 624.881C371.471 603.181 388.521 568.588 424.794 560.355C441.673 556.519 502.704 564.125 500.371 546.279C498.997 535.761 477.725 524.869 467.522 517.7C452.849 507.401 439.252 496.824 431.622 483.619C419.526 462.687 419.761 431.499 371.872 434.564C324.956 437.563 293.697 463.823 276.333 489.243C258.437 515.459 237.659 539.469 192.729 549.431C172.622 553.891 150.993 554.359 130.891 558.754C105.129 564.371 85.648 576.44 68.4655 589.502C57.4605 597.869 47.3309 606.698 37.1868 615.49" stroke="#F4BC47" stroke-width="0.5" stroke-miterlimit="10"/>
<path d="M62.63 631.719C82.5809 608.461 105.701 586.249 147.246 577.798C182.384 570.648 212.352 568.597 243.137 553.982C258.544 546.669 273.853 538.202 283.322 527.369C292.542 516.82 294.279 504.817 299.625 493.425C309.602 472.178 346.731 448.527 380.969 467.559C394.635 475.158 401.541 487.115 411.294 496.612C422.876 507.875 438.518 516.929 450.648 527.847C476.854 551.438 402.46 551.163 381.453 558.014C344.804 569.964 349.216 604.142 344.437 626.613C337.712 658.225 346.276 685.912 374.302 712.618C396.645 733.922 427.219 751.446 465.668 759.813C478.84 762.682 494.844 763.296 506.128 768.864C524.337 777.875 533.063 796.594 541.789 809.437C549.84 821.297 557.612 833.241 565.423 845.169" stroke="#F4BC47" stroke-width="0.5" stroke-miterlimit="10"/>
<path d="M496.962 807.743C485.712 795.259 473.91 781.501 453.92 773.861C437.187 767.457 417.276 766.914 399.257 762.719C357.8 753.069 335.917 725.252 325.269 699.529C315.746 676.521 318.622 652.546 321.273 629.079C323.777 606.92 326.482 583.862 348.824 565.704C359.551 556.99 373.334 550.596 389.02 545.976C398.636 543.146 413.539 541.448 418.288 534.604C431.108 516.134 383.253 483.307 358.577 478.651C318.563 471.095 317.208 510.55 308.267 525.865C294.381 549.644 261.386 566.438 225.984 576.656C193.541 586.019 156.442 587.701 125.012 598.556C85.4473 612.216 79.8176 646.232 66.3573 670.912C60.752 681.212 54.8337 691.414 48.9106 701.629" stroke="#F4BC47" stroke-width="0.5" stroke-miterlimit="10"/>
<path d="M76.3271 676.661C85.7474 655.566 94.5026 630.158 122.724 615.743C149.112 602.257 186.309 601.386 217.294 594.61C246.191 588.303 279.578 578.859 299.734 563.672C323.006 546.145 316.853 520.999 337.225 503.197C356.789 486.103 393.512 501.449 396.764 518.88C400.736 540.165 359.23 546.032 339.225 556.709C310.103 572.252 307.922 601.252 303.544 623.526C298.624 648.494 295.601 673.222 301.749 698.23C307.13 720.152 316.662 754.052 353.654 763.274C368.063 766.864 384.258 765.556 398.603 769.292C418.911 774.582 429.682 787.706 438.075 799.862C444.066 808.541 448.967 817.533 453.922 826.468" stroke="#F4BC47" stroke-width="0.5" stroke-miterlimit="10"/>
<path d="M375.664 815.233C367.809 797.755 359.523 780.605 332.299 772.076C313.009 766.027 296.883 763.459 289.649 749.118C277.822 725.676 275.073 693.826 278.663 669.377C281.109 652.595 306.778 612.075 281.163 599.41C265.775 591.805 240.165 601.18 225.306 605.103C206.603 610.04 187.512 613.43 168.373 617.512C108.399 630.308 84.031 672.441 56.763 705.374" stroke="#F4BC47" stroke-width="0.5" stroke-miterlimit="10"/>
<path d="M58.7185 726.597C58.4348 727.648 59.038 728.031 60.5282 727.748C79.8628 703.299 101.907 678.924 123.316 655.204C133.068 644.4 144.685 639.64 162.86 635.801C180.385 632.097 197.993 625.58 215.978 623.186C267.398 616.348 254.334 662.099 247.154 679.364C241.011 694.129 238.878 708.077 248.724 722.374C256.829 734.147 265.843 743.965 270.137 756.724C275.469 772.572 283.074 778.695 303.612 787.703C332.206 800.243 327.324 821.512 324.453 841.287C323.323 841.588 322.068 841.644 320.883 841.446" stroke="#F4BC47" stroke-width="0.5" stroke-miterlimit="10"/>
<path d="M260.233 807.742C253.2 800.018 244.225 791.7 242.2 782.665C240.488 775.019 246.401 767.5 244.093 759.972C241.877 752.76 232.559 747.66 227.057 741.49C222.039 735.872 218.786 729.462 216.272 723.21C211.298 710.829 210.3 693.614 213.23 680.905C216.042 668.715 235.846 654.592 209.224 647.292C200.107 644.796 185.257 644.078 175.686 645.604C163.057 647.62 158.371 654.365 150.291 660.188C142.387 661.721 134.639 673.649 129.088 677.909C121.11 684.058 114.194 688.992 108.256 696.086C100.773 705.027 91.8859 710.907 79.5113 717.171C62.5636 725.748 52.8107 727.327 31.3289 727.845" stroke="#F4BC47" stroke-width="0.5" stroke-miterlimit="10"/>
<path d="M54.8046 759.055C83.8872 748.672 108.025 729.131 123.28 710.274C133.591 697.534 140.981 668.141 175.811 675.943C201.998 681.786 179.851 713.395 189.139 726.909C200.364 743.244 235.747 751.955 228.346 771.608C223.597 784.21 214.881 793.142 220.521 806.544C225.617 818.716 236.456 830.042 244.595 841.461" stroke="#F4BC47" stroke-width="0.5" stroke-miterlimit="10"/>
<path d="M193.713 805.246C190.456 789.513 213.469 776.711 205.726 762.104C198.36 748.213 175.401 740.323 173.733 724.503C173.039 717.971 179.451 683.49 153.846 699.307C134.546 711.229 145.805 730.392 120.18 741.312C90.5892 753.924 55.0355 762.613 19.5896 761.552" stroke="#F4BC47" stroke-width="0.5" stroke-miterlimit="10"/>
<path d="M66.5437 781.526C84.3425 782.984 98.8496 767.294 111.332 761.006C127.864 752.67 137.401 745.089 144.19 732.421C156.134 710.137 166.851 729.222 169.595 742.473C172.202 755.082 197.107 761.917 188.919 775.656C183.021 785.546 170.935 791.045 168.543 802.427C165.995 814.574 170.108 827.124 174.148 838.943" stroke="#F4BC47" stroke-width="0.5" stroke-miterlimit="10"/>
<path d="M148.715 803.997C148.715 798.379 147.688 793.074 151.161 787.996C154.335 783.358 161.799 780.662 165.286 776.567C171.792 768.933 167.693 759.436 164.015 751.783C149.713 749.286 132.922 766.124 122.504 770.999C113.626 775.15 102.166 779.388 92.9418 782.881C80.1075 787.74 48.6184 783.623 41.0959 790.265" stroke="#F4BC47" stroke-width="0.5" stroke-miterlimit="10"/>
<path d="M90.0221 803.997C101.546 801.647 105.786 791.928 113.035 787.487C119.32 783.633 131.465 774.067 138.552 772.541C141.976 766.695 155.475 763.246 158.434 770.241C160 773.942 152.673 780.852 148.833 783.595C143.076 787.718 136.243 790.28 131.328 795.143C118.645 807.717 111.871 822.982 101.761 836.443" stroke="#F4BC47" stroke-width="0.5" stroke-miterlimit="10"/>
</g>
<rect x="72.2588" y="533.364" width="1300.25" height="315.183" fill="url(#paint0_linear_1256_1058)"/>
<defs>
<linearGradient id="paint0_linear_1256_1058" x1="939.54" y1="796.899" x2="939.54" y2="565.058" gradientUnits="userSpaceOnUse">
<stop stop-color="white"/>
<stop offset="1" stop-color="white" stop-opacity="0"/>
</linearGradient>
</defs>
</svg>
