<svg width="15" height="14" viewBox="0 0 15 14" fill="none" xmlns="http://www.w3.org/2000/svg">
<path d="M6.6257 7.60753H5.3291C4.96385 7.60791 4.61366 7.75318 4.35538 8.01146C4.09711 8.26973 3.95184 8.61991 3.95146 8.98517V9.63347C3.95186 9.76768 4.00534 9.89627 4.10024 9.99117C4.19514 10.0861 4.32374 10.1396 4.45795 10.14H7.49685C7.63106 10.1396 7.75966 10.0861 7.85455 9.99117C7.94945 9.89627 8.00294 9.76768 8.00334 9.63347V8.98517C8.00295 8.61991 7.85769 8.26973 7.59941 8.01146C7.34114 7.75318 6.99095 7.60791 6.6257 7.60753ZM14.8409 12.4191V13.4321C14.8405 13.5663 14.787 13.6949 14.6921 13.7898C14.5972 13.8847 14.4686 13.9382 14.3344 13.9386H0.659316C0.525109 13.9382 0.396512 13.8847 0.301613 13.7898C0.206714 13.6949 0.153226 13.5663 0.152832 13.4321V12.4191C0.153226 12.2849 0.206714 12.1563 0.301613 12.0614C0.396512 11.9665 0.525109 11.913 0.659316 11.9126H0.912558V2.79593C0.914394 2.66042 0.969733 2.53113 1.06651 2.43625C1.16328 2.34137 1.29365 2.2886 1.42917 2.28945H8.77826C9.01987 1.91041 9.3366 1.58491 9.70891 1.33303C10.0812 1.08115 10.5012 0.908251 10.9429 0.824991C11.3846 0.741731 11.8387 0.749882 12.2772 0.848939C12.7156 0.947996 13.1291 1.13586 13.4921 1.40093C13.8552 1.666 14.16 2.00266 14.3879 2.39013C14.6157 2.7776 14.7618 3.20765 14.8169 3.65375C14.8721 4.09985 14.8353 4.55253 14.7088 4.98384C14.5822 5.41516 14.3686 5.81597 14.0811 6.16152V11.9126H14.3344C14.4686 11.913 14.5972 11.9665 14.6921 12.0614C14.787 12.1563 14.8405 12.2849 14.8409 12.4191ZM10.5358 5.07511C10.5357 5.11972 10.5473 5.16356 10.5696 5.20224C10.5918 5.24091 10.6238 5.27305 10.6624 5.29543C10.7008 5.318 10.7445 5.32989 10.789 5.32989C10.8335 5.32989 10.8772 5.318 10.9156 5.29543L12.6883 4.28246C12.7268 4.26002 12.7588 4.22786 12.781 4.1892C12.8032 4.15054 12.8149 4.10673 12.8149 4.06214C12.8149 4.01756 12.8032 3.97375 12.781 3.93509C12.7588 3.89643 12.7268 3.86427 12.6883 3.84182L10.9156 2.82886C10.877 2.80706 10.8334 2.79561 10.789 2.79561C10.7446 2.79561 10.701 2.80706 10.6624 2.82886C10.6238 2.85124 10.5918 2.88338 10.5696 2.92205C10.5473 2.96073 10.5357 3.00457 10.5358 3.04918V5.07511ZM8.25658 4.06214C8.25802 3.89247 8.27241 3.72315 8.29963 3.55566H2.17877V11.1529H12.8149V7.10105C12.3146 7.3095 11.7706 7.39122 11.2312 7.33894C10.6917 7.28666 10.1735 7.10201 9.72257 6.80138C9.27162 6.50074 8.90186 6.09342 8.64612 5.61557C8.39038 5.13772 8.25658 4.60412 8.25658 4.06214ZM1.41904 11.9126H13.5747V6.65281C13.4919 6.71549 13.4091 6.77558 13.3214 6.83084V11.4062C13.3212 11.4733 13.2945 11.5376 13.247 11.585C13.1996 11.6325 13.1353 11.6592 13.0682 11.6594H1.92553C1.85842 11.6592 1.79413 11.6325 1.74668 11.585C1.69923 11.5376 1.67248 11.4733 1.67228 11.4062V3.30242C1.67248 3.23532 1.69923 3.17102 1.74668 3.12357C1.79413 3.07612 1.85842 3.04938 1.92553 3.04918H8.41865C8.44651 2.96307 8.4769 2.8795 8.50982 2.79593H1.42917L1.41904 11.9126ZM5.72416 12.4191V12.6724H9.26955V12.4191H5.72416ZM14.3344 12.4191H9.77603V12.9256C9.77583 12.9927 9.74908 13.057 9.70164 13.1045C9.65419 13.1519 9.58989 13.1787 9.52279 13.1789H5.47091C5.40381 13.1787 5.33952 13.1519 5.29207 13.1045C5.24462 13.057 5.21787 12.9927 5.21767 12.9256V12.4191H0.659316V13.4321H14.3344V12.4191ZM5.9774 7.10105C6.17774 7.10105 6.37359 7.04164 6.54017 6.93033C6.70676 6.81903 6.83659 6.66082 6.91326 6.47573C6.98993 6.29063 7.00999 6.08696 6.9709 5.89046C6.93182 5.69396 6.83534 5.51347 6.69368 5.3718C6.55201 5.23014 6.37152 5.13366 6.17502 5.09458C5.97852 5.05549 5.77485 5.07555 5.58975 5.15222C5.40466 5.22889 5.24645 5.35872 5.13515 5.52531C5.02384 5.69189 4.96443 5.88773 4.96443 6.08808C4.96439 6.22112 4.99057 6.35285 5.04146 6.47577C5.09236 6.59869 5.16697 6.71037 5.26104 6.80444C5.35511 6.89851 5.46679 6.97312 5.58971 7.02402C5.71263 7.07491 5.84436 7.10109 5.9774 7.10105Z" fill="white"/>
</svg>
