<svg width="144" height="144" viewBox="0 0 144 144" fill="none" xmlns="http://www.w3.org/2000/svg">
<path d="M64.1573 135.191L62.5023 144L60.3702 143.596L61.0411 140.111L57.1944 139.393L56.5383 142.878L54.4211 142.474L56.0761 133.665L58.1934 134.054L57.5224 137.673L61.3543 138.391L62.0401 134.787L64.1573 135.191Z" fill="#F4BC47"/>
<path d="M43.9544 129.119L50.306 131.826L46.8171 140.082L40.5847 137.434L41.2706 135.789L45.5646 137.614L46.2505 135.984L42.9107 134.563L43.5965 132.962L46.9214 134.368L47.6669 132.633L43.2536 130.764L43.9544 129.119Z" fill="#F4BC47"/>
<path d="M29.4023 130.584L31.5941 121.162L33.4877 122.493L32.9956 124.512L35.9776 126.591L37.7072 125.454L39.4665 126.696L31.3555 132.08L29.4023 130.584ZM34.5016 127.593L32.5334 126.247L31.773 129.328L34.5016 127.593Z" fill="#F4BC47"/>
<path d="M19.6362 122.044L24.8994 117.153L21.7982 113.803L23.1102 112.591L27.6578 117.527L21.0974 123.629L19.6362 122.044Z" fill="#F4BC47"/>
<path d="M19.0699 106.983L13.0165 110.842L14.6864 113.474L13.1954 114.431L8.69263 107.312L10.1836 106.355L11.8684 109.017L17.9368 105.173L19.0699 106.983Z" fill="#F4BC47"/>
<path d="M13.7618 97.381L5.33768 100.402L4.622 98.3681L7.94692 97.1716L6.63484 93.4774L3.30993 94.6739L2.57935 92.6398L11.0034 89.6187L11.734 91.6527L8.27493 92.8941L9.58701 96.5883L13.0461 95.3469L13.7618 97.381Z" fill="#F4BC47"/>
<path d="M0.104519 80.6599C-0.00212636 80.1199 0.00286597 79.5636 0.11917 79.0256C0.235474 78.4876 0.460611 77.9791 0.78067 77.5319C1.10073 77.0847 1.50891 76.7081 1.97991 76.4255C2.4509 76.1429 2.9747 75.9602 3.5189 75.8888L3.84692 77.9229C3.5588 77.961 3.28129 78.057 3.03099 78.2051C2.78069 78.3533 2.56273 78.5505 2.39015 78.7851C2.21756 79.0196 2.09391 79.2867 2.02655 79.5703C1.95918 79.8539 1.94947 80.1481 1.99806 80.4355C2.16207 81.9312 3.32504 82.6192 4.98005 82.4248C6.63505 82.2303 7.5893 81.2133 7.42529 79.7924C7.4049 79.5018 7.32632 79.2184 7.19428 78.9589C7.06225 78.6994 6.87948 78.4692 6.65682 78.2822C6.43416 78.0951 6.17619 77.955 5.89836 77.8701C5.62052 77.7853 5.32849 77.7575 5.0397 77.7883L4.87571 75.7243C5.42432 75.6577 5.98074 75.7061 6.5098 75.8662C7.03887 76.0263 7.52906 76.2947 7.94943 76.6545C8.36979 77.0144 8.71116 77.4577 8.952 77.9566C9.19285 78.4556 9.32794 78.9992 9.34869 79.5532C9.42113 80.1601 9.37369 80.7753 9.20909 81.3638C9.04449 81.9523 8.76592 82.5026 8.38933 82.9832C8.01275 83.4637 7.54552 83.8651 7.01428 84.1645C6.48304 84.4639 5.89821 84.6554 5.29319 84.7281C4.68817 84.8008 4.07479 84.7532 3.4881 84.5881C2.90141 84.423 2.35288 84.1435 1.87384 83.7658C1.3948 83.388 0.994637 82.9193 0.696174 82.3864C0.397711 81.8535 0.206768 81.2668 0.134322 80.6599" fill="#F4BC47"/>
<path d="M0.238564 63.8637L9.49761 61.1416L9.25909 63.4299L7.27605 64.0132L6.91822 67.6177L8.76704 68.56L8.55832 70.7136L0 66.2267L0.238564 63.8637ZM5.36758 66.855L5.59122 64.5068L2.60924 65.3743L5.36758 66.855Z" fill="#F4BC47"/>
<path d="M12.5095 50.4626C11.9001 50.5377 11.2816 50.4659 10.7054 50.2532C10.5326 50.1747 10.344 50.1376 10.1545 50.1448C9.96501 50.152 9.77979 50.2033 9.61347 50.2947C9.44714 50.3861 9.30429 50.5151 9.19622 50.6715C9.08814 50.8278 9.01778 51.0071 8.99073 51.1954L8.42415 52.9155L11.4061 53.8876L10.7501 55.9067L2.25146 53.08L3.60827 48.9819C4.33886 46.7684 5.71054 45.9907 7.35063 46.574C7.88997 46.7155 8.35397 47.0607 8.64569 47.5372C8.93741 48.0138 9.03433 48.5849 8.9162 49.1315C9.09958 48.7289 9.42477 48.4085 9.82932 48.2318C10.2339 48.0551 10.6893 48.0347 11.108 48.1743C12.4051 48.4734 12.8226 48.5631 13.2251 48.3836L12.5095 50.4626ZM7.44013 50.6122C7.78306 49.5503 7.64885 48.9221 6.8139 48.638C5.97894 48.3538 5.47198 48.7726 5.11414 49.8494L4.53268 51.6143L6.8437 52.3919L7.44013 50.6122Z" fill="#F4BC47"/>
<path d="M19.0699 37.2712L15.5959 43.2538L7.87256 38.7369L11.272 32.874L12.8077 33.7565L10.4669 37.7947L11.9877 38.6921L13.8067 35.5512L15.3126 36.4336L13.4936 39.5745L15.1337 40.5167L17.5342 36.3738L19.0699 37.2712Z" fill="#F4BC47"/>
<path d="M24.5417 17.4244C24.9268 17.0336 25.3877 16.726 25.8959 16.5207C26.404 16.3155 26.9487 16.2168 27.4963 16.2308C28.0439 16.2448 28.5829 16.3713 29.08 16.6022C29.577 16.8332 30.0216 17.1639 30.3864 17.5739L28.8954 18.9948C28.7007 18.7783 28.4647 18.6032 28.2015 18.4796C27.9382 18.3561 27.6529 18.2867 27.3625 18.2755C27.072 18.2644 26.7823 18.3117 26.5104 18.4146C26.2385 18.5176 25.9899 18.6742 25.7792 18.8751C25.3585 19.3829 25.1316 20.0243 25.139 20.6846C25.1465 21.3448 25.3878 21.9809 25.8199 22.4791C26.252 22.9772 26.8466 23.305 27.4974 23.4037C28.1483 23.5025 28.8129 23.3658 29.3725 23.018C29.6029 22.8405 29.7947 22.6176 29.9361 22.3631C30.0775 22.1085 30.1656 21.8277 30.1949 21.5378C30.2242 21.2479 30.1942 20.955 30.1066 20.6772C30.019 20.3993 29.8758 20.1424 29.6856 19.9221L31.2959 18.6209C31.6514 19.0398 31.9175 19.5274 32.0777 20.0535C32.2379 20.5797 32.2889 21.1332 32.2274 21.6799C32.1659 22.2266 31.9933 22.7548 31.7203 23.2319C31.4472 23.709 31.0795 24.1249 30.6399 24.4538C29.701 25.1858 28.5182 25.5294 27.3347 25.4139C26.1511 25.2983 25.0566 24.7325 24.276 23.8327C23.4953 22.9328 23.0879 21.7672 23.1373 20.5754C23.1867 19.3836 23.6893 18.2561 24.5417 17.4244Z" fill="#F4BC47"/>
<path d="M36.0222 9.45215L39.5111 15.7338L43.4772 13.5203L44.3419 15.0907L38.4823 18.3512L34.1436 10.4991L36.0222 9.45215Z" fill="#F4BC47"/>
<path d="M48.7732 3.65707L46.7354 4.38135L49.723 12.8399L51.7609 12.1156L48.7732 3.65707Z" fill="#F4BC47"/>
<path d="M61.414 9.75156L58.6258 3.46988L58.5662 3.48484L59.5502 10.0357L57.5821 10.3199L56.2551 1.45077L59.5651 0.957208L62.0104 6.65559L62.0551 6.64063L62.6515 0.49356L65.9019 0L67.2288 8.86913L65.0967 9.19817L64.1127 2.64728H64.053L63.233 9.46739L61.414 9.75156Z" fill="#F4BC47"/>
<path d="M79.3059 0.284118L82.1239 9.52715L79.8277 9.33271L79.2314 7.3286L75.6381 7.02946L74.7286 8.88404L72.5815 8.70457L76.9055 0.074707L79.3059 0.284118ZM76.3239 5.45906L78.6797 5.66838L77.7851 2.6771L76.3239 5.45906Z" fill="#F4BC47"/>
<path d="M88.8482 11.2021L90.9058 4.32214L87.9238 3.42475L88.4308 1.71973L96.4821 4.1277L95.9752 5.83273L92.9485 4.93535L90.9058 11.8302L88.8482 11.2021Z" fill="#F4BC47"/>
<path d="M105.189 18.3363L99.136 15.016L103.43 7.14893L109.364 10.3945L108.514 11.9649L104.429 9.72142L103.579 11.2769L106.77 13.0118L105.92 14.5523L102.744 12.8024L101.85 14.4776L106.039 16.7659L105.189 18.3363Z" fill="#F4BC47"/>
<path d="M125.765 24.2442L121.62 32.9637L120.129 31.2736L121.039 29.3892L118.608 26.7269L116.67 27.4747L115.179 25.8893L124.125 22.4644L125.765 24.2442ZM120.144 26.0987L121.74 27.8336L123.126 24.992L120.144 26.0987Z" fill="#F4BC47"/>
<path d="M134.443 36.0298C134.752 36.4831 134.966 36.9951 135.071 37.5344C135.176 38.0738 135.169 38.6289 135.052 39.1656C134.934 39.7024 134.709 40.2092 134.389 40.6551C134.068 41.1009 133.661 41.4763 133.19 41.758L132.087 40.0231C132.573 39.7177 132.919 39.2321 133.051 38.672C133.182 38.1118 133.087 37.5225 132.788 37.0318C132.372 36.5178 131.786 36.1695 131.137 36.0496C130.488 35.9297 129.817 36.0459 129.246 36.3776C128.675 36.7092 128.24 37.2344 128.02 37.8588C127.8 38.4832 127.809 39.1657 128.046 39.7837C128.18 40.0427 128.363 40.2723 128.586 40.459C128.81 40.6457 129.068 40.7857 129.346 40.8707C129.624 40.9557 129.916 40.9841 130.205 40.9541C130.494 40.9241 130.774 40.8364 131.028 40.6962L131.983 42.5208C131.504 42.7778 130.978 42.9347 130.436 42.9817C129.895 43.0287 129.35 42.9649 128.834 42.7943C128.319 42.6237 127.843 42.3497 127.436 41.989C127.028 41.6284 126.699 41.1886 126.466 40.6962C125.849 39.6271 125.681 38.356 125.998 37.1625C126.316 35.9691 127.093 34.951 128.158 34.3322C129.224 33.7134 130.491 33.5446 131.681 33.8629C132.871 34.1813 133.886 34.9608 134.502 36.0298" fill="#F4BC47"/>
<path d="M131.58 51.749L138.409 49.5504L137.455 46.5741L139.154 46.0356L141.719 54.0672L140.034 54.6056L139.065 51.5994L132.236 53.798L131.58 51.749Z" fill="#F4BC47"/>
<path d="M143.065 61.287L134.202 62.5049L134.495 64.6535L143.358 63.4356L143.065 61.287Z" fill="#F4BC47"/>
<path d="M134.726 74.9465C134.759 74.0274 135.063 73.1387 135.599 72.3928C136.136 71.6469 136.88 71.0772 137.739 70.7557C138.598 70.4343 139.533 70.3755 140.425 70.5869C141.318 70.7982 142.128 71.2702 142.753 71.9431C143.378 72.616 143.79 73.4597 143.937 74.3675C144.084 75.2753 143.959 76.2065 143.579 77.0434C143.199 77.8802 142.58 78.5852 141.8 79.0692C141.02 79.5532 140.115 79.7945 139.199 79.7625C138.583 79.7642 137.973 79.6381 137.408 79.3924C136.843 79.1466 136.334 78.7863 135.914 78.3342C135.494 77.882 135.172 77.3478 134.967 76.7649C134.763 76.1819 134.681 75.5628 134.726 74.9465ZM142.181 75.2756C142.181 73.78 141.182 72.8526 139.527 72.7778C139.189 72.7157 138.842 72.7266 138.508 72.8098C138.175 72.893 137.863 73.0466 137.593 73.2604C137.324 73.4741 137.103 73.7431 136.945 74.0494C136.788 74.3556 136.697 74.692 136.679 75.0363C136.679 76.5319 137.663 77.4741 139.318 77.5489C139.656 77.5994 140 77.5786 140.329 77.4876C140.658 77.3966 140.965 77.2374 141.229 77.0205C141.493 76.8035 141.708 76.5335 141.862 76.2278C142.016 75.9222 142.104 75.5876 142.121 75.2457" fill="#F4BC47"/>
<path d="M135.65 91.8022L140.824 93.2231L140.302 95.1375L131.669 92.7595L132.132 91.0993L138.722 88.6016L133.22 87.091L133.757 85.1616L142.375 87.5397L141.823 89.5438L135.65 91.8022Z" fill="#F4BC47"/>
<path d="M128.121 106.968L128.091 107.028L132.579 111.29L131.565 113.115L124.915 106.669L126.063 104.65L132.042 106.205L132.072 106.16L127.629 101.838L128.762 99.8486L137.693 102.212L136.634 104.081L130.656 102.451L130.626 102.511L135.084 106.848L134.13 108.538L128.121 106.968Z" fill="#F4BC47"/>
<path d="M117.52 115.628C118.148 114.95 118.963 114.474 119.861 114.262C120.76 114.05 121.7 114.111 122.564 114.437C123.428 114.762 124.176 115.338 124.712 116.092C125.249 116.845 125.55 117.741 125.577 118.666C125.604 119.591 125.357 120.504 124.866 121.288C124.375 122.071 123.663 122.691 122.82 123.067C121.977 123.444 121.041 123.561 120.132 123.402C119.223 123.244 118.381 122.818 117.714 122.179C117.254 121.772 116.883 121.276 116.622 120.72C116.362 120.163 116.218 119.559 116.2 118.945C116.182 118.331 116.29 117.72 116.517 117.149C116.744 116.578 117.085 116.061 117.52 115.628ZM122.887 120.743C123.335 120.39 123.663 119.908 123.83 119.362C123.996 118.817 123.992 118.233 123.818 117.689C123.644 117.146 123.309 116.669 122.857 116.322C122.404 115.976 121.858 115.776 121.289 115.751C120.721 115.725 120.158 115.874 119.677 116.179C119.195 116.483 118.818 116.928 118.596 117.453C118.374 117.979 118.318 118.56 118.435 119.118C118.551 119.677 118.836 120.186 119.249 120.578C119.466 120.847 119.736 121.067 120.044 121.223C120.351 121.379 120.688 121.467 121.031 121.483C121.375 121.498 121.719 121.441 122.039 121.313C122.359 121.185 122.648 120.991 122.887 120.743Z" fill="#F4BC47"/>
<path d="M105.324 125.903C105.848 126.22 106.293 126.655 106.621 127.174C106.707 127.343 106.832 127.49 106.985 127.603C107.138 127.715 107.316 127.789 107.503 127.82C107.69 127.851 107.882 127.837 108.063 127.779C108.244 127.721 108.409 127.621 108.544 127.488L110.035 126.486L108.291 123.898L110.05 122.717L115.045 130.195L111.452 132.603C109.528 133.904 107.992 133.635 106.979 132.199C106.633 131.756 106.474 131.195 106.535 130.637C106.597 130.078 106.874 129.565 107.307 129.208C106.912 129.405 106.46 129.454 106.032 129.344C105.605 129.234 105.232 128.973 104.981 128.61C104.146 127.578 103.862 127.249 103.49 127.114L105.324 125.903ZM109.424 128.894C108.499 129.522 108.216 130.105 108.708 130.838C109.2 131.571 109.856 131.556 110.781 130.928L112.272 129.881L110.915 127.847L109.424 128.894Z" fill="#F4BC47"/>
<path d="M93.1422 131.841L97.0486 134.294L97.5108 133.142L96.4671 130.525L98.48 129.732L101.76 138.078L99.7473 138.87L98.3607 135.326L96.5417 140.142L94.2306 141.054L96.1242 136.178L90.7417 132.783L93.1422 131.841Z" fill="#F4BC47"/>
<path d="M85.0312 137.464C84.9716 137.213 84.861 136.977 84.7062 136.771C84.5515 136.566 84.3559 136.394 84.1318 136.268C83.9078 136.141 83.6601 136.063 83.4043 136.037C83.1486 136.011 82.8902 136.039 82.6456 136.118C81.7062 136.282 81.1546 136.746 81.2888 137.329C81.423 137.913 81.9299 137.973 82.7798 137.988H84.4795C85.137 137.914 85.7976 138.096 86.3248 138.497C86.852 138.898 87.2056 139.486 87.3124 140.141C87.6106 141.876 86.4327 143.132 84.3304 143.551C81.9299 143.97 80.424 142.998 80.0512 141.039L82.0044 140.65C82.0445 140.872 82.1316 141.084 82.2599 141.27C82.3881 141.456 82.5546 141.612 82.7481 141.728C82.9416 141.845 83.1576 141.918 83.3817 141.943C83.6057 141.969 83.8326 141.946 84.0471 141.876C84.9566 141.727 85.389 141.278 85.2846 140.68C85.1803 140.081 84.7777 140.051 84.1068 140.037H82.407C80.5582 140.037 79.5741 139.274 79.3207 137.823C79.0225 135.998 80.4389 134.832 82.4517 134.443C84.8075 134.039 86.6862 134.921 87.044 137.06L85.0312 137.464Z" fill="#F4BC47"/>
<path d="M23.8735 71.9995C23.8735 62.4813 26.696 53.1768 31.9841 45.2627C37.2721 37.3486 44.7882 31.1803 53.5819 27.5378C62.3756 23.8954 72.052 22.9423 81.3873 24.7992C90.7226 26.6562 99.2977 31.2396 106.028 37.97C112.758 44.7004 117.342 53.2755 119.199 62.6108C121.056 71.9461 120.103 81.6225 116.46 90.4161C112.818 99.2098 106.649 106.726 98.7354 112.014C90.8212 117.302 81.5168 120.125 71.9986 120.125C59.235 120.125 46.9942 115.054 37.969 106.029C28.9438 97.0038 23.8735 84.7631 23.8735 71.9995Z" fill="#005E8E"/>
<path d="M77.6707 68.9185C74.1894 65.2701 66.8463 66.0313 64.7761 70.1067C63.5692 72.4832 64.4233 72.8918 66.345 71.8891C67.7746 71.1558 67.0319 70.4873 68.4801 69.5404C69.9283 68.5935 72.4813 68.742 74.5051 69.6425C76.139 70.3759 75.3034 72.1862 73.159 72.6503L72.7319 72.7339C72.7319 73.5508 72.7319 74.3771 72.7319 75.194C78.8404 73.0496 79.0446 70.3759 77.7171 68.9185H77.6707ZM65.918 70.2924C65.918 70.2924 66.0108 70.2181 65.8251 70.4966C65.95 70.5997 66.0326 70.7451 66.0572 70.9051C66.0568 70.9578 66.044 71.0096 66.0198 71.0564C65.9956 71.1032 65.9607 71.1436 65.918 71.1743L65.853 71.23C65.6673 71.3693 65.5466 71.4714 65.4445 71.4714C65.4344 71.4763 65.4232 71.4789 65.412 71.4789C65.4007 71.4789 65.3896 71.4763 65.3795 71.4714C65.3052 71.4157 65.3052 71.3043 65.3795 71.0536C65.4739 70.752 65.6149 70.467 65.7973 70.2089C65.8115 70.2002 65.8282 70.1965 65.8448 70.1984C65.8613 70.2004 65.8768 70.2079 65.8886 70.2197C65.9003 70.2315 65.9078 70.2469 65.9098 70.2634C65.9118 70.28 65.9081 70.2967 65.8994 70.311L65.918 70.2924ZM67.8025 67.953C69.5763 67.0627 71.6043 66.8166 73.5396 67.2567C76.8723 67.9715 77.6986 70.116 77.6986 70.116C77.6986 70.116 74.505 65.957 67.8025 67.953Z" fill="white"/>
<path d="M75.591 80.3459C74.1226 79.5594 72.5639 78.9546 70.9493 78.5449C70.1233 78.3734 69.308 78.1533 68.5078 77.8858C67.171 77.5052 67.2453 77.4123 67.2453 77.4123C67.2453 77.4123 67.1617 76.8182 67.6445 76.9111C68.4886 76.5584 69.3499 76.2486 70.2252 75.9827C70.4759 75.9177 70.0674 76.0384 70.2995 75.9827V75.8063C70.2995 74.9523 70.2995 74.1075 70.2531 73.2627C69.6125 73.3927 68.9906 73.5412 68.3964 73.7176C67.0875 74.0982 65.5464 74.6459 64.8595 75.927C64.5767 76.5734 64.5286 77.2982 64.7235 77.9762C64.9185 78.6543 65.3441 79.2429 65.927 79.6404C67.431 80.6404 69.1094 81.3489 70.8751 81.7291C71.7106 81.9705 72.5646 82.2026 73.3816 82.5182C73.4837 82.5182 74.4585 82.9081 74.607 83.168C74.7555 83.3503 74.8366 83.5781 74.8366 83.8132C74.8366 84.0483 74.7555 84.2762 74.607 84.4584C74.607 84.4584 74.8948 83.8086 74.3006 83.7343C73.9583 84.0048 73.5842 84.2324 73.1866 84.412C72.9638 84.5327 72.7317 84.6348 72.4996 84.7462L72.4161 87.3734C73.2198 87.1194 74.0046 86.8091 74.7648 86.4451C75.8974 85.8881 77.2249 84.9226 77.3827 83.5487C77.4509 83.1286 77.422 82.6985 77.2981 82.2913C77.1741 81.8842 76.9586 81.5108 76.6679 81.2C76.364 80.8875 76.0208 80.616 75.6467 80.3923L75.591 80.3459ZM76.9742 83.1773C75.7953 81.3207 76.473 81.135 68.9813 78.4614C70.7763 78.959 72.5349 79.5794 74.2449 80.318C76.8443 81.3949 76.9742 82.8988 76.9742 83.2144" fill="white"/>
<path d="M71.0609 98.5508C70.7028 98.8328 70.3897 99.1677 70.1326 99.5441C69.9604 99.8402 69.8509 100.168 69.811 100.509C69.771 100.849 69.8015 101.194 69.9005 101.521C69.8038 100.916 69.9398 100.295 70.2811 99.7855C70.4997 99.5097 70.7559 99.2659 71.0423 99.0614V98.5508" fill="white"/>
<path d="M70.8658 91.2166C70.119 90.868 69.4923 90.3059 69.0648 89.6013V89.5456C68.8884 89.7033 68.7788 89.9225 68.7585 90.1583C68.7214 89.7371 68.8085 89.3143 69.0091 88.9422C69.2436 88.6303 69.5674 88.3971 69.9375 88.2738C70.1881 88.1531 70.4388 88.0417 70.6987 87.9396L70.6152 85.5073C69.2784 86.0829 67.4403 86.8812 67.1061 88.4501C66.7719 90.019 67.8766 91.328 69.1298 92.0892C69.7974 92.4679 70.489 92.8029 71.2001 93.0918C71.9515 93.3473 72.6453 93.7479 73.2424 94.2708C73.4633 94.5466 73.5927 94.8843 73.6127 95.2371C73.6327 95.5898 73.5421 95.94 73.3538 96.2389C73.0234 96.858 72.5645 97.3993 72.0077 97.8264C72.0077 98.077 72.0077 98.3184 72.0077 98.5412L72.1748 98.4391C73.4652 97.5943 74.9598 96.2575 74.6442 94.5122C74.3285 92.7669 72.2769 92.0335 70.9308 91.2444L70.8658 91.2166ZM67.6631 89.657C67.5492 89.4105 67.4957 89.1405 67.507 88.8693C67.5183 88.5981 67.5941 88.3335 67.728 88.0974C68.0436 87.4404 68.5697 86.9078 69.2227 86.5842C68.6783 86.8738 68.2365 87.3243 67.9574 87.8742C67.6783 88.424 67.5756 89.0466 67.6631 89.657ZM74.1615 95.5519C74.1615 95.5519 74.7463 94.178 72.769 93.0175C71.7046 92.4564 70.7026 91.7843 69.7797 91.0124C69.7797 91.0124 70.4481 91.4765 72.639 92.6834C74.8299 93.8902 74.1615 95.5519 74.1615 95.5519Z" fill="white"/>
<path d="M70.439 69.1781C70.439 72.3345 70.5411 75.3516 70.6061 78.1923L70.9959 78.313L71.7572 78.5544C71.7572 75.6672 71.8129 72.5202 71.8408 69.1874C71.5841 69.1739 71.3269 69.1739 71.0702 69.1874C70.8474 69.1874 70.6432 69.1874 70.439 69.1874" fill="white"/>
<path d="M71.9893 78.6287L72.3234 78.7401C72.3977 75.7694 72.4534 72.613 72.4998 69.2896L72.1378 69.2246C72.1378 72.5852 72.045 75.723 71.9893 78.6287Z" fill="white"/>
<path d="M71.7199 82.1564L71.0979 81.9801L70.6987 81.8594C70.7916 85.2664 70.8937 88.3577 70.9958 91.0128L71.59 91.3469C71.59 88.9611 71.6735 85.8419 71.7199 82.1564Z" fill="white"/>
<path d="M71.6456 66.3188H71.8498C71.8498 63.5338 71.8498 65.5947 71.8498 62.6054C71.9768 62.5844 72.1013 62.5501 72.2212 62.5033C72.2212 65.5389 72.2212 63.4966 72.2212 66.328H72.5833C72.5833 63.2552 72.639 51.6418 72.639 48.374C72.2844 48.5513 71.8934 48.6436 71.4971 48.6436C71.1007 48.6436 70.7098 48.5513 70.3552 48.374C70.3552 51.6603 70.3552 63.2831 70.4109 66.3652C70.8237 66.314 71.239 66.286 71.6549 66.2816" fill="white"/>
<path d="M71.6087 93.5377C71.5345 95.4687 71.488 96.527 71.488 96.527C71.488 96.527 71.4881 95.4594 71.553 93.5099L71.2745 93.3892L71.0889 93.3057C71.3024 98.8757 71.488 102.162 71.488 102.162C71.488 102.162 71.6644 99.0057 71.8779 93.6584L71.6087 93.5377Z" fill="white"/>
<path d="M71.9892 91.551C72.0913 88.8774 72.1934 85.7675 72.2956 82.3233L71.9706 82.2305C71.8778 85.9438 71.785 89.0166 71.7107 91.3932H71.7571L71.9892 91.5231" fill="white"/>
<path d="M71.5345 43.1846C70.0487 43.1827 68.5957 43.6217 67.3594 44.4458C66.1232 45.2699 65.1591 46.4422 64.5893 47.8144C64.0194 49.1865 63.8693 50.6969 64.1581 52.1543C64.4468 53.6118 65.1613 54.9508 66.2113 56.0021C67.2613 57.0533 68.5995 57.7695 70.0566 58.0601C71.5137 58.3506 73.0242 58.2024 74.397 57.6343C75.7699 57.0661 76.9434 56.1035 77.7691 54.8683C78.5947 53.633 79.0354 52.1806 79.0354 50.6948C79.0367 49.709 78.8435 48.7326 78.4671 47.8215C78.0907 46.9104 77.5384 46.0824 76.8417 45.3848C76.1451 44.6873 75.3177 44.134 74.4071 43.7565C73.4964 43.3789 72.5203 43.1846 71.5345 43.1846ZM67.4497 55.8657C66.3342 55.0987 65.5564 53.932 65.2775 52.6072C65.2775 52.6072 65.4353 54.0369 67.459 54.9374C69.4828 55.8378 69.3157 57.054 67.459 55.8657" fill="white"/>
<path d="M70.0676 44.1503L69.5848 44.633H69L68.8143 44.4474H67.8024L67.264 44.9951V45.2828L66.7256 45.812H67.3476L67.821 45.3478H68.2759L68.7215 45.7934V46.2019L69.1764 46.6568L68.8329 47.0003V47.6408L69.5106 48.3185L69.8077 48.6156V49.1262H70.2997L70.5596 49.3861L71.0702 49.8874H71.85L72.2492 50.2959L72.5184 50.5651L72.7226 50.3609V49.646H72.4255V49.2933H72.1099L71.7943 49.6089H71.3858L71.1259 49.349V48.5784L71.3673 48.3278H71.85L71.9892 48.1978H72.2863L72.4905 48.402H72.8155V48.105L73.1497 47.7708L73.4282 47.4923L73.1868 47.2602L73.7252 46.7125V46.4711L73.8645 46.3319H74.2173L74.4029 46.5176L74.635 46.2855L74.1708 45.812H73.7623L73.4839 45.5335H73.1311L72.9083 45.3107H72.3606L72.6576 45.5985V46.1926H72.4627L72.1934 45.9234H71.8221L71.1816 45.2921V45.0508L71.4787 44.7537H71.9057L72.1192 44.5402L72.5741 44.9951H72.9455V44.6052H73.3725L74.1987 45.4221L74.4772 45.1436L74.0594 44.7259V44.4845C73.2217 43.9505 72.265 43.6316 71.2744 43.5562L70.5967 44.2431L70.0676 44.1503Z" fill="#8DC641"/>
<path d="M75.6284 51.4842H75.2663V51.0108L75.0064 50.7508L74.6907 50.4352H74.4122L74.1894 50.2124H73.7531L73.3447 50.6209V51.0572L72.8619 51.5399V52.329L73.094 52.5611L73.5025 52.9696V53.4059L72.964 53.9443L71.9521 54.9562H72.5277L73.159 54.3249H73.521L73.9574 53.8886H74.3565L75.1456 53.0995L75.4241 52.8303L75.9811 52.264V51.8463L75.6284 51.4842Z" fill="#8DC641"/>
<path d="M58.7232 56.72C58.7232 56.72 58.1848 59.505 68.1087 63.0606C67.8395 62.4107 67.8766 61.6309 67.5795 60.9811C65.565 56.5622 64.2746 55.0954 59.9671 53.675C56.5137 52.5332 55.7618 51.8184 55.7618 51.8184C55.7618 51.8184 52.819 63.3205 62.0745 65.3535C65.6579 66.1333 67.1153 65.0194 69.594 64.8615C58.0641 61.241 58.7232 56.72 58.7232 56.72Z" fill="white"/>
<path d="M84.1504 57.6479C84.1504 57.6479 84.921 59.4489 74.997 63.0044C75.2663 62.3546 75.2848 61.5933 75.5262 60.9249C76.9837 56.8774 78.6454 55.0392 83.1479 53.6189C86.6013 52.5234 87.3439 51.7622 87.3439 51.7622C87.3439 51.7622 91.2058 63.0415 81.0312 65.2974C77.4478 66.0865 75.9904 64.9632 73.5117 64.8054C85.0509 61.2406 84.1504 57.685 84.1504 57.685" fill="white"/>
</svg>
