<svg width="162" height="161" viewBox="0 0 162 161" fill="none" xmlns="http://www.w3.org/2000/svg">
<path d="M71.9229 151.1L70.0761 160.93L67.697 160.479L68.4457 156.591L64.1533 155.79L63.4213 159.678L61.0588 159.228L62.9056 149.398L65.268 149.832L64.5194 153.871L68.7951 154.672L69.5604 150.65L71.9229 151.1Z" fill="#F4BC47"/>
<path d="M49.3796 144.325L56.467 147.346L52.5739 156.558L45.6196 153.604L46.3849 151.768L51.1764 153.805L51.9417 151.985L48.215 150.4L48.9803 148.614L52.6904 150.183L53.5223 148.247L48.5977 146.161L49.3796 144.325Z" fill="#F4BC47"/>
<path d="M33.1418 145.96L35.5875 135.446L37.7004 136.932L37.1514 139.185L40.4788 141.504L42.4087 140.236L44.3719 141.621L35.3213 147.629L33.1418 145.96ZM38.8318 142.623L36.6356 141.12L35.7871 144.558L38.8318 142.623Z" fill="#F4BC47"/>
<path d="M22.2444 136.43L28.1173 130.973L24.6568 127.235L26.1208 125.883L31.1951 131.39L23.8748 138.199L22.2444 136.43Z" fill="#F4BC47"/>
<path d="M21.6126 119.625L14.858 123.931L16.7213 126.868L15.0576 127.936L10.0332 119.992L11.6969 118.924L13.5769 121.895L20.3482 117.606L21.6126 119.625Z" fill="#F4BC47"/>
<path d="M15.6895 108.911L6.28953 112.282L5.49095 110.012L9.20103 108.677L7.73696 104.555L4.02689 105.89L3.21167 103.62L12.6116 100.249L13.4269 102.519L9.56704 103.904L11.0311 108.026L14.8909 106.641L15.6895 108.911Z" fill="#F4BC47"/>
<path d="M0.450044 90.2526C0.331045 89.65 0.336616 89.0293 0.466392 88.429C0.596169 87.8286 0.847386 87.2613 1.20452 86.7622C1.56166 86.2632 2.01712 85.843 2.54268 85.5277C3.06823 85.2123 3.65271 85.0085 4.25995 84.9288L4.62597 87.1985C4.30447 87.241 3.99482 87.3481 3.71552 87.5134C3.43623 87.6787 3.19302 87.8988 3.00044 88.1606C2.80787 88.4223 2.66989 88.7203 2.59472 89.0368C2.51955 89.3532 2.50872 89.6815 2.56294 90.0022C2.74595 91.6711 4.04364 92.4388 5.89036 92.2219C7.73708 92.0049 8.80188 90.8701 8.61887 89.2846C8.59611 88.9603 8.50843 88.6441 8.3611 88.3545C8.21377 88.065 8.00982 87.8081 7.76137 87.5994C7.51292 87.3907 7.22507 87.2343 6.91505 87.1396C6.60503 87.0449 6.27917 87.0139 5.95692 87.0483L5.77394 84.7453C6.3861 84.671 7.00698 84.7249 7.59733 84.9036C8.18767 85.0822 8.73465 85.3817 9.20372 85.7832C9.67278 86.1847 10.0537 86.6795 10.3224 87.2362C10.5912 87.7929 10.7419 88.3995 10.7651 89.0176C10.8459 89.6948 10.793 90.3814 10.6093 91.038C10.4256 91.6947 10.1148 92.3088 9.69458 92.845C9.27437 93.3812 8.75302 93.8291 8.16024 94.1632C7.56746 94.4972 6.91488 94.711 6.23977 94.792C5.56467 94.8731 4.88024 94.82 4.22558 94.6358C3.57093 94.4515 2.95886 94.1397 2.42433 93.7182C1.88979 93.2967 1.44327 92.7737 1.11024 92.1791C0.7772 91.5845 0.564138 90.9298 0.4833 90.2526" fill="#F4BC47"/>
<path d="M0.599696 71.5105L10.9313 68.4731L10.6652 71.0265L8.45241 71.6774L8.05314 75.6995L10.1161 76.7509L9.88323 79.154L0.333496 74.1473L0.599696 71.5105ZM6.32286 74.8483L6.57241 72.2282L3.24499 73.1961L6.32286 74.8483Z" fill="#F4BC47"/>
<path d="M14.292 56.5572C13.612 56.641 12.9219 56.5609 12.2789 56.3236C12.0862 56.236 11.8757 56.1946 11.6643 56.2027C11.4528 56.2107 11.2461 56.2679 11.0605 56.3699C10.8749 56.4719 10.7155 56.6159 10.5949 56.7903C10.4743 56.9647 10.3958 57.1649 10.3657 57.375L9.73344 59.2943L13.0609 60.379L12.3289 62.632L2.8457 59.4778L4.35969 54.9051C5.1749 52.4351 6.70548 51.5673 8.53556 52.2182C9.13738 52.3761 9.65514 52.7612 9.98065 53.293C10.3062 53.8248 10.4143 54.4621 10.2825 55.0719C10.4871 54.6227 10.85 54.2652 11.3014 54.0681C11.7528 53.8709 12.2609 53.8481 12.7281 54.0039C14.1756 54.3377 14.6414 54.4377 15.0906 54.2375L14.292 56.5572ZM8.63543 56.7242C9.01809 55.5393 8.86833 54.8383 7.93665 54.5212C7.00497 54.2042 6.43929 54.6714 6.04 55.873L5.39118 57.8423L7.96991 58.7101L8.63543 56.7242Z" fill="#F4BC47"/>
<path d="M21.6124 41.8377L17.7359 48.5133L9.11792 43.4732L12.9112 36.9312L14.6248 37.9158L12.0128 42.4218L13.7098 43.4232L15.7395 39.9185L17.4198 40.9031L15.3901 44.4078L17.2202 45.4592L19.8988 40.8364L21.6124 41.8377Z" fill="#F4BC47"/>
<path d="M27.7181 19.6917C28.1478 19.2556 28.662 18.9124 29.2291 18.6834C29.7961 18.4543 30.4039 18.3442 31.0149 18.3599C31.626 18.3755 32.2274 18.5166 32.782 18.7743C33.3366 19.0321 33.8328 19.4011 34.2398 19.8585L32.5761 21.444C32.3588 21.2025 32.0955 21.007 31.8017 20.8692C31.508 20.7314 31.1896 20.6539 30.8655 20.6414C30.5415 20.629 30.2182 20.6818 29.9148 20.7967C29.6114 20.9116 29.334 21.0863 29.0989 21.3105C28.6295 21.8771 28.3762 22.5928 28.3846 23.3296C28.3929 24.0663 28.6622 24.7761 29.1443 25.332C29.6264 25.8878 30.2899 26.2535 31.0161 26.3637C31.7424 26.4739 32.4841 26.3213 33.1085 25.9333C33.3655 25.7353 33.5795 25.4865 33.7373 25.2025C33.8951 24.9185 33.9934 24.6052 34.0261 24.2817C34.0588 23.9582 34.0253 23.6313 33.9276 23.3213C33.8299 23.0113 33.67 22.7246 33.4578 22.4787L35.2547 21.0268C35.6514 21.4942 35.9483 22.0383 36.127 22.6254C36.3058 23.2125 36.3626 23.8301 36.294 24.4402C36.2254 25.0502 36.0329 25.6396 35.7282 26.172C35.4235 26.7044 35.0132 27.1684 34.5226 27.5354C33.475 28.3522 32.1552 28.7356 30.8345 28.6067C29.5139 28.4778 28.2926 27.8464 27.4215 26.8424C26.5505 25.8383 26.0958 24.5376 26.151 23.2077C26.2061 21.8779 26.7669 20.6197 27.7181 19.6917Z" fill="#F4BC47"/>
<path d="M40.5286 10.7959L44.4217 17.8053L48.8472 15.3353L49.8121 17.0876L43.2738 20.7258L38.4324 11.9641L40.5286 10.7959Z" fill="#F4BC47"/>
<path d="M54.7566 4.32951L52.4827 5.1377L55.8165 14.5761L58.0903 13.7679L54.7566 4.32951Z" fill="#F4BC47"/>
<path d="M68.8617 11.1302L65.7505 4.12086L65.684 4.13755L66.782 11.4473L64.5859 11.7644L63.1052 1.86785L66.7987 1.31712L69.5272 7.6756L69.5771 7.65891L70.2425 0.799759L73.8694 0.249023L75.3501 10.1456L72.971 10.5127L71.873 3.20297H71.8064L70.8914 10.8131L68.8617 11.1302Z" fill="#F4BC47"/>
<path d="M88.8264 0.566189L91.9708 10.8799L89.4086 10.663L88.7432 8.42672L84.7336 8.09292L83.7187 10.1623L81.323 9.96207L86.1478 0.33252L88.8264 0.566189ZM85.4989 6.3406L88.1276 6.57417L87.1293 3.23638L85.4989 6.3406Z" fill="#F4BC47"/>
<path d="M99.4741 12.7488L101.77 5.07185L98.4426 4.07051L99.0083 2.16797L107.992 4.85489L107.427 6.75743L104.049 5.75609L101.77 13.4497L99.4741 12.7488Z" fill="#F4BC47"/>
<path d="M117.708 20.7094L110.954 17.0045L115.745 8.22607L122.367 11.8476L121.418 13.5999L116.86 11.0966L115.911 12.8322L119.472 14.7681L118.524 16.4871L114.98 14.5345L113.982 16.4037L118.657 18.9571L117.708 20.7094Z" fill="#F4BC47"/>
<path d="M140.668 27.3019L136.042 37.0315L134.379 35.1456L135.394 33.0429L132.682 30.0722L130.519 30.9067L128.855 29.1376L138.837 25.3159L140.668 27.3019ZM134.395 29.3713L136.176 31.3072L137.723 28.1364L134.395 29.3713Z" fill="#F4BC47"/>
<path d="M150.35 40.4523C150.696 40.9581 150.934 41.5295 151.051 42.1313C151.168 42.7331 151.161 43.3526 151.03 43.9515C150.899 44.5504 150.647 45.1159 150.29 45.6134C149.933 46.1109 149.478 46.5298 148.953 46.8441L147.722 44.9082C148.264 44.5675 148.65 44.0256 148.797 43.4006C148.943 42.7756 148.838 42.1179 148.504 41.5705C148.039 40.9969 147.386 40.6082 146.662 40.4744C145.937 40.3406 145.189 40.4704 144.552 40.8404C143.914 41.2105 143.429 41.7965 143.184 42.4932C142.938 43.1899 142.949 43.9515 143.213 44.6412C143.362 44.9301 143.567 45.1863 143.816 45.3946C144.065 45.6029 144.353 45.7592 144.663 45.854C144.973 45.9489 145.299 45.9806 145.621 45.9471C145.944 45.9137 146.256 45.8158 146.54 45.6593L147.605 47.6953C147.071 47.9821 146.484 48.1571 145.88 48.2096C145.276 48.262 144.668 48.1908 144.092 48.0005C143.517 47.8101 142.986 47.5044 142.531 47.1019C142.077 46.6995 141.709 46.2087 141.449 45.6593C140.761 44.4664 140.573 43.048 140.927 41.7163C141.282 40.3846 142.149 39.2486 143.338 38.5581C144.527 37.8676 145.941 37.6792 147.268 38.0345C148.596 38.3897 149.729 39.2595 150.417 40.4523" fill="#F4BC47"/>
<path d="M147.156 57.9929L154.776 55.5396L153.711 52.2185L155.608 51.6177L158.469 60.5796L156.589 61.1804L155.508 57.826L147.888 60.2792L147.156 57.9929Z" fill="#F4BC47"/>
<path d="M159.971 68.6357L150.081 69.9946L150.409 72.3922L160.299 71.0332L159.971 68.6357Z" fill="#F4BC47"/>
<path d="M150.666 83.8776C150.703 82.852 151.042 81.8604 151.641 81.028C152.239 80.1957 153.07 79.56 154.029 79.2013C154.987 78.8427 156.03 78.7771 157.026 79.0129C158.022 79.2487 158.925 79.7754 159.623 80.5263C160.32 81.2771 160.78 82.2185 160.944 83.2315C161.108 84.2444 160.969 85.2835 160.545 86.2173C160.121 87.1511 159.43 87.9378 158.56 88.4778C157.69 89.0179 156.68 89.2871 155.657 89.2515C154.97 89.2533 154.29 89.1127 153.659 88.8384C153.028 88.5642 152.461 88.1622 151.992 87.6577C151.524 87.1531 151.164 86.557 150.936 85.9066C150.708 85.2561 150.616 84.5653 150.666 83.8776ZM158.985 84.2448C158.985 82.5759 157.87 81.5411 156.023 81.4577C155.646 81.3883 155.259 81.4005 154.887 81.4933C154.515 81.5862 154.167 81.7576 153.866 81.9961C153.565 82.2346 153.319 82.5348 153.143 82.8765C152.967 83.2182 152.865 83.5936 152.846 83.9777C152.846 85.6466 153.944 86.698 155.791 86.7814C156.167 86.8378 156.551 86.8146 156.919 86.713C157.286 86.6114 157.628 86.4339 157.922 86.1918C158.217 85.9497 158.458 85.6484 158.629 85.3073C158.801 84.9662 158.899 84.5929 158.918 84.2114" fill="#F4BC47"/>
<path d="M151.698 102.686L157.471 104.271L156.888 106.407L147.256 103.754L147.771 101.901L155.125 99.1143L148.986 97.4288L149.585 95.2759L159.201 97.9294L158.585 100.166L151.698 102.686Z" fill="#F4BC47"/>
<path d="M143.296 119.608L143.263 119.675L148.271 124.431L147.139 126.467L139.719 119.274L141 117.021L147.672 118.757L147.705 118.707L142.747 113.884L144.012 111.664L153.977 114.301L152.796 116.387L146.125 114.568L146.091 114.635L151.066 119.474L150.001 121.36L143.296 119.608Z" fill="#F4BC47"/>
<path d="M131.467 129.271C132.168 128.514 133.077 127.984 134.08 127.747C135.082 127.511 136.132 127.578 137.096 127.942C138.059 128.305 138.894 128.948 139.492 129.789C140.091 130.629 140.427 131.629 140.458 132.661C140.488 133.694 140.212 134.712 139.664 135.587C139.116 136.461 138.321 137.152 137.381 137.573C136.44 137.993 135.396 138.123 134.381 137.946C133.367 137.77 132.428 137.294 131.683 136.581C131.17 136.127 130.756 135.573 130.465 134.953C130.175 134.332 130.014 133.658 129.994 132.973C129.974 132.288 130.094 131.605 130.347 130.969C130.601 130.332 130.982 129.754 131.467 129.271ZM137.456 134.979C137.955 134.585 138.322 134.047 138.508 133.438C138.693 132.829 138.689 132.178 138.495 131.571C138.301 130.965 137.926 130.433 137.422 130.046C136.917 129.659 136.307 129.437 135.673 129.408C135.039 129.379 134.411 129.546 133.874 129.886C133.337 130.225 132.916 130.722 132.668 131.308C132.42 131.894 132.357 132.543 132.488 133.166C132.618 133.789 132.935 134.358 133.397 134.795C133.638 135.095 133.94 135.34 134.283 135.514C134.626 135.688 135.002 135.787 135.385 135.804C135.769 135.822 136.152 135.757 136.509 135.615C136.866 135.472 137.189 135.255 137.456 134.979Z" fill="#F4BC47"/>
<path d="M117.858 140.736C118.443 141.09 118.939 141.576 119.305 142.155C119.401 142.344 119.541 142.508 119.712 142.634C119.883 142.759 120.081 142.842 120.29 142.876C120.499 142.91 120.713 142.894 120.915 142.83C121.117 142.766 121.3 142.654 121.451 142.505L123.115 141.387L121.169 138.5L123.132 137.182L128.705 145.526L124.696 148.213C122.549 149.665 120.836 149.365 119.705 147.762C119.319 147.268 119.142 146.643 119.21 146.019C119.278 145.395 119.587 144.823 120.071 144.425C119.63 144.645 119.125 144.699 118.649 144.576C118.172 144.454 117.756 144.163 117.475 143.757C116.544 142.606 116.227 142.238 115.812 142.088L117.858 140.736ZM122.433 144.074C121.402 144.775 121.085 145.426 121.635 146.244C122.184 147.061 122.915 147.045 123.947 146.344L125.611 145.176L124.097 142.906L122.433 144.074Z" fill="#F4BC47"/>
<path d="M104.265 147.362L108.624 150.099L109.14 148.814L107.976 145.894L110.222 145.009L113.882 154.322L111.636 155.206L110.088 151.251L108.059 156.625L105.48 157.643L107.593 152.202L101.587 148.414L104.265 147.362Z" fill="#F4BC47"/>
<path d="M95.2149 153.637C95.1484 153.357 95.025 153.094 94.8523 152.864C94.6796 152.635 94.4613 152.443 94.2113 152.302C93.9613 152.161 93.685 152.073 93.3996 152.045C93.1142 152.016 92.8259 152.047 92.5529 152.135C91.5047 152.319 90.8892 152.836 91.039 153.487C91.1887 154.138 91.7543 154.204 92.7027 154.221H94.5993C95.3329 154.139 96.07 154.342 96.6583 154.789C97.2467 155.237 97.6412 155.894 97.7603 156.624C98.093 158.56 96.7787 159.962 94.4329 160.429C91.7543 160.897 90.074 159.812 89.658 157.626L91.8375 157.192C91.8822 157.44 91.9794 157.676 92.1225 157.884C92.2657 158.091 92.4514 158.266 92.6673 158.395C92.8832 158.525 93.1243 158.607 93.3743 158.635C93.6243 158.664 93.8774 158.638 94.1168 158.56C95.1316 158.393 95.6141 157.893 95.4977 157.225C95.3812 156.558 94.9321 156.524 94.1834 156.508H92.2867C90.2237 156.508 89.1257 155.656 88.8428 154.038C88.5101 152.002 90.0906 150.7 92.3366 150.266C94.9653 149.815 97.0616 150.8 97.4609 153.186L95.2149 153.637Z" fill="#F4BC47"/>
</svg>
