<svg width="184" height="184" viewBox="0 0 184 184" fill="none" xmlns="http://www.w3.org/2000/svg">
<path d="M81.9075 172.593L79.7946 183.84L77.0726 183.324L77.9292 178.875L73.0182 177.959L72.1806 182.408L69.4777 181.892L71.5905 170.646L74.2935 171.142L73.4369 175.763L78.3289 176.68L79.2045 172.078L81.9075 172.593Z" fill="white"/>
<path d="M56.115 164.842L64.2239 168.298L59.7697 178.838L51.8131 175.458L52.6887 173.358L58.1708 175.687L59.0464 173.606L54.7826 171.792L55.6582 169.749L59.903 171.544L60.8547 169.329L55.2204 166.942L56.115 164.842Z" fill="white"/>
<path d="M37.537 166.713L40.3351 154.683L42.7526 156.383L42.1244 158.96L45.9314 161.614L48.1395 160.163L50.3856 161.748L40.0306 168.622L37.537 166.713ZM44.047 162.894L41.5343 161.175L40.5635 165.109L44.047 162.894Z" fill="white"/>
<path d="M25.069 155.809L31.7883 149.565L27.829 145.288L29.5041 143.742L35.3098 150.043L26.9344 157.833L25.069 155.809Z" fill="white"/>
<path d="M24.3459 136.582L16.6177 141.508L18.7496 144.869L16.8461 146.091L11.0975 137.002L13.001 135.78L15.152 139.178L22.8992 134.271L24.3459 136.582Z" fill="white"/>
<path d="M17.5692 124.323L6.81444 128.18L5.90076 125.583L10.1456 124.056L8.47049 119.339L4.22568 120.867L3.29297 118.27L14.0477 114.413L14.9805 117.01L10.5643 118.595L12.2394 123.311L16.6555 121.726L17.5692 124.323Z" fill="white"/>
<path d="M0.13348 102.976C-0.0026699 102.286 0.00370365 101.576 0.152185 100.889C0.300667 100.202 0.588091 99.5534 0.9967 98.9824C1.40531 98.4114 1.92642 97.9307 2.52773 97.5699C3.12903 97.2091 3.79775 96.9759 4.49251 96.8847L4.91128 99.4815C4.54345 99.5302 4.18916 99.6528 3.86961 99.8419C3.55006 100.031 3.2718 100.283 3.05147 100.582C2.83113 100.882 2.67327 101.223 2.58727 101.585C2.50127 101.947 2.48887 102.322 2.5509 102.689C2.76029 104.599 4.24502 105.477 6.3579 105.229C8.47079 104.981 9.68906 103.682 9.47967 101.868C9.45363 101.497 9.35331 101.135 9.18475 100.804C9.01618 100.473 8.78284 100.179 8.49858 99.9403C8.21433 99.7014 7.88498 99.5225 7.53028 99.4142C7.17558 99.3059 6.80275 99.2704 6.43406 99.3098L6.2247 96.6747C6.9251 96.5897 7.63546 96.6514 8.3109 96.8558C8.98633 97.0603 9.61214 97.4029 10.1488 97.8623C10.6855 98.3217 11.1213 98.8877 11.4288 99.5247C11.7362 100.162 11.9087 100.856 11.9352 101.563C12.0277 102.338 11.9671 103.123 11.757 103.874C11.5468 104.626 11.1912 105.328 10.7104 105.942C10.2297 106.555 9.63316 107.068 8.95494 107.45C8.27672 107.832 7.53009 108.077 6.75768 108.17C5.98527 108.262 5.20219 108.202 4.45318 107.991C3.70417 107.78 3.00389 107.423 2.39232 106.941C1.78074 106.459 1.26986 105.86 0.888827 105.18C0.507789 104.5 0.264019 103.751 0.171529 102.976" fill="white"/>
<path d="M0.304567 81.5326L12.1253 78.0574L11.8208 80.9787L9.28909 81.7234L8.83227 86.3252L11.1926 87.5282L10.9261 90.2777L0 84.5494L0.304567 81.5326ZM6.85261 85.3514L7.13812 82.3536L3.33112 83.4611L6.85261 85.3514Z" fill="white"/>
<path d="M15.9705 64.4239C15.1925 64.5197 14.4028 64.428 13.6672 64.1565C13.4467 64.0563 13.2059 64.009 12.964 64.0182C12.722 64.0274 12.4856 64.0928 12.2732 64.2095C12.0609 64.3262 11.8785 64.4909 11.7405 64.6905C11.6025 64.8901 11.5127 65.1191 11.4782 65.3595L10.7548 67.5553L14.5618 68.7964L13.7244 71.3742L2.87439 67.7654L4.60658 62.5335C5.5393 59.7076 7.29048 58.7147 9.38433 59.4594C10.0729 59.6401 10.6653 60.0807 11.0377 60.6891C11.4101 61.2976 11.5338 62.0267 11.383 62.7244C11.6171 62.2105 12.0323 61.8015 12.5488 61.5759C13.0653 61.3503 13.6466 61.3242 14.1812 61.5025C15.8372 61.8844 16.3702 61.9988 16.8841 61.7697L15.9705 64.4239ZM9.49859 64.6149C9.93639 63.2592 9.76505 62.4572 8.69909 62.0944C7.63313 61.7316 6.98592 62.2662 6.52908 63.641L5.78674 65.8942L8.73714 66.887L9.49859 64.6149Z" fill="white"/>
<path d="M24.3459 47.583L19.9108 55.2207L10.0507 49.4542L14.3906 41.9692L16.3512 43.0958L13.3627 48.2513L15.3043 49.3969L17.6266 45.3871L19.5491 46.5137L17.2269 50.5235L19.3207 51.7264L22.3853 46.4373L24.3459 47.583Z" fill="white"/>
<path d="M31.3317 22.2452C31.8233 21.7463 32.4117 21.3536 33.0604 21.0915C33.7092 20.8295 34.4045 20.7035 35.1037 20.7214C35.8028 20.7393 36.4909 20.9007 37.1255 21.1956C37.76 21.4905 38.3277 21.9127 38.7933 22.4361L36.8898 24.2501C36.6413 23.9737 36.34 23.7501 36.0039 23.5924C35.6678 23.4347 35.3036 23.3461 34.9328 23.3318C34.562 23.3176 34.1921 23.378 33.845 23.5094C33.4978 23.6409 33.1805 23.8408 32.9115 24.0973C32.3744 24.7456 32.0847 25.5644 32.0942 26.4074C32.1037 27.2503 32.4119 28.0624 32.9635 28.6984C33.5151 29.3344 34.2742 29.7528 35.1051 29.8788C35.936 30.0049 36.7846 29.8304 37.499 29.3864C37.7931 29.1598 38.0379 28.8752 38.2185 28.5503C38.399 28.2253 38.5114 27.8668 38.5488 27.4967C38.5863 27.1266 38.548 26.7527 38.4361 26.3979C38.3243 26.0432 38.1414 25.7152 37.8987 25.4339L39.9545 23.7727C40.4084 24.3075 40.7481 24.93 40.9526 25.6017C41.1572 26.2735 41.2222 26.9801 41.1437 27.678C41.0652 28.376 40.8449 29.0504 40.4963 29.6595C40.1477 30.2686 39.6782 30.7995 39.117 31.2194C37.9183 32.1539 36.4083 32.5926 34.8973 32.4451C33.3863 32.2976 31.989 31.5753 30.9924 30.4265C29.9958 29.2777 29.4756 27.7896 29.5387 26.268C29.6018 24.7464 30.2434 23.307 31.3317 22.2452Z" fill="white"/>
<path d="M45.9884 12.0671L50.4426 20.0867L55.5059 17.2608L56.6099 19.2657L49.1291 23.4283L43.59 13.4037L45.9884 12.0671Z" fill="white"/>
<path d="M62.2671 4.66884L59.6655 5.59351L63.4798 16.3923L66.0814 15.4676L62.2671 4.66884Z" fill="white"/>
<path d="M78.4052 12.4495L74.8457 4.42988L74.7695 4.44897L76.0258 12.8123L73.5132 13.1751L71.8191 1.85215L76.0449 1.22204L79.1666 8.49697L79.2237 8.47787L79.9851 0.630112L84.1347 0L85.8289 11.3229L83.1069 11.743L81.8505 3.37969H81.7744L80.7275 12.0867L78.4052 12.4495Z" fill="white"/>
<path d="M101.247 0.362807L104.845 12.1631L101.913 11.9148L101.152 9.35627L96.5646 8.97436L95.4035 11.342L92.6625 11.1129L98.1827 0.095459L101.247 0.362807ZM97.4403 6.96948L100.448 7.23671L99.3057 3.41785L97.4403 6.96948Z" fill="white"/>
<path d="M113.43 14.3013L116.056 5.51797L112.249 4.37231L112.897 2.19556L123.175 5.26974L122.528 7.44649L118.664 6.30083L116.056 15.1033L113.43 14.3013Z" fill="white"/>
<path d="M134.292 23.4093L126.564 19.1703L132.046 9.12671L139.622 13.2702L138.537 15.2751L133.321 12.4109L132.236 14.3967L136.31 16.6117L135.225 18.5784L131.17 16.3444L130.028 18.4829L135.377 21.4043L134.292 23.4093Z" fill="white"/>
<path d="M160.56 30.9517L155.269 42.0836L153.365 39.9259L154.526 37.5201L151.423 34.1213L148.949 35.076L147.045 33.052L158.466 28.6794L160.56 30.9517ZM153.384 33.3193L155.421 35.5342L157.191 31.9064L153.384 33.3193Z" fill="white"/>
<path d="M171.639 45.998C172.034 46.5767 172.307 47.2304 172.44 47.919C172.574 48.6075 172.566 49.3163 172.416 50.0015C172.266 50.6867 171.978 51.3338 171.569 51.903C171.161 52.4722 170.64 52.9514 170.04 53.311L168.631 51.0961C169.252 50.7062 169.694 50.0863 169.861 49.3712C170.029 48.6561 169.908 47.9037 169.526 47.2773C168.994 46.621 168.247 46.1764 167.418 46.0233C166.59 45.8702 165.734 46.0186 165.004 46.442C164.275 46.8654 163.72 47.5359 163.439 48.333C163.158 49.1301 163.17 50.0015 163.473 50.7906C163.643 51.1212 163.877 51.4143 164.162 51.6526C164.447 51.8909 164.777 52.0697 165.131 52.1782C165.486 52.2868 165.859 52.323 166.228 52.2848C166.597 52.2465 166.954 52.1345 167.28 51.9554L168.498 54.2849C167.886 54.613 167.215 54.8133 166.524 54.8733C165.833 54.9333 165.137 54.8519 164.479 54.634C163.82 54.4162 163.213 54.0665 162.693 53.606C162.173 53.1455 161.752 52.584 161.455 51.9554C160.667 50.5906 160.453 48.9678 160.858 47.4442C161.263 45.9205 162.255 44.6208 163.615 43.8308C164.976 43.0408 166.594 42.8252 168.113 43.2316C169.631 43.6381 170.927 44.6332 171.715 45.998" fill="white"/>
<path d="M167.984 66.0662L176.702 63.2594L175.484 59.4596L177.654 58.7722L180.928 69.0259L178.777 69.7133L177.539 65.8753L168.821 68.6822L167.984 66.0662Z" fill="white"/>
<path d="M182.646 78.243L171.331 79.7979L171.705 82.5409L183.021 80.9861L182.646 78.243Z" fill="white"/>
<path d="M172 95.6818C172.042 94.5083 172.43 93.3738 173.115 92.4215C173.8 91.4692 174.75 90.7419 175.847 90.3315C176.944 89.9212 178.137 89.8461 179.277 90.1159C180.416 90.3857 181.45 90.9883 182.248 91.8474C183.046 92.7065 183.572 93.7836 183.759 94.9425C183.947 96.1015 183.788 97.2903 183.303 98.3587C182.817 99.4271 182.027 100.327 181.031 100.945C180.036 101.563 178.88 101.871 177.711 101.83C176.924 101.832 176.146 101.671 175.424 101.358C174.702 101.044 174.053 100.584 173.517 100.007C172.981 99.4294 172.57 98.7474 172.308 98.0032C172.047 97.2589 171.942 96.4686 172 95.6818ZM181.518 96.1019C181.518 94.1925 180.242 93.0085 178.129 92.9131C177.698 92.8337 177.255 92.8476 176.829 92.9539C176.403 93.0601 176.005 93.2562 175.661 93.5291C175.317 93.802 175.035 94.1454 174.833 94.5364C174.632 94.9274 174.516 95.3569 174.494 95.7963C174.494 97.7057 175.75 98.9087 177.863 99.0041C178.294 99.0687 178.734 99.042 179.154 98.9258C179.574 98.8096 179.965 98.6065 180.302 98.3295C180.639 98.0525 180.914 97.7078 181.111 97.3175C181.307 96.9273 181.42 96.5002 181.442 96.0637" fill="white"/>
<path d="M173.18 117.201L179.786 119.015L179.119 121.459L168.098 118.423L168.688 116.303L177.102 113.115L170.078 111.186L170.763 108.723L181.765 111.759L181.061 114.318L173.18 117.201Z" fill="white"/>
<path d="M163.568 136.562L163.53 136.639L169.259 142.081L167.965 144.41L159.475 136.18L160.941 133.603L168.574 135.588L168.612 135.531L162.94 130.013L164.386 127.473L175.788 130.49L174.437 132.877L166.804 130.796L166.766 130.872L172.457 136.41L171.239 138.567L163.568 136.562Z" fill="white"/>
<path d="M150.034 147.618C150.836 146.752 151.876 146.146 153.023 145.875C154.17 145.604 155.371 145.682 156.474 146.097C157.576 146.513 158.531 147.249 159.216 148.21C159.901 149.172 160.285 150.316 160.32 151.497C160.355 152.678 160.039 153.843 159.412 154.844C158.785 155.844 157.876 156.635 156.8 157.116C155.723 157.597 154.529 157.746 153.368 157.543C152.208 157.341 151.133 156.798 150.281 155.981C149.694 155.463 149.22 154.829 148.888 154.119C148.555 153.408 148.372 152.638 148.349 151.853C148.325 151.069 148.463 150.289 148.753 149.56C149.043 148.832 149.479 148.171 150.034 147.618ZM156.886 154.148C157.457 153.698 157.877 153.083 158.089 152.386C158.302 151.689 158.297 150.944 158.074 150.25C157.852 149.556 157.424 148.947 156.847 148.505C156.27 148.062 155.571 147.808 154.846 147.775C154.12 147.742 153.402 147.933 152.787 148.321C152.173 148.71 151.692 149.278 151.408 149.949C151.125 150.619 151.052 151.361 151.202 152.074C151.351 152.788 151.714 153.438 152.242 153.938C152.518 154.281 152.863 154.562 153.256 154.761C153.648 154.96 154.078 155.073 154.517 155.093C154.956 155.113 155.394 155.039 155.803 154.876C156.211 154.713 156.581 154.465 156.886 154.148Z" fill="white"/>
<path d="M134.463 160.736C135.133 161.14 135.7 161.696 136.119 162.359C136.229 162.575 136.388 162.763 136.584 162.906C136.78 163.05 137.006 163.145 137.246 163.184C137.485 163.223 137.73 163.205 137.961 163.131C138.192 163.057 138.402 162.93 138.575 162.76L140.478 161.48L138.251 158.177L140.497 156.668L146.874 166.216L142.287 169.29C139.831 170.951 137.87 170.607 136.576 168.774C136.135 168.209 135.932 167.493 136.01 166.779C136.089 166.066 136.442 165.411 136.995 164.955C136.491 165.208 135.914 165.269 135.368 165.129C134.823 164.989 134.346 164.656 134.025 164.192C132.959 162.874 132.598 162.454 132.122 162.282L134.463 160.736ZM139.698 164.554C138.518 165.356 138.156 166.101 138.784 167.037C139.412 167.972 140.25 167.953 141.43 167.151L143.333 165.815L141.601 163.218L139.698 164.554Z" fill="white"/>
<path d="M118.912 168.317L123.899 171.448L124.489 169.978L123.156 166.637L125.726 165.625L129.914 176.279L127.344 177.291L125.574 172.766L123.252 178.914L120.301 180.079L122.719 173.854L115.847 169.52L118.912 168.317Z" fill="white"/>
<path d="M108.557 175.496C108.481 175.175 108.339 174.874 108.142 174.612C107.944 174.349 107.694 174.13 107.408 173.968C107.122 173.807 106.806 173.707 106.48 173.674C106.153 173.641 105.823 173.676 105.511 173.777C104.312 173.987 103.607 174.579 103.779 175.324C103.95 176.068 104.597 176.145 105.682 176.164H107.852C108.692 176.07 109.535 176.302 110.208 176.814C110.881 177.326 111.332 178.077 111.469 178.914C111.85 181.129 110.346 182.732 107.662 183.267C104.597 183.802 102.675 182.561 102.199 180.059L104.692 179.563C104.744 179.847 104.855 180.117 105.018 180.354C105.182 180.592 105.395 180.791 105.642 180.94C105.889 181.088 106.165 181.182 106.451 181.214C106.737 181.247 107.026 181.217 107.3 181.128C108.461 180.938 109.013 180.365 108.88 179.601C108.747 178.837 108.233 178.799 107.376 178.78H105.206C102.846 178.78 101.59 177.806 101.266 175.954C100.885 173.624 102.694 172.135 105.263 171.639C108.271 171.123 110.669 172.25 111.126 174.98L108.557 175.496Z" fill="white"/>
</svg>
